<?xml version="1.0" encoding="UTF-8"?>
<svg id="_Слой_1" data-name="Слой 1" xmlns="http://www.w3.org/2000/svg" viewBox="0 0 550 550">
  <defs>
    <style>
      .cls-1 {
        fill: #afafaf;
      }
    </style>
  </defs>
  <path class="cls-1" d="M196.12,430.09l-37.11,8.61c-42.86-.56-85.64.34-128.62.06-4.57-.03-10.3.33-14.68-.02s-4.83-4.48-.67-5.17l37.73-.09v-3.39s1.5,0,1.5,0v-41.38h15.8v41h8.65l-.38-40.62h5.27c.1.28-.38.45-.38.56v40.06h8.65l-.37-41c1.48.6,3.39.6,4.88,0l-.37,41h9.41l-.76-40.06.37-.77,4.54-.17-.38,41h9.03l-.16-41.01h4.68s.19,41.01.19,41.01h8.47v-41h14.49c.11,0,.29-.48.56-.38v41.38h3.76v-40.25l-4.31-1.52-92.77.02-.37-3.01h95.01c.23,0,3.21,2.32,3.83,2.58l1.22-.94c.19-1.08-2.56-1.64-2.25-2.94.79-12.48-.97-26.07,0-38.41.06-.72.22-1.36.39-2.05h54.37c.17,0,2.03-1.66,2.82-2.08,9.05-4.76,33.74-4.75,44.59-5.08,22.55-.68,45.99-.69,68.48,1.14,7.94.65,16.93,1.21,23.31,6.03l53.39.04c.88.3.95,1.58,1.02,2.37,1.12,12.45-.89,26.53,0,39.16l-2.25,3.32.73.83c1.25.64,4.67-3.97,5.07-3.97h93.5v3.01h-93.13c-.25,0-3.45,2.71-3.95,3.2v38.18h4.14v-40.62h14.49c.11,0,.29-.48.56-.38v41.38h9.41l-.75-41,4.89.38c.22.53-.37,1.12-.37,1.31v39.31h9.03l-.37-41c1.29,1.04,3.45-.05,4.33.01s.18.88.18.93v40.06h9.03l-.76-40.05c.25-1.66,3.51.22,4.9-.95v41h9.03l-.37-41c1.48.66,3.2.51,4.69,0l-.18,41.01h8.84l.19-41h15.43c.1.28-.38.45-.38.56v40.81l1.13-.38v3.76s39.24.09,39.24.09c4.18,1.23,3.16,4.91-1.05,5.18-1.35.09-2.39-.4-3.38-.37-47.05,1.47-94.58-1.23-141.85.16l-40.45-8.81v-83.32c-1.51-.83-4.28-.78-6.02-.18-.15-3.31-5.24-4.11-7.9-4.71-24.74-5.52-54.65-2.56-79.98-3.59-7.55.9-43.4,1.43-47.48,6.51-.44.55-.31,1.69-.71,1.8-1.62.21-3.5-.25-5.02-.24-.44,0-.49.03-.77.41v82.94c-1.5.41-2.96.66-4.52.75l.38-83.32-.55-.84c-3.11.75-6.46.05-9.6.06-.44,0-.49.03-.77.41v83.13c.33.54.75.52,1.3.58,2.35.28,6.78.13,9.24-.02ZM155.48,430.09h9.59l.55-83.7c-.57-.92-.79-.18-.93-.18h-9.22v83.88ZM169.78,430.09h11.1l.56-.56v-83.13l-.55-.47c-3.56.46-7.58.53-11.12-.09v84.26ZM363.56,345.84c-1.72,1.31-10-.73-10.75.35l-.16.59.57,83.32h10.35v-84.26ZM378.99,345.84c-3.29.62-7.06.55-10.36.09l-.55.47v83.69h10.91v-84.26ZM383.5,430.09h9.97l.56-.56v-83.13c-.52-.86-.81-.19-.94-.19h-9.03c-.11,0-.29-.48-.56-.38v84.26Z"/>
  <path class="cls-1" d="M207.97,289.79c.47-.05,1.19-.46,1.69-.56-5.87-1.96-4.03-4.78,1.13-5.46l-.7-1.75c-.13-1.3,4.81-2.64,5.97-2.95,11.87-3.21,26.28-3.5,38.59-3.93,21.14-.74,42.88-.96,63.95,1.49,3.6.42,18.04,2.48,20.14,4.7.98,1.03-.32,1.36-.38,2.44,4.81.81,6.74,4.18.75,4.9.08.59,2.16,1.12,2.45,1.12h103.29c.56,2.07-.75,1.76-.75,1.88v8.09c0,.08.56.43.38.56l-29.51.39-.22-1.51h-11.48l-1.69,2.45c.13.44,1.12.5,1.12.56v10.91h1.88v-11.28l78.64-.38v-1.5h9.41c.67,1.53-.72,2.32-.78,2.8-.41,3.12.36,7.14.03,10.37h9.03c-.22,1.18-1.66,2.56-2.8,2.65l-96.74-.04c-1.55-.43-2.61,3.31-3.05,3.42l-51.85-.02-5.86-3.25-.33-17.64c-.82-1.39-6.48-2.66-8.23-3.06-21.01-4.79-47.92-4.47-69.48-3.86-14.13.4-36.14.41-49.32,4.86-1.22.41-3.68,1.13-3.93,2.47l-.06,17.06c-2.13.7-4.33,1.37-5.48,3.44l-52.34-.09c-.84-1.18-1.17-3.3-2.88-3.32l-97.87.04c-1.45,0-1.92-1.7-2.8-2.65h9.03c-.33-3.23.44-7.25.03-10.37-.06-.48-1.45-1.26-.78-2.8h9.78c.08,0-.22,1.15.62,1.45l77.64.43v11.28l2.26-.38c-.75-3.44-.44-7.4,0-10.91l1.12-.18-1.5-2.45h-12.04v1.51s-29.35-.38-29.35-.38c-.19-.13.38-.48.38-.56v-8.09h-1.13s.38-1.88.38-1.88h103.66ZM346.63,296.56c.49-5.54-7.45-7.09-11.66-8.09-23.05-5.49-53.99-5.16-77.71-4.33-14.86.52-35.92,1.27-49.84,6.23-2.82,1-6.3,2.09-5.1,5.81,3.17-2.6,7.82-3.52,11.78-4.39,23.68-5.25,52.43-5.03,76.65-4.26,12.31.39,42.38,1.25,52.61,6.84.54.29,3.01,2.49,3.26,2.19ZM394.42,297.69h-48.35c-.14,0-.67-.91-.93-.75l-.75,1.3c.43.54,2.25,2.09,2.25,2.65v14.11h47.79v-17.3ZM202.71,297.69c-15.99-.11-31.99.08-47.97,0v17.3h47.79v-14.48c0-.18,1.97-1.83,2.25-2.26.47-1.12-1.94-.56-2.07-.56ZM67.44,302.95h-1.88v8.65h1.88v-8.65ZM68.94,311.61l2.27-.16.31-7.87c-.31-.94-1.77-.57-2.58-.62v8.65ZM72.7,302.95v8.09c.19.56,2.57.57,2.61,0l-.07-7.55-.52-.49-2.02-.05ZM76.47,311.61c3.28-.27,2.27.27,2.24-2.43-.02-1.86-.14-3.87.3-5.68l-.52-.49-2.02-.05v8.65ZM82.49,302.95h-2.26v8.65c.85-.46,1.41-.46,2.26,0v-8.65ZM86.25,302.95h-2.26v8.65l2.26-.17c.59-.49,0-.63,0-.77v-7.71ZM90.01,302.95h-2.26v8.65h2.08s.55-.56.55-.56c0-.14-.37-.26-.37-.38v-7.71ZM93.77,302.95h-2.26v8.65c.85-.46,1.41-.46,2.26,0v-8.65ZM97.54,302.95h-2.26v8.65c.86-.23,1.43-.48,2.26,0v-8.65ZM99.04,311.61l2.61-.56c-.64-2.29-.49-5.18-.08-7.55l-.52-.49-2.02-.05v8.65ZM102.81,311.61l2.62-.56c-.66-2.28-.49-5.18-.08-7.55l-.52-.49-2.02-.05v8.65ZM106.57,302.95v8.65l2.02-.05.52-.49c-.44-2.51-.53-5.45.1-7.91l-2.64-.19ZM110.33,302.95v8.09c.21.74,2.5.62,2.55.02l.04-7.51c-.2-.85-1.88-.58-2.59-.59ZM114.09,311.61l2.27-.17.31-7.87c-.31-.94-1.77-.57-2.58-.62v8.65ZM117.86,311.61l2.61-.56c-.64-2.29-.49-5.18-.08-7.55l-.52-.49-2.02-.05v8.65ZM123.88,302.95h-2.26v8.65h2.26v-8.65ZM127.64,302.95h-2.26v8.65h2.26v-8.65ZM131.4,302.95h-2.26v8.65h2.26v-8.65ZM420,302.95h-2.63v8.09c0,.77,2.63.77,2.63,0v-8.09ZM423.77,302.95h-2.63v8.65c.88-.14,2.04.14,2.63-.56v-8.09ZM424.89,311.61c.81-.05,2.27.32,2.58-.62l-.3-7.87-2.28-.16v8.65ZM430.91,302.95h-2.26v8.65h2.26v-8.65ZM434.68,302.95h-2.26v8.65l2.03-.02c.92-.47.22-.8.22-.92v-7.71ZM438.44,311.61v-7.71c0-.09.3-.22.29-.38l-.52-.52-2.03-.05v8.65h2.26ZM442.2,302.95h-2.26v8.65h2.26v-8.65ZM445.97,302.95h-2.26v8.65h2.26v-8.65ZM449.73,302.95h-2.26v8.65h2.26v-8.65ZM451.23,311.61l2.02-.05.52-.49v-7.56l-.52-.49-2.02-.05v8.65ZM457.25,302.95h-2.26v8.65h2.26v-8.65ZM461.02,302.95h-2.26v8.65h2.26v-8.65ZM464.78,302.95h-2.26v8.65h2.26v-8.65ZM468.54,302.95h-2.26v8.65h2.26v-8.65ZM470.05,311.61c.81-.05,2.27.32,2.58-.62l-.3-7.87-2.28-.16v8.65ZM476.44,302.95h-2.63v8.65c.91-.03,2.02.29,2.63-.56v-8.09ZM479.83,302.95h-2.26v8.65h2.26v-8.65ZM483.59,302.95h-2.26v8.65c.81.01,1.74.2,2.26-.56v-8.09Z"/>
  <path class="cls-1" d="M283.87,213.13c-.48.81.19,5.04-.08,6.32,2.13-.21,4.14.55,6.11,1.22,10.26,3.51,20.97,12.51,27.52,21.01,7.77,10.08,12.93,21.77,14.15,34.56l-19.55-2.65c-1.47-18.66-6.9-37.64-21.28-50.38-.6.35.14.84.34,1.16,1.6,2.59,3.64,4.92,5.27,7.52,7.85,12.53,11.57,26.58,12.26,41.35l-31.64-1.31-1.38-53.51c-.53-1.17-1.53-1.19-2.07,0-.72,1.57-.18,6.64-.27,8.76-.33,8.32-.65,16.85-.78,25.17-.1,6.58.11,13.18.02,19.77l-31.98,1.13c.55-17.96,6.3-35.77,18.06-49.47.06-.28-.39-.26-.56-.18-.38.17-4.33,4.22-4.9,4.88-4.94,5.72-9.27,13.96-11.57,21.16-2.5,7.82-3.49,15.8-4.06,23.97-6.82.26-13.7,1.27-20.3,3.03,1.81-19.86,12.51-37.28,28.63-48.67,5.68-4.01,12.23-7.44,19.15-8.51-.21-1.77.31-4.15,0-5.82-.21-1.09-1.31-1.22-1.47-2.21.29-1.68,6.86-3.1,8.44-3.24,4.32-.38,10.05.33,13.56,2.99.34,1.13-1.49,1.71-1.64,1.97Z"/>
  <path class="cls-1" d="M148.15,317.62c.09,0,.36-.46.52-.35.6,1.05,1.73,3.9,2.87,4.12l51.95.02c6.54-4.9,15.93-5.55,24.06-6.41,31.39-3.32,71.19-3.9,102.28,1.19,5.02.82,11.95,1.38,15.14,5.59,17.45-.89,35.13-.16,52.67-.37,1.66-.17,2.77-2.32,3.18-3.78h96.51c.15,0,.66-.97.56.18-.39.93-1.54,1.77-1.91,2.61-.54,1.23-.63,13.58-.37,15.47.2,1.46,2.23,2.27.2,3.92-.96.79-9.61.31-11.67.37-21.4.63-43.01.29-64.34.41-4.85-1.29-11.53.48-16.15-.4-.76-.15-1.22-.56-1.34-1.33l.38-17.84-2.62,2.83.21,14.68-2.75,2.73c-17.87.11-35.81.23-53.65-.29-.37-.69-2.9-4.43-2.9-4.71v-9.97l1.13.75c.87-4.42-2.65-4.67-6.01-5.26l.37,15.04-2.21-.42-.21-15.4-7.74-1.1v14.86c0,.08.56.43.38.56-.56-.03-1.15.06-1.71.02-.48-.04-1.46.09-1.58-.57l.12-15.25-9.62-1.12v15.8h-3.76s.38-16.18.38-16.18l-10.91-.37v15.8h-3.76v-16.17h-10.72c-.11,0-.29-.48-.56-.38v15.8h-4.14c-.19-.14.38-.48.38-.56v-15.23h-12.04v16.17h-4.14s0-16.17,0-16.17l-11.29.38v15.61c0,.08.56.43.38.56h-4.14s0-15.79,0-15.79l-10.91.75.4,15.19-3.79.61v-15.42s-9.41.75-9.41.75v15.05l-3.01.75v-15.42l-7.51,1.15-.04,15.38-2.61.39.37-15.04c-2.94.9-6.6.59-6.05,4.73.1.72.72.36.81,1.08.2,1.61.2,7.1-.05,8.66-.09.59-2.59,5.05-2.88,5.11-.75.2-1.6-.28-2.25-.25-14.36.59-28.85.1-43.19-.16-1.78-.03-6.36.65-7.47.32-.31-.09-2-1.68-2.17-1.97-1.32-2.3.32-12.49-.43-15.74l-2.55-2.52c.27,4.97-.38,10.32-.02,15.24.08,1.1,1.58,3.2-.62,3.87-1.91.58-8.31-.02-10.85.06-21.89.65-44.25.47-66.19,0-4.35-.09-10.26.56-14.33.03-1.26-.16-1.9-.96-2.3-2.09l1.37-2.26c-.52-4.26,1.16-9.81.38-13.9-.15-.81-2.48-3.71-3.37-3.96-.24-1.34.19-.37.56-.37h96.7ZM405.33,320.63v16.93c2.35-.95,4.91-.05,7.32.01,24.06.59,50.58.8,74.51-.4,1.94-.1,3.91.1,5.85.02-.15-5.33-.94-10.91,0-16.17l-87.67-.38ZM144.2,321.01H56.52c.56,5.39.44,10.8,0,16.18,4.34-.32,8.67.3,12.96.39,24.88.5,49.83-.4,74.71-.01v-16.55ZM160.75,326.28h-7.15v10.53h7.15v-10.53ZM173.92,326.28h-7.15v10.53h7.15v-10.53ZM186.71,326.28h-6.58c-.35.24-.56.94-.56,1.32v9.22h6.58c.11,0,.29.48.56.38v-10.91ZM199.88,326.28h-7.15v10.53h7.15v-10.53ZM356.41,326.28h-7.15v10.91c2.3-.39,4.92-.76,7.15,0v-10.91ZM369.21,326.28h-6.77v10.53h7.15c.1-.28-.38-.45-.38-.56v-9.97ZM382.75,326.28h-7.15v10.53h6.21c.09,0,.22.31.38.3l.56-.48v-10.34ZM395.54,326.28h-7.15v10.34c.52.86.81.19.94.19h6.21v-10.53Z"/>
  <path class="cls-1" d="M255.95,429.72l-.03-4.68,1.18-.41v-75.99c-1.7-2.22-.59-3.29-.94-5.45-.27-1.67-1.22-1.67-1.72-2.99l13.54-.38c.05,1.35-1.28.56-1.92,2.03-.74,1.72,0,3.68-.35,5.22-.06.28-.98.74-1.13,2.7-.92,12.26.44,26.09.35,38.42l-.34,36.63,1.15.21-.03,4.69h17.85s.19-4.69.19-4.69l1.16-.21c-.28-.56-.38-1.03-.4-1.67-.65-24.54,1.37-50.11.04-74.51-.08-1.54-.33-5.03-.85-6.3-.45-1.11-.89-1.65-2.18-1.78.21-.83,1.02-.71,1.67-.77,3.99-.34,8.52.91,12.62.4l-2.56,2.52c-.54,1.85.74,4.18-.86,5.54v76.37s1.16.21,1.16.21l-.38,4.89h15.05c.24-1.88-.69-4.07.78-5.43v-74.9c-1.23-1.79-.35-4.04-1.07-5.72-.58-1.35-2.08-1.22-2.73-2.35l13.92.38c-.34.93-1.92,1.66-2.18,2.52-.2.68-.42,4.79-.47,5.93-1.15,24.39.92,49.66-.01,74.14,1.47,1.35.55,3.55.78,5.43,2.1-.18,3.96.08,5.78,1.18l12.28,7.84-119.27-.38,13.65-8.36,2.16-.29c.24-1.88-.69-4.07.78-5.43.34-22.69-.55-45.44-.05-68.13.08-3.6.49-3.64-.35-7.2-.62-2.64,1.54-5.48-2.64-6.32.62-1.38,12.32-1.31,14.29-1.32l-2.35,2.35c-.26,2.07-.46,3.48-1.43,5.34v75.27c1.46,1.35.53,3.55.77,5.43h15.05Z"/>
  <path class="cls-1" d="M339.48,344.34l-1.88,1.87c.75.06,4.14-.3,4.13.57l-1.49,1.89c.27,24.81-1.63,50.86-.4,75.62.09,1.73.59,3.43.44,5.2l38.71,9.26c-8.08-.13-16.2.18-24.28.02-3.54-.07-10.4.17-13.51-.41-1.53-.29-6.95-4.05-8.85-5.07-1.76-.94-3.71-1.92-5.65-2.44l1.51-.37c.2-1.85-.65-3.76.78-5.05l-.02-77.53c.18-2.2-1.51-3.18-2.65-4.68l13.17,1.13Z"/>
  <path class="cls-1" d="M169.78,438.74l12.41-3.2c7.75-1.28,15.92-4.23,23.62-5.35,1.28-.19,2.57-.07,3.85-.1-.37-1.72-.98-3.41.41-4.67v-70.01c-1.41-1.31-.61-3.38-.79-5.24s-.65-2.67-1.88-3.95h4.14s-1.88-1.88-1.88-1.88l14.67-1.13c-2.37,2.15-3.48,2.75-3.78,6.19v76.35s1.17.41,1.17.41l-.03,4.31,2.26.37c-5.65,1.86-10.94,4.8-15.99,7.9h-38.19Z"/>
  <path class="cls-1" d="M54.27,340.95c3.46.36,7.78-.47,11.13-.03.7.09.49.7.8.77,1.07.25,2.71-.16,3.88,0v41h-15.8v-41.75Z"/>
  <path class="cls-1" d="M494.88,382.7h-15.05v-41c.97-.13,2.23.2,3.13,0,.3-.07.1-.68.8-.77,3.45-.45,7.71.7,11.13-.35v42.13Z"/>
  <path class="cls-1" d="M146.08,340.95v41.75h-14.67v-41c.83-.13,2.02.2,2.76,0,.4-.11.21-.76.25-.76h11.66Z"/>
  <path class="cls-1" d="M415.11,340.95s-.15.65.25.76c.74.2,1.93-.13,2.76,0v41h-14.67v-41.75c1.67.34,10.98-.45,11.66,0Z"/>
  <path class="cls-1" d="M278.52,125.79l-2.95,2.5,4.45,71.22c-3.73-.62-7.55-.48-11.29,0l4.55-70.53c0-1.73-2.23-1.98-3.04-3.19,3.04,1,5.24.66,8.28,0Z"/>
  <polygon class="cls-1" points="253.31 298.44 253.31 307.84 220.58 310.1 220.58 300.7 253.31 298.44"/>
  <path class="cls-1" d="M327.82,300.7v9.4c-10.44-1.57-21.05-1.87-31.61-2.26v-8.46c0-.28.18-1.2.55-1.24,10.33.54,20.75,1.35,31.06,2.55Z"/>
  <path class="cls-1" d="M83.24,341.7v41h-4.52c-.15-13.66.37-27.4-.38-41h4.89Z"/>
  <path class="cls-1" d="M96.41,341.7v41l-4.52-.37c0-13.55.14-27.12-.38-40.63h4.89Z"/>
  <path class="cls-1" d="M122.75,341.7v39.68c0,.34-.16,1.15-.6,1.26l-3.91.06c-.15-13.66.37-27.4-.38-41h4.89Z"/>
  <rect class="cls-1" x="453.11" y="341.7" width="4.52" height="41"/>
  <path class="cls-1" d="M444.46,341.7v41c-1.4-.68-3.01-.29-4.52-.38v-40.62h4.52Z"/>
  <path class="cls-1" d="M431.29,382.7l-3.96-.08-.54-.48c.29-.45.38-.96.38-1.49.02-7.84-.58-15.68,0-23.33l-.4-15.62h4.89c.19.13-.38.48-.38.56v40.44Z"/>
  <path class="cls-1" d="M109.58,341.7l-.1,40.45c-.18.98-3.53.4-4.42.55l-.38-41h4.89Z"/>
  <path class="cls-1" d="M470.8,341.7v41h-4.14v-40.44c0-.08-.56-.43-.38-.56h4.52Z"/>
  <rect class="cls-1" x="270.25" y="409.78" width="8.65" height="18.43"/>
  <path class="cls-1" d="M270,122.65c-6.28-5.8,2.78-15.71,9.09-9.65,6.15,5.91-2.78,15.46-9.09,9.65Z"/>
  <path class="cls-1" d="M281.53,351.85v9.78h-13.92c-.1-.28.38-.45.38-.56v-9.22h13.55Z"/>
  <rect class="cls-1" x="267.99" y="362.76" width="13.55" height="9.78"/>
  <path class="cls-1" d="M273.54,294.01c3.62-.53,8.4,2.95,9.03,6.59,2.13,12.39-15.23,13.23-16.38,2.44-.44-4.1,3.42-8.45,7.35-9.03ZM280.4,297.32c-.31-.37-1.81,1.04-1.5,1.49,1.38.52,1.87,1.2,1.65,2.65l1.73.74c.64-2.73-3.02-2.67-1.88-4.89ZM274.79,306.37c5.66-.5,5.44-8.89-.2-8.7-5.4.18-5.91,7.45-.62,8.33l.04,3.72.75-1.12,1.5.75-.75-.94,1.12-.57-1.88-.37.03-1.1ZM267.99,301.07l-1.12-.75c.37,1.25,1.08,1.58.37,3.01.95.44.67-.73.91-.72l.96.34c-.58-.94-.41-4.21-1.13-1.88ZM269.49,304.47l-.75.19c.06.9,1.26.84,0,2.06l1.45.05.43,1.45.38-1.13,2.25.75-2.26-1.13.38-1.5c-.83.41-1.88.37-1.88-.75ZM280.03,305.59c-.81-.87-1.98.87-2.95.8l-.06,1.82.75-1.13c2.11.42,1.07.51,1.52-.44.15-.31,1.3-.44.73-1.06Z"/>
  <path class="cls-1" d="M262.34,204.22c.54-1.94,7.8-2.72,9.6-2.82,2.34-.13,13.35.26,14.23,2.34.77,1.81-.31,4.16.63,5.93-.34.29-2.1-1.36-2.68-1.64-5.75-2.85-16.62-2.58-21.78,1.65v-5.45Z"/>
  <path class="cls-1" d="M281.53,373.29v9.03h-13.92c-.1-.28.38-.45.38-.56v-8.46h13.55Z"/>
  <rect class="cls-1" x="265.35" y="389.09" width="18.81" height="6.39"/>
  <path class="cls-1" d="M281.53,343.58v7.52h-13.55v-6.96c0-.11-.48-.29-.38-.56h13.92Z"/>
  <path class="cls-1" d="M281.53,428.21h-1.88v-21.63c0-.12-1.07-1.75-1.26-1.94-1.4-1.41-4.4-1.69-6.17-.97-.94.38-2.73,2.74-2.73,3.67v20.88h-1.88c1.29-6.68-.43-14.61.37-21.26.35-2.92,4.02-5.86,6.93-5.79,2.05.05,6.62,3.09,6.62,5.04v22Z"/>
  <polygon class="cls-1" points="253.31 362.76 253.31 372.92 243.53 372.92 243.53 363.14 253.31 362.76"/>
  <path class="cls-1" d="M295.83,362.76l9.78.38c-.59,3.03.36,6.53,0,9.78h-9.22l-.56-.56v-9.59Z"/>
  <path class="cls-1" d="M253.31,361.45c.01.11.57.42.38.56l-10.16.38v-9.4l9.78-.75c.28,2.88-.38,6.42,0,9.22Z"/>
  <path class="cls-1" d="M253.69,407.52c.19.14-.38.48-.38.56v8.84h-9.78v-9.4h10.16Z"/>
  <path class="cls-1" d="M295.83,352.23l9.78.75c.1,3.13-.15,6.29,0,9.4l-9.78-.37v-9.78Z"/>
  <polygon class="cls-1" points="305.62 416.93 295.83 416.93 295.83 407.52 305.05 407.52 305.62 408.09 305.62 416.93"/>
  <path class="cls-1" d="M305.62,373.67v9.4c-3.24-.48-6.51-.39-9.78-.37v-9.03h9.78Z"/>
  <path class="cls-1" d="M253.31,397.37v9.4h-9.78v-9.03h8.47c.19,0,.79-.59,1.32-.38Z"/>
  <path class="cls-1" d="M305.62,397.74v9.03h-9.78v-9.4c.28-.1.45.38.56.38h9.22Z"/>
  <path class="cls-1" d="M253.69,417.68c.19.14-.38.48-.38.56v8.46h-9.78v-9.03h10.16Z"/>
  <path class="cls-1" d="M243.53,373.67h10.16c.19.14-.38.48-.38.56v7.52c0,.13.67.42-.19.94h-9.59v-9.03Z"/>
  <rect class="cls-1" x="295.83" y="417.68" width="9.78" height="9.03"/>
  <polygon class="cls-1" points="263.1 298.06 263.1 307.47 254.82 307.85 254.44 298.06 263.1 298.06"/>
  <polygon class="cls-1" points="295.08 298.06 295.08 307.84 286.8 307.47 286.8 298.06 295.08 298.06"/>
  <path class="cls-1" d="M305.62,389.85v7.15l-9.78-.38v-7.15c3.22.59,6.51.33,9.78.38Z"/>
  <polygon class="cls-1" points="325.93 354.86 325.93 364.27 318.79 363.89 318.79 354.11 325.93 354.86"/>
  <polygon class="cls-1" points="253.31 344.71 253.31 351.48 243.53 352.23 243.53 345.08 253.31 344.71"/>
  <polygon class="cls-1" points="325.93 365.02 325.93 374.42 318.79 374.05 318.79 364.64 325.93 365.02"/>
  <path class="cls-1" d="M230.36,364.64v9.4l-7.15.38v-8.84c1.9-.95,4.92-.74,7.15-.94Z"/>
  <path class="cls-1" d="M253.69,389.85c.19.14-.38.48-.38.56v5.64c0,.11.48.29.38.56h-9.59c-.11,0-.29.48-.56.38v-7.15h10.16Z"/>
  <polygon class="cls-1" points="230.36 354.49 230.36 363.89 223.21 364.27 223.21 355.24 230.36 354.49"/>
  <path class="cls-1" d="M295.83,351.48v-6.77c2.66.36,6.33-.01,8.84.37.38.06.72.13.85.55-.69.88.48,6.43-.49,6.58l-9.2-.73Z"/>
  <rect class="cls-1" x="271.38" y="319.88" width="6.4" height="10.16"/>
  <path class="cls-1" d="M230.36,417.3h-7.15v-9.03h6.58c.11,0,.29-.48.56-.38v9.4Z"/>
  <rect class="cls-1" x="318.79" y="408.28" width="7.15" height="9.03"/>
  <polygon class="cls-1" points="325.93 375.18 325.93 384.2 318.79 383.83 318.79 374.8 325.93 375.18"/>
  <path class="cls-1" d="M230.36,374.8v9.03l-7.15.38v-8.46c1.9-1.03,4.89-.5,7.15-.94Z"/>
  <path class="cls-1" d="M262.72,320.26v9.78h-5.83c-.11,0-.29.48-.56.38v-10.16h6.4Z"/>
  <polygon class="cls-1" points="230.36 398.5 230.36 407.52 223.21 407.52 223.21 398.87 230.36 398.5"/>
  <path class="cls-1" d="M325.93,398.87v8.65h-7.15v-9.03c.41-.14.83.38.94.38h6.21Z"/>
  <rect class="cls-1" x="223.21" y="418.06" width="7.15" height="8.65"/>
  <rect class="cls-1" x="318.79" y="418.06" width="7.15" height="8.65"/>
  <polygon class="cls-1" points="292.82 320.26 292.82 330.04 286.8 330.04 286.8 319.88 292.82 320.26"/>
  <polygon class="cls-1" points="247.67 320.63 247.67 330.41 241.65 330.79 241.65 321.01 247.67 320.63"/>
  <path class="cls-1" d="M307.5,321.01v9.78l-6.02-.38c-.08-3.27.23-6.51.38-9.78l5.64.38Z"/>
  <polygon class="cls-1" points="321.04 322.14 321.04 331.92 315.4 331.54 315.4 321.39 321.04 322.14"/>
  <path class="cls-1" d="M233.75,321.76v9.78c-1.87.14-3.88-.37-5.64.38v-9.78l5.64-.38Z"/>
  <path class="cls-1" d="M117.48,350.35c.19.14-.38.48-.38.56v6.77c0,.11.48.29.38.56h-7.15v-7.9h7.15Z"/>
  <path class="cls-1" d="M104.31,350.35c.19.14-.38.48-.38.56v7.33h-6.77v-7.9h7.15Z"/>
  <rect class="cls-1" x="458.76" y="350.35" width="6.77" height="7.9"/>
  <rect class="cls-1" x="445.59" y="350.35" width="6.77" height="7.9"/>
  <rect class="cls-1" x="71.2" y="350.35" width="6.77" height="7.9"/>
  <rect class="cls-1" x="432.42" y="350.35" width="6.77" height="7.9"/>
  <rect class="cls-1" x="419.25" y="350.35" width="6.77" height="7.9"/>
  <path class="cls-1" d="M230.36,346.21v7.52c-2.29-.5-4.77.54-7.15.38v-7.15l7.15-.75Z"/>
  <rect class="cls-1" x="97.16" y="412.79" width="7.15" height="7.15"/>
  <path class="cls-1" d="M91.14,350.35c-.62,2.39-.62,5.52,0,7.9h-6.77v-7.9h6.77Z"/>
  <path class="cls-1" d="M130.27,350.35v7.9h-6.77c-.1-.28.38-.45.38-.56v-7.33h6.4Z"/>
  <rect class="cls-1" x="472.3" y="350.35" width="6.4" height="7.9"/>
  <path class="cls-1" d="M325.93,391.35v6.77h-5.83c-.2,0-.84-.58-1.32-.38v-6.77l7.15.38Z"/>
  <polygon class="cls-1" points="325.93 346.96 325.93 354.11 318.79 353.36 318.79 346.21 325.93 346.96"/>
  <polygon class="cls-1" points="230.36 390.97 230.36 397.74 223.21 398.12 223.21 391.35 230.36 390.97"/>
  <rect class="cls-1" x="202.14" y="366.52" width="5.64" height="8.65"/>
  <rect class="cls-1" x="458.76" y="412.79" width="6.77" height="7.15"/>
  <rect class="cls-1" x="445.59" y="412.79" width="6.77" height="7.15"/>
  <rect class="cls-1" x="110.33" y="412.79" width="6.77" height="7.15"/>
  <rect class="cls-1" x="71.2" y="412.79" width="6.77" height="7.15"/>
  <rect class="cls-1" x="471.93" y="405.27" width="6.77" height="7.15"/>
  <rect class="cls-1" x="97.16" y="405.27" width="7.15" height="6.77"/>
  <rect class="cls-1" x="432.42" y="405.27" width="6.77" height="7.15"/>
  <path class="cls-1" d="M452.36,405.27v6.58c-.24.35-.94.56-1.32.56h-5.46v-7.15h6.77Z"/>
  <path class="cls-1" d="M478.7,412.79v7.15h-6.77v-7.15c2.24-.1,4.72.44,6.77,0Z"/>
  <path class="cls-1" d="M77.97,405.27v7.15c-2.21-.58-4.56-.45-6.77,0v-7.15h6.77Z"/>
  <polygon class="cls-1" points="222.08 323.27 222.08 332.67 217.19 333.42 217.19 323.64 222.08 323.27"/>
  <path class="cls-1" d="M465.53,405.27v7.15c-.28.1-.45-.38-.56-.38h-5.64c-.11,0-.29.48-.56.38v-7.15h6.77Z"/>
  <path class="cls-1" d="M426.02,412.41h-6.77v-6.77h6.21c.11,0,.29-.48.56-.38v7.15Z"/>
  <path class="cls-1" d="M117.1,405.27v7.15c-.28.1-.45-.38-.56-.38h-6.21v-6.77h6.77Z"/>
  <rect class="cls-1" x="432.42" y="413.17" width="6.77" height="6.77"/>
  <rect class="cls-1" x="419.25" y="398.12" width="6.77" height="6.77"/>
  <rect class="cls-1" x="419.25" y="413.17" width="6.77" height="6.77"/>
  <rect class="cls-1" x="419.25" y="375.93" width="6.77" height="6.77"/>
  <rect class="cls-1" x="84.37" y="412.79" width="6.4" height="7.15"/>
  <rect class="cls-1" x="341.74" y="366.52" width="5.27" height="8.65"/>
  <path class="cls-1" d="M130.27,412.79v7.15c-2.07-.95-4.4.7-6.6-.36l-.17-6.78h6.77Z"/>
  <polygon class="cls-1" points="117.1 375.93 117.1 382.7 110.33 382.7 110.33 376.49 110.89 376.06 117.1 375.93"/>
  <path class="cls-1" d="M439.19,375.93v6.77h-6.77v-6.77c2.28.63,4.44-.15,6.77,0Z"/>
  <path class="cls-1" d="M103.93,382.7h-6.77v-6.21l.55-.47,6.44.28c.22.28-.22.48-.22.57v5.83Z"/>
  <path class="cls-1" d="M130.65,405.27c.19.14-.38.48-.38.56v6.58c-.28.1-.45-.38-.56-.38h-6.21c-.1-.28.38-.45.38-.56v-5.64c0-.11-.48-.29-.38-.56h7.15Z"/>
  <path class="cls-1" d="M104.31,404.52h-7.15v-6.39c.69.12,1.33.35,2.05.39.97.06,5.1-.61,5.1.17v5.83Z"/>
  <path class="cls-1" d="M104.31,359c-.61,1.92-.61,4.49,0,6.39h-7.15v-6.39h7.15Z"/>
  <path class="cls-1" d="M465.53,376.3v6.39h-6.77v-6.77c.28-.1.45.38.56.38h6.21Z"/>
  <path class="cls-1" d="M439.19,398.5v6.39h-6.77v-6.77c.28-.1.45.38.56.38h6.21Z"/>
  <path class="cls-1" d="M77.97,382.7h-6.77v-6.39h6.21c.11,0,.29-.48.56-.38v6.77Z"/>
  <path class="cls-1" d="M90.76,405.27v7.15c-.28.1-.45-.38-.56-.38h-5.83v-6.77h6.4Z"/>
  <rect class="cls-1" x="445.59" y="376.3" width="6.77" height="6.39"/>
  <rect class="cls-1" x="419.25" y="359" width="6.77" height="6.39"/>
  <rect class="cls-1" x="110.33" y="359" width="6.77" height="6.39"/>
  <rect class="cls-1" x="71.2" y="359" width="6.77" height="6.39"/>
  <rect class="cls-1" x="432.42" y="359" width="6.77" height="6.39"/>
  <rect class="cls-1" x="458.76" y="359" width="6.77" height="6.39"/>
  <rect class="cls-1" x="445.59" y="359" width="6.77" height="6.39"/>
  <path class="cls-1" d="M452.36,404.89h-6.77v-6.77c1.85.89,4.14.15,6,.15.44,0,.49.03.77.41v6.21Z"/>
  <rect class="cls-1" x="97.16" y="420.31" width="7.15" height="6.02"/>
  <path class="cls-1" d="M465.53,398.12v6.77c-2.03-.61-4.75-.61-6.77,0v-6.77c2.17,1.01,4.45-.39,6.77,0Z"/>
  <polygon class="cls-1" points="331.95 324.02 331.95 333.42 327.44 332.67 327.44 323.27 331.95 324.02"/>
  <path class="cls-1" d="M478.7,398.12v6.39h-6.77v-6.39c2.26.2,4.54.67,6.77,0Z"/>
  <path class="cls-1" d="M77.97,398.12v6.39h-6.77v-6.39c2.2.19,4.62.83,6.77,0Z"/>
  <path class="cls-1" d="M130.27,375.93v6.77h-6.21c-.38-.28-.41-.33-.41-.77,0-1.18.25-2.62.24-3.96,0-.88-.81-1.93.38-1.9,1.9.05,4.13.72,5.99-.15Z"/>
  <path class="cls-1" d="M90.76,382.7h-6.4v-6.77c1.54.61,3.42.41,5.09.38.49,0,1.04-.38,1.12-.37.9.06.18.88.18.93v5.83Z"/>
  <path class="cls-1" d="M130.27,398.12v5.83c0,.11.48.29.38.56h-7.15c.89-1.74.15-3.88.15-5.63,0-.44.03-.49.41-.77h6.21Z"/>
  <rect class="cls-1" x="472.3" y="376.3" width="6.4" height="6.39"/>
  <rect class="cls-1" x="472.3" y="359" width="6.4" height="6.39"/>
  <rect class="cls-1" x="84.37" y="359" width="6.4" height="6.39"/>
  <path class="cls-1" d="M117.1,404.52h-6.77v-6.02h6.21c.11,0,.29-.48.56-.38v6.39Z"/>
  <path class="cls-1" d="M465.53,420.31v6.02h-7.15c-.1-.28.38-.45.38-.56v-5.45h6.77Z"/>
  <rect class="cls-1" x="123.88" y="359" width="6.4" height="6.39"/>
  <path class="cls-1" d="M90.76,398.12v6.39h-6.4v-6.39c1.95.48,4.27-.29,6.4,0Z"/>
  <rect class="cls-1" x="97.16" y="392.1" width="7.15" height="5.64"/>
  <path class="cls-1" d="M130.27,420.31v6.02h-6.77c.61-1.8.61-4.23,0-6.02h6.77Z"/>
  <path class="cls-1" d="M117.1,420.31v6.02h-6.77v-5.45c.28-.38.33-.41.77-.41,1.87,0,4.15.74,6-.15Z"/>
  <rect class="cls-1" x="84.37" y="420.31" width="6.4" height="6.02"/>
  <path class="cls-1" d="M207.79,375.93v7.15c-1.7-.61-3.96-.61-5.64,0v-7.15h5.64Z"/>
  <path class="cls-1" d="M77.97,426.33h-6.77v-5.64h6.21c.11,0,.29-.48.56-.38v6.02Z"/>
  <path class="cls-1" d="M452.36,420.69v5.64h-6.77v-6.02c.28-.1.45.38.56.38h6.21Z"/>
  <rect class="cls-1" x="202.14" y="359" width="5.64" height="6.77"/>
  <rect class="cls-1" x="110.33" y="392.1" width="6.77" height="5.64"/>
  <rect class="cls-1" x="419.25" y="392.1" width="6.77" height="5.64"/>
  <rect class="cls-1" x="432.42" y="392.1" width="6.77" height="5.64"/>
  <rect class="cls-1" x="445.59" y="392.1" width="6.77" height="5.64"/>
  <rect class="cls-1" x="341.74" y="413.17" width="5.64" height="6.77"/>
  <rect class="cls-1" x="202.14" y="413.17" width="5.64" height="6.77"/>
  <rect class="cls-1" x="458.76" y="392.1" width="6.77" height="5.64"/>
  <rect class="cls-1" x="471.93" y="392.1" width="6.77" height="5.64"/>
  <rect class="cls-1" x="471.93" y="420.69" width="6.77" height="5.64"/>
  <rect class="cls-1" x="432.42" y="420.69" width="6.77" height="5.64"/>
  <rect class="cls-1" x="419.25" y="420.69" width="6.77" height="5.64"/>
  <rect class="cls-1" x="71.2" y="392.1" width="6.77" height="5.64"/>
  <rect class="cls-1" x="123.5" y="392.1" width="6.77" height="5.64"/>
  <path class="cls-1" d="M347.38,375.93c.19.14-.38.48-.38.56v6.58c-.95-.61-5.27.44-5.27-.56v-6.58h5.64Z"/>
  <path class="cls-1" d="M207.79,406.02v6.77c-1.76-.75-3.78-.24-5.64-.38v-6.39h5.64Z"/>
  <rect class="cls-1" x="202.14" y="398.87" width="5.64" height="6.39"/>
  <rect class="cls-1" x="341.74" y="398.87" width="5.64" height="6.39"/>
  <rect class="cls-1" x="341.74" y="406.02" width="5.64" height="6.39"/>
  <rect class="cls-1" x="84.37" y="392.1" width="6.4" height="5.64"/>
  <rect class="cls-1" x="341.74" y="359" width="5.27" height="6.77"/>
  <path class="cls-1" d="M202.14,351.48h4.89c.16.16-.12,3.26-.03,3.97.06.48,1.45,1.27.78,2.8h-5.64v-6.77Z"/>
  <path class="cls-1" d="M341.74,358.25c-.64-1.48.64-2.3.66-2.44.13-.7-.11-4.28.3-4.34h4.67c-.61,2.03-.61,4.75,0,6.78h-5.64Z"/>
  <path class="cls-1" d="M270.25,408.65c.09-6.22,8.97-6.09,8.65,0h-8.65Z"/>
  <path class="cls-1" d="M207.79,420.69v5.64h-5.64v-6.02c1.76.75,3.78.24,5.64.38Z"/>
  <rect class="cls-1" x="341.74" y="420.69" width="5.64" height="5.64"/>
  <rect class="cls-1" x="202.14" y="392.48" width="5.64" height="5.64"/>
  <rect class="cls-1" x="341.74" y="392.48" width="5.64" height="5.64"/>
  <path class="cls-1" d="M212.3,325.15v9.78l-2.63.37c-.19-.14.38-.48.38-.56v-8.28c0-.14-.52-.55-.38-.94l2.63-.38Z"/>
  <polygon class="cls-1" points="339.1 325.52 339.1 335.3 337.22 334.93 337.22 325.15 339.1 325.52"/>
  <rect class="cls-1" x="273.63" y="395.86" width="2.26" height="3.01"/>
  <path class="cls-1" d="M179.94,366.52v8.65h-8.65v-8.65c.28-.1.45.38.56.38h7.53c.11,0,.29-.48.56-.38Z"/>
  <rect class="cls-1" x="171.29" y="359" width="8.65" height="7.15"/>
  <path class="cls-1" d="M179.94,375.93v7.15c-.28.1-.45-.38-.56-.38h-7.53c-.11,0-.29.48-.56.38v-7.15h8.65Z"/>
  <rect class="cls-1" x="171.29" y="413.17" width="8.65" height="6.77"/>
  <rect class="cls-1" x="171.29" y="351.48" width="8.65" height="6.77"/>
  <rect class="cls-1" x="171.29" y="406.02" width="8.65" height="6.39"/>
  <rect class="cls-1" x="171.29" y="398.87" width="8.65" height="6.39"/>
  <path class="cls-1" d="M179.94,392.48v6.02c-2.63-.62-6.03-.62-8.65,0v-6.02h8.65Z"/>
  <rect class="cls-1" x="171.29" y="420.69" width="8.65" height="5.64"/>
  <rect class="cls-1" x="186.71" y="366.52" width="8.28" height="8.65"/>
  <path class="cls-1" d="M194.99,359v7.15c-.28.1-.45-.38-.56-.38h-7.71v-6.77h8.28Z"/>
  <rect class="cls-1" x="186.71" y="351.48" width="8.28" height="6.77"/>
  <path class="cls-1" d="M194.99,375.93v7.15c-.28.1-.45-.38-.56-.38h-6.77c-.11,0-.23.36-.38.36l-.55-.55c.95-2.1.03-4.42-.01-6.59h8.28Z"/>
  <path class="cls-1" d="M194.99,413.17v6.77h-8.28c-.1-.28.38-.45.38-.56v-6.21h7.9Z"/>
  <path class="cls-1" d="M194.99,398.87v6.39h-8.28c-.1-.28.38-.45.38-.56v-5.83h7.9Z"/>
  <rect class="cls-1" x="187.09" y="406.02" width="7.9" height="6.39"/>
  <path class="cls-1" d="M194.99,392.48v5.64h-8.28c.98-1.82-.3-3.71,0-5.64h8.28Z"/>
  <rect class="cls-1" x="187.09" y="420.69" width="7.9" height="5.64"/>
  <path class="cls-1" d="M377.86,375.18h-8.28v-8.65h7.71l.48.56c.01.15-.3.28-.3.38v7.15c0,.11.48.29.38.56Z"/>
  <path class="cls-1" d="M377.86,359c-.47,1.97-.36,4.3-.15,6.38l-.41.77h-7.71v-7.15h8.28Z"/>
  <path class="cls-1" d="M377.86,413.17c.19.14-.38.48-.38.56v5.64c0,.11.48.29.38.56h-8.65v-6.77h8.65Z"/>
  <path class="cls-1" d="M377.86,375.93c.19.14-.38.48-.38.56v5.64c0,.12.36.23.37.38l-.37.38c-.26.42-.43-.19-.56-.19h-7.71c-.1-.28.38-.45.38-.56v-5.64c0-.11-.48-.29-.38-.56h8.65Z"/>
  <path class="cls-1" d="M377.86,351.48c.19.14-.38.48-.38.56v5.64c0,.11.48.29.38.56h-8.65c-.1-.28.38-.45.38-.56v-6.21h8.28Z"/>
  <path class="cls-1" d="M377.86,406.02c-.61,1.92-.61,4.49,0,6.39h-8.65v-6.39h8.65Z"/>
  <path class="cls-1" d="M377.48,398.87v5.83c0,.11.48.29.38.56h-8.65v-6.39h8.28Z"/>
  <path class="cls-1" d="M377.48,392.48c.02,1.44-.02,2.89,0,4.34,0,.49.38,1.03.37,1.12-.06.9-.88.18-.93.18h-7.71v-5.64h8.28Z"/>
  <path class="cls-1" d="M377.86,420.69c-.75,1.76-.24,3.77-.38,5.64h-8.28v-5.64h8.65Z"/>
  <rect class="cls-1" x="354.16" y="366.52" width="8.28" height="8.65"/>
  <polygon class="cls-1" points="362.43 359 362.43 365.58 361.87 366.15 354.16 366.15 354.16 359 362.43 359"/>
  <path class="cls-1" d="M362.43,351.48v6.77h-8.28v-6.21c0-.14-.61-.31-.19-.56l.38-.37c.14.01.26.37.38.37h7.71Z"/>
  <rect class="cls-1" x="354.16" y="375.93" width="8.28" height="6.77"/>
  <rect class="cls-1" x="354.16" y="413.17" width="8.28" height="6.77"/>
  <rect class="cls-1" x="354.16" y="406.02" width="8.28" height="6.39"/>
  <rect class="cls-1" x="354.16" y="398.87" width="8.28" height="6.39"/>
  <polygon class="cls-1" points="362.43 392.48 362.43 398.12 354.16 398.12 353.87 393.03 354.34 392.48 362.43 392.48"/>
  <rect class="cls-1" x="354.16" y="420.69" width="8.28" height="5.64"/>
  <rect class="cls-1" x="384.63" y="366.9" width="7.9" height="8.28"/>
  <rect class="cls-1" x="384.63" y="359" width="7.9" height="7.15"/>
  <path class="cls-1" d="M392.53,375.93v7.15c-.28.1-.45-.38-.56-.38h-6.77c-.11,0-.29.48-.56.38v-7.15h7.9Z"/>
  <path class="cls-1" d="M392.53,351.48v6.77h-7.9v-7.15c.28-.1.45.38.56.38h7.34Z"/>
  <rect class="cls-1" x="384.63" y="413.17" width="7.9" height="6.77"/>
  <path class="cls-1" d="M392.53,406.02v6.77c-.28.1-.45-.38-.56-.38h-7.34v-6.39h7.9Z"/>
  <rect class="cls-1" x="384.63" y="398.87" width="7.9" height="6.39"/>
  <path class="cls-1" d="M392.53,392.48v6.02c-2.39-.62-5.53-.62-7.9,0v-6.02h7.9Z"/>
  <rect class="cls-1" x="384.63" y="420.69" width="7.9" height="5.64"/>
  <path class="cls-1" d="M164.14,375.18h-7.15v-8.28h6.58c.11,0,.29-.48.56-.38v8.65Z"/>
  <rect class="cls-1" x="156.99" y="359" width="7.15" height="7.15"/>
  <path class="cls-1" d="M164.14,375.93v7.15c-.28.1-.45-.38-.56-.38h-6.02c-.11,0-.29.48-.56.38v-7.15h7.15Z"/>
  <rect class="cls-1" x="156.99" y="413.17" width="7.15" height="6.77"/>
  <rect class="cls-1" x="156.99" y="351.48" width="7.15" height="6.77"/>
  <rect class="cls-1" x="156.99" y="406.02" width="7.15" height="6.39"/>
  <rect class="cls-1" x="156.99" y="398.87" width="7.15" height="6.39"/>
  <path class="cls-1" d="M164.14,392.48v6.02c-2.15-.62-5.01-.61-7.15,0v-6.02h7.15Z"/>
  <rect class="cls-1" x="156.99" y="420.69" width="7.15" height="5.64"/>
  <rect class="cls-1" x="359.42" y="302.2" width="7.9" height="9.78"/>
  <path class="cls-1" d="M378.61,302.2c.19.14-.38.48-.38.56v8.65c0,.11.48.29.38.56h-7.9v-9.78h7.9Z"/>
  <rect class="cls-1" x="382" y="302.2" width="7.53" height="9.78"/>
  <rect class="cls-1" x="348.89" y="302.2" width="7.53" height="9.78"/>
  <path class="cls-1" d="M189.72,302.2v9.78h-8.28c-.1-.28.38-.45.38-.56v-8.65c0-.11-.48-.29-.38-.56h8.28Z"/>
  <rect class="cls-1" x="159.25" y="302.2" width="7.9" height="9.78"/>
  <rect class="cls-1" x="170.53" y="302.2" width="7.9" height="9.78"/>
  <rect class="cls-1" x="192.73" y="302.2" width="7.9" height="9.78"/>
  <path class="cls-1" d="M478.7,324.4c.14.41-.38.83-.38.94v8.46h-6.77v-9.4h7.15Z"/>
  <path class="cls-1" d="M465.53,324.4v8.46c0,.13.67.42-.19.94h-6.58v-9.4h6.77Z"/>
  <rect class="cls-1" x="445.97" y="324.4" width="6.77" height="9.4"/>
  <rect class="cls-1" x="433.17" y="324.4" width="6.77" height="9.4"/>
  <rect class="cls-1" x="420" y="324.4" width="6.77" height="9.4"/>
  <path class="cls-1" d="M413.98,324.4v9.4l-6.77-.38v-8.46c0-.11-.48-.29-.38-.56h7.15Z"/>
  <polygon class="cls-1" points="491.12 324.4 491.12 333.42 484.35 333.8 484.35 324.4 491.12 324.4"/>
  <polygon class="cls-1" points="431.67 322.51 431.67 336.43 428.28 336.43 428.28 322.14 431.67 322.51"/>
  <rect class="cls-1" x="415.49" y="322.14" width="3.01" height="14.67"/>
  <path class="cls-1" d="M457.25,322.51v14.29c-1.03-.54-1.97-.54-3.01,0v-14.29h3.01Z"/>
  <polygon class="cls-1" points="482.84 336.43 479.83 336.43 479.83 322.51 482.84 322.14 482.84 336.43"/>
  <rect class="cls-1" x="441.45" y="322.51" width="3.01" height="13.92"/>
  <path class="cls-1" d="M470.05,322.51v14.29c-.96-.59-1.64-.25-2.63,0v-14.29h2.63Z"/>
  <rect class="cls-1" x="58.41" y="324.4" width="6.77" height="9.4"/>
  <rect class="cls-1" x="71.2" y="324.4" width="6.77" height="9.4"/>
  <rect class="cls-1" x="84.37" y="324.4" width="6.77" height="9.4"/>
  <rect class="cls-1" x="97.16" y="324.4" width="6.77" height="9.4"/>
  <rect class="cls-1" x="109.95" y="324.4" width="6.77" height="9.4"/>
  <rect class="cls-1" x="122.75" y="324.4" width="6.77" height="9.4"/>
  <path class="cls-1" d="M142.31,333.8h-6.77v-9.03c2,.23,3.99-.18,5.95-.3.48-.03.61-.17,1.01.29.47.54-.62,7.68-.19,9.04Z"/>
  <path class="cls-1" d="M82.86,322.51v13.92l-3.39-.2c-.09-1.57.37-3.37.4-4.86.01-.6-.41-1.25-.4-1.9.05-2.13,1.02-4.78,0-6.95h3.39Z"/>
  <rect class="cls-1" x="131.03" y="322.51" width="3.01" height="14.29"/>
  <path class="cls-1" d="M69.69,322.14v14.29h-3.01v-14.29c1.03.54,1.97.54,3.01,0Z"/>
  <path class="cls-1" d="M108.45,322.51v14.29c-1.03-.54-1.97-.54-3.01,0v-14.29h3.01Z"/>
  <path class="cls-1" d="M121.24,322.51v14.29c-1.03-.54-1.97-.54-3.01,0v-14.29h3.01Z"/>
  <rect class="cls-1" x="92.65" y="322.51" width="3.01" height="13.92"/>
  <path class="cls-1" d="M274.76,305.59l.38-2.25-1.5-.38.19,2.63c-4.1-1.22-3.73-7.02.76-7.16,5.06-.16,4.67,6.89.18,7.16Z"/>
</svg>