<svg width="582" height="384" viewBox="0 0 582 384" fill="none" xmlns="http://www.w3.org/2000/svg">
<g filter="url(#filter0_d_257_2565)">
<path d="M211.961 346.985L174.851 355.595C131.991 355.035 89.2112 355.935 46.2312 355.655C41.6612 355.625 35.9312 355.985 31.5512 355.635C27.1712 355.285 26.7212 351.155 30.8812 350.465L68.6112 350.375V346.985H70.1112V305.605H85.9112V346.605H94.5612L94.1812 305.985H99.4512C99.5512 306.265 99.0713 306.435 99.0713 306.545V346.605H107.721L107.351 305.605C108.831 306.205 110.741 306.205 112.231 305.605L111.861 346.605H121.271L120.511 306.545L120.881 305.775L125.421 305.605L125.041 346.605H134.071L133.911 305.595H138.591L138.781 346.605H147.251V305.605H161.741C161.851 305.605 162.031 305.125 162.301 305.225V346.605H166.061V306.355L161.751 304.835L68.9812 304.855L68.6112 301.845H163.621C163.851 301.845 166.831 304.165 167.451 304.425L168.671 303.485C168.861 302.405 166.111 301.845 166.421 300.545C167.211 288.065 165.451 274.475 166.421 262.135C166.481 261.415 166.641 260.775 166.811 260.085H221.181C221.351 260.085 223.211 258.425 224.001 258.005C233.051 253.245 257.741 253.255 268.591 252.925C291.141 252.245 314.581 252.235 337.071 254.065C345.011 254.715 354.001 255.275 360.381 260.095L413.771 260.135C414.651 260.435 414.721 261.715 414.791 262.505C415.911 274.955 413.901 289.035 414.791 301.665L412.541 304.985L413.271 305.815C414.521 306.455 417.941 301.845 418.341 301.845H511.841V304.855H418.711C418.461 304.855 415.261 307.565 414.761 308.055V346.235H418.901V305.615H433.391C433.501 305.615 433.681 305.135 433.951 305.235V346.615H443.361L442.611 305.615L447.501 305.995C447.721 306.525 447.131 307.115 447.131 307.305V346.615H456.161L455.791 305.615C457.081 306.655 459.241 305.565 460.121 305.625C461.001 305.685 460.301 306.505 460.301 306.555V346.615H469.331L468.571 306.565C468.821 304.905 472.081 306.785 473.471 305.615V346.615H482.501L482.131 305.615C483.611 306.275 485.331 306.125 486.821 305.615L486.641 346.625H495.481L495.671 305.625H511.101C511.201 305.905 510.721 306.075 510.721 306.185V346.995L511.851 346.615V350.375L551.091 350.465C555.271 351.695 554.251 355.375 550.041 355.645C548.691 355.735 547.651 355.245 546.661 355.275C499.611 356.745 452.081 354.045 404.811 355.435L364.361 346.625V263.305C362.851 262.475 360.081 262.525 358.341 263.125C358.191 259.815 353.101 259.015 350.441 258.415C325.701 252.895 295.791 255.855 270.461 254.825C262.911 255.725 227.061 256.255 222.981 261.335C222.541 261.885 222.671 263.025 222.271 263.135C220.651 263.345 218.771 262.885 217.251 262.895C216.811 262.895 216.761 262.925 216.481 263.305V346.245C214.981 346.655 213.521 346.905 211.961 346.995L212.341 263.675L211.791 262.835C208.681 263.585 205.331 262.885 202.191 262.895C201.751 262.895 201.701 262.925 201.421 263.305V346.435C201.751 346.975 202.171 346.955 202.721 347.015C205.071 347.295 209.501 347.145 211.961 346.995V346.985ZM171.321 346.985H180.911L181.461 263.285C180.891 262.365 180.671 263.105 180.531 263.105H171.311V346.985H171.321ZM185.621 346.985H196.721L197.281 346.425V263.295L196.731 262.825C193.171 263.285 189.151 263.355 185.611 262.735V346.995L185.621 346.985ZM379.401 262.735C377.681 264.045 369.401 262.005 368.651 263.085L368.491 263.675L369.061 346.995H379.411V262.735H379.401ZM394.831 262.735C391.541 263.355 387.771 263.285 384.471 262.825L383.921 263.295V346.985H394.831V262.725V262.735ZM399.341 346.985H409.311L409.871 346.425V263.295C409.351 262.435 409.061 263.105 408.931 263.105H399.901C399.791 263.105 399.611 262.625 399.341 262.725V346.985Z" fill="#FFC105"/>
<path d="M223.811 206.684C224.281 206.634 225.001 206.224 225.501 206.124C219.631 204.164 221.471 201.344 226.631 200.664L225.931 198.914C225.801 197.614 230.741 196.274 231.901 195.964C243.771 192.754 258.181 192.464 270.491 192.034C291.631 191.294 313.371 191.074 334.441 193.524C338.041 193.944 352.481 196.004 354.581 198.224C355.561 199.254 354.261 199.584 354.201 200.664C359.011 201.474 360.941 204.844 354.951 205.564C355.031 206.154 357.111 206.684 357.401 206.684H460.691C461.251 208.754 459.941 208.444 459.941 208.564V216.654C459.941 216.734 460.501 217.084 460.321 217.214L430.811 217.604L430.591 216.094H419.111L417.421 218.544C417.551 218.984 418.541 219.044 418.541 219.104V230.014H420.421V218.734L499.061 218.354V216.854H508.471C509.141 218.384 507.751 219.174 507.691 219.654C507.281 222.774 508.051 226.794 507.721 230.024H516.751C516.531 231.204 515.091 232.584 513.951 232.674L417.211 232.634C415.661 232.204 414.601 235.944 414.161 236.054L362.311 236.034L356.451 232.784L356.121 215.144C355.301 213.754 349.641 212.484 347.891 212.084C326.881 207.294 299.971 207.614 278.411 208.224C264.281 208.624 242.271 208.634 229.091 213.084C227.871 213.494 225.411 214.214 225.161 215.554L225.101 232.614C222.971 233.314 220.771 233.984 219.621 236.054L167.281 235.964C166.441 234.784 166.111 232.664 164.401 232.644L66.5314 232.684C65.0814 232.684 64.6114 230.984 63.7314 230.034H72.7614C72.4314 226.804 73.2014 222.784 72.7914 219.664C72.7314 219.184 71.3414 218.404 72.0114 216.864H81.7914C81.8714 216.864 81.5714 218.014 82.4114 218.314L160.051 218.744V230.024L162.311 229.644C161.561 226.204 161.871 222.244 162.311 218.734L163.431 218.554L161.931 216.104H149.891V217.614L120.541 217.234C120.351 217.104 120.921 216.754 120.921 216.674V208.584H119.791L120.171 206.704H223.831L223.811 206.684ZM362.471 213.454C362.961 207.914 355.021 206.364 350.811 205.364C327.761 199.874 296.821 200.204 273.101 201.034C258.241 201.554 237.181 202.304 223.261 207.264C220.441 208.264 216.961 209.354 218.161 213.074C221.331 210.474 225.981 209.554 229.941 208.684C253.621 203.434 282.371 203.654 306.591 204.424C318.901 204.814 348.971 205.674 359.201 211.264C359.741 211.554 362.211 213.754 362.461 213.454H362.471ZM410.261 214.584H361.911C361.771 214.584 361.241 213.674 360.981 213.834L360.231 215.134C360.661 215.674 362.481 217.224 362.481 217.784V231.894H410.271V214.594L410.261 214.584ZM218.551 214.584C202.561 214.474 186.561 214.664 170.581 214.584V231.884H218.371V217.404C218.371 217.224 220.341 215.574 220.621 215.144C221.091 214.024 218.681 214.584 218.551 214.584ZM83.2814 219.844H81.4014V228.494H83.2814V219.844ZM84.7814 228.504L87.0514 228.344L87.3614 220.474C87.0514 219.534 85.5914 219.904 84.7814 219.854V228.504ZM88.5414 219.844V227.934C88.7314 228.494 91.1114 228.504 91.1514 227.934L91.0814 220.384L90.5614 219.894L88.5414 219.844ZM92.3114 228.504C95.5914 228.234 94.5814 228.774 94.5514 226.074C94.5314 224.214 94.4114 222.204 94.8514 220.394L94.3314 219.904L92.3114 219.854V228.504ZM98.3314 219.844H96.0714V228.494C96.9214 228.034 97.4814 228.034 98.3314 228.494V219.844ZM102.091 219.844H99.8314V228.494L102.091 228.324C102.681 227.834 102.091 227.694 102.091 227.554V219.844ZM105.851 219.844H103.591V228.494H105.671L106.221 227.934C106.221 227.794 105.851 227.674 105.851 227.554V219.844ZM109.611 219.844H107.351V228.494C108.201 228.034 108.761 228.034 109.611 228.494V219.844ZM113.381 219.844H111.121V228.494C111.981 228.264 112.551 228.014 113.381 228.494V219.844ZM114.881 228.504L117.491 227.944C116.851 225.654 117.001 222.764 117.411 220.394L116.891 219.904L114.871 219.854V228.504H114.881ZM118.651 228.504L121.271 227.944C120.611 225.664 120.781 222.764 121.191 220.394L120.671 219.904L118.651 219.854V228.504ZM122.411 219.844V228.494L124.431 228.444L124.951 227.954C124.511 225.444 124.421 222.504 125.051 220.044L122.411 219.854V219.844ZM126.171 219.844V227.934C126.381 228.674 128.671 228.554 128.721 227.954L128.761 220.444C128.561 219.594 126.881 219.864 126.171 219.854V219.844ZM129.931 228.504L132.201 228.334L132.511 220.464C132.201 219.524 130.741 219.894 129.931 219.844V228.494V228.504ZM133.701 228.504L136.311 227.944C135.671 225.654 135.821 222.764 136.231 220.394L135.711 219.904L133.691 219.854V228.504H133.701ZM139.721 219.844H137.461V228.494H139.721V219.844ZM143.481 219.844H141.221V228.494H143.481V219.844ZM147.241 219.844H144.981V228.494H147.241V219.844ZM435.841 219.844H433.211V227.934C433.211 228.704 435.841 228.704 435.841 227.934V219.844ZM439.611 219.844H436.981V228.494C437.861 228.354 439.021 228.634 439.611 227.934V219.844ZM440.731 228.504C441.541 228.454 443.001 228.824 443.311 227.884L443.011 220.014L440.731 219.854V228.504ZM446.751 219.844H444.491V228.494H446.751V219.844ZM450.521 219.844H448.261V228.494L450.291 228.474C451.211 228.004 450.511 227.674 450.511 227.554V219.844H450.521ZM454.281 228.504V220.794C454.281 220.704 454.581 220.574 454.571 220.414L454.051 219.894L452.021 219.844V228.494H454.281V228.504ZM458.041 219.844H455.781V228.494H458.041V219.844ZM461.811 219.844H459.551V228.494H461.811V219.844ZM465.571 219.844H463.311V228.494H465.571V219.844ZM467.071 228.504L469.091 228.454L469.611 227.964V220.404L469.091 219.914L467.071 219.864V228.514V228.504ZM473.091 219.844H470.831V228.494H473.091V219.844ZM476.861 219.844H474.601V228.494H476.861V219.844ZM480.621 219.844H478.361V228.494H480.621V219.844ZM484.381 219.844H482.121V228.494H484.381V219.844ZM485.891 228.504C486.701 228.454 488.161 228.824 488.471 227.884L488.171 220.014L485.891 219.854V228.504ZM492.281 219.844H489.651V228.494C490.561 228.464 491.671 228.784 492.281 227.934V219.844ZM495.671 219.844H493.411V228.494H495.671V219.844ZM499.431 219.844H497.171V228.494C497.981 228.504 498.911 228.694 499.431 227.934V219.844Z" fill="#FFC105"/>
<path d="M299.711 130.025C299.231 130.835 299.902 135.065 299.632 136.345C301.762 136.135 303.771 136.895 305.741 137.565C316.001 141.075 326.712 150.075 333.262 158.575C341.032 168.655 346.191 180.345 347.411 193.135L327.861 190.485C326.391 171.825 320.961 152.845 306.581 140.105C305.981 140.455 306.721 140.945 306.921 141.265C308.521 143.855 310.561 146.185 312.191 148.785C320.041 161.315 323.761 175.365 324.451 190.135L292.811 188.825L291.431 135.315C290.901 134.145 289.901 134.125 289.361 135.315C288.641 136.885 289.181 141.955 289.091 144.075C288.761 152.395 288.441 160.925 288.311 169.245C288.211 175.825 288.421 182.425 288.331 189.015L256.351 190.145C256.901 172.185 262.651 154.375 274.411 140.675C274.471 140.395 274.022 140.415 273.852 140.495C273.472 140.665 269.521 144.715 268.951 145.375C264.011 151.095 259.681 159.335 257.381 166.535C254.881 174.355 253.891 182.335 253.321 190.505C246.501 190.765 239.621 191.775 233.021 193.535C234.831 173.675 245.531 156.255 261.651 144.865C267.331 140.855 273.881 137.425 280.801 136.355C280.591 134.585 281.111 132.205 280.801 130.535C280.591 129.445 279.491 129.315 279.331 128.325C279.621 126.645 286.191 125.225 287.771 125.085C292.091 124.705 297.821 125.415 301.331 128.075C301.671 129.205 299.841 129.785 299.691 130.045L299.711 130.025Z" fill="#FFC105"/>
<path d="M163.991 234.515C164.081 234.515 164.351 234.055 164.511 234.165C165.111 235.215 166.241 238.065 167.381 238.285L219.331 238.305C225.871 233.405 235.261 232.755 243.391 231.895C274.781 228.575 314.581 227.995 345.671 233.085C350.691 233.905 357.621 234.465 360.811 238.675C378.261 237.785 395.941 238.515 413.481 238.305C415.141 238.135 416.251 235.985 416.661 234.525H513.171C513.321 234.525 513.831 233.555 513.731 234.705C513.341 235.635 512.191 236.475 511.821 237.315C511.281 238.545 511.191 250.895 511.451 252.785C511.651 254.245 513.681 255.055 511.651 256.705C510.691 257.495 502.041 257.015 499.981 257.075C478.581 257.705 456.971 257.365 435.641 257.485C430.791 256.195 424.111 257.965 419.491 257.085C418.731 256.935 418.271 256.525 418.151 255.755L418.531 237.915L415.911 240.745L416.121 255.425L413.371 258.155C395.501 258.265 377.561 258.385 359.721 257.865C359.351 257.175 356.821 253.435 356.821 253.155V243.185L357.951 243.935C358.821 239.515 355.301 239.265 351.941 238.675L352.311 253.715L350.101 253.295L349.891 237.895L342.151 236.795V251.655C342.151 251.735 342.711 252.085 342.531 252.215C341.971 252.185 341.381 252.275 340.821 252.235C340.341 252.195 339.361 252.325 339.241 251.665L339.361 236.415L329.741 235.295V251.095H325.981L326.361 234.915L315.451 234.545V250.345H311.691V234.175H300.971C300.861 234.175 300.681 233.695 300.411 233.795V249.595H296.271C296.081 249.455 296.651 249.115 296.651 249.035V233.805H284.611V249.975H280.471V233.805L269.181 234.185V249.795C269.181 249.875 269.741 250.225 269.561 250.355H265.421V234.565L254.511 235.315L254.911 250.505L251.121 251.115V235.695L241.711 236.445V251.495L238.701 252.245V236.825L231.191 237.975L231.151 253.355L228.541 253.745L228.911 238.705C225.971 239.605 222.311 239.295 222.861 243.435C222.961 244.155 223.581 243.795 223.671 244.515C223.871 246.125 223.871 251.615 223.621 253.175C223.531 253.765 221.031 258.225 220.741 258.285C219.991 258.485 219.141 258.005 218.491 258.035C204.131 258.625 189.641 258.135 175.301 257.875C173.521 257.845 168.941 258.525 167.831 258.195C167.521 258.105 165.831 256.515 165.661 256.225C164.341 253.925 165.981 243.735 165.231 240.485L162.681 237.965C162.951 242.935 162.301 248.285 162.661 253.205C162.741 254.305 164.241 256.405 162.041 257.075C160.131 257.655 153.731 257.055 151.191 257.135C129.301 257.785 106.941 257.605 85.0011 257.135C80.6511 257.045 74.7411 257.695 70.6711 257.165C69.4111 257.005 68.7711 256.205 68.3711 255.075L69.7411 252.815C69.2211 248.555 70.9011 243.005 70.1211 238.915C69.9711 238.105 67.6411 235.205 66.7511 234.955C66.5111 233.615 66.9411 234.585 67.3111 234.585H164.011L163.991 234.515ZM421.171 237.525V254.455C423.521 253.505 426.081 254.405 428.491 254.465C452.551 255.055 479.071 255.265 503.001 254.065C504.941 253.965 506.911 254.165 508.851 254.085C508.701 248.755 507.911 243.175 508.851 237.915L421.181 237.535L421.171 237.525ZM160.041 237.905H72.3611C72.9211 243.295 72.8011 248.705 72.3611 254.085C76.7011 253.765 81.0311 254.385 85.3211 254.475C110.201 254.975 135.151 254.075 160.031 254.465V237.915L160.041 237.905ZM176.591 243.175H169.441V253.705H176.591V243.175ZM189.761 243.175H182.611V253.705H189.761V243.175ZM202.551 243.175H195.971C195.621 243.415 195.411 244.115 195.411 244.495V253.715H201.991C202.101 253.715 202.281 254.195 202.551 254.095V243.185V243.175ZM215.721 243.175H208.571V253.705H215.721V243.175ZM372.251 243.175H365.101V254.085C367.401 253.695 370.021 253.325 372.251 254.085V243.175ZM385.051 243.175H378.281V253.705H385.431C385.531 253.425 385.051 253.255 385.051 253.145V243.175ZM398.591 243.175H391.441V253.705H397.651C397.741 253.705 397.871 254.015 398.031 254.005L398.591 253.525V243.185V243.175ZM411.381 243.175H404.231V253.515C404.751 254.375 405.041 253.705 405.171 253.705H411.381V243.175Z" fill="#FFC105"/>
<path d="M271.791 346.615L271.761 341.935L272.941 341.525V265.535C271.241 263.315 272.351 262.245 272.001 260.085C271.731 258.415 270.781 258.415 270.281 257.095L283.821 256.715C283.871 258.065 282.541 257.275 281.901 258.745C281.161 260.465 281.901 262.425 281.551 263.965C281.491 264.245 280.571 264.705 280.421 266.665C279.501 278.925 280.861 292.755 280.771 305.085L280.431 341.715L281.581 341.925L281.551 346.615H299.401L299.591 341.925L300.751 341.715C300.471 341.155 300.371 340.685 300.351 340.045C299.701 315.505 301.721 289.935 300.391 265.535C300.311 263.995 300.061 260.505 299.541 259.235C299.091 258.125 298.651 257.585 297.361 257.455C297.571 256.625 298.381 256.745 299.031 256.685C303.021 256.345 307.551 257.595 311.651 257.085L309.091 259.605C308.551 261.455 309.831 263.785 308.231 265.145V341.515L309.391 341.725L309.011 346.615H324.061C324.301 344.735 323.371 342.545 324.841 341.185V266.285C323.611 264.495 324.491 262.245 323.771 260.565C323.191 259.215 321.691 259.345 321.041 258.215L334.961 258.595C334.621 259.525 333.041 260.255 332.781 261.115C332.581 261.795 332.361 265.905 332.311 267.045C331.161 291.435 333.231 316.705 332.301 341.185C333.771 342.535 332.851 344.735 333.081 346.615C335.181 346.435 337.041 346.695 338.861 347.795L351.141 355.635L231.871 355.255L245.521 346.895L247.681 346.605C247.921 344.725 246.991 342.535 248.461 341.175C248.801 318.485 247.911 295.735 248.411 273.045C248.491 269.445 248.901 269.405 248.061 265.845C247.441 263.205 249.601 260.365 245.421 259.525C246.041 258.145 257.741 258.215 259.711 258.205L257.361 260.555C257.101 262.625 256.901 264.035 255.931 265.895V341.165C257.391 342.515 256.461 344.715 256.701 346.595H271.751L271.791 346.615Z" fill="#FFC105"/>
<path d="M355.321 261.235L353.441 263.105C354.191 263.165 357.581 262.805 357.571 263.675L356.081 265.565C356.351 290.375 354.451 316.425 355.681 341.185C355.771 342.915 356.271 344.615 356.121 346.385L394.831 355.645C386.751 355.515 378.631 355.825 370.551 355.665C367.011 355.595 360.151 355.835 357.041 355.255C355.511 354.965 350.091 351.205 348.191 350.185C346.431 349.245 344.481 348.265 342.541 347.745L344.051 347.375C344.251 345.525 343.401 343.615 344.831 342.325L344.811 264.795C344.991 262.595 343.301 261.615 342.161 260.115L355.331 261.245L355.321 261.235Z" fill="#FFC105"/>
<path d="M185.621 355.635L198.031 352.435C205.781 351.155 213.951 348.205 221.651 347.085C222.931 346.895 224.221 347.015 225.501 346.985C225.131 345.265 224.521 343.575 225.911 342.315V272.305C224.501 270.995 225.301 268.925 225.121 267.065C224.941 265.205 224.471 264.395 223.241 263.115H227.381L225.501 261.235L240.171 260.105C237.801 262.255 236.691 262.855 236.391 266.295V342.645L237.561 343.055L237.531 347.365L239.791 347.735C234.141 349.595 228.851 352.535 223.801 355.635H185.611H185.621Z" fill="#FFC105"/>
<path d="M70.1113 257.844C73.5713 258.204 77.8913 257.374 81.2413 257.814C81.9413 257.904 81.7313 258.514 82.0413 258.584C83.1113 258.834 84.7513 258.424 85.9213 258.584V299.584H70.1213V257.834L70.1113 257.844Z" fill="#FFC105"/>
<path d="M510.721 299.595H495.671V258.595C496.641 258.465 497.901 258.795 498.801 258.595C499.101 258.525 498.901 257.915 499.601 257.825C503.051 257.375 507.311 258.525 510.731 257.475V299.605L510.721 299.595Z" fill="#FFC105"/>
<path d="M161.921 257.844V299.594H147.251V258.594C148.081 258.464 149.271 258.794 150.011 258.594C150.411 258.484 150.221 257.834 150.261 257.834H161.921V257.844Z" fill="#FFC105"/>
<path d="M430.951 257.845C430.951 257.845 430.801 258.495 431.201 258.605C431.941 258.805 433.131 258.475 433.961 258.605V299.605H419.292V257.855C420.962 258.195 430.271 257.405 430.951 257.855V257.845Z" fill="#FFC105"/>
<path d="M294.361 42.6836L291.411 45.1836L295.861 116.404C292.131 115.784 288.311 115.924 284.571 116.404L289.121 45.8736C289.121 44.1436 286.891 43.8936 286.081 42.6836C289.121 43.6836 291.321 43.3436 294.361 42.6836Z" fill="#FFC105"/>
<path d="M269.151 215.334V224.734L236.421 226.994V217.594L269.151 215.334Z" fill="#FFC105"/>
<path d="M343.661 217.595V226.995C333.221 225.425 322.611 225.125 312.051 224.735V216.275C312.051 215.995 312.231 215.075 312.601 215.035C322.931 215.575 333.351 216.385 343.661 217.585V217.595Z" fill="#FFC105"/>
<path d="M99.0812 258.594V299.594H94.5612C94.4112 285.934 94.9312 272.194 94.1812 258.594H99.0712H99.0812Z" fill="#FFC105"/>
<path d="M112.251 258.594V299.594L107.731 299.224C107.731 285.674 107.871 272.104 107.351 258.594H112.241H112.251Z" fill="#FFC105"/>
<path d="M138.591 258.594V298.274C138.591 298.614 138.431 299.424 137.991 299.534L134.081 299.594C133.931 285.934 134.451 272.194 133.701 258.594H138.591Z" fill="#FFC105"/>
<path d="M473.471 258.594H468.951V299.594H473.471V258.594Z" fill="#FFC105"/>
<path d="M460.301 258.594V299.594C458.901 298.914 457.291 299.304 455.781 299.214V258.594H460.301Z" fill="#FFC105"/>
<path d="M447.131 299.594L443.171 299.514L442.631 299.034C442.921 298.584 443.011 298.074 443.011 297.544C443.031 289.704 442.431 281.864 443.011 274.214L442.611 258.594H447.501C447.691 258.724 447.121 259.074 447.121 259.154V299.594H447.131Z" fill="#FFC105"/>
<path d="M125.421 258.594L125.321 299.044C125.141 300.024 121.791 299.444 120.901 299.594L120.521 258.594H125.411H125.421Z" fill="#FFC105"/>
<path d="M486.641 258.594V299.594H482.501V259.154C482.501 259.074 481.941 258.724 482.121 258.594H486.641Z" fill="#FFC105"/>
<path d="M294.741 326.674H286.091V345.104H294.741V326.674Z" fill="#FFC105"/>
<path d="M285.841 39.5446C279.561 33.7446 288.621 23.8346 294.931 29.8946C301.081 35.8046 292.151 45.3546 285.841 39.5446Z" fill="#FFC105"/>
<path d="M297.371 268.744V278.524H283.451C283.351 278.244 283.831 278.074 283.831 277.964V268.744H297.381H297.371Z" fill="#FFC105"/>
<path d="M297.382 279.654H283.832V289.434H297.382V279.654Z" fill="#FFC105"/>
<path d="M289.381 210.905C293.001 210.375 297.781 213.855 298.411 217.495C300.541 229.885 283.181 230.725 282.031 219.935C281.591 215.835 285.451 211.485 289.381 210.905ZM296.241 214.215C295.931 213.845 294.431 215.255 294.741 215.705C296.121 216.225 296.611 216.905 296.391 218.355L298.121 219.095C298.761 216.365 295.101 216.425 296.241 214.205V214.215ZM290.631 223.265C296.291 222.765 296.071 214.375 290.431 214.565C285.031 214.745 284.521 222.015 289.811 222.895L289.851 226.615L290.601 225.495L292.101 226.245L291.351 225.305L292.471 224.735L290.591 224.365L290.621 223.265H290.631ZM283.831 217.965L282.711 217.215C283.081 218.465 283.791 218.795 283.081 220.225C284.031 220.665 283.751 219.495 283.991 219.505L284.951 219.845C284.371 218.905 284.541 215.635 283.821 217.965H283.831ZM285.331 221.365L284.581 221.555C284.641 222.455 285.841 222.395 284.581 223.615L286.031 223.665L286.461 225.115L286.841 223.985L289.091 224.735L286.831 223.605L287.211 222.105C286.381 222.515 285.331 222.475 285.331 221.355V221.365ZM295.871 222.485C295.061 221.615 293.891 223.355 292.921 223.285L292.861 225.105L293.611 223.975C295.721 224.395 294.681 224.485 295.131 223.535C295.281 223.225 296.431 223.095 295.861 222.475L295.871 222.485Z" fill="#FFC105"/>
<path d="M278.181 121.114C278.721 119.174 285.981 118.394 287.781 118.294C290.121 118.164 301.131 118.554 302.011 120.634C302.781 122.444 301.701 124.794 302.641 126.564C302.301 126.854 300.541 125.204 299.961 124.924C294.211 122.074 283.341 122.344 278.181 126.574V121.124V121.114Z" fill="#FFC105"/>
<path d="M297.371 290.184V299.214H283.451C283.351 298.934 283.831 298.764 283.831 298.654V290.194H297.381L297.371 290.184Z" fill="#FFC105"/>
<path d="M300.001 305.984H281.191V312.374H300.001V305.984Z" fill="#FFC105"/>
<path d="M297.371 260.475V267.995H283.821V261.035C283.821 260.925 283.341 260.745 283.441 260.475H297.361H297.371Z" fill="#FFC105"/>
<path d="M297.371 345.104H295.491V323.474C295.491 323.354 294.421 321.724 294.231 321.534C292.831 320.124 289.831 319.844 288.061 320.564C287.121 320.944 285.331 323.304 285.331 324.234V345.114H283.451C284.741 338.434 283.021 330.504 283.821 323.854C284.171 320.934 287.841 317.994 290.751 318.064C292.801 318.114 297.371 321.154 297.371 323.104V345.104Z" fill="#FFC105"/>
<path d="M269.151 279.654V289.814H259.371V280.034L269.151 279.654Z" fill="#FFC105"/>
<path d="M311.671 279.654L321.451 280.034C320.861 283.064 321.811 286.564 321.451 289.814H312.231L311.671 289.254V279.664V279.654Z" fill="#FFC105"/>
<path d="M269.151 278.345C269.161 278.455 269.721 278.765 269.531 278.905L259.371 279.285V269.885L269.151 269.135C269.431 272.015 268.771 275.555 269.151 278.355V278.345Z" fill="#FFC105"/>
<path d="M269.531 324.414C269.721 324.554 269.151 324.894 269.151 324.974V333.814H259.371V324.414H269.531Z" fill="#FFC105"/>
<path d="M311.671 269.125L321.451 269.875C321.551 273.005 321.301 276.165 321.451 279.275L311.671 278.905V269.125Z" fill="#FFC105"/>
<path d="M321.461 333.824H311.671V324.414H320.891L321.461 324.984V333.824Z" fill="#FFC105"/>
<path d="M321.461 290.564V299.964C318.221 299.484 314.951 299.574 311.681 299.594V290.564H321.461Z" fill="#FFC105"/>
<path d="M269.151 314.264V323.664H259.371V314.634H267.841C268.031 314.634 268.631 314.044 269.161 314.254L269.151 314.264Z" fill="#FFC105"/>
<path d="M321.461 314.634V323.664H311.681V314.264C311.961 314.164 312.131 314.644 312.241 314.644H321.461V314.634Z" fill="#FFC105"/>
<path d="M269.531 334.574C269.721 334.714 269.151 335.054 269.151 335.134V343.594H259.371V334.564H269.531V334.574Z" fill="#FFC105"/>
<path d="M259.371 290.565H269.531C269.721 290.705 269.151 291.045 269.151 291.125V298.645C269.151 298.775 269.821 299.065 268.961 299.585H259.371V290.555V290.565Z" fill="#FFC105"/>
<path d="M321.451 334.574H311.671V343.604H321.451V334.574Z" fill="#FFC105"/>
<path d="M278.941 214.955V224.365L270.661 224.745L270.281 214.955H278.941Z" fill="#FFC105"/>
<path d="M310.921 214.955V224.735L302.641 224.365V214.955H310.921Z" fill="#FFC105"/>
<path d="M321.461 306.745V313.895L311.681 313.515V306.365C314.901 306.955 318.191 306.695 321.461 306.745Z" fill="#FFC105"/>
<path d="M341.771 271.754V281.164L334.631 280.784V271.004L341.771 271.754Z" fill="#FFC105"/>
<path d="M269.151 261.605V268.375L259.371 269.125V261.975L269.151 261.605Z" fill="#FFC105"/>
<path d="M341.771 281.915V291.315L334.631 290.945V281.535L341.771 281.915Z" fill="#FFC105"/>
<path d="M246.201 281.535V290.935L239.051 291.315V282.475C240.951 281.525 243.971 281.735 246.201 281.535Z" fill="#FFC105"/>
<path d="M269.531 306.744C269.721 306.884 269.151 307.224 269.151 307.304V312.944C269.151 313.054 269.631 313.234 269.531 313.504H259.941C259.831 313.504 259.651 313.984 259.381 313.884V306.734H269.541L269.531 306.744Z" fill="#FFC105"/>
<path d="M246.201 271.385V280.785L239.051 281.165V272.135L246.201 271.385Z" fill="#FFC105"/>
<path d="M311.671 268.375V261.605C314.331 261.965 318.001 261.595 320.511 261.975C320.891 262.035 321.231 262.105 321.361 262.525C320.671 263.405 321.841 268.955 320.871 269.105L311.671 268.375Z" fill="#FFC105"/>
<path d="M293.621 236.775H287.221V246.935H293.621V236.775Z" fill="#FFC105"/>
<path d="M246.201 334.195H239.051V325.165H245.631C245.741 325.165 245.921 324.685 246.191 324.785V334.185L246.201 334.195Z" fill="#FFC105"/>
<path d="M341.781 325.174H334.631V334.204H341.781V325.174Z" fill="#FFC105"/>
<path d="M341.771 292.075V301.095L334.631 300.725V291.695L341.771 292.075Z" fill="#FFC105"/>
<path d="M246.201 291.695V300.725L239.051 301.105V292.645C240.951 291.615 243.941 292.145 246.201 291.705V291.695Z" fill="#FFC105"/>
<path d="M278.561 237.154V246.934H272.731C272.621 246.934 272.441 247.414 272.171 247.314V237.154H278.571H278.561Z" fill="#FFC105"/>
<path d="M246.201 315.395V324.415H239.051V315.765L246.201 315.395Z" fill="#FFC105"/>
<path d="M341.771 315.765V324.415H334.621V315.385C335.031 315.245 335.451 315.765 335.561 315.765H341.771Z" fill="#FFC105"/>
<path d="M246.201 334.955H239.051V343.605H246.201V334.955Z" fill="#FFC105"/>
<path d="M341.781 334.955H334.631V343.605H341.781V334.955Z" fill="#FFC105"/>
<path d="M308.661 237.155V246.935H302.641V236.775L308.661 237.155Z" fill="#FFC105"/>
<path d="M263.511 237.525V247.305L257.491 247.685V237.905L263.511 237.525Z" fill="#FFC105"/>
<path d="M323.341 237.905V247.685L317.321 247.305C317.241 244.035 317.551 240.795 317.701 237.525L323.341 237.905Z" fill="#FFC105"/>
<path d="M336.881 239.035V248.815L331.241 248.435V238.285L336.881 239.035Z" fill="#FFC105"/>
<path d="M249.591 238.654V248.434C247.721 248.574 245.711 248.064 243.951 248.814V239.034L249.591 238.654Z" fill="#FFC105"/>
<path d="M133.321 267.244C133.511 267.384 132.941 267.724 132.941 267.804V274.574C132.941 274.684 133.421 274.864 133.321 275.134H126.171V267.234H133.321V267.244Z" fill="#FFC105"/>
<path d="M120.151 267.244C120.341 267.384 119.771 267.724 119.771 267.804V275.134H113.001V267.234H120.151V267.244Z" fill="#FFC105"/>
<path d="M481.371 267.244H474.601V275.144H481.371V267.244Z" fill="#FFC105"/>
<path d="M468.201 267.244H461.431V275.144H468.201V267.244Z" fill="#FFC105"/>
<path d="M93.8115 267.244H87.0415V275.144H93.8115V267.244Z" fill="#FFC105"/>
<path d="M455.031 267.244H448.261V275.144H455.031V267.244Z" fill="#FFC105"/>
<path d="M441.861 267.244H435.091V275.144H441.861V267.244Z" fill="#FFC105"/>
<path d="M246.201 263.105V270.625C243.911 270.125 241.431 271.165 239.051 271.005V263.855L246.201 263.105Z" fill="#FFC105"/>
<path d="M120.151 329.684H113.001V336.834H120.151V329.684Z" fill="#FFC105"/>
<path d="M106.981 267.244C106.361 269.634 106.361 272.764 106.981 275.144H100.211V267.244H106.981Z" fill="#FFC105"/>
<path d="M146.111 267.244V275.144H139.341C139.241 274.864 139.721 274.694 139.721 274.584V267.254H146.121L146.111 267.244Z" fill="#FFC105"/>
<path d="M494.541 267.244H488.141V275.144H494.541V267.244Z" fill="#FFC105"/>
<path d="M341.771 308.245V315.015H335.941C335.741 315.015 335.101 314.435 334.621 314.635V307.865L341.771 308.245Z" fill="#FFC105"/>
<path d="M341.771 263.855V271.005L334.631 270.255V263.105L341.771 263.855Z" fill="#FFC105"/>
<path d="M246.201 307.865V314.635L239.051 315.015V308.245L246.201 307.865Z" fill="#FFC105"/>
<path d="M223.621 283.414H217.981V292.064H223.621V283.414Z" fill="#FFC105"/>
<path d="M481.371 329.684H474.601V336.834H481.371V329.684Z" fill="#FFC105"/>
<path d="M468.201 329.684H461.431V336.834H468.201V329.684Z" fill="#FFC105"/>
<path d="M132.941 329.684H126.171V336.834H132.941V329.684Z" fill="#FFC105"/>
<path d="M93.8115 329.684H87.0415V336.834H93.8115V329.684Z" fill="#FFC105"/>
<path d="M494.542 322.164H487.771V329.314H494.542V322.164Z" fill="#FFC105"/>
<path d="M120.151 322.164H113.001V328.934H120.151V322.164Z" fill="#FFC105"/>
<path d="M455.031 322.164H448.261V329.314H455.031V322.164Z" fill="#FFC105"/>
<path d="M468.201 322.164V328.744C467.961 329.094 467.261 329.304 466.881 329.304H461.421V322.154H468.191L468.201 322.164Z" fill="#FFC105"/>
<path d="M494.542 329.685V336.835H487.771V329.685C490.011 329.585 492.492 330.125 494.542 329.685Z" fill="#FFC105"/>
<path d="M93.8115 322.164V329.314C91.6015 328.734 89.2515 328.864 87.0415 329.314V322.164H93.8115Z" fill="#FFC105"/>
<path d="M237.921 240.164V249.564L233.031 250.314V240.534L237.921 240.164Z" fill="#FFC105"/>
<path d="M481.371 322.164V329.314C481.091 329.414 480.921 328.934 480.811 328.934H475.171C475.061 328.934 474.881 329.414 474.611 329.314V322.164H481.381H481.371Z" fill="#FFC105"/>
<path d="M441.861 329.304H435.091V322.534H441.301C441.411 322.534 441.591 322.054 441.861 322.154V329.304Z" fill="#FFC105"/>
<path d="M132.941 322.164V329.314C132.661 329.414 132.491 328.934 132.381 328.934H126.171V322.164H132.941Z" fill="#FFC105"/>
<path d="M455.031 330.064H448.261V336.834H455.031V330.064Z" fill="#FFC105"/>
<path d="M441.861 315.014H435.091V321.784H441.861V315.014Z" fill="#FFC105"/>
<path d="M441.861 330.064H435.091V336.834H441.861V330.064Z" fill="#FFC105"/>
<path d="M441.861 292.824H435.091V299.594H441.861V292.824Z" fill="#FFC105"/>
<path d="M106.611 329.684H100.211V336.834H106.611V329.684Z" fill="#FFC105"/>
<path d="M362.852 283.414H357.582V292.064H362.852V283.414Z" fill="#FFC105"/>
<path d="M146.111 329.684V336.834C144.041 335.884 141.711 337.534 139.511 336.474L139.341 329.694H146.111V329.684Z" fill="#FFC105"/>
<path d="M132.941 292.824V299.594H126.171V293.384L126.731 292.954L132.941 292.824Z" fill="#FFC105"/>
<path d="M455.031 292.824V299.594H448.261V292.824C450.541 293.454 452.701 292.674 455.031 292.824Z" fill="#FFC105"/>
<path d="M119.771 299.594H113.001V293.384L113.551 292.914L119.991 293.194C120.211 293.474 119.771 293.674 119.771 293.764V299.594Z" fill="#FFC105"/>
<path d="M146.491 322.164C146.681 322.304 146.111 322.644 146.111 322.724V329.304C145.831 329.404 145.661 328.924 145.551 328.924H139.341C139.241 328.644 139.721 328.474 139.721 328.364V322.724C139.721 322.614 139.241 322.434 139.341 322.164H146.491Z" fill="#FFC105"/>
<path d="M120.151 321.415H113.001V315.025C113.691 315.145 114.331 315.375 115.051 315.415C116.021 315.475 120.151 314.805 120.151 315.585V321.415Z" fill="#FFC105"/>
<path d="M120.151 275.895C119.541 277.815 119.541 280.385 120.151 282.285H113.001V275.895H120.151Z" fill="#FFC105"/>
<path d="M481.371 293.194V299.584H474.601V292.814C474.881 292.714 475.051 293.194 475.161 293.194H481.371Z" fill="#FFC105"/>
<path d="M455.031 315.394V321.784H448.261V315.014C448.541 314.914 448.711 315.394 448.821 315.394H455.031Z" fill="#FFC105"/>
<path d="M93.8115 299.594H87.0415V293.204H93.2515C93.3615 293.204 93.5415 292.724 93.8115 292.824V299.594Z" fill="#FFC105"/>
<path d="M106.601 322.164V329.314C106.321 329.414 106.151 328.934 106.041 328.934H100.211V322.164H106.611H106.601Z" fill="#FFC105"/>
<path d="M468.201 293.195H461.431V299.585H468.201V293.195Z" fill="#FFC105"/>
<path d="M441.861 275.895H435.091V282.285H441.861V275.895Z" fill="#FFC105"/>
<path d="M132.941 275.895H126.171V282.285H132.941V275.895Z" fill="#FFC105"/>
<path d="M93.8115 275.895H87.0415V282.285H93.8115V275.895Z" fill="#FFC105"/>
<path d="M455.031 275.895H448.261V282.285H455.031V275.895Z" fill="#FFC105"/>
<path d="M481.371 275.895H474.601V282.285H481.371V275.895Z" fill="#FFC105"/>
<path d="M468.201 275.895H461.431V282.285H468.201V275.895Z" fill="#FFC105"/>
<path d="M468.201 321.784H461.431V315.014C463.281 315.904 465.571 315.164 467.431 315.164C467.871 315.164 467.921 315.194 468.201 315.574V321.784Z" fill="#FFC105"/>
<path d="M120.151 337.205H113.001V343.225H120.151V337.205Z" fill="#FFC105"/>
<path d="M481.371 315.014V321.784C479.341 321.174 476.621 321.174 474.601 321.784V315.014C476.771 316.024 479.051 314.624 481.371 315.014Z" fill="#FFC105"/>
<path d="M347.791 240.914V250.314L343.281 249.564V240.164L347.791 240.914Z" fill="#FFC105"/>
<path d="M494.542 315.014V321.404H487.771V315.014C490.031 315.214 492.312 315.684 494.542 315.014Z" fill="#FFC105"/>
<path d="M93.8115 315.014V321.404H87.0415V315.014C89.2415 315.204 91.6615 315.844 93.8115 315.014Z" fill="#FFC105"/>
<path d="M146.111 292.824V299.594H139.901C139.521 299.314 139.491 299.264 139.491 298.824C139.491 297.644 139.741 296.204 139.731 294.864C139.731 293.984 138.921 292.934 140.111 292.964C142.011 293.014 144.241 293.684 146.101 292.814L146.111 292.824Z" fill="#FFC105"/>
<path d="M106.601 299.594H100.201V292.824C101.741 293.434 103.621 293.234 105.291 293.204C105.781 293.204 106.331 292.824 106.411 292.834C107.311 292.894 106.591 293.714 106.591 293.764V299.594H106.601Z" fill="#FFC105"/>
<path d="M146.111 315.014V320.844C146.111 320.954 146.591 321.134 146.491 321.404H139.341C140.231 319.664 139.491 317.524 139.491 315.774C139.491 315.334 139.521 315.284 139.901 315.004H146.111V315.014Z" fill="#FFC105"/>
<path d="M494.541 293.195H488.141V299.585H494.541V293.195Z" fill="#FFC105"/>
<path d="M494.541 275.895H488.141V282.285H494.541V275.895Z" fill="#FFC105"/>
<path d="M106.611 275.895H100.211V282.285H106.611V275.895Z" fill="#FFC105"/>
<path d="M132.941 321.414H126.171V315.394H132.381C132.491 315.394 132.671 314.914 132.941 315.014V321.404V321.414Z" fill="#FFC105"/>
<path d="M481.371 337.205V343.225H474.221C474.121 342.945 474.601 342.775 474.601 342.665V337.215H481.371V337.205Z" fill="#FFC105"/>
<path d="M146.121 275.895H139.721V282.285H146.121V275.895Z" fill="#FFC105"/>
<path d="M106.601 315.015V321.405H100.201V315.015C102.151 315.495 104.471 314.725 106.601 315.015Z" fill="#FFC105"/>
<path d="M120.151 308.994H113.001V314.634H120.151V308.994Z" fill="#FFC105"/>
<path d="M146.111 337.205V343.225H139.341C139.951 341.425 139.951 338.995 139.341 337.205H146.111Z" fill="#FFC105"/>
<path d="M132.941 337.205V343.225H126.171V337.775C126.451 337.395 126.501 337.365 126.941 337.365C128.811 337.365 131.091 338.105 132.941 337.215V337.205Z" fill="#FFC105"/>
<path d="M106.611 337.205H100.211V343.225H106.611V337.205Z" fill="#FFC105"/>
<path d="M223.631 292.824V299.974C221.931 299.364 219.671 299.364 217.991 299.974V292.824H223.631Z" fill="#FFC105"/>
<path d="M93.8115 343.225H87.0415V337.585H93.2515C93.3615 337.585 93.5415 337.105 93.8115 337.205V343.225Z" fill="#FFC105"/>
<path d="M468.201 337.585V343.225H461.431V337.205C461.711 337.105 461.881 337.585 461.991 337.585H468.201Z" fill="#FFC105"/>
<path d="M223.621 275.895H217.981V282.665H223.621V275.895Z" fill="#FFC105"/>
<path d="M132.941 308.994H126.171V314.634H132.941V308.994Z" fill="#FFC105"/>
<path d="M441.861 308.994H435.091V314.634H441.861V308.994Z" fill="#FFC105"/>
<path d="M455.031 308.994H448.261V314.634H455.031V308.994Z" fill="#FFC105"/>
<path d="M468.201 308.994H461.431V314.634H468.201V308.994Z" fill="#FFC105"/>
<path d="M363.222 330.064H357.582V336.834H363.222V330.064Z" fill="#FFC105"/>
<path d="M223.621 330.064H217.981V336.834H223.621V330.064Z" fill="#FFC105"/>
<path d="M481.371 308.994H474.601V314.634H481.371V308.994Z" fill="#FFC105"/>
<path d="M494.542 308.994H487.771V314.634H494.542V308.994Z" fill="#FFC105"/>
<path d="M494.542 337.584H487.771V343.224H494.542V337.584Z" fill="#FFC105"/>
<path d="M455.031 337.584H448.261V343.224H455.031V337.584Z" fill="#FFC105"/>
<path d="M441.861 337.584H435.091V343.224H441.861V337.584Z" fill="#FFC105"/>
<path d="M93.8115 308.994H87.0415V314.634H93.8115V308.994Z" fill="#FFC105"/>
<path d="M146.111 308.994H139.341V314.634H146.111V308.994Z" fill="#FFC105"/>
<path d="M363.221 292.824C363.411 292.964 362.841 293.304 362.841 293.384V299.964C361.891 299.354 357.571 300.404 357.571 299.404V292.824H363.211H363.221Z" fill="#FFC105"/>
<path d="M223.631 322.914V329.684C221.871 328.934 219.851 329.444 217.991 329.304V322.914H223.631Z" fill="#FFC105"/>
<path d="M223.621 315.764H217.981V322.154H223.621V315.764Z" fill="#FFC105"/>
<path d="M363.222 315.764H357.582V322.154H363.222V315.764Z" fill="#FFC105"/>
<path d="M363.222 322.914H357.582V329.304H363.222V322.914Z" fill="#FFC105"/>
<path d="M106.611 308.994H100.211V314.634H106.611V308.994Z" fill="#FFC105"/>
<path d="M362.852 275.895H357.582V282.665H362.852V275.895Z" fill="#FFC105"/>
<path d="M217.981 268.375H222.871C223.031 268.535 222.751 271.635 222.841 272.345C222.901 272.825 224.291 273.615 223.621 275.145H217.981V268.375Z" fill="#FFC105"/>
<path d="M357.581 275.145C356.941 273.665 358.221 272.845 358.241 272.705C358.371 272.005 358.131 268.425 358.541 268.365H363.211C362.601 270.395 362.601 273.115 363.211 275.145H357.571H357.581Z" fill="#FFC105"/>
<path d="M286.091 325.544C286.181 319.324 295.061 319.454 294.741 325.544H286.091Z" fill="#FFC105"/>
<path d="M223.631 337.585V343.225H217.991V337.205C219.751 337.955 221.771 337.445 223.631 337.585Z" fill="#FFC105"/>
<path d="M363.222 337.584H357.582V343.224H363.222V337.584Z" fill="#FFC105"/>
<path d="M223.621 309.375H217.981V315.015H223.621V309.375Z" fill="#FFC105"/>
<path d="M363.222 309.375H357.582V315.015H363.222V309.375Z" fill="#FFC105"/>
<path d="M228.141 242.045V251.825L225.511 252.195C225.321 252.055 225.891 251.715 225.891 251.635V243.355C225.891 243.215 225.371 242.805 225.511 242.415L228.141 242.035V242.045Z" fill="#FFC105"/>
<path d="M354.942 242.415V252.195L353.062 251.825V242.045L354.942 242.415Z" fill="#FFC105"/>
<path d="M291.731 312.754H289.471V315.764H291.731V312.754Z" fill="#FFC105"/>
<path d="M195.781 283.414V292.064H187.131V283.414C187.411 283.314 187.581 283.794 187.691 283.794H195.221C195.331 283.794 195.511 283.314 195.781 283.414Z" fill="#FFC105"/>
<path d="M195.781 275.895H187.131V283.045H195.781V275.895Z" fill="#FFC105"/>
<path d="M195.781 292.824V299.974C195.501 300.074 195.331 299.594 195.221 299.594H187.691C187.581 299.594 187.401 300.074 187.131 299.974V292.824H195.781Z" fill="#FFC105"/>
<path d="M195.781 330.064H187.131V336.834H195.781V330.064Z" fill="#FFC105"/>
<path d="M195.781 268.375H187.131V275.145H195.781V268.375Z" fill="#FFC105"/>
<path d="M195.781 322.914H187.131V329.304H195.781V322.914Z" fill="#FFC105"/>
<path d="M195.781 315.764H187.131V322.154H195.781V315.764Z" fill="#FFC105"/>
<path d="M195.781 309.375V315.395C193.151 314.775 189.751 314.775 187.131 315.395V309.375H195.781Z" fill="#FFC105"/>
<path d="M195.781 337.584H187.131V343.224H195.781V337.584Z" fill="#FFC105"/>
<path d="M210.831 283.414H202.551V292.064H210.831V283.414Z" fill="#FFC105"/>
<path d="M210.832 275.895V283.045C210.552 283.145 210.382 282.665 210.272 282.665H202.562V275.895H210.842H210.832Z" fill="#FFC105"/>
<path d="M210.831 268.375H202.551V275.145H210.831V268.375Z" fill="#FFC105"/>
<path d="M210.832 292.824V299.974C210.552 300.074 210.382 299.594 210.272 299.594H203.502C203.392 299.594 203.272 299.954 203.122 299.954L202.572 299.404C203.522 297.304 202.602 294.984 202.562 292.814H210.842L210.832 292.824Z" fill="#FFC105"/>
<path d="M210.831 330.064V336.834H202.551C202.451 336.554 202.931 336.384 202.931 336.274V330.064H210.831Z" fill="#FFC105"/>
<path d="M210.831 315.764V322.154H202.551C202.451 321.874 202.931 321.704 202.931 321.594V315.764H210.831Z" fill="#FFC105"/>
<path d="M210.831 322.914H202.931V329.304H210.831V322.914Z" fill="#FFC105"/>
<path d="M210.831 309.375V315.015H202.551C203.531 313.195 202.251 311.305 202.551 309.375H210.831Z" fill="#FFC105"/>
<path d="M210.831 337.584H202.931V343.224H210.831V337.584Z" fill="#FFC105"/>
<path d="M393.701 292.074H385.421V283.424H393.131L393.611 283.984C393.621 284.134 393.311 284.264 393.311 284.364V291.514C393.311 291.624 393.791 291.804 393.691 292.074H393.701Z" fill="#FFC105"/>
<path d="M393.701 275.895C393.231 277.865 393.341 280.195 393.551 282.275L393.141 283.045H385.431V275.895H393.711H393.701Z" fill="#FFC105"/>
<path d="M393.701 330.065C393.891 330.205 393.321 330.545 393.321 330.625V336.265C393.321 336.375 393.801 336.555 393.701 336.825H385.051V330.055H393.701V330.065Z" fill="#FFC105"/>
<path d="M393.701 292.824C393.891 292.964 393.321 293.304 393.321 293.384V299.024C393.321 299.144 393.681 299.254 393.691 299.404L393.321 299.784C393.061 300.204 392.891 299.594 392.761 299.594H385.051C384.951 299.314 385.431 299.144 385.431 299.034V293.394C385.431 293.284 384.951 293.104 385.051 292.834H393.701V292.824Z" fill="#FFC105"/>
<path d="M393.701 268.375C393.891 268.515 393.321 268.855 393.321 268.935V274.575C393.321 274.685 393.801 274.865 393.701 275.135H385.051C384.951 274.855 385.431 274.685 385.431 274.575V268.365H393.711L393.701 268.375Z" fill="#FFC105"/>
<path d="M393.701 322.914C393.091 324.834 393.091 327.404 393.701 329.304H385.051V322.914H393.701Z" fill="#FFC105"/>
<path d="M393.321 315.764V321.594C393.321 321.704 393.801 321.884 393.701 322.154H385.051V315.764H393.331H393.321Z" fill="#FFC105"/>
<path d="M393.321 309.375C393.341 310.815 393.301 312.265 393.321 313.715C393.321 314.205 393.701 314.745 393.691 314.835C393.631 315.735 392.811 315.015 392.761 315.015H385.051V309.375H393.331H393.321Z" fill="#FFC105"/>
<path d="M393.701 337.584C392.951 339.344 393.462 341.354 393.322 343.224H385.042V337.584H393.691H393.701Z" fill="#FFC105"/>
<path d="M378.281 283.414H370.001V292.064H378.281V283.414Z" fill="#FFC105"/>
<path d="M378.271 275.895V282.475L377.711 283.045H370.001V275.895H378.271Z" fill="#FFC105"/>
<path d="M378.271 268.374V275.144H369.991V268.934C369.991 268.794 369.381 268.624 369.801 268.374L370.181 268.004C370.321 268.014 370.441 268.374 370.561 268.374H378.271Z" fill="#FFC105"/>
<path d="M378.281 292.824H370.001V299.594H378.281V292.824Z" fill="#FFC105"/>
<path d="M378.281 330.064H370.001V336.834H378.281V330.064Z" fill="#FFC105"/>
<path d="M378.281 322.914H370.001V329.304H378.281V322.914Z" fill="#FFC105"/>
<path d="M378.281 315.764H370.001V322.154H378.281V315.764Z" fill="#FFC105"/>
<path d="M378.271 309.375V315.015H370.001L369.711 309.925L370.181 309.375H378.271Z" fill="#FFC105"/>
<path d="M378.281 337.584H370.001V343.224H378.281V337.584Z" fill="#FFC105"/>
<path d="M408.371 283.795H400.471V292.075H408.371V283.795Z" fill="#FFC105"/>
<path d="M408.371 275.895H400.471V283.045H408.371V275.895Z" fill="#FFC105"/>
<path d="M408.371 292.824V299.974C408.091 300.074 407.921 299.594 407.811 299.594H401.041C400.931 299.594 400.751 300.074 400.481 299.974V292.824H408.381H408.371Z" fill="#FFC105"/>
<path d="M408.371 268.374V275.144H400.471V267.994C400.751 267.894 400.921 268.374 401.031 268.374H408.371Z" fill="#FFC105"/>
<path d="M408.371 330.064H400.471V336.834H408.371V330.064Z" fill="#FFC105"/>
<path d="M408.371 322.914V329.684C408.091 329.784 407.921 329.304 407.811 329.304H400.471V322.914H408.371Z" fill="#FFC105"/>
<path d="M408.371 315.764H400.471V322.154H408.371V315.764Z" fill="#FFC105"/>
<path d="M408.371 309.375V315.395C405.981 314.775 402.841 314.775 400.471 315.395V309.375H408.371Z" fill="#FFC105"/>
<path d="M408.371 337.584H400.471V343.224H408.371V337.584Z" fill="#FFC105"/>
<path d="M179.982 292.074H172.832V283.794H179.412C179.522 283.794 179.702 283.314 179.972 283.414V292.064L179.982 292.074Z" fill="#FFC105"/>
<path d="M179.982 275.895H172.832V283.045H179.982V275.895Z" fill="#FFC105"/>
<path d="M179.981 292.824V299.974C179.701 300.074 179.531 299.594 179.421 299.594H173.401C173.291 299.594 173.111 300.074 172.841 299.974V292.824H179.991H179.981Z" fill="#FFC105"/>
<path d="M179.982 330.064H172.832V336.834H179.982V330.064Z" fill="#FFC105"/>
<path d="M179.982 268.375H172.832V275.145H179.982V268.375Z" fill="#FFC105"/>
<path d="M179.982 322.914H172.832V329.304H179.982V322.914Z" fill="#FFC105"/>
<path d="M179.982 315.764H172.832V322.154H179.982V315.764Z" fill="#FFC105"/>
<path d="M179.982 309.375V315.395C177.832 314.775 174.972 314.785 172.832 315.395V309.375H179.982Z" fill="#FFC105"/>
<path d="M179.982 337.584H172.832V343.224H179.982V337.584Z" fill="#FFC105"/>
<path d="M383.161 219.094H375.261V228.874H383.161V219.094Z" fill="#FFC105"/>
<path d="M394.451 219.094C394.641 219.234 394.071 219.574 394.071 219.654V228.304C394.071 228.414 394.551 228.594 394.451 228.864H386.551V219.084H394.451V219.094Z" fill="#FFC105"/>
<path d="M405.371 219.094H397.841V228.874H405.371V219.094Z" fill="#FFC105"/>
<path d="M372.261 219.094H364.731V228.874H372.261V219.094Z" fill="#FFC105"/>
<path d="M205.561 219.094V228.874H197.281C197.181 228.594 197.661 228.424 197.661 228.314V219.664C197.661 219.554 197.181 219.374 197.281 219.104H205.561V219.094Z" fill="#FFC105"/>
<path d="M182.991 219.094H175.091V228.874H182.991V219.094Z" fill="#FFC105"/>
<path d="M194.271 219.094H186.371V228.874H194.271V219.094Z" fill="#FFC105"/>
<path d="M216.471 219.094H208.571V228.874H216.471V219.094Z" fill="#FFC105"/>
<path d="M494.541 241.295C494.681 241.705 494.161 242.125 494.161 242.235V250.695H487.391V241.295H494.541Z" fill="#FFC105"/>
<path d="M481.371 241.295V249.755C481.371 249.885 482.041 250.175 481.181 250.695H474.601V241.295H481.371Z" fill="#FFC105"/>
<path d="M468.582 241.295H461.812V250.695H468.582V241.295Z" fill="#FFC105"/>
<path d="M455.781 241.295H449.011V250.695H455.781V241.295Z" fill="#FFC105"/>
<path d="M442.611 241.295H435.841V250.695H442.611V241.295Z" fill="#FFC105"/>
<path d="M429.821 241.295V250.695L423.051 250.315V241.855C423.051 241.745 422.571 241.565 422.671 241.295H429.821Z" fill="#FFC105"/>
<path d="M506.961 241.295V250.315L500.191 250.695V241.295H506.961Z" fill="#FFC105"/>
<path d="M447.511 239.405V253.325H444.121V239.035L447.511 239.405Z" fill="#FFC105"/>
<path d="M434.342 239.035H431.332V253.705H434.342V239.035Z" fill="#FFC105"/>
<path d="M473.092 239.404V253.694C472.062 253.154 471.122 253.154 470.082 253.694V239.404H473.092Z" fill="#FFC105"/>
<path d="M498.681 253.325H495.671V239.405L498.681 239.035V253.325Z" fill="#FFC105"/>
<path d="M460.301 239.404H457.292V253.324H460.301V239.404Z" fill="#FFC105"/>
<path d="M485.891 239.404V253.694C484.931 253.104 484.251 253.444 483.261 253.694V239.404H485.891Z" fill="#FFC105"/>
<path d="M81.0215 241.295H74.2515V250.695H81.0215V241.295Z" fill="#FFC105"/>
<path d="M93.8115 241.295H87.0415V250.695H93.8115V241.295Z" fill="#FFC105"/>
<path d="M106.981 241.295H100.211V250.695H106.981V241.295Z" fill="#FFC105"/>
<path d="M119.771 241.295H113.001V250.695H119.771V241.295Z" fill="#FFC105"/>
<path d="M132.562 241.295H125.792V250.695H132.562V241.295Z" fill="#FFC105"/>
<path d="M145.361 241.295H138.591V250.695H145.361V241.295Z" fill="#FFC105"/>
<path d="M158.151 250.694H151.381V241.664C153.381 241.894 155.371 241.484 157.331 241.364C157.811 241.334 157.941 241.194 158.341 241.654C158.811 242.194 157.721 249.334 158.151 250.694Z" fill="#FFC105"/>
<path d="M98.7015 239.404V253.324L95.3115 253.124C95.2215 251.554 95.6815 249.754 95.7115 248.264C95.7215 247.664 95.3015 247.014 95.3115 246.364C95.3615 244.234 96.3315 241.584 95.3115 239.414H98.7015V239.404Z" fill="#FFC105"/>
<path d="M149.881 239.404H146.871V253.694H149.881V239.404Z" fill="#FFC105"/>
<path d="M85.5315 239.035V253.325H82.5215V239.035C83.5515 239.575 84.4915 239.575 85.5315 239.035Z" fill="#FFC105"/>
<path d="M124.291 239.404V253.694C123.261 253.154 122.321 253.154 121.281 253.694V239.404H124.291Z" fill="#FFC105"/>
<path d="M137.081 239.404V253.694C136.051 253.154 135.111 253.154 134.071 253.694V239.404H137.081Z" fill="#FFC105"/>
<path d="M111.501 239.404H108.491V253.324H111.501V239.404Z" fill="#FFC105"/>
<path d="M290.601 222.485L290.981 220.235L289.481 219.855L289.671 222.485C285.571 221.265 285.941 215.465 290.431 215.325C295.491 215.165 295.101 222.215 290.611 222.485H290.601Z" fill="#FFC105"/>
</g>
<defs>
<filter id="filter0_d_257_2565" x="0" y="0" width="581.76" height="383.789" filterUnits="userSpaceOnUse" color-interpolation-filters="sRGB">
<feFlood flood-opacity="0" result="BackgroundImageFix"/>
<feColorMatrix in="SourceAlpha" type="matrix" values="0 0 0 0 0 0 0 0 0 0 0 0 0 0 0 0 0 0 127 0" result="hardAlpha"/>
<feOffset/>
<feGaussianBlur stdDeviation="14"/>
<feComposite in2="hardAlpha" operator="out"/>
<feColorMatrix type="matrix" values="0 0 0 0 1 0 0 0 0 0.92549 0 0 0 0 0.176471 0 0 0 1 0"/>
<feBlend mode="normal" in2="BackgroundImageFix" result="effect1_dropShadow_257_2565"/>
<feBlend mode="normal" in="SourceGraphic" in2="effect1_dropShadow_257_2565" result="shape"/>
</filter>
</defs>
</svg>
