<?xml version="1.0" encoding="UTF-8"?>
<svg id="_Слой_1" data-name="Слой 1" xmlns="http://www.w3.org/2000/svg" viewBox="0 0 550 550">
  <defs>
    <style>
      .cls-1 {
        fill: #afafaf;
      }
    </style>
  </defs>
  <path class="cls-1" d="M97.5,88.65c5.84-.43,13.06.77,18.99,1.09,49.82,2.67,99.46,5.63,149.22,8.94,13.17.88,27.2.95,40.24,2.45,4.88.56,5.46,1.46,8.27,5.15,4.12,5.43,8.03,12.06,11.87,17.81,48.62,72.67,95.59,146.51,144.62,218.87,2.78,8.58-7.55,8.34-12.45,11.31-1.8,1.09-11.3,10.21-12.46,11.93-1.09,1.61.1,4.37-.22,6.7-.26,1.88-1.51,3.96-3.01,5.12-42.1,16.33-84.79,31.5-127.16,47.27-32.4,12.06-64.58,24.92-97.26,36.1-5.12.4-7.89-1.1-10.45-5.43L79.58,127.46c-.72-2.09-.92-4.37-.66-6.57.5-4.36,8.12-20.97,10.46-25.73,2.14-4.36,2.87-6.12,8.12-6.51ZM115.47,94.63l-8.13-.82c-.42.49,1.39,4.89,1.73,5.79,22.31,60.19,50.24,119.38,73.68,179.22l51.65,124.41,29.07-7.94.39-.79c-2.46-6.05-5.5-11.89-8.2-17.85-25.46-56.23-49.79-112.97-75.08-169.28-16.78-37.36-34.15-74.48-51.26-111.69l-2.27-.66c-.49.15-.14.88-.02,1.24,2.58,7.33,5.68,9.22,4.16,17.96-1.82,10.48-6.14,13.92,2.14,23.71s27.12,19.95,25.98,33.69c-1.03,12.47-8.23,18.88.13,31.28,10.34,15.35,35.27,25.08,33.62,46.78-.79,10.43-5.49,20.41-1.24,31.03,8.28,20.67,42.21,35.83,41.98,59.29-.16,16.34-8.69,32.73,4.64,47.37,5.19,5.7,14.56,6.06,13.18-3.43-.78-5.38-7.75-6.34-8.08-2.44-.24,2.89,2.86,1.74,3.47,2.58,2.08,2.86-4.42,4.7-6.81-.51-1.25-2.73-.67-4.42-.11-7.18-1.03-1.09-2.61-1.41-3.64-2.48-1.93-2-3.63-8.2-.03-8.89,5.15-.99,1.83,2.43,2.31,4.57.54,2.41,4.11,4.07,5.51,1.22,2.16-4.4-4.52-11.54-9.22-11.12-.61-1.86-.08-3.43-.03-5.06.08-2.96.06-5.89.52-8.83.08-.5.09-1.76.9-1.53,1.66.67,1.61,5.38,2.02,6.93.96,3.69,4.42,5.99,6.49,8.96,3.1,4.43,4.23,9.01,2.46,14.22,6.63,2.14,12.62,12.25,7.89,18.42-2.98,3.88-8.42,2.78-12.28,1.11-1.27.37-1.37,4.94-4.53,4.46-1.06-.16-2.85-4.37-3.41-5.57-2.63-5.57-6.88-14.71-7.37-20.69-.93-11.41,4.32-27.76,1.42-38.01-7.3-25.82-45.3-36.99-42.44-66.83.89-9.34,5.22-15.12,2.37-25.23-5.69-20.2-30.33-27.07-36.05-46.08-2.72-9.05,4.44-16.99,3.54-26.31-1.34-13.9-22.95-24.07-29.34-36.12-5.48-10.34,4.56-18.18,1.17-28.82-.94-2.94-7.68-10.61-10.64-7.22-1.78,2.03.91,4.52,2.74,4,.71-.2,1.16-1.55,2.32-1.16-.55,4.11.35,3.22,2.45,5.07,3.79,3.33.15,6.41-1.03,4.28-.55-.99.22-2.24-1.55-2.96-2.72-1.11-3.09,2.92-1.11,4.81,1.37,1.31,3.16,1.38,4.89,1.83l-2.23,8.51c-1.37-1-1.21-2.79-1.9-4.19s-1.97-2.22-2.71-3.39c-2.04-3.19-2.8-6.18-.9-9.64-4.29-2.26-7.47-5.67-3.23-10.01ZM458.23,333.7l-.48-1.34c-50.57-74.53-100.5-149.5-150.36-224.52-36.34-2.89-72.82-4.82-109.17-7.92l-59.56-3.66,130.5,289.31,189.08-51.86ZM96.25,101.66l-1.91-.52-.28,1.35c41.13,103.88,82.53,207.77,125.16,311.05,3.58,4.29,3.41.6,2.39-2.79-2.55-8.41-7.45-18.98-10.79-27.43-30.04-75.82-61.15-151.33-91.9-226.87-7.45-18.3-14.92-36.61-22.67-54.78ZM101.24,171.87c.76.18.79-.26,1.15-.68,1.3-1.49,7.23-13.28,7.61-15.16.54-2.68-.48-5.18-2.46-6.93-.96.02-7.9,15.67-7.75,17.5.14,1.69,1.41,3.5,1.45,5.26ZM106.11,180.41l7.66-15.35c.33-1.63-.82-3.31-1.76-4.57l-3.67,5.67c-.68,3.03-4.11,7.29-4.59,10.08-.21,1.24.76,4.15,2.36,4.17ZM156.95,314.18c.28.22,3.61-4.25,3.99-4.75,3.58-4.75,8.97-10.24,3.12-15.57l-9.88,12.86,2.77,7.46ZM444,358.51c-.69-.1-1.3.12-1.95.28-10.85,2.79-23.2,7.54-34.04,11.09-57.93,18.98-115.69,38.54-173.51,57.84-1.23.58-1.7,1.88-2.27,3.01-2.44,4.84-4.47,10.55-6.56,15.59.57.08,1.09-.06,1.64-.18,10.18-2.32,24.42-8.4,34.75-12.01,57.02-19.89,113.94-40.09,170.97-59.98l2.76-2.53.49-4.99-78.86,25.84-1.24-.22c21.65-7.85,43.63-14.87,65.26-22.77,5.3-1.93,11.47-3.97,16.56-6.21,2.67-1.17,4.25-2.34,6-4.77Z"/>
  <path class="cls-1" d="M212.65,314.18c-9.07.27-2.11,16.95,3.39,13.45,1.03-.66.87-3.53-.15-4.28-.74-.54-2.15-.4-2.86-1.2-1.13-1.82.13-3.15,1.97-3.41,4.64-.66,7.64,8.11,5.39,11.69,4.2.96,8.41,7.42,5.82,11.29-1.07,1.59-4.16,1.18-4.86-.69l-.09-.56c4.42-4.73-5.01-8.88-4.94-2.08.04,4.2,6.12,10.02,10.57,9.14l-2.04,17.89c-.63-.32-1.15-1.78-1.41-2.44-1.4-3.55-1.75-7.57-3.79-10.85-.9-1.45-2.53-2.8-3.51-4.22-3.16-4.58-5.18-10.18-2.7-15.56-1.96-1.42-3.87-2.41-5.46-4.33-5.98-7.21-3.41-15.91-7.3-23.6-.54-1.07-1.88-2.34-2.19-3.1-.84-2.08,2.28.06,2.79.46,1.61,1.28,9.89,9.82,10.97,11.39.24.34.57.4.4,1.02Z"/>
  <path class="cls-1" d="M220.37,309.3c-.75.8-13.07-12.19-14.22-13.22l2.6-1.87c2.53-2.55,1.49-6.65-.39-9.28-4.26-5.96-9.71,1.91-2.4,3.62.36,1.13.57,2.6-.83,2.87-4.95.94-9.11-7.34-5.9-11.19-1.17-.91-2.46-.99-3.66-2.02-4.72-4.07-2.34-12.55,3.67-6.92.27,1.22-1.92.92-2.02,1.02-1.35,1.34,3.37,6.52,5.64,2.58s-5.35-11.47-9.72-9.9c-.18-2.81.56-5.58.81-8.34.12-1.35-.59-6.36,1.03-6.7.66-.14.85.53,1.05.98.84,1.91.84,4.74,1.92,7.02,2.01,4.22,6.44,7.16,7.99,11.93,1.16,3.57.43,5.52-.43,8.94,4.94,2.21,8.5,7.01,9.13,12.45s.06,8.1,2.69,13.17c.37.72,3.28,4.62,3.05,4.87Z"/>
  <path class="cls-1" d="M174.02,223.92c-4.71.44-5.18,4.25-3.26,7.94,1.1,2.12,4.81,5.38,6.86,2.77,1.01-4.37-2.31-3.13-3.61-3.98-1.88-1.24,1.2-4.32,5.27-1.21,2.98,2.28,3.02,5.32,2.1,8.67,4.07.78,8.7,10.14,1.79,9.42-3.53-.37-.48-2.26-.59-3.45-.24-2.79-4.71-3.73-5.29-.84-.97,4.88,4.7,9.75,9.34,9.55-.53,1.77-1.37,13.85-3.05,13.81-1.71-2.5-1.76-5.9-3.1-8.68-1.82-3.8-5.5-6.2-6.74-10.74-.92-3.37-.23-4.61.52-7.81-4.81-2.55-8.08-6.49-8.72-12.05-.17-1.47.11-2.99-.05-4.42-.37-3.27-2.11-7.51-4.06-10.17l1.23-.02,11.37,11.19Z"/>
  <path class="cls-1" d="M169.14,196.27c4.24,1.07,8.23,6.55,8.51,10.84.08,1.2-.38,2.08-.4,3.18-.09,4.15,1.86,7.07,4.08,10.38l-11.11-9.45-.27-1.1c4.38-.97,3.93-6.99,1.17-9.53-1.62-1.5-4.58-1.81-5.46.53.19,2.27,1.91,2.88,3.84,3.33v1.34c-1.99,2.03-5.87-.3-6.65-2.61-.63-1.86.02-3.56.15-5.4-2.72-1.46-5.92-4.96-4.47-8.24.76-1.73,3.03-1.8,4.33-.58,1.49,1.4-.6,2.06-.64,2.31-.33,1.95,2.57,3.97,4.32,2.62,1.97-2.33-.14-5.69-2.06-7.37-1.76-1.55-3.74-1.68-5.45-3.08,1.15-2.69,1.14-5.43,1.37-8.3.36-.64.73-.21,1.03.2,1.11,1.51,2.03,4.52,3.32,6.43,3.32,4.92,8.09,7.5,4.39,14.51Z"/>
  <path class="cls-1" d="M141.22,160.35c1.84,1.83,5.3,2.15,4.26-1.42-.33-.55-3.18-.59-2.77-1.48.65-1.41,3.27-1.08,4.44-.38,3.04,1.81,1.25,5.87,1.72,6.62.08.13,2.09.89,2.75,1.52,2.62,2.48,2.63,6.79-1.99,5.85l.73-2.57c-.24-2.83-7.17-2.93-4.34,2.73,1.39,2.77,4.63,4.23,7.67,3.91-.19,1.52-2.06,10.74-3.06,10.97-1.53.36-1.66-5.7-2.13-6.81-.44-1.04-2.17-2.17-2.93-3.16-2.46-3.18-5.13-7.02-2.51-10.98-3.08-2.04-5.8-4.27-6.41-8.16s-.21-5.97-1.99-9.8c-.22-.47-1.74-1.96-.28-1.76,1.85.26,6.97,6.35,9.14,7.53-.57.73-1.49.53-2.24,1-2.21,1.4-1.71,4.73-.05,6.38Z"/>
  <path class="cls-1" d="M148.81,149.92l-8.12-7.93c2.31-1.46,3.4-1.64,2.74-4.79-.94-4.51-6.09-2.73-5.02-.7l2.67,1.83c-1.95,2.57-5.58-.52-5.87-2.99-.09-.74.46-1.8.11-2.42-.05-.09-.98-.5-1.36-.87-1.53-1.51-3.08-3.1-2.23-5.4,1.19-2.14,6.96-.36,3.26,1.54.17,2.44,4.37,3.34,4.42.39s-4.17-5.74-6.87-5.5c.03-1.24,1.14-1.72,1.25-3.04.15-1.76-.84-2.84-1.09-4.26-.09-.51-.13-1.08.45-1.23,2.25-.58,3.41,5.66,4.08,6.89.49.9,1.87,1.43,2.63,2.24,2.57,2.74,2.23,4.95,1.37,8.36,3.57,1.63,6.15,4.06,5.5,8.31-.13.87-.85,1.5-.79,2.43.1,1.69,3,4.98,2.84,7.15Z"/>
  <path class="cls-1" d="M305.68,110.97c47.65,73.59,97.33,145.84,145.22,219.28l-179.44,48.13L145.97,101.13l18.91,1.62c46.98,2.24,93.89,5.72,140.8,8.22ZM442.78,326.78l-.22-1.2c-45.85-70.65-92.91-140.5-139.24-210.84-46.97-2.76-93.94-5.51-140.91-7.5-2.94-.12-6.06-.77-9.13-.42l119.98,263.03,169.51-43.07Z"/>
  <path class="cls-1" d="M241.44,126.04c16.7-.44,36.92,11.15,44.21,26.3,3.11,6.47,1.34,8.83,1.93,14.81.06.62.77,1.04.63,1.99-.39,2.72-5.61,7.31-7.94,8.76-19.99,12.38-61.18-15.04-56.13-39.05,1.83-8.72,8.83-12.58,17.31-12.8ZM246.28,128.89c-2.74-1.33-1.09.25-.49,1.5,1.44,2.97,3.1,5.86,4.25,8.96-.97-.44-6.4-11.76-7.31-10.57.42,2.31,2.34,4.35,3.57,6.39.38.63,1.42,1.85,1.1,2.56-1.57-1.94-5.99-8.82-8.52-8.89-2.16-.07-6.72,1.83-8.16,3.6-1.57,1.93-3.05,6.54-1.01,8.54l-1.62-.4c-.19,1.89,1.23,3.4,2.43,4.68l-2.03-.61c-.19,1.59,1.55,2.34,2.43,3.46l-1.63.2c-1.22,1.26,2.87,3.31,4.07,3.26-.23,1.07-1.85-.26-2.44.18-1.55,1.14,1.39,3.51,2.24,4.32.31.29.88,0,.95.06.71.67.26,2.6,2.91,1.95l-1.62,1.01,6.5,6.11-1.21,1.61c2.5,3.14,10.2,1.48,9.52,7.13,1.56,1.34,2.06.71,2.91-.84,8.32,3.39,18.94,6.71,26.18-.59l-1.21-1.01c2.26-.34,1.47,3.21,4.07,2.24,1.35-1.67-2.02-1.31-2.4-2.51l.6-3.41c-3.49-1.2-7.77-3.98-6.13-8.11l1.02,2.24-.81.2c-.4.42,6.69,5,7.7,4.91.25.34-1.37,3.75,1.24,2.52l.64-1.29,1.8.36c.35-1.63-1.26-1.78-2.43-2.04-.08-.69.92-.32,1.16-1.06.09-.27.46-3.71.4-3.92-.05-.19-2.02-3.07-2.17-3.19-.41-.33-.98.08-1.01.04-.14-.24.04-1.07-.4-1.84-.36-.61-1.7-1.71-2.46-1.82v-.81c.22-.25,3.83,2.47,3.25,3.66,1.27.07,2.29-.88,1.45-2.07-.34-.49-1.7-.27-2.5-.75-.67-.41-1.11-1.74-1.8-2.27.82-.71,1.93,1.74,2.26,1.83,1.14.29,1.13-.47,1.37-1.39l-1.6-.65.41-1.62c-2.9-.06-1.37-1.27-2.23-2.04-1.06-.96-1.68.3-1.61-2.87l-2.26-.38.22-2.86-.45-.35c-1.75,1.08-2.07-1.5-3.21-2.9-2.83-3.47-8.88-6.9-13.22-7.92-2.89-.68-3.31.64-3.62,3.3s.27,4.12.67,6.56c.07.43.43,1.41-.3,1.32-.14-1.85-1.05-3.67-1.22-5.49-.11-1.15.38-5.65.22-5.9-.34-.54-.92-.41-1.44-.4-.42,3.11.39,5.95,1.04,8.92.09.42.54,1.32-.22,1.24-1.15-3.57-2.15-7.3-2.02-11.11l-1.23-.68c-.43,3.74,1.12,7.14,2.24,10.56.13.4.56,1.31-.21,1.22l-3.88-12.19c-.33-.54-1.6-.84-1.37.15.92,4.03,2.99,7.79,4.43,11.64l-5.8-11.68Z"/>
  <path class="cls-1" d="M222.42,204.42l-2.45,5.07c1.25.98,2.74,1.52,4.02,2.47,2.68,1.99,4.97,5.72,8.53,5.5l2.48,6.86c-.72.74-2.95-2.95-3.43-3.27-.95-.63-2.25-.72-3.61-1.68-3.38-2.39-6.32-6.12-10.24-8.06l3.1,7.47,3.2,1.87-8.94.41,1.6-1.47-6.72-15.97-2.2-1.26,8.53-.41c.44,1.26-1.31.86-1.59,1.26l2.41,7.68c2.07-1.53,2.2-8.95,4.69-9.36,2.06-.34,5.14,1.76,3.22,3.66l-2.61-.8Z"/>
  <path class="cls-1" d="M285.83,216.19c-.3-1.41.94-.28,1.35-1.32.63-1.61-5.75-11.75-6.2-14.25l-2.46-1.51c.59.33,8.25-.84,7.32.4l-1.64.63,3.06,6.69c.52-.23,1.96-5.52,1.85-6.29-.21-1.43-1.63-.85-2.05-1.84l5.45-.34.65,1.14c-1.67-.24-3.92,6.08-3.63,6.48,3.93,1.21,6.69,5.18,9.98,7.3,1.1.71,2.48.07,3,2.08l-4.46.22c-1.28-1.14-9.46-8.83-10.59-7.94,1.16,1.62,2.08,5.26,3.43,6.53,1.14,1.07,2.06.5,3.07,1.4-.61-.03-1.79.61-2.23.61h-5.9Z"/>
  <path class="cls-1" d="M366.34,254.01l-.81,1.41c2.1,2.1,3.35,6.97,5.48,8.76.84.71,1.88.47,2.24,1.21l-5.28.41c-.18-.68.78-.19.84-.63.21-1.38-4.6-7.63-5.11-9.53-.53-.72-2.5-.52-2.65.22-.38,1.88,4.46,3.57,4.82,4.96l-.41,5.34-7.67.87c-.18-.68.78-.19.84-.63.14-.93-3.55-6.8-4.5-7.9.25,1.87-1.34,6.97.16,8.17.52.42,1.51.07,1.46.77-.95.13-4.48,1.24-4.87.21l.84-.44c.09-.51-3.98-8.44-4.57-9.25-.65-.9-1.11-1.55-2.37-1.5l4.88-.8c.18.13-.66.75-.75,1.1-.19.69,2.55,5.43,3.15,6.44.22.36-.21.81.85.58l.83-6.68-1.64-1.85,4.47-.41c-.15.54-.75.73-.79,1.4-.05.77,3.55,7.4,4.28,8.33,3.34,4.27,3.7-1.29,3.85-4.17-.14-.55-5.64-1.92-4.84-4.86.46-1.69,5.65-1.11,7.26-1.51Z"/>
  <path class="cls-1" d="M343.56,256.85l-.84.24c-.13.71,4.76,9.89,5.32,10.15.52.24,1.24-.33,1.63-.06.34.24,1.35,3.28,2.02,3.9-1.71-.33-2.54-2.29-4.26-2.47-1.57-.16-9.18,1.55-9.56,1.25-.23-1.13.41-.79,1.22-.81.08-.44-.06-.82-.19-1.24-.3-1.03-4.08-8.3-4.74-9.09-2.93-3.56-2.91,2.62-2.8,4.42s1.71,6.87,0,7.75c-1.32.48-3.08-.75-2.84-2.25l2.84,1.22c.11-.79-.22-1.38-.62-2.01-1.22-1.88-5.68-6.5-7.48-7.97-.69-.56-1.47-.58-2.05-1.2l5.28-.61-.81,1.41c1.19,1.63,2.61,3.06,3.94,4.57.24.28-.02.78.93.52.16-.2-.47-4.68-.67-5.19-.44-1.11-2.09-.34-1.76-1.72l8.94-.81c-.06,1.59-1.32.11-.41,2.24,1.2,2.85,3.41,5.53,4.53,8.48.57,1.05,2.69.45,3.81.23.4-.08.86.24.61-.59-.84-2.83-4.46-6.79-5.35-9.91l-1.56-.87c.57.2,5.61-.59,4.87.4Z"/>
  <path class="cls-1" d="M351.7,196.27c.5,1.03-.8.69-.84,1.05-.1.73,2.97,5.83,3.62,6.95.84,1.44,3.6,6.51,4.83,6.96.82.3,2.04-.45,1.74.89-2.18-.64-5.55,1.43-6.91-.4l1.23-.21c.29-1.44-3.11-5.56-3.87-7.11h-5.9l3.76,6.81,2.74,1.32c-2.27-.23-5.74,1.52-7.32-.4l1.62-.61c-.64-.9-1.03-1.95-1.55-2.92-1.22-2.26-4.7-8.86-6.15-10.41-.98-1.05-2.6-.05-2.46-1.52h6.91l-1.18,1.77,2.88,5.06,6.02-.32-2.83-5.09-2.45-1.82h6.1Z"/>
  <path class="cls-1" d="M234.2,219.45c-.24-1.04.92-.97,1.24-1.5,1.2-1.99.1-13.56.09-16.6.4-.92,2.27-.85,2.93-.19l12.21,15.03,3.45,1.84c.05.12-.96.61-1.01.61h-6.1c-.36,0-.88.76-1.02-.61l1.23-.83c.15-.61-2.97-4.56-3.67-4.86-1.49-.63-4.03.01-5.69-.21-.1,3.27-.41,6.31,3.66,6.51.12.15-.53.81-.61.81h-6.71ZM242.73,211.31l-4.48-6.3-1.21-.61.87,6.85,4.82.05Z"/>
  <path class="cls-1" d="M279.12,216.6c-.15,0-.52.67-1.01-.21-.31-.84,1.49-.22.59-2.21-.11-.24-2.61-3.56-2.8-3.7-1.42-1.04-4.15.5-5.93.03l.61,4.88,2.65,1.62-6.1.41c-.38-1.11.74-.74,1.02-1.2.78-1.26-.18-4.04-.22-5.49-.12-3.72.42-7.56-.39-11.2,2.44-1,3.56,1.11,5.09,2.84,3.55,3.98,7.56,10.91,12.08,13.13.56.28.85.39.72,1.11-2.09-.06-4.21.08-6.3,0ZM269.97,202.37l-.81.21.86,7.07,4.83.04-4.88-7.31Z"/>
  <path class="cls-1" d="M308.6,203.59c-1.52-.42-2.15-2.35-3.46-3.25-1.74-1.2-5-1.44-5.48,1.03-1.23,6.42,7.49,15.99,13.21,9.55,2.1.4.35,2.96-.87,3.61-4.17,2.22-9.97-.4-12.75-3.82-4.72-5.81-5.38-14.19,4.56-12.69,3.44.52,3.2,3.04,4.78,5.58Z"/>
  <path class="cls-1" d="M274.45,264.17l-1.21,1.42c1.53,1.72,4.16,10.24,5.69,10.98.56.27,1.31,0,1.62.4-1.63.99-4.2.92-6.09,1.02-.46-1.28,1.03-.61,1.21-.82.62-.73-1.86-4.96-2.04-6.08l-5.26,1.01c1.09,1.04,1.61,4.03,2.41,4.91.88.98,2.33,0,2.06,1.39l-6.1.82c-.37-1.17,1.01-.76,1.2-1.46.16-.57-3.89-10.17-4.5-10.9-.68-.81-1.63-.55-1.99-1.46l5.69-.41-1.05,1.64,1.65,3.65c.87.92,3.73-.48,5.09-.01.31-.3-1.29-3.77-1.67-4.22-.67-.81-1.64-.54-1.99-1.46l5.28-.41Z"/>
  <path class="cls-1" d="M259,208.47c.84,1.1,2.37.82,3.79,1.69,2.11,1.29,3.79,3.95,2.42,6.32-1.44,2.52-7.3,1.63-9.82,1.69l-1.28-3.19,2.19-.03c.67,3.05,6.05,2.75,5.92-.54-.1-2.67-2.29-4.2-4.69-4.68-1.12-.22-2.57.41-3.42-.65,7.32-1.05,3.1-8.42-2.44-7.52l.41,2.84-1.78.03-1.46-3.08c2.93-1.86,6.79-1.99,9.72.03,2.55,1.76,4.12,5.83.43,7.09Z"/>
  <path class="cls-1" d="M344.38,213.35h-6.91c-.32-1.32,1.22-.34.74-1.76-.08-.24-2.87-3.82-3.08-3.97-1.08-.74-3.7.26-4.99.03-.25.24.7,3.97,1.03,4.46.79,1.15,2.11.48,2.63,1.64h-6.1c-.42-1.07.72-.65.82-1.08.74-3.22-2.05-10.43-2.07-14.18,0-.84,0-1.8,1.05-1.84.67,0,4.9,4.46,5.7,5.3,2.44,2.57,5.64,7.3,8.12,9.37,1.14.95,3.03.44,3.06,2.02ZM334.22,206.84l-6.09-7.31,1.66,7.28,4.43.04Z"/>
  <path class="cls-1" d="M248.83,267.02l-3.2,6.26c2.48,1.39,4.32,3.56,6.49,5.29.4.32,3.52,1.68,2.81,2.27-1.2-.25-2.52.73-3.64.21-.84-.38-6.22-6.94-7.33-5.9,1.04,1.14,1.47,4.38,2.23,5.28.81.96,2.57-.34,2.24,1.21l-6.1.81c-.4-1.15,1.06-.8,1.2-1.44.13-.6-4.03-10.76-4.49-11.32-.66-.8-1.64-.55-1.99-1.46l5.69-.82-1.19,1.4,2.21,4.69,1.79-5.24-1.59-.85,4.88-.41Z"/>
  <path class="cls-1" d="M254.42,265.89c8.8-1.51,15.21,14.21,5.18,14.56-7.9.28-13.09-13.2-5.18-14.56ZM258.85,268.79c-.88-.85-2.66-2-3.93-1.61-3.8,1.16-.15,10.38,2.87,11.41,6.57,2.22,3.92-7,1.05-9.79Z"/>
  <path class="cls-1" d="M309.82,260.11c-.03,1.55-1.3.11-.49,2.32.38,1.02,4.29,8.65,4.76,9.07.82.75,2.13-.16,1.84,1.21l-4.88.62.77-1.56c-1.34-2.12-2.19-5.02-3.51-7.07-.26-.4.04-.73-.91-.52.5,2.18-1.78,6.66-.45,8.38.6.77,1.99.11,1.66,1.38l-5.28.41c.1-1.19.98-1.05.65-2.44-.12-.5-4.22-8.92-4.53-9.33-.7-.93-1.93-.39-2.21-1.24l5.28-.41c.51,1.02-.8.69-.84,1.04-.12.9,3.14,6.83,4.09,7.9-.27-1.65,2.08-7.47.84-8.36-.62-.44-1.95.39-1.64-.99l4.88-.41Z"/>
  <path class="cls-1" d="M320.19,214.16c-.16-.04-.73-.71-.61-.81l1.23-.21c.41-2.13-6.32-11.19-6.94-14.02l-3.47.77-.52.73c-.05.21.73,2.95-.46,1.75-.3-.31-.97-3.83-2.04-4.47l13.65-.69,2.21,3.93c-1.87-1.97-3.79-2.55-6.5-1.83l7.13,12.79c.82,1.09,3.09.36,3.03,2.05-1.86-.31-5.06.43-6.71,0Z"/>
  <path class="cls-1" d="M272.82,245.67c-.42,1.36-3.88.52-3.25-1.42l2.43,1.22-.22-1.61-7.91-8.14,4.47-.41-.81,1.42,4.06,4.68c-.18-1.36.31-3.35-.07-4.6-.31-1.02-1.42-.71-1.55-1.49l11.34-.78.85,2.8c-1.31.05-.92-1.38-2.42-1.85-.81-.25-1.63-.21-2.46-.18.43,5.16,2.71,2.84,5.52,4.03,1.7.72,2.76,2.87,2.15,4.65-.44,1.29-5.47,1.21-6.86,1.47l1.2-.99-4.09-9.12-2.39.36v9.96ZM283.35,243.8c.25-2.44-1.94-4.58-4.43-4.02l2.03,4.29,2.41-.27Z"/>
  <path class="cls-1" d="M326.9,240.99h-3.66s.81-.6.81-.6c-1.45-2.4-1.82-3.1-4.88-2.65-.01.81-.06,1.94.43,2.62.61.83,1.55.27,1.6,1.04-1.94-.15-3.93.78-5.89.4-1.48-.29-3.83-4.11-5.9-4.46-.27.32,1.18,3.33,1.6,3.77.63.65,1.54.39,1.65,1.11l-4.06.41c-.44-1.03.83-.75.83-1.02,0-.61-2.94-6.75-3.5-7.49-.63-.83-1.42-.92-1.81-1.64l3.65-.41c-.6,1.46-.11,2.68.72,3.95.25.39-.05.73.9.52l.84-3.05-1.24-1.41h3.25s-2.03,4.46-2.03,4.46c2.35-.12,5.67,5.4,7.48,4.86.6-.18.68-.84.67-1.38-.02-2.55-.99-5.93-1.25-8.55.02-.38.69-.25.96-.15,2.12.81,6.13,8.34,8.8,9.69ZM321.2,237.33c.49-.44-2.57-4.12-3.25-4.47l.85,4.43,2.4.04Z"/>
  <path class="cls-1" d="M284.51,263.46l1.73,3.96c-10.64-10.67-7.4,8.67.35,7.46,1.77-.28,1.84-1.47,3.31-1.77-.41,4.15-5.02,4.28-8.01,2.52-6.61-3.88-7.44-15.06,2.62-12.18Z"/>
  <path class="cls-1" d="M263.06,235.71c.45,1.06-.76.67-.83,1.06-.11.61,2.79,7.21,3.33,8.03.85,1.31,2.06.57,1.98,1.88l-10.57.62-.41-.62,1.23-.21c.17-.86-2.82-7.8-3.48-8.75s-1.47-.23-1.81-1.21l10.57-.82ZM260.15,237l-4-.06c-.4.39,3.46,8.04,4.06,9.18l3.66-.24-3.72-8.88Z"/>
  <path class="cls-1" d="M298.03,264.98c-1.31.05-.93-1.38-2.42-1.85-.94-.29-1.91-.19-2.86-.18l4.68,10.16,2.24.82c.12.98,0,.65-.57.86-1.45.53-3.56.46-5.13.77-.21-1.44,1.4-.49,1.16-2.14-.08-.53-4.27-9.27-4.62-9.67-.45-.51-1.84.05-2.46.4l-.38,2.06-2.24-3.65,10.96-1.22,1.64,3.65Z"/>
  <path class="cls-1" d="M322.02,261.73c-1.29-1.04-2.96-2.58-4.46-1.02,1.91,2.33,3.15,7.6,4.84,9.68.68.83,1.86.25,2.05,1.09l-5.28.82c-.45-1.06.76-.67.83-1.06.34-1.85-4.28-8.24-4.54-10.7l-2.79.4c-.32.35.6,2.01-.83,1.61l-1.23-2.84c1.93.34,9.36-1.61,10.36-.4.17.2,1.14,2.29,1.02,2.43Z"/>
  <path class="cls-1" d="M380.16,252.39c-1.52.94.27,4.26,1.42,4.47,2.12.38,3.46-.54,5.51,1.4,4.76,4.51-1.44,6.03-5.3,5.91l.81-1.41c-2.13-1.96-3.53-7.08-5.26-8.86-.47-.49-.99-.65-1.65-.71l4.47-.8ZM381.79,257.67c-.29.25,2.8,7.05,4.7,4.49.38-2.57-2.24-4.65-4.7-4.49Z"/>
  <path class="cls-1" d="M297.21,233.67l-.84.24,3.28,6.27c-.15-1.54,1.5-5.37.64-6.54-.4-.54-1.53-.01-1.45-.78h4.06s-.84.63-.84.63c0,.52,3.25,7.49,3.72,8.07.67.83,1.51.3,1.59,1.05l-4.06.41.77-1.34c-.66-1.7-1.42-3.42-2.36-4.98-.22-.36.21-.81-.85-.59l-.76,5.4,1.97,1.51-4.47.41c.13-.52.74-.68.74-1.34,0-.47-3.45-7.72-3.78-8.02-.41-.37-.91-.4-1.43-.4l3.47-.7.59.7Z"/>
  <path class="cls-1" d="M241.45,237.81l.88,1.96-4.87-1.22,1.25,4.04c.19.14,2.22-.32,2.33-.46.28-.36-.29-1.27.47-1.14l1.22,3.05c-.83.92-.75-.56-1.07-.62-.78-.15-1.76.1-2.58,0l2.27,4.4,3.15-1.26c.29-.8-.76-1.78.67-1.52l1.22,3.25-8.54.81,1.19-.85-3.83-9.32-1.43-.8,7.66-.35Z"/>
  <path class="cls-1" d="M233.79,249.53l-5.28.41c-.23-1.13.41-.79,1.22-.81.32-.36-2.99-8.23-3.47-8.93-.77-1.11-2-.33-1.81-1.64,3.14.2,9.52-.98,10.09,3.57.42,3.38-4.39,2.36-4.39,3.14.81.66.93,2.49,1.41,3.05.57.67,1.96.16,2.24,1.22ZM228.1,239.37c.31,1.67,1.7,6.2,3.9,4.5,1.95-1.5-1.65-5.46-3.9-4.5Z"/>
  <path class="cls-1" d="M371.22,227.58c-.14.48-.44.84-.41,1.39.02.43,3.19,6.07,3.66,6.57.59.63.83.3,1.58.19l1.27,2.82c-1.28.27-.75-1.2-1.91-1.55-.9-.27-2.03,0-2.97-.08l.81-1.01-2.61-3.73-3.07.47c.8.82,1.39,2.88,2,3.61.5.59,1.55-.24,1.25,1.07h-3.25c.24-.61.47-.92.25-1.63-.19-.62-3.2-5.83-3.72-6.49s-1.33-.57-1.41-1.22h3.66s-.78.96-.78.96c.98,2.63,2.07,3.02,4.85,2.69-.71-1.71-1.4-2.89-2.85-4.06h3.66Z"/>
  <path class="cls-1" d="M350.48,229.21c-.14.42-.35.74-.23,1.21.14.54,3.39,6.63,3.69,6.92.62.61,1.7-.03,1.42,1.21h-3.66s.81-1.01.81-1.01l-2.62-3.71-3.07.45c1.13.72,1.38,2.86,2,3.61.49.59,1.56-.25,1.25,1.06-1.45-.39-6.85,1.01-7.73.62-.16-.07-.44-.39-.41-.62.22-.21,1.47.48,1.22-.61-.09-.39-3.6-6.81-3.86-7.12-.76-.9-1.56-.48-1.82-1.22l3.65-.41c-.26,1.98,1.57,5.09,2.64,6.92.95,1.62,1.23,2.89,3.46,2.02.26-.35-3.26-6.92-3.87-7.71-.52-.67-1.33-.57-1.41-1.22h3.66s-.81.6-.81.6c1.34,2.97,1.83,3.46,5.28,3.05l-2.84-4.06h3.25Z"/>
  <path class="cls-1" d="M374.81,253.26l1.69,3.59c-1.22-.53-2.15-2.61-3.47-2.85-5.34-.94-.51,8.45,3.36,9.26,2.26.47,2.39-.38,4.17-1.12-.69,4.31-5.52,2.88-8.09.98-4.83-3.57-6.12-11.71,2.34-9.86Z"/>
  <path class="cls-1" d="M252.49,240.59c-1.34-.75-1.45-2.39-3.14-2.76-5.98-1.33-2.09,9.35,2.9,8.86,1.44-.14,1.8-1.51,3.09-1.62-1.95,5.98-9.56,1.87-10.78-2.84-1.73-6.67,7.09-7.83,7.94-1.64Z"/>
  <path class="cls-1" d="M354.95,228.8c-1,4.26,1.82,3.14,4.09,3.84,1.46.45,4.23,3.54,2.4,4.88-.78.57-5.39,1.2-5.67.43l.84-.43c.14-.79-3.87-8.01-5.31-8.51l3.66-.2ZM358.25,237.28c4.07.36,1.2-4.68-1.67-4.01l1.67,4.01Z"/>
  <path class="cls-1" d="M334.22,230.43c-1.24,5.29,3.79,2.36,6.1,5.08,3.75,4.4-1.6,4.49-4.88,4.68.68-1.7-1.27-4.9-2.23-6.51-.66-1.1-1.27-2.65-2.65-2.84.54-.93,2.71-.16,3.66-.4ZM335.44,234.49l2.22,4.52,2.08-.43c0-2.17-2.04-4.37-4.3-4.08Z"/>
  <path class="cls-1" d="M387.89,251.57c-.28.59-.32.86-.12,1.49.24.75,4.67,7.84,5.19,8.28.57.48,1.62.34,1.84,1.2l-5.28.41,1.18-1.37c-1.83-1.99-3.43-6.96-5.24-8.6-.51-.46-.96-.64-1.64-.6-1.3-1.15,3.77-.8,4.07-.81Z"/>
  <path class="cls-1" d="M330.55,233.27l-2.7-1.95c-4.13-.38-.91,7.92,3.33,8.08,1.35.05,1.25-.35,2.04-.84,1.27-.78.99.73.17,1.4-3.58,2.93-10.02-3.2-9.34-7.28.47-2.85,6.44-2.99,6.51.59Z"/>
  <path class="cls-1" d="M291.93,233.27l-.81,1.01c1.59,1.67,2.8,6.81,4.04,8.17.62.69,1.61.24,1.66.98l-4.47.41,1.21-1.01c-1.86-2.59-2.28-7.29-5.28-8.75l3.65-.81Z"/>
  <path class="cls-1" d="M287.86,233.68c.45,1.06-.76.67-.83,1.06-.4,2.14,4.24,6.95,1.79,9.54l-2.98.38v-2.03c.29-.34,2.16,1.66,2.44.19.08-.4-2.58-7.3-2.87-7.69-.63-.84-1.54-.27-1.6-1.04l4.06-.41Z"/>
  <path class="cls-1" d="M361.46,228.4l-.81,1.01c1.88,1.54,2.79,5.68,4.27,7.13.62.61,1.7-.03,1.41,1.21h-4.06s1.21-1.01,1.21-1.01c-2.01-2.38-2.82-6.56-5.68-7.94.53-.93,2.71-.16,3.65-.4Z"/>
  <path class="cls-1" d="M262.81,150.99c1.31,1.48,2.72,2.78,2.21,5.14-1.21,5.49-14.04-.29-13.12-6.68.51-3.55,7.11-1.78,9.27-.28.91.63,1.03,1.12,1.65,1.82ZM259,151.96c-.13-2.9-2.28-3.28-1.22,0l-4.06-1.62c-.24,1.17.38.64.88.93.75.44,1.48.99,2.37,1.1l-.91.39c-.81.12-.4,2.42,1.12.42,1.08.66.27,3.11,1.83,2.84l.2-2.44,3.06,1.63c-.31.81-.9,1.4.4,1.21.41-1.79-1.42-2.65-2.84-3.26.41-.94,2.63.23,2.43-1.62l-3.25.41Z"/>
  <path class="cls-1" d="M270.27,166.86c.14-.09.14-.47.12-.67l3.65,3.65c-2.35.53-4.25,1.76-6.76,1.99-4.21.38-8.67-.81-12.35-2.8-.13-.64.71-.37,1.02-.81.26-.36-.4-1.72.86-1.95.59-.11,2.42.86,3.31,1.03,2.65.49,7.83,1.05,10.14-.43Z"/>
  <path class="cls-1" d="M274.71,170.89c.14-.12.17-.44.15-.64h.39c.12,1.16.9,1.68,2.04,1.63-6.79,6.53-17.13,3.15-24.8,0l.84-.64-.44-1.79c6.1,2.5,16.04,6.4,21.81,1.45Z"/>
  <path class="cls-1" d="M241.78,132.17l5.83,7.58-6.8-7.33c-3.29-1.81-8.3.83-8.66,4.67-.45,4.79.71,5.64,3.68,8.97-1.05.7-2.38-1.07-3.01-1.87-5.76-7.36.89-16.98,8.97-12.02Z"/>
  <path class="cls-1" d="M268.75,148.7l-1.62-2.65.84-.43c-.23-1.47-1.02-3.07-2.45-3.65-.53-.21-1.41-.58-1.24.42l1.62,1.42c-2.54-1.23-2.21,2.09-4.47,2.03.76-2.54,2.63-6.52,5.49-3.66l1.82,2.44c.61-1.61-3.27-5.12-4.48-4.67l-3.64,5.48c.53-5.97,3.66-8.17,8.12-3.25.81-.91-4.2-5.66-6.52-3.36-.45.44-2.01,3.83-2.23,4.57-.29.95.16,2.48-.59,2.86.15-4.93.2-11.55,6.88-7.9,4.86,2.65,2.88,5.95,2.46,10.34Z"/>
  <path class="cls-1" d="M241.77,135.04c.94.65,3.83,3.57,4.62,4.51.38.46.99.66.81,1.42-3.36-2.16-7.61-9.64-11.56-4.45-5.16,6.77,9.11,10.33,8.31,16.65-.67.81-2.67-3.85-2.91-4.2-2.68-3.99-8.68-5.11-7.5-10.85.85-4.11,4.89-5.38,8.23-3.08Z"/>
  <path class="cls-1" d="M244.77,140.16c-1.59-.36-2.15-1.96-3.79-2.54-.93-.33-1.78-.07-2.72-.3l.04,1.02-1.26.2.81.41c-2.2,3.44.78,4,2.63,5.7.85.78,2.97,3.29,3.76,3.56.5.17,4.88,1.01,5.15.94.69-.54.05-2.39,1.46-2.06-3.08,3.16,2.14,6.88,2.29,8.74.08.99-2.47,2.77-3.51,1.82l1.21-1.21-2.84-.21,2.43-1.83h-2.44s.02-1.19.02-1.19c.34-.54,2.83.13,2.41-1.25l-3.87,1.19-1-.79c.32-.66,1.9-.52,2.7-.75.55-.15,1.24-.16,1.36-.87l-4.47.81c-.7-1.73-.25-2.21,1.62-2.03l-1.01.81,3.45-.81c-.96-.46-4.72-.36-5.29-.66-.64-.34-5.8-4.88-6.51-5.63-1.44-1.51-1.66-3.23-.56-5.07,2.15-3.61,6.25-.45,7.9,2Z"/>
  <path class="cls-1" d="M280.23,159.96c.11.1.75-.28.94.08.4.76-.04,2.06,1.01,2.69-1.7.06-3.27-2.28-5.22-2.71l-.07-1.97-.81,1.63-1.62-.41.2-.8h1.24c.73-2.03-.28-3.7-1.44-5.29,2.65-.09,2.24,4.07,2.65,4.49.45.46,1.41.35,2.05.76s.72,1.21,1.08,1.53Z"/>
  <path class="cls-1" d="M257.37,143.82l-.83-3.44c.08-1.39-.34-6.99,1.08-7.49,2.94-1.02,9.91,2.78,12.16,4.82,4.16,3.79,4.36,6.97,3.55,12.11-.04.26.65,2.85-.5,1.72-.72-.7.1-5.74-.01-7.11-.5-6.02-8.32-10.75-13.95-10.79-.22.05-1.49,2.88-1.49,3.06v7.12Z"/>
  <path class="cls-1" d="M258.18,138.74c.03-.2,1.14-3.05,1.25-3.22,1.1-1.52,6.19.51,7.28,1.79-3.01-.6-5.06-3.41-6.81.31l-1.73,7.42c.21-1.96-.29-4.43,0-6.3Z"/>
  <path class="cls-1" d="M274.44,158.05l-1.41-3.66c-1.53-2.4-3.46-3.86-3.08-7.12.1-.9.7-1.36.83-2.04.47-2.58-1.01-4.72-2.42-6.68,2.82,1.05,3.48,4.82,3.25,7.52-.1,1.16-.86,2.59-.73,3.57.41,3,5.14,4.71,3.57,8.42Z"/>
  <path class="cls-1" d="M269.97,164.97l-4.26,1.62-7.52-.82c.24-.87.52-.62,1.13-.55,3.3.39,4.74,1.18,8.19.31.76-.19,1.21-1.32,2.48-.57Z"/>
  <path class="cls-1" d="M246.39,143c-3.23-1.16-5.68-5.97-7.93-.81-.55-1.28,1.28-3.43,2.76-3.19.78.13,5.5,3.69,5.17,4Z"/>
  <path class="cls-1" d="M275.67,167c-1.13,1.8,1.04,2.58,2.03,3.86-1.4.46-2.5-2.19-3.45-3.05s-2.63-1.4-3.45-2.44c2.08-.31,3.08,2.37,4.88,1.63Z"/>
  <path class="cls-1" d="M241.51,152.76l-3.28-2.61c-1.05-1.58-.13-2.74,1.27-1.27.77.81,1.14,2.9,2.01,3.88Z"/>
  <path class="cls-1" d="M281.77,165.37c-2.01-.65-4.48-1.93-5.69-3.65,2.11.5,4.09,2.23,5.69,3.65Z"/>
  <path class="cls-1" d="M274.85,143.42c.69,1.71-.07,3.48,1.23,4.87l-1.17.05-.46,1.17c.24-2.17.57-4.01-.41-6.09h.81Z"/>
  <polygon class="cls-1" points="267.06 150.4 267.94 151.54 265.91 151.75 268.75 152.76 266.74 152.8 266.32 153.98 265.1 151.15 267.06 150.4"/>
  <path class="cls-1" d="M267.89,159.63c-.3.28-1.34.57-1.56-.16l1.42-1c-.09.25.19,1.12.15,1.16Z"/>
  <path class="cls-1" d="M266.11,160.08c.26.14.26.27,0,.41v-.41Z"/>
</svg>