<?xml version="1.0" encoding="UTF-8"?>
<svg id="_Слой_1" data-name="Слой 1" xmlns="http://www.w3.org/2000/svg" viewBox="0 0 550 550">
  <defs>
    <style>
      .cls-1 {
        fill: #afafaf;
      }
    </style>
  </defs>
  <path class="cls-1" d="M440.33,188.89c.02-.17.88-.66.58-.87l-150.06,37.42h-4.66S22.64,159.64,22.64,159.64c-3.81-1.47-2.89-5.45.91-6.11l251.47-56.72,253.82,64.26c2.33,2.52.01,4.22-2.63,4.88l-77.09,19.73c-1.75-11.03-10.83-13.07-20-15.4-44.7-11.37-91.76-17.83-136.94-27.45-5.35-3.52-11.85-5.07-18.27-4.53-10.26.86-19.32,9.12-4.98,13.15,6.78,1.91,14.33,1.09,20.65-1.88,42.84,9.43,86.31,16.37,129.13,25.84,5.7,1.26,16.16,3.1,20.86,6.05,2.26,1.42,7.78,7.15,7.78,9.77v69.91c-2.51-.95-4.5-.5-7.02,0v-72.25Z"/>
  <path class="cls-1" d="M406.99,203.81c-1.85,29.02-4.69,57.96-7.6,86.87-1.84,18.24,1.15,21.98-15.03,33.53-49.36,35.22-146.9,33.82-200.65,9.57-10.38-4.68-30.1-14.74-32.3-26.78l-9.42-109.62c42.99,10.46,85.74,22.18,128.8,32.36,4.65,1.1,13.49,3.87,17.77,3.93,4.67.06,13.69-2.95,18.64-4.16,33.36-8.13,66.39-17.7,99.79-25.69Z"/>
  <path class="cls-1" d="M447.94,282.78c2.34.2,2.69,1.04,2.92,3.21.22,2.05.2,17.13-.29,17.88-.45.69-2.05.17-1.47,1.72,1.82-.11,3.7,1.87,4.58,3.32,3.18,5.22,1.57,19.05,1.83,25.67,1.4,36.1,4.07,72.11,4.68,108.23.04,2.44,1.44,4.95.07,7.48-2.11,1.68-4.29,1.08-4.67-1.69-1.38-9.88-1.34-22.53-1.83-32.71-1.03-21.35-.82-43.13-2.29-64.4-.06-.89-.13-3.48-1.19-3.78,1.1,25.18.29,50.52.55,75.78.09,8.62,1.75,18.23.56,26.85-.55,3.97-5.92,3.63-5.81-.54-.02-25.93-1.12-51.95-1.77-77.79-.13-5.26.24-10.57.02-15.83-.03-.71.44-2.18-.58-2.04l-1.75,95.66c.13,4.18-5.49,4.59-5.89.6l.61-90.41-1.19,8.46c.05,16.22-1.47,32.38-2.34,48.56-.51,9.53.08,21.19-1.2,30.39-.45,3.26-2.26,5.18-5.24,2.88-.47-4.85.46-9.83.63-14.5,1.37-36.72,3.09-73.31,5.27-109.98.41-6.83-2.12-17.9,6.41-20.21v-1.15c-.47-.07-1.22-.18-1.47-.57-.49-.75-.57-15.98-.31-17.9.31-2.31,1.28-2.71,3.54-2.61.09-1.66-2.12-1.81-3.42-3.31-8.08-9.28,6.11-20.46,13.97-12.22,4.74,4.97,2.2,11.56-2.95,14.94Z"/>
</svg>