<svg width="566" height="413" viewBox="0 0 566 413" fill="none" xmlns="http://www.w3.org/2000/svg">
<g filter="url(#filter0_d_257_2568)">
<path d="M448.13 120.08C448.15 119.91 449.01 119.42 448.71 119.21L298.65 156.63H293.99L30.4396 90.83C26.6296 89.36 27.5496 85.38 31.3496 84.72L282.82 28L536.64 92.26C538.97 94.78 536.65 96.48 534.01 97.14L456.92 116.87C455.17 105.84 446.09 103.8 436.92 101.47C392.22 90.1 345.16 83.64 299.98 74.02C294.63 70.5 288.13 68.95 281.71 69.49C271.45 70.35 262.39 78.61 276.73 82.64C283.51 84.55 291.06 83.73 297.38 80.76C340.22 90.19 383.69 97.13 426.51 106.6C432.21 107.86 442.67 109.7 447.37 112.65C449.63 114.07 455.15 119.8 455.15 122.42V192.33C452.64 191.38 450.65 191.83 448.13 192.33V120.08Z" fill="#FFC105"/>
</g>
<g filter="url(#filter1_d_257_2568)">
<path d="M414.79 135C412.94 164.02 410.1 192.96 407.19 221.87C405.35 240.11 408.34 243.85 392.16 255.4C342.8 290.62 245.26 289.22 191.51 264.97C181.13 260.29 161.41 250.23 159.21 238.19L149.79 128.57C192.78 139.03 235.53 150.75 278.59 160.93C283.24 162.03 292.08 164.8 296.36 164.86C301.03 164.92 310.05 161.91 315 160.7C348.36 152.57 381.39 143 414.79 135.01V135Z" fill="#FFC105"/>
</g>
<g filter="url(#filter2_d_257_2568)">
<path d="M455.74 213.969C458.08 214.169 458.43 215.009 458.66 217.179C458.88 219.229 458.86 234.309 458.37 235.059C457.92 235.749 456.32 235.229 456.9 236.779C458.72 236.669 460.6 238.649 461.48 240.099C464.66 245.319 463.05 259.149 463.31 265.769C464.71 301.869 467.38 337.879 467.99 373.999C468.03 376.439 469.43 378.949 468.06 381.479C465.95 383.159 463.77 382.559 463.39 379.789C462.01 369.909 462.05 357.259 461.56 347.079C460.53 325.729 460.74 303.949 459.27 282.679C459.21 281.789 459.14 279.199 458.08 278.899C459.18 304.079 458.37 329.419 458.63 354.679C458.72 363.299 460.38 372.909 459.19 381.529C458.64 385.499 453.27 385.159 453.38 380.989C453.36 355.059 452.26 329.039 451.61 303.199C451.48 297.939 451.85 292.629 451.63 287.369C451.6 286.659 452.07 285.189 451.05 285.329L449.3 380.989C449.43 385.169 443.81 385.579 443.41 381.589L444.02 291.179L442.83 299.639C442.88 315.859 441.36 332.019 440.49 348.199C439.98 357.729 440.57 369.389 439.29 378.589C438.84 381.849 437.03 383.769 434.05 381.469C433.58 376.619 434.51 371.639 434.68 366.969C436.05 330.249 437.77 293.659 439.95 256.989C440.36 250.159 437.83 239.089 446.36 236.779V235.629C445.89 235.559 445.14 235.449 444.89 235.059C444.4 234.309 444.32 219.079 444.58 217.159C444.89 214.849 445.86 214.449 448.12 214.549C448.21 212.889 446 212.739 444.7 211.239C436.62 201.959 450.81 190.779 458.67 199.019C463.41 203.989 460.87 210.579 455.72 213.959L455.74 213.969Z" fill="#FFC105"/>
</g>
<defs>
<filter id="filter0_d_257_2568" x="0" y="0" width="565.599" height="220.33" filterUnits="userSpaceOnUse" color-interpolation-filters="sRGB">
<feFlood flood-opacity="0" result="BackgroundImageFix"/>
<feColorMatrix in="SourceAlpha" type="matrix" values="0 0 0 0 0 0 0 0 0 0 0 0 0 0 0 0 0 0 127 0" result="hardAlpha"/>
<feOffset/>
<feGaussianBlur stdDeviation="14"/>
<feComposite in2="hardAlpha" operator="out"/>
<feColorMatrix type="matrix" values="0 0 0 0 1 0 0 0 0 0.92549 0 0 0 0 0.176471 0 0 0 1 0"/>
<feBlend mode="normal" in2="BackgroundImageFix" result="effect1_dropShadow_257_2568"/>
<feBlend mode="normal" in="SourceGraphic" in2="effect1_dropShadow_257_2568" result="shape"/>
</filter>
<filter id="filter1_d_257_2568" x="121.79" y="100.57" width="321" height="210.021" filterUnits="userSpaceOnUse" color-interpolation-filters="sRGB">
<feFlood flood-opacity="0" result="BackgroundImageFix"/>
<feColorMatrix in="SourceAlpha" type="matrix" values="0 0 0 0 0 0 0 0 0 0 0 0 0 0 0 0 0 0 127 0" result="hardAlpha"/>
<feOffset/>
<feGaussianBlur stdDeviation="14"/>
<feComposite in2="hardAlpha" operator="out"/>
<feColorMatrix type="matrix" values="0 0 0 0 1 0 0 0 0 0.92549 0 0 0 0 0.176471 0 0 0 1 0"/>
<feBlend mode="normal" in2="BackgroundImageFix" result="effect1_dropShadow_257_2568"/>
<feBlend mode="normal" in="SourceGraphic" in2="effect1_dropShadow_257_2568" result="shape"/>
</filter>
<filter id="filter2_d_257_2568" x="405.918" y="168.146" width="90.7412" height="244.219" filterUnits="userSpaceOnUse" color-interpolation-filters="sRGB">
<feFlood flood-opacity="0" result="BackgroundImageFix"/>
<feColorMatrix in="SourceAlpha" type="matrix" values="0 0 0 0 0 0 0 0 0 0 0 0 0 0 0 0 0 0 127 0" result="hardAlpha"/>
<feOffset/>
<feGaussianBlur stdDeviation="14"/>
<feComposite in2="hardAlpha" operator="out"/>
<feColorMatrix type="matrix" values="0 0 0 0 1 0 0 0 0 0.92549 0 0 0 0 0.176471 0 0 0 1 0"/>
<feBlend mode="normal" in2="BackgroundImageFix" result="effect1_dropShadow_257_2568"/>
<feBlend mode="normal" in="SourceGraphic" in2="effect1_dropShadow_257_2568" result="shape"/>
</filter>
</defs>
</svg>
