<svg width="569" height="522" viewBox="0 0 569 522" fill="none" xmlns="http://www.w3.org/2000/svg">
<g filter="url(#filter0_d_257_2569)">
<path d="M274.82 87.8418C362.73 81.1118 425.44 171.192 387.8 251.432C350.16 331.672 231.39 338.692 185.58 259.882C143.5 187.492 191.35 94.2318 274.83 87.8418H274.82Z" fill="#FFC105"/>
</g>
<g filter="url(#filter1_d_257_2569)">
<path d="M439.09 325.992C439.16 325.902 440.18 326.142 440.48 325.772C456.72 305.932 470.21 280.802 477.68 254.772C478.44 252.112 480.92 237.662 481.58 237.032C481.88 236.752 485.03 236.902 485.68 237.362C489.96 240.372 485.66 261.922 485.62 267.202L484 265.582C482.43 287.442 490.53 272.672 494.18 263.112C498.03 253.022 498.81 240.662 502.36 231.292C503.68 227.812 506.96 224.712 507.68 220.682C508.19 220.322 511.42 222.122 511.72 222.952C513.34 227.322 510.78 238.162 511.58 243.152C507 253.912 505.09 268.382 496.19 277.562C495.95 277.802 492.97 282.922 492.93 283.262C492.82 284.312 493.73 285.602 493.62 287.072C493.43 289.432 488.46 289.912 493.49 293.222C499.04 291.782 501.02 286.762 504.06 282.802C509.18 276.142 519.32 258.702 524.77 254.532C527.15 252.712 533.87 250.502 534.53 254.672C534.97 257.442 518.64 281.562 515.94 285.712C514.85 287.382 514.01 290.112 513.38 291.712C513.18 292.232 512.95 292.272 512.56 292.532C508.7 295.092 506.67 299.062 502.72 302.712C501.89 303.472 501.27 305.242 500.94 305.422C500.04 305.922 498.28 305.302 497.92 305.642C497.7 305.852 497.96 307.812 497.43 308.812C496.54 310.522 493.23 311.592 493.86 314.002C494.09 314.872 495.42 316.222 496.46 316.072C496.94 316.002 504.69 312.002 505.14 311.652C506.53 310.592 506.94 308.342 508.11 307.272C510.15 305.392 514.2 304.732 515 300.692C515.28 300.432 515.53 300.142 515.82 299.872L521.86 295.262C525.19 295.342 523.96 292.162 525.01 291.102C525.46 290.652 527.01 290.742 527.66 290.122C530 287.912 532.28 282.692 535.81 282.652C539.34 282.612 539.16 285.462 537.83 287.812C537.26 288.832 535.8 288.982 535.02 290.092C533.05 292.882 531.47 296.172 529.69 299.062C526.08 301.402 524.03 304.362 521.53 308.042C518.93 310.022 513.28 313.542 511.14 315.612C510.52 316.212 509.91 320.252 508.19 321.652C507.05 322.582 504.23 322.952 502.83 324.052C501.74 324.912 501.38 326.382 500.33 327.272C497.17 329.922 491.64 332.782 492.13 337.432C496.48 337.762 500.53 337.172 504.57 335.562C505.75 335.092 508.04 334.282 507.65 332.532C508.07 332.372 508.88 332.692 509.28 332.532C512.94 331.082 515.83 328.122 519.89 327.642C519.42 333.992 512.88 339.432 508.09 343.182C501.15 348.602 491.99 354.732 484.55 360.042C483.56 360.752 481.65 360.572 480.68 361.482C479.18 362.902 479.87 366.822 481.11 366.822H493.76C493.28 368.292 491.8 369.062 490.5 369.682C482.86 373.352 471.44 374.912 463.37 378.262C460.37 381.362 463.42 380.492 463.55 380.692C463.78 381.052 463.01 382.932 463.99 383.192C467.77 384.212 474.2 382.012 478.24 383.542C473.87 388.502 452.32 387.832 450.49 392.542C449.83 394.232 452 393.642 452.12 393.752C452.22 393.842 451.9 394.772 452.36 395.172C452.99 395.702 454.42 395.252 454.57 395.392C458.08 398.692 443.39 400.362 441.5 399.472C441.66 397.592 441.12 395.262 441.65 393.492C442.27 391.442 445.16 392.032 444.77 389.672C445.02 389.602 445.33 389.732 445.59 389.672C454.64 387.492 449.66 382.652 451.2 381.042C454.44 377.672 464.53 377.082 465.18 372.522C465.22 372.262 465.17 371.972 465.18 371.702C465.25 370.312 464.27 368.902 465.12 367.412C467.56 363.142 473.31 365.552 474.16 360.272C474.4 360.192 474.72 360.342 474.98 360.272C475.75 360.062 477.13 360.692 478.02 360.042C479.02 357.892 487 354.252 484.71 351.352C484.32 350.862 479.13 351.012 478.27 349.252C478.24 348.682 483 343.872 484 342.892C484.73 342.172 485.98 342.482 486.47 341.802C486.67 341.522 488.83 335.722 488.87 335.282C489.6 326.842 480.43 331.392 479.88 330.872C480.14 326.712 489.59 313.622 483.96 310.872C477.71 307.812 464.5 313.372 458.74 316.692C450.6 321.392 442.24 330.422 437.42 338.232C430.07 343.382 430.02 347.852 425.48 355.282C407.82 366.822 384.39 373.482 368.41 387.242C365.89 389.412 359.45 398.022 357.37 399.032C352.31 401.492 341.44 401.882 335.78 402.742C312.97 406.222 294.61 405.772 277.37 422.742C263.06 436.832 249.32 441.672 231.04 450.672C229.01 451.672 229.74 454.562 225.69 453.212C221.64 451.862 227.32 447.422 229.11 446.282C240.21 439.252 253.87 438.362 264.83 429.382C266.32 428.162 270.27 425.782 270.64 425.352C271.51 424.332 271.49 422.382 272.47 421.052C273.79 419.272 280.36 414.102 282.34 412.142C284.05 410.452 286.23 405.582 286.54 405.332C287.24 404.772 289.38 405.522 290.1 404.382C290.63 403.552 290.13 401.892 290.62 401.252C290.84 400.962 296.52 398.872 297.45 398.702C305.23 397.252 314.39 397.592 322.5 395.992C341.43 392.282 362.72 384.602 379.73 375.622C380.88 375.012 382.31 375.292 381.88 373.322C382.11 373.222 382.47 373.422 382.7 373.322C392.25 369.052 403.18 361.182 411.67 354.532C417.41 350.032 423.13 345.332 426.79 339.032C427.08 338.782 427.31 338.462 427.61 338.212C431.6 334.882 431.76 335.502 434.96 330.862C439.38 328.042 437.2 328.342 439.04 325.962L439.09 325.992Z" fill="#FFC105"/>
</g>
<g filter="url(#filter2_d_257_2569)">
<path d="M62.7102 219.042C64.3802 224.102 66.0502 229.192 67.3802 234.372C68.9302 240.402 69.6002 247.902 71.2602 254.102C72.0602 257.092 78.3302 273.352 79.8202 275.012C80.9602 276.282 82.2302 276.432 83.8902 276.162C85.9802 274.422 81.6402 254.632 81.5002 250.482C81.3902 247.572 81.3502 240.952 82.3102 238.432C82.9202 236.822 85.9702 237.182 87.0902 237.972C89.6602 251.942 93.7102 265.482 99.1402 278.572C105.51 293.932 113.8 306.382 123.81 320.032C126.91 324.262 124.29 323.082 129.67 326.012C135.26 334.002 140.28 339.982 147.21 346.442C153.25 352.072 159.71 356.112 165.17 360.312C192.8 381.572 224.73 393.112 259.19 397.752C264.97 398.532 271.54 398.002 277.46 399.492L273.44 410.402C272.89 411.302 271.8 410.942 270.92 410.912C270.8 410.692 271.17 409.922 270.78 409.442C270.56 409.162 265.33 406.812 264.37 406.432C246.21 399.262 225.79 404.242 207.9 397.582C198.75 394.172 194.75 385.512 186.82 381.512C186.57 381.092 186.72 380.192 186.07 379.412C185.14 378.312 184.17 378.602 183.56 378.242C181.42 374.582 180.83 375.972 179.09 374.152C178.25 373.272 178.27 371.652 177.66 371.082C177.43 370.862 172.78 368.132 172.29 367.892C167.04 365.332 160.57 363.852 154.98 361.912C154.74 361.832 154.41 361.992 154.16 361.912C153.57 360.702 152.74 359.882 151.62 359.142C142.66 353.212 139.19 351.152 132.14 342.702C118.62 326.512 112.29 316.442 96.4702 302.862C95.7302 302.232 92.2302 297.592 91.5402 297.442C85.1302 295.982 87.2802 301.222 85.5702 302.312C85.1102 302.612 84.4102 301.102 83.5802 301.032C81.2902 300.852 77.6302 302.102 74.9702 301.502C74.9802 302.902 75.2602 304.482 75.8602 305.752C77.7102 309.702 81.7002 314.862 83.2902 318.892C84.0202 320.752 84.5102 322.762 84.7802 324.752C84.7102 326.012 73.8502 323.222 74.1102 328.772C74.1302 329.282 75.4002 329.302 75.7602 329.852C78.3702 333.842 80.9302 338.162 85.5802 339.862C85.8402 340.142 86.1202 340.412 86.4002 340.682C85.9602 341.672 87.6402 343.572 86.7802 343.942C85.5302 344.472 79.9702 344.792 79.9602 346.802C79.9602 349.482 90.3602 353.902 92.5302 356.192C93.4602 357.182 92.6402 357.112 91.7002 357.032C85.3902 356.442 62.3202 343.012 57.0802 338.572C53.7602 335.762 49.8902 332.012 48.8502 327.632C52.3902 326.762 54.4102 330.802 56.0102 331.692C57.6102 332.582 66.8802 336.972 68.2202 337.232C70.6102 337.692 76.2902 338.512 75.8302 334.582C75.7202 333.612 67.5902 326.942 66.0202 325.542C62.3602 322.282 58.7102 319.152 54.5502 316.212C49.8102 307.902 39.7802 300.282 34.1202 292.152C33.5502 291.332 30.3202 286.552 30.2402 286.212C29.3402 282.482 32.0002 282.242 35.0502 283.092C35.3002 283.162 39.2702 285.792 39.4302 286.012C40.0302 286.842 39.9302 288.522 41.0302 290.152C44.1202 294.712 54.1402 302.162 58.6702 305.982C60.6402 307.652 65.9802 313.512 68.1902 314.592C70.4002 315.672 72.6102 315.462 74.9602 315.402C75.2302 312.192 73.4102 312.692 72.5102 312.142C72.6502 308.202 71.2402 310.512 69.2002 308.522C62.1902 301.752 53.4702 287.052 47.7002 278.162C46.3702 276.122 42.7902 272.682 41.8002 271.022C40.7402 269.242 35.0902 257.422 34.9702 256.132C34.6602 252.902 36.2802 251.552 39.4302 251.662C44.6302 251.852 51.9902 264.062 54.6902 268.362C56.3802 271.042 57.2202 273.802 58.3002 275.332C59.2502 276.692 63.1102 279.302 64.0802 280.562C65.1102 281.902 67.1602 286.782 68.4002 288.052C69.4502 289.122 74.4802 293.002 75.7802 291.722C76.8902 290.632 70.1702 277.532 69.1702 275.242C65.0502 265.822 60.6902 254.892 58.1902 245.232C56.6602 239.312 54.7402 228.552 57.1802 222.912C57.8902 221.282 60.4502 221.362 60.2702 219.062C61.6002 218.732 61.2002 218.512 62.7202 219.062L62.7102 219.042ZM79.8502 277.832C78.9602 276.942 77.3402 278.562 78.2302 279.452C79.1202 280.342 80.7402 278.722 79.8502 277.832Z" fill="#FFC105"/>
</g>
<g filter="url(#filter3_d_257_2569)">
<path d="M397.46 459.891C396.22 467.261 397.06 476.801 386.6 474.411C383.55 473.721 380.18 468.891 376.74 469.621C374.89 470.011 369.74 493.131 361.12 476.231C355.39 483.651 349 493.481 341.53 481.131C340.03 481.091 332.72 495.441 326.86 488.441C325.23 486.491 325.38 481.671 322.78 482.781C319.95 483.991 319.42 494.301 309.72 492.541C303.52 491.421 310.06 480.991 305.61 481.941C304.01 482.281 297.78 494.131 291.02 493.931C286.07 493.781 290.98 484.601 288.45 481.951C284.42 485.171 279.33 493.991 273.74 493.451C270.67 493.151 272 486.241 271.71 483.971C271.59 483.031 272.01 482.321 270.5 482.771C267.23 483.751 260.95 490.151 256.22 491.361C253.76 491.991 251.33 491.751 248.85 491.741C248.63 486.761 251.45 483.341 254.96 480.291C273.88 463.841 315.76 476.891 339.46 466.821C342.03 465.731 348.21 462.411 348.47 459.471C348.57 458.301 347.19 455.491 347.64 455.001C347.91 454.711 352.72 454.271 354.65 451.801C357.54 448.101 352.99 446.531 361.08 445.981C378.59 444.791 394.62 447.841 411.74 449.271C418.87 449.861 428.97 446.311 422.92 458.011C418 467.521 404.59 465.831 397.46 459.891Z" fill="#FFC105"/>
</g>
<g filter="url(#filter4_d_257_2569)">
<path d="M317.19 75.9201C313.12 80.4901 304.07 79.6901 302.31 72.9201C300.2 64.7901 304.99 55.1701 308.34 47.8701C309.04 46.3501 316.96 30.3001 318.25 31.2601C318.43 32.9001 319.55 34.1701 319.85 35.7901C321.26 43.5801 322.17 61.3801 320.36 68.8601C320.02 70.2601 318.05 74.9601 317.2 75.9101L317.19 75.9201Z" fill="#FFC105"/>
</g>
<g filter="url(#filter5_d_257_2569)">
<path d="M439.09 325.99C455.36 304.19 468.31 281.29 476.04 254.77C476.93 251.73 479.56 237.14 480.07 236.35C480.18 236.18 483.34 234.76 483.79 234.69C486.79 234.22 487.77 235.78 488.66 238.45C492.11 248.8 486.73 263.11 486.44 273.74C487.31 274.95 492.63 262.14 493 261.12C497.46 248.81 498.88 235.44 503.17 223.12C504.28 219.93 504.26 217.71 508.67 218.37C513.34 219.07 513.85 223.53 514.17 227.63C514.83 236.06 512.32 246.23 509.87 254.33C506.56 265.28 500.94 275.29 497.04 285.99C498.92 286.33 499.55 285.52 500.74 284.39C509.37 276.19 515.25 260.18 523.58 252.53C526.99 249.4 534.53 248.39 535.42 253.79C536.69 261.51 518.71 284.98 513.37 291.71C514 290.1 514.84 287.38 515.93 285.71C518.63 281.56 534.96 257.44 534.52 254.67C533.86 250.51 527.14 252.72 524.76 254.53C519.3 258.7 509.16 276.14 504.05 282.8C501.01 286.75 499.04 291.78 493.48 293.22C488.45 289.91 493.42 289.43 493.61 287.07C493.73 285.6 492.82 284.32 492.92 283.26C492.95 282.92 495.94 277.8 496.18 277.56C505.08 268.38 506.99 253.91 511.57 243.15C510.77 238.17 513.33 227.33 511.71 222.95C511.4 222.13 508.18 220.33 507.67 220.68C506.95 224.71 503.67 227.81 502.35 231.29C498.79 240.66 498.02 253.02 494.17 263.11C490.52 272.67 482.42 287.45 483.99 265.58L485.61 267.2C485.65 261.91 489.95 240.36 485.67 237.36C485.02 236.9 481.86 236.75 481.57 237.03C480.91 237.65 478.43 252.1 477.67 254.77C470.2 280.81 456.72 305.93 440.47 325.77C440.17 326.14 439.15 325.9 439.08 325.99C437.24 328.37 439.42 328.07 435 330.89C431.8 335.52 431.64 334.91 427.65 338.24C429.05 334.39 431.97 332.82 435 330.89C436.64 328.51 438.21 327.16 439.08 325.99H439.09Z" fill="#FFC105"/>
</g>
<g filter="url(#filter6_d_257_2569)">
<path d="M195.53 112.65C193.66 114.7 189.87 114.93 187.26 114.49C177.56 112.88 166.21 87.5704 161.5 79.4404C162.64 78.5604 174.73 85.4804 176.74 86.6404C183.42 90.4804 204.43 102.89 195.53 112.65Z" fill="#FFC105"/>
</g>
<g filter="url(#filter7_d_257_2569)">
<path d="M160.16 128.95C153.06 122.64 145.98 113.22 140.28 105.57C149.78 107.9 161.52 110.65 170.23 115.21C190.38 125.78 178 144.8 160.17 128.95H160.16Z" fill="#FFC105"/>
</g>
<g filter="url(#filter8_d_257_2569)">
<path d="M380.3 58.2104C381.67 59.7804 371.29 87.5404 368.74 91.1404C359.17 104.65 345.38 96.8004 353.5 82.4304C356.8 76.5904 369.37 65.7604 375.03 61.5004C375.82 60.9004 379.74 57.5604 380.3 58.2104Z" fill="#FFC105"/>
</g>
<g filter="url(#filter9_d_257_2569)">
<path d="M427.65 105.561C428.28 106.181 426.06 108.821 425.53 109.561C420.69 116.361 407.58 132.431 399.74 134.391C394.74 135.641 388.42 134.851 387.82 128.641C386.52 115.091 417.89 108.581 427.64 105.561H427.65Z" fill="#FFC105"/>
</g>
<g filter="url(#filter10_d_257_2569)">
<path d="M162.32 324.35C161.39 323.35 168.36 311.11 169.52 309.11C172.05 304.75 176.28 297.45 179.83 294.11C192.74 281.95 205.42 295.07 190.5 308.04C188.14 310.09 163.49 325.61 162.32 324.35Z" fill="#FFC105"/>
</g>
<g filter="url(#filter11_d_257_2569)">
<path d="M406.43 79.4315C407.71 80.7115 392.18 106.331 389.72 108.841C377.64 121.181 364.11 111.621 375.39 98.5915C378.11 95.4615 404.82 77.8315 406.43 79.4215V79.4315Z" fill="#FFC105"/>
</g>
<g filter="url(#filter12_d_257_2569)">
<path d="M406.43 324.351C405.44 325.261 391.75 317.441 389.69 316.201C382.78 312.031 367.89 303.451 371.95 293.541C375.8 284.141 386.19 291.491 390.53 296.591C392.54 298.951 407.61 323.271 406.44 324.351H406.43Z" fill="#FFC105"/>
</g>
<g filter="url(#filter13_d_257_2569)">
<path d="M255.97 326.162C264.67 324.202 266.85 332.412 265.93 339.392C265.45 343.012 252.68 371.652 250.9 371.692C249.96 371.712 249.77 369.652 249.66 368.862C248.42 359.992 244.2 328.812 255.97 326.152V326.162Z" fill="#FFC105"/>
</g>
<g filter="url(#filter14_d_257_2569)">
<path d="M380.3 346.4C376.21 343.6 371.79 340.26 368.05 337.02C361.99 331.77 343.59 315.57 353.88 307.32C364.47 298.82 372.66 321.31 375.2 328.24C377.29 333.96 379.36 340.44 380.3 346.4Z" fill="#FFC105"/>
</g>
<g filter="url(#filter15_d_257_2569)">
<path d="M427.65 298.23C417.22 295.47 402.68 292.43 393.91 285.85C382.02 276.93 389.16 263.53 403.42 271.44C409.19 274.64 420.98 288.16 425.18 293.77C425.74 294.51 428.3 297.66 427.65 298.24V298.23Z" fill="#FFC105"/>
</g>
<g filter="url(#filter16_d_257_2569)">
<path d="M215.15 307.461C217.73 309.631 217.34 315.491 216.47 318.501C214.6 324.941 199.42 337.991 193.72 342.291C192.17 343.461 190.36 345.331 188.45 345.581C187.27 344.261 195.68 320.481 197.27 317.271C200.15 311.441 208.12 301.551 215.15 307.461Z" fill="#FFC105"/>
</g>
<g filter="url(#filter17_d_257_2569)">
<path d="M188.45 58.2115C189.09 57.4815 198.03 65.0715 199.07 65.9515C206.61 72.3615 220.1 83.0315 216.65 94.1715C214.46 101.251 204.65 97.7015 201.12 93.2815C198.28 89.7215 186.91 59.9715 188.44 58.2115H188.45Z" fill="#FFC105"/>
</g>
<g filter="url(#filter18_d_257_2569)">
<path d="M442.98 266.551C443.6 268.971 443.36 269.001 441.15 268.841C432.27 268.171 411.71 266.061 404.86 261.031C399.75 257.281 397.7 248.501 404.76 246.351C417.38 242.501 433.28 260.251 442.98 266.561V266.551Z" fill="#FFC105"/>
</g>
<g filter="url(#filter19_d_257_2569)">
<path d="M283.98 28L290.61 47.89C294.02 55.47 295.13 81 280.72 74.92C269 69.97 281.87 37.02 283.98 28Z" fill="#FFC105"/>
</g>
<g filter="url(#filter20_d_257_2569)">
<path d="M453.78 167.611C452.29 169.951 448.92 171.521 446.45 172.931C440.37 176.371 425.57 183.761 419.04 183.951C411.69 184.171 404.79 179.261 409.14 171.541C414.59 161.891 444.03 167.371 453.78 167.611Z" fill="#FFC105"/>
</g>
<g filter="url(#filter21_d_257_2569)">
<path d="M124.77 268.841C124.47 267.531 125.22 267.171 125.97 266.371C130.59 261.391 149.98 246.931 156.27 246.061C164.09 244.971 170.99 248.441 167.42 257.211C163.55 266.701 133.74 267.211 124.77 268.851V268.841Z" fill="#FFC105"/>
</g>
<g filter="url(#filter22_d_257_2569)">
<path d="M284.77 375.791L280.29 364.361C278.03 356.461 271.32 334.891 279.94 329.731C283.33 327.701 287.92 328.191 290.38 331.411C297.58 340.801 286.73 365.121 284.76 375.791H284.77Z" fill="#FFC105"/>
</g>
<g filter="url(#filter23_d_257_2569)">
<path d="M219.9 360.731C219.29 361.421 218.63 362.661 217.84 362.731C218.47 353.001 219.37 324.481 228.96 319.571C239.34 314.251 242.44 325.301 239.46 333.341C236.91 340.221 225.1 354.841 219.9 360.731Z" fill="#FFC105"/>
</g>
<g filter="url(#filter24_d_257_2569)">
<path d="M141.1 298.231C140.27 297.481 148.68 287.151 149.65 285.971C155.18 279.281 168.06 264.591 177.6 270.301C183.18 273.641 179.79 282.251 175.33 285.531C171.9 288.041 142.52 299.521 141.1 298.231Z" fill="#FFC105"/>
</g>
<g filter="url(#filter25_d_257_2569)">
<path d="M129.19 140.321C127.67 138.991 125.91 137.481 124.76 135.771C134.88 136.051 161.95 136.811 167.11 146.891C169.98 152.501 167.04 157.781 160.87 158.471C152.82 159.381 135.37 145.711 129.18 140.321H129.19Z" fill="#FFC105"/>
</g>
<g filter="url(#filter26_d_257_2569)">
<path d="M350.91 42.6913C349.01 53.3413 349.96 79.5013 338.67 84.7313C330.72 88.4113 327.13 81.5313 328.13 74.1813C329.06 67.3313 342.49 50.0113 347.63 44.7013C348.55 43.7513 349.39 42.4313 350.91 42.6813V42.6913Z" fill="#FFC105"/>
</g>
<g filter="url(#filter27_d_257_2569)">
<path d="M453.78 236.181C443.36 237.021 416.88 242.441 409.68 233.111C406.57 229.081 407.55 222.331 412.93 221.081C421.88 218.991 429.11 222.991 436.93 226.511C442.5 229.021 449.34 232.251 453.78 236.181Z" fill="#FFC105"/>
</g>
<g filter="url(#filter28_d_257_2569)">
<path d="M158.8 181.232C157.48 182.652 153.23 183.872 151.26 183.962C144.05 184.282 122.38 173.792 116.04 169.432C115.32 168.932 114.53 169.562 114.98 167.612C125.02 167.312 153.67 161.672 159.4 171.762C161.05 174.672 161.19 178.682 158.81 181.242L158.8 181.232Z" fill="#FFC105"/>
</g>
<g filter="url(#filter29_d_257_2569)">
<path d="M250.5 32.0814C251.36 31.4414 260.18 49.1414 260.87 50.6814C263.81 57.2614 269.39 69.6314 263.57 75.7714C261.46 77.9914 257.39 78.5514 254.59 77.3714C244.28 73.0014 249.04 41.1714 250.5 32.0814Z" fill="#FFC105"/>
</g>
<g filter="url(#filter30_d_257_2569)">
<path d="M443.17 135.771C444.1 136.601 437.22 142.251 436.21 143.091C429.87 148.371 416.39 159.021 408.02 158.261C401.2 157.641 397.7 151.251 401.96 145.581C407.94 137.611 433.51 136.231 443.17 135.771Z" fill="#FFC105"/>
</g>
<g filter="url(#filter31_d_257_2569)">
<path d="M318.25 372.522L309.38 357.322C306.07 349.072 300.4 340.422 303.29 331.022C304.8 326.112 310.84 324.372 314.98 327.232C321.53 331.752 320.36 351.542 319.93 359.092C319.69 363.422 318.3 368.122 318.25 372.522Z" fill="#FFC105"/>
</g>
<g filter="url(#filter32_d_257_2569)">
<path d="M350.91 361.092C349.52 362.422 344.68 356.242 343.59 354.952C339.54 350.182 329.32 336.732 328.25 331.112C326.77 323.292 330.29 315.612 339.28 319.262C348.64 323.062 349.27 352.172 350.91 361.092Z" fill="#FFC105"/>
</g>
<g filter="url(#filter33_d_257_2569)">
<path d="M114.97 236.181C116.91 233.561 120.95 231.701 123.93 230.051C131.45 225.891 151.68 215.381 158.68 223.091C161.48 226.171 161.39 229.211 159.05 232.511C152.34 242.011 125.47 236.731 114.96 236.171L114.97 236.181Z" fill="#FFC105"/>
</g>
<g filter="url(#filter34_d_257_2569)">
<path d="M217.84 41.8711C225.15 49.0911 241.08 66.7911 240.73 77.3611C240.58 81.7811 237.83 86.1111 233.01 85.9011C219.36 85.3211 219.26 51.4811 217.84 41.8711Z" fill="#FFC105"/>
</g>
<g filter="url(#filter35_d_257_2569)">
<path d="M457.05 202.702C445.94 204.872 424.42 215.162 414.18 208.432C408.42 204.652 409.67 197.112 415.9 194.622C423.7 191.502 443.81 196.992 452.11 199.882C453.68 200.432 456.32 201.082 457.04 202.692L457.05 202.702Z" fill="#FFC105"/>
</g>
<g filter="url(#filter36_d_257_2569)">
<path d="M60.2598 219.04C60.4298 221.34 57.8698 221.25 57.1698 222.89C54.7298 228.52 56.6498 239.28 58.1798 245.21C60.6798 254.87 65.0498 265.8 69.1598 275.22C70.1598 277.51 76.8798 290.61 75.7698 291.7C74.4698 292.98 69.4498 289.1 68.3898 288.03C67.1398 286.76 65.0998 281.89 64.0698 280.54C63.0998 279.28 59.2298 276.67 58.2898 275.31C57.2198 273.77 56.3698 271.01 54.6798 268.34C51.9698 264.05 44.6198 251.83 39.4198 251.64C36.2698 251.53 34.6398 252.88 34.9598 256.11C35.0898 257.41 40.7398 269.23 41.7898 271C42.7798 272.66 46.3698 276.1 47.6898 278.14C53.4598 287.02 62.1898 301.72 69.1898 308.5C71.2398 310.48 72.6398 308.18 72.4998 312.12C73.3898 312.67 75.2098 312.17 74.9498 315.38C72.5998 315.44 70.3898 315.65 68.1798 314.57C65.9698 313.49 60.6298 307.63 58.6598 305.96C54.1298 302.14 44.1098 294.69 41.0198 290.13C39.9198 288.51 40.0198 286.82 39.4198 285.99C39.2698 285.78 35.2898 283.15 35.0398 283.07C31.9898 282.22 29.3298 282.46 30.2298 286.19C30.3098 286.54 33.5398 291.32 34.1098 292.13C39.7798 300.26 49.7998 307.88 54.5398 316.19C58.6998 319.13 62.3498 322.26 66.0098 325.52C67.5798 326.92 75.7098 333.59 75.8198 334.56C76.2798 338.49 70.5998 337.68 68.2098 337.21C66.8698 336.95 57.5898 332.55 55.9998 331.67C54.4098 330.79 52.3798 326.74 48.8398 327.61C49.8898 331.99 53.7498 335.74 57.0698 338.55C62.3098 342.98 85.3798 356.42 91.6898 357.01C92.6298 357.1 93.4598 357.16 92.5198 356.17C90.3498 353.88 79.9498 349.47 79.9498 346.78C79.9498 344.77 85.5198 344.45 86.7698 343.92C87.6298 343.56 85.9498 341.65 86.3898 340.66C87.6198 341.84 91.5798 342.64 91.2798 345.55C88.2698 345.48 85.0598 345.36 82.3098 346.77C86.4498 349.98 91.5098 354.38 96.2698 356.48C98.1098 357.29 104.02 358.35 104.29 358.66C105.06 359.56 102.52 365.82 104.35 367.59C104.95 368.17 110.03 368.52 110.88 370.46C111.51 371.9 108.99 371.83 108.22 373.48C104.62 381.23 116.9 379.34 120.67 383.51C120.7 386 105.7 388.39 124.35 394.55C127.83 395.7 131.73 396.67 135.39 396.99C134.45 399.87 130.6 399.99 128.86 401.06C129.01 400.95 129.7 398.43 130.49 397.8C126.94 397.72 114.5 393.02 112.94 390.44C110.66 386.67 116.32 386.3 117.42 383.11C114.86 381.91 108.63 381.65 107.06 379.58C106.84 379.29 105.13 374.85 105.13 374.58C105.13 374.29 109.19 372.08 108.44 370.04C104.46 370.98 105.05 368.27 104.36 367.59C104.14 367.37 102.48 367.68 102.02 366.28C101.5 364.67 102.32 359.93 101.87 359.46C101.66 359.25 97.1498 359.01 95.9698 358.57C95.4698 358.38 94.9898 355.53 93.7498 356.98C92.9498 357.91 95.3898 359.29 95.3998 360.64C95.3998 361.47 93.9098 360.87 93.7498 361.05C93.5698 361.25 93.7298 362.33 93.3298 362.68C90.0498 365.56 78.2598 361.52 73.7498 361.86C67.5198 362.71 83.5998 368.01 84.5498 368.21C88.4498 369.03 101.08 368.77 102.72 372.9C103.22 374.8 101.28 373.91 101.09 374.11C100.84 374.39 101.27 375.66 99.7298 376.4C98.7398 376.88 94.6198 377.87 93.2698 378.13C92.4598 378.28 84.8198 377.63 87.2098 379.82C88.8598 381.34 108.3 382.52 109.25 383.92C109.71 384.59 109.01 386.69 108.09 387.23L99.4698 390.83C100.12 391.59 100.68 392.37 101.69 392.7C108.7 394.97 135.37 396.79 113.34 402.7L114.16 403.91L132.11 410.85C132.57 408.66 131.53 409.45 130.5 408.83C129.02 407.94 125.06 406.42 124.48 404.92C122.93 400.91 128.06 401.63 128.85 401.06C128.12 401.51 126.75 403.41 125.6 403.92C125.57 404.88 135.82 409.93 137.54 410.74C146.51 414.99 158.76 420.14 168.08 423.47C172.64 425.1 183.16 426.55 186.01 428.4C186.4 428.65 187.07 429.44 186.82 429.63C158.71 428.11 134.4 412.53 108.44 403.5C107.55 402.32 117.75 399.94 118.72 399.51C119.38 399.21 121.47 398.99 119.87 397.8C119.66 397.65 116.08 397.86 114.78 397.59C111.35 396.88 95.8098 393.36 94.5798 390.85C93.8398 389.33 95.7498 389.65 96.3798 389.42C99.9798 388.11 104.99 387.43 107.64 384.74C103.04 384.29 98.2598 383.67 93.7398 382.71C91.9498 382.33 78.7998 380.05 84.5598 377.57C87.3298 376.38 99.6198 375.79 101.11 374.12C102.3 372.78 100.28 372.37 99.4798 372.11C89.3398 368.73 75.7898 371.38 68.4598 361.45C68.1198 359.66 69.2798 360.24 70.5198 360.2C72.8298 360.13 74.7898 361 76.9998 361.08C82.5698 361.3 88.1998 360.85 93.7698 361.05C93.5698 359.78 92.2498 359.5 91.3098 359.02C79.4798 352.97 51.9098 342.71 47.6198 329.23C47.1498 327.74 46.3098 325.91 48.4698 325.91C56.8998 325.91 64.6698 337.69 74.1698 335.73C74.6098 333.92 73.1198 333.92 72.2998 333.12C66.4598 327.43 58.6798 323.3 54.5798 316.14C46.9698 310.76 32.8598 295.49 28.5598 287.02C26.2898 282.56 31.4098 280.13 35.2098 281.2C37.4898 281.84 52.3298 298.32 55.7898 301.47C58.9198 304.31 67.9698 312.62 71.3698 313.66C72.9798 314.15 72.5098 313.1 72.5498 312.07C69.1398 309.95 69.7298 309.21 67.3598 306.64C56.8898 295.3 44.3598 279.13 37.2998 265.26C35.2398 261.21 30.0298 252.42 36.5798 250.39C43.1298 248.36 46.4898 253.63 50.0398 258.24C56.3198 266.39 60.9098 276.02 67.6698 283.88L74.1698 290.02C70.6098 281.35 66.0498 273.12 62.7298 264.32C58.3398 252.68 52.6698 235.23 55.7498 223.02C56.5298 219.91 57.4298 219.71 60.2998 218.99L60.2598 219.04Z" fill="#FFC105"/>
</g>
<g filter="url(#filter37_d_257_2569)">
<path d="M62.7097 219.041C63.1397 219.201 63.8597 219.001 64.3297 219.441C71.1397 237.311 71.8097 258.401 82.7097 274.551C82.4097 263.601 78.0497 251.321 80.0397 240.051C80.7397 236.081 84.1697 233.441 87.6797 236.111C89.3197 237.361 92.1197 252.501 93.1397 255.951C101.03 282.591 113.97 303.591 129.65 325.991C134.39 328.571 139.31 336.291 143.48 340.301C174.68 370.371 215.87 390.911 259.17 396.081C266.09 396.911 273.09 396.661 279.85 397.861C280.38 398.631 274.93 411.181 273.72 412.501C271.54 414.881 271.51 412.061 270.89 410.891C268 410.781 264.12 407.941 260.7 406.801C244.19 401.291 224.5 405.421 208.42 399.481C201.65 396.981 190.37 387.591 186.8 381.501C186.06 381.131 185.19 381.411 184.28 380.331C183.61 379.541 183.77 378.651 183.53 378.231C179.49 375.851 176.73 372.431 173.19 370.201C168.23 367.081 162.35 366.581 157.08 364.221C155.86 363.671 154.55 363.771 154.95 361.901C160.55 363.841 167.02 365.321 172.26 367.881C172.74 368.121 177.39 370.851 177.63 371.071C178.24 371.641 178.22 373.261 179.06 374.141C180.8 375.961 181.39 374.571 183.53 378.231C184.14 378.591 185.12 378.291 186.04 379.401C186.69 380.181 186.54 381.071 186.79 381.501C194.72 385.501 198.72 394.161 207.87 397.571C225.75 404.231 246.18 399.251 264.34 406.421C265.3 406.801 270.53 409.151 270.75 409.431C271.14 409.911 270.77 410.681 270.89 410.901C271.77 410.931 272.86 411.281 273.41 410.391L277.43 399.481C271.51 397.981 264.94 398.511 259.16 397.741C224.7 393.101 192.77 381.561 165.14 360.301C159.69 356.101 153.22 352.061 147.18 346.431C140.25 339.971 135.23 333.991 129.64 326.001C124.26 323.071 126.89 324.251 123.78 320.021C113.77 306.371 105.48 293.921 99.1097 278.561C93.6797 265.471 89.6297 251.931 87.0597 237.961C85.9397 237.171 82.8897 236.811 82.2797 238.421C81.3197 240.941 81.3697 247.561 81.4697 250.471C81.6197 254.621 85.9497 274.411 83.8597 276.151C82.1997 276.431 80.9297 276.271 79.7897 275.001C78.2997 273.341 72.0297 257.081 71.2297 254.091C69.5697 247.901 68.8997 240.391 67.3497 234.361C66.0197 229.181 64.3497 224.091 62.6797 219.031L62.7097 219.041Z" fill="#FFC105"/>
</g>
<g filter="url(#filter38_d_257_2569)">
<path d="M509.3 332.521C509.89 329.241 514.42 328.181 516.87 326.781C517.69 326.311 517.42 323.851 520.72 325.581C524.38 327.491 519.28 334.661 517.46 337.011C509.32 347.521 492.27 354.931 481.54 362.741C481.07 363.411 482.33 365.171 482.76 365.171H497.05C496.43 368.691 492.29 370.541 489.44 371.851C482.29 375.131 474.21 376.011 466.87 378.681C465.93 379.021 463.58 379.541 463.57 380.691L482.34 382.731C474.43 389.431 462.82 389.311 453.33 392.101C452.44 392.361 450.73 392.441 452.14 393.761C452.72 394.301 464.01 395.221 466.52 396.121C467.38 396.431 468.9 396.621 467.65 397.841C465.92 399.531 443.4 399.971 437.95 403.671C433.24 406.871 445.85 409.461 447.82 410.711C448.64 411.231 449.26 410.661 448.86 412.531C443.18 414.741 438.51 418.941 433.09 421.671C429.79 423.331 426.18 424.331 422.74 425.611C422.82 425.571 422.47 424.411 423.34 424.011C429.35 421.281 436.77 418.241 442.12 414.431C442.78 413.961 445.53 411.721 444.78 410.921C444.45 410.571 437.51 409.341 435.8 407.241C433.43 404.311 437.68 401.751 430.08 402.751C429.57 405.731 432.07 408.771 430.14 411.381C421.7 418.071 412.53 423.451 403.15 428.471C408.26 429.861 413.55 427.051 418.45 425.801C419.75 425.471 422.34 425.821 422.74 425.611C417 427.741 408.06 431.331 401.92 431.331H384.37L400.92 427.061C403.54 425.481 406.79 424.641 409.41 423.311C412.03 421.981 428.16 411.551 428.88 410.101C430.34 407.151 426.87 402.391 428.41 401.501C431.43 401.111 437.84 401.011 439.53 397.871C440.75 395.611 436.19 394.601 436.62 392.151C439.29 390.971 441.99 390.431 444.78 389.691C445.17 392.051 442.28 391.461 441.66 393.511C441.13 395.281 441.66 397.611 441.51 399.491C443.4 400.381 458.08 398.711 454.58 395.411C454.43 395.271 453 395.711 452.37 395.191C451.9 394.801 452.22 393.871 452.13 393.771C452.02 393.661 449.85 394.251 450.5 392.561C452.33 387.861 473.88 388.521 478.25 383.561C474.2 382.021 467.78 384.231 464 383.211C463.02 382.941 463.79 381.071 463.56 380.711C463.43 380.511 460.38 381.381 463.38 378.281C471.45 374.921 482.87 373.371 490.51 369.701C491.81 369.081 493.29 368.301 493.77 366.841H481.12C479.88 366.841 479.19 362.931 480.69 361.501C481.65 360.581 483.57 360.761 484.56 360.061C492.01 354.741 501.17 348.621 508.1 343.201C512.89 339.451 519.43 334.011 519.9 327.661C515.84 328.141 512.95 331.101 509.29 332.551L509.3 332.521Z" fill="#FFC105"/>
</g>
<g filter="url(#filter39_d_257_2569)">
<path d="M239.06 456.621C240.53 455.551 240.9 451.101 240.7 449.281L263.55 445.201L257.02 451.321C266.26 452.001 252.42 458.151 256.76 460.561C261.83 463.371 265.57 460.121 269 460.071C271.28 460.031 280.95 462.891 285.19 463.151C290.7 463.491 297.07 462.531 302.36 463.131C303.58 463.271 304.88 463.301 305.19 464.781C300.83 466.811 296.67 464.841 292.57 464.761C277.7 464.461 260.69 463.991 245.97 464.761C240.01 465.071 230.76 467.571 225.57 467.341C223.32 467.241 221.67 465.691 220.82 465.751C217.64 465.981 214.45 474.061 213.71 467.691C212.97 461.321 217.13 454.341 223.86 455.021C226.8 455.321 231.83 457.131 234.64 457.451C235.53 457.551 238.46 457.061 239.06 456.631C238.91 456.771 239.06 458.201 238.3 458.691C237.43 459.251 228.23 458.491 226.45 458.231C225.2 458.051 224.34 456.771 223.1 456.631C220.06 456.271 214.37 462.191 215.4 465.611C215.79 466.051 220.28 463.951 221.58 464.031C223.4 464.151 223.94 466.461 225.45 466.311C226.31 466.221 227.48 465.031 228.91 464.831C237.97 463.581 247.06 462.821 256.22 463.151C250.42 458.481 257.01 456.011 257.1 455.331C257.39 453.271 254.21 452.361 256.2 449.021C256.63 448.291 258.16 448.911 257.84 447.661L245.38 450.141C243.39 451.301 242.32 454.501 241.28 455.631C240.72 456.241 239.48 456.271 239.06 456.641V456.621Z" fill="#FFC105"/>
</g>
<g filter="url(#filter40_d_257_2569)">
<path d="M437.46 338.241C442.28 330.431 450.65 321.401 458.78 316.701C464.53 313.381 477.74 307.821 484 310.881C489.63 313.631 480.18 326.721 479.92 330.881C480.46 331.401 489.64 326.851 488.91 335.291C488.87 335.731 486.72 341.531 486.51 341.811C486.01 342.491 484.77 342.181 484.04 342.901C483.04 343.891 478.28 348.701 478.31 349.261C479.17 351.021 484.37 350.871 484.75 351.361C487.04 354.251 479.06 357.891 478.06 360.051C477.17 360.691 475.79 360.071 475.02 360.281L484 353.341L475.03 350.081C480.43 344.831 488.21 340.411 487.27 331.701C485.9 330.321 474.97 335.571 475.02 333.731C479.35 327.211 484.47 320.391 484.01 312.101C470.81 310.481 459.1 318.051 449.7 326.381C445.48 330.121 441.68 335.281 437.47 338.231C433.64 344.431 430.21 350.941 426.46 357.021C409.19 367.951 386.98 374.411 371.33 387.621C368.31 390.171 361.46 398.931 359.35 400.131C351.97 404.321 322.35 405.911 311.73 408.021C290.74 412.201 290.71 415.041 275.39 427.201C269.6 431.801 260.16 438.401 253.99 441.901C251.25 443.451 236.16 449.581 235.92 450.561C235.73 451.301 237.1 453.711 236.63 454.171C234.92 455.821 233.18 451.701 232.94 451.701C230.58 451.731 228.02 457.321 223.56 453.751C220.1 450.991 226.75 445.921 229.11 444.601C248.13 434.021 256.91 436.881 274.21 418.671C278.85 413.781 289.97 398.631 296.01 397.201C301.39 395.921 308.76 396.211 314.49 395.271C339.67 391.101 358.98 383.691 381.96 373.341C382.39 375.311 380.96 375.031 379.81 375.641C362.8 384.621 341.51 392.291 322.58 396.011C314.46 397.601 305.31 397.271 297.53 398.721C296.6 398.891 290.92 400.991 290.7 401.271C290.21 401.911 290.7 403.571 290.18 404.401C289.45 405.541 287.32 404.791 286.62 405.351C286.3 405.601 284.12 410.481 282.42 412.161C280.43 414.121 273.86 419.291 272.55 421.071C271.57 422.401 271.58 424.341 270.72 425.371C270.36 425.801 266.4 428.181 264.91 429.401C253.95 438.381 240.29 439.261 229.19 446.301C227.4 447.431 221.67 451.871 225.77 453.231C229.87 454.591 229.09 451.691 231.12 450.691C249.4 441.681 263.14 436.841 277.45 422.761C294.69 405.781 313.05 406.241 335.86 402.761C341.52 401.901 352.39 401.501 357.45 399.051C359.53 398.041 365.97 389.431 368.49 387.261C384.47 373.501 407.9 366.841 425.56 355.301C430.1 347.871 430.14 343.401 437.5 338.251L437.46 338.241Z" fill="#FFC105"/>
</g>
<g filter="url(#filter41_d_257_2569)">
<path d="M110.89 202.7C109.78 201.48 111.17 201.3 111.93 200.89C118.6 197.26 140.65 192.13 148.08 192.88C154.33 193.51 162.05 199.25 157.79 205.95C152.72 213.91 138.96 210.5 131.3 208.85C128.8 208.31 111.63 203.51 110.9 202.71L110.89 202.7ZM153.9 206.53C157.24 203.47 156.15 198.89 152.48 196.63C146.44 192.9 127.41 197.97 120.5 200.49C119.32 200.92 118.2 201.21 117.42 202.31C125.28 204.25 147.62 212.29 153.9 206.53Z" fill="#FFC105"/>
</g>
<g filter="url(#filter42_d_257_2569)">
<path d="M85.5698 339.87C80.9198 338.17 78.3598 333.85 75.7498 329.86C75.3898 329.31 74.1198 329.29 74.0998 328.78C73.8398 323.23 84.6998 326.02 84.7698 324.76C84.5098 322.77 84.0198 320.76 83.2798 318.9C81.6898 314.87 77.6898 309.71 75.8498 305.76C75.2598 304.49 74.9698 302.92 74.9598 301.51C77.6198 302.12 81.2798 300.87 83.5698 301.04C84.3998 301.1 85.0898 302.61 85.5598 302.32C87.2698 301.23 85.1098 295.99 91.5298 297.45C92.2198 297.61 95.7198 302.24 96.4598 302.87C112.28 316.45 118.62 326.52 132.13 342.71C139.18 351.16 142.65 353.22 151.61 359.15C152.73 359.89 153.56 360.71 154.15 361.92C132.66 354.45 120.45 326.24 104.88 310.77C103.39 309.29 91.8898 300.16 90.6998 299.98C87.7798 299.52 87.7298 302.6 87.1898 304.77C83.3998 303.81 80.6798 301.18 76.5898 303.15C80.1398 310.88 86.7998 317.74 86.3898 326.82L75.7798 327.22C78.9098 331.13 82.1698 336.33 85.5698 339.88V339.87Z" fill="#FFC105"/>
</g>
<g filter="url(#filter43_d_257_2569)">
<path d="M512.57 292.521C508.62 300.481 501.44 306.581 496.24 313.741C497.27 314.631 502 311.072 503.04 310.352C506.37 308.042 512 303.431 515.02 300.691C514.22 304.731 510.16 305.391 508.13 307.271C506.97 308.341 506.55 310.591 505.16 311.651C504.71 311.991 496.96 315.991 496.48 316.071C495.45 316.221 494.11 314.871 493.88 314.001C493.25 311.591 496.55 310.531 497.45 308.811C497.97 307.811 497.71 305.851 497.94 305.641C498.3 305.301 500.06 305.921 500.96 305.421C501.29 305.241 501.91 303.481 502.74 302.711C506.69 299.051 508.72 295.081 512.58 292.531L512.57 292.521Z" fill="#FFC105"/>
</g>
<g filter="url(#filter44_d_257_2569)">
<path d="M529.71 299.051C529.2 299.871 529.14 301.221 528.08 302.721C526.16 305.451 523.66 306.421 521.54 308.031C516.74 315.091 511.5 319.881 505.22 325.591C503.44 327.211 495.11 333.331 494.6 334.571C493.94 336.211 495.7 335.781 496.65 335.811C500.61 335.951 504.06 333.851 507.65 332.511C508.04 334.261 505.76 335.071 504.57 335.541C500.53 337.141 496.48 337.741 492.13 337.411C491.65 332.761 497.18 329.901 500.33 327.251C501.38 326.371 501.74 324.891 502.83 324.031C504.23 322.931 507.04 322.561 508.19 321.631C509.91 320.231 510.52 316.191 511.14 315.591C513.27 313.531 518.93 310.001 521.53 308.021C524.04 304.341 526.08 301.381 529.69 299.041C531.47 296.141 533.05 292.861 535.02 290.071C535.8 288.961 537.25 288.811 537.83 287.791C539.15 285.441 539.21 282.601 535.81 282.631C532.41 282.661 530 287.891 527.66 290.101C527 290.721 525.46 290.621 525.01 291.081C523.95 292.151 525.19 295.321 521.86 295.241L515.82 299.851C520.58 295.411 526.74 286.521 531.32 283.101C535.06 280.301 541.76 280.851 540.76 285.231C540.5 286.371 533.28 296.811 532.15 297.841C530.96 298.931 530.21 298.701 529.7 299.031L529.71 299.051Z" fill="#FFC105"/>
</g>
<g filter="url(#filter45_d_257_2569)">
<path d="M426.84 339.051C423.18 345.351 417.46 350.041 411.72 354.551C403.23 361.211 392.3 369.071 382.75 373.341C382.37 371.591 383.69 371.571 384.75 370.891C400.89 360.621 412.35 351.301 426.84 339.051Z" fill="#FFC105"/>
</g>
<g filter="url(#filter46_d_257_2569)">
<path d="M465.21 372.531C464.56 377.091 454.46 377.681 451.23 381.051C449.69 382.661 454.67 387.491 445.62 389.681C446.2 387.671 450.04 387.471 450.48 385.901C450.92 384.331 448.89 383.181 448.86 381.911C448.78 378.671 462.12 373.891 465.21 372.531Z" fill="#FFC105"/>
</g>
<g filter="url(#filter47_d_257_2569)">
<path d="M474.19 360.281C473.34 365.551 467.6 363.151 465.15 367.421C464.3 368.911 465.27 370.321 465.21 371.711C464.15 371.331 459.65 370.471 460.32 368.861C460.99 367.251 472.03 360.961 474.19 360.281Z" fill="#FFC105"/>
</g>
<g filter="url(#filter48_d_257_2569)">
<path d="M79.85 277.831C80.74 278.721 79.12 280.341 78.23 279.451C77.34 278.561 78.96 276.941 79.85 277.831Z" fill="#FFC105"/>
</g>
<g filter="url(#filter49_d_257_2569)">
<path d="M93.7398 361.102C93.8998 360.922 95.3998 361.522 95.3898 360.692C95.3898 359.342 92.9398 357.952 93.7398 357.032C94.9798 355.592 95.4698 358.442 95.9598 358.622C97.1298 359.062 101.65 359.292 101.86 359.512C102.32 359.982 101.49 364.722 102.01 366.332C102.46 367.732 104.13 367.422 104.35 367.642C105.04 368.322 104.45 371.032 108.43 370.092C109.18 372.122 105.11 374.342 105.12 374.632C105.12 374.902 106.83 379.342 107.05 379.632C108.62 381.702 114.84 381.962 117.41 383.162C116.31 386.362 110.65 386.732 112.93 390.492C114.49 393.072 126.92 397.772 130.48 397.852C129.68 398.482 128.99 401.002 128.85 401.112C128.06 401.692 122.94 400.962 124.48 404.972C125.06 406.472 129.01 407.992 130.5 408.882C131.53 409.502 132.57 408.712 132.11 410.902L114.16 403.962L113.34 402.752C135.36 396.842 108.69 395.032 101.69 392.752C100.68 392.422 100.11 391.642 99.4698 390.882L108.09 387.282C109.01 386.742 109.71 384.632 109.25 383.972C108.3 382.572 88.8598 381.392 87.2098 379.872C84.8198 377.682 92.4598 378.332 93.2698 378.182C94.6298 377.922 98.7498 376.932 99.7298 376.452C101.27 375.712 100.84 374.442 101.09 374.162C101.28 373.952 103.21 374.842 102.72 372.952C101.08 368.822 88.4498 369.082 84.5498 368.262C83.5998 368.062 67.5198 362.772 73.7498 361.912C78.2598 361.572 90.0498 365.612 93.3298 362.732C93.7298 362.382 93.5698 361.312 93.7498 361.102H93.7398Z" fill="#FFC105"/>
</g>
<g filter="url(#filter50_d_257_2569)">
<path d="M422.76 425.601C422.36 425.811 419.77 425.461 418.47 425.791C413.57 427.041 408.27 429.851 403.17 428.461C412.56 423.441 421.72 418.061 430.16 411.371C432.09 408.761 429.59 405.721 430.1 402.741C437.71 401.731 433.46 404.301 435.82 407.231C437.52 409.341 444.46 410.561 444.8 410.911C445.55 411.711 442.8 413.941 442.14 414.421C436.79 418.241 429.37 421.271 423.36 424.001C422.48 424.401 422.83 425.561 422.76 425.601Z" fill="#FFC105"/>
</g>
<g filter="url(#filter51_d_257_2569)">
<path d="M239.06 456.621C239.48 456.251 240.72 456.221 241.28 455.611C242.31 454.481 243.39 451.291 245.38 450.121L257.84 447.641C258.16 448.891 256.63 448.271 256.2 449.001C254.2 452.351 257.38 453.251 257.1 455.311C257 456.001 250.42 458.461 256.22 463.131C247.06 462.801 237.98 463.561 228.91 464.811C227.47 465.011 226.31 466.201 225.45 466.291C223.94 466.451 223.4 464.131 221.58 464.011C220.28 463.921 215.8 466.031 215.4 465.591C214.38 462.171 220.06 456.251 223.1 456.611C224.34 456.751 225.2 458.031 226.45 458.211C228.24 458.471 237.44 459.231 238.3 458.671C239.07 458.181 238.91 456.751 239.06 456.611V456.621Z" fill="#FFC105"/>
</g>
<g filter="url(#filter52_d_257_2569)">
<path d="M153.9 206.532C147.62 212.282 125.28 204.252 117.42 202.312C118.2 201.212 119.32 200.922 120.5 200.492C127.42 197.972 146.44 192.902 152.48 196.632C156.15 198.902 157.24 203.472 153.9 206.532Z" fill="#FFC105"/>
</g>
<defs>
<filter id="filter0_d_257_2569" x="142.031" y="59.4863" width="284.915" height="283.955" filterUnits="userSpaceOnUse" color-interpolation-filters="sRGB">
<feFlood flood-opacity="0" result="BackgroundImageFix"/>
<feColorMatrix in="SourceAlpha" type="matrix" values="0 0 0 0 0 0 0 0 0 0 0 0 0 0 0 0 0 0 127 0" result="hardAlpha"/>
<feOffset/>
<feGaussianBlur stdDeviation="14"/>
<feComposite in2="hardAlpha" operator="out"/>
<feColorMatrix type="matrix" values="0 0 0 0 1 0 0 0 0 0.92549 0 0 0 0 0.176471 0 0 0 1 0"/>
<feBlend mode="normal" in2="BackgroundImageFix" result="effect1_dropShadow_257_2569"/>
<feBlend mode="normal" in="SourceGraphic" in2="effect1_dropShadow_257_2569" result="shape"/>
</filter>
<filter id="filter1_d_257_2569" x="196.264" y="192.635" width="370.446" height="288.93" filterUnits="userSpaceOnUse" color-interpolation-filters="sRGB">
<feFlood flood-opacity="0" result="BackgroundImageFix"/>
<feColorMatrix in="SourceAlpha" type="matrix" values="0 0 0 0 0 0 0 0 0 0 0 0 0 0 0 0 0 0 127 0" result="hardAlpha"/>
<feOffset/>
<feGaussianBlur stdDeviation="14"/>
<feComposite in2="hardAlpha" operator="out"/>
<feColorMatrix type="matrix" values="0 0 0 0 1 0 0 0 0 0.92549 0 0 0 0 0.176471 0 0 0 1 0"/>
<feBlend mode="normal" in2="BackgroundImageFix" result="effect1_dropShadow_257_2569"/>
<feBlend mode="normal" in="SourceGraphic" in2="effect1_dropShadow_257_2569" result="shape"/>
</filter>
<filter id="filter2_d_257_2569" x="2.0625" y="190.727" width="303.397" height="248.281" filterUnits="userSpaceOnUse" color-interpolation-filters="sRGB">
<feFlood flood-opacity="0" result="BackgroundImageFix"/>
<feColorMatrix in="SourceAlpha" type="matrix" values="0 0 0 0 0 0 0 0 0 0 0 0 0 0 0 0 0 0 127 0" result="hardAlpha"/>
<feOffset/>
<feGaussianBlur stdDeviation="14"/>
<feComposite in2="hardAlpha" operator="out"/>
<feColorMatrix type="matrix" values="0 0 0 0 1 0 0 0 0 0.92549 0 0 0 0 0.176471 0 0 0 1 0"/>
<feBlend mode="normal" in2="BackgroundImageFix" result="effect1_dropShadow_257_2569"/>
<feBlend mode="normal" in="SourceGraphic" in2="effect1_dropShadow_257_2569" result="shape"/>
</filter>
<filter id="filter3_d_257_2569" x="220.838" y="417.711" width="231.935" height="104.223" filterUnits="userSpaceOnUse" color-interpolation-filters="sRGB">
<feFlood flood-opacity="0" result="BackgroundImageFix"/>
<feColorMatrix in="SourceAlpha" type="matrix" values="0 0 0 0 0 0 0 0 0 0 0 0 0 0 0 0 0 0 127 0" result="hardAlpha"/>
<feOffset/>
<feGaussianBlur stdDeviation="14"/>
<feComposite in2="hardAlpha" operator="out"/>
<feColorMatrix type="matrix" values="0 0 0 0 1 0 0 0 0 0.92549 0 0 0 0 0.176471 0 0 0 1 0"/>
<feBlend mode="normal" in2="BackgroundImageFix" result="effect1_dropShadow_257_2569"/>
<feBlend mode="normal" in="SourceGraphic" in2="effect1_dropShadow_257_2569" result="shape"/>
</filter>
<filter id="filter4_d_257_2569" x="273.791" y="3.21875" width="75.5771" height="103.574" filterUnits="userSpaceOnUse" color-interpolation-filters="sRGB">
<feFlood flood-opacity="0" result="BackgroundImageFix"/>
<feColorMatrix in="SourceAlpha" type="matrix" values="0 0 0 0 0 0 0 0 0 0 0 0 0 0 0 0 0 0 127 0" result="hardAlpha"/>
<feOffset/>
<feGaussianBlur stdDeviation="14"/>
<feComposite in2="hardAlpha" operator="out"/>
<feColorMatrix type="matrix" values="0 0 0 0 1 0 0 0 0 0.92549 0 0 0 0 0.176471 0 0 0 1 0"/>
<feBlend mode="normal" in2="BackgroundImageFix" result="effect1_dropShadow_257_2569"/>
<feBlend mode="normal" in="SourceGraphic" in2="effect1_dropShadow_257_2569" result="shape"/>
</filter>
<filter id="filter5_d_257_2569" x="399.65" y="190.254" width="163.834" height="175.986" filterUnits="userSpaceOnUse" color-interpolation-filters="sRGB">
<feFlood flood-opacity="0" result="BackgroundImageFix"/>
<feColorMatrix in="SourceAlpha" type="matrix" values="0 0 0 0 0 0 0 0 0 0 0 0 0 0 0 0 0 0 127 0" result="hardAlpha"/>
<feOffset/>
<feGaussianBlur stdDeviation="14"/>
<feComposite in2="hardAlpha" operator="out"/>
<feColorMatrix type="matrix" values="0 0 0 0 1 0 0 0 0 0.92549 0 0 0 0 0.176471 0 0 0 1 0"/>
<feBlend mode="normal" in2="BackgroundImageFix" result="effect1_dropShadow_257_2569"/>
<feBlend mode="normal" in="SourceGraphic" in2="effect1_dropShadow_257_2569" result="shape"/>
</filter>
<filter id="filter6_d_257_2569" x="133.5" y="51.3633" width="92.1934" height="91.3145" filterUnits="userSpaceOnUse" color-interpolation-filters="sRGB">
<feFlood flood-opacity="0" result="BackgroundImageFix"/>
<feColorMatrix in="SourceAlpha" type="matrix" values="0 0 0 0 0 0 0 0 0 0 0 0 0 0 0 0 0 0 127 0" result="hardAlpha"/>
<feOffset/>
<feGaussianBlur stdDeviation="14"/>
<feComposite in2="hardAlpha" operator="out"/>
<feColorMatrix type="matrix" values="0 0 0 0 1 0 0 0 0 0.92549 0 0 0 0 0.176471 0 0 0 1 0"/>
<feBlend mode="normal" in2="BackgroundImageFix" result="effect1_dropShadow_257_2569"/>
<feBlend mode="normal" in="SourceGraphic" in2="effect1_dropShadow_257_2569" result="shape"/>
</filter>
<filter id="filter7_d_257_2569" x="112.28" y="77.5703" width="96.3296" height="85.4453" filterUnits="userSpaceOnUse" color-interpolation-filters="sRGB">
<feFlood flood-opacity="0" result="BackgroundImageFix"/>
<feColorMatrix in="SourceAlpha" type="matrix" values="0 0 0 0 0 0 0 0 0 0 0 0 0 0 0 0 0 0 127 0" result="hardAlpha"/>
<feOffset/>
<feGaussianBlur stdDeviation="14"/>
<feComposite in2="hardAlpha" operator="out"/>
<feColorMatrix type="matrix" values="0 0 0 0 1 0 0 0 0 0.92549 0 0 0 0 0.176471 0 0 0 1 0"/>
<feBlend mode="normal" in2="BackgroundImageFix" result="effect1_dropShadow_257_2569"/>
<feBlend mode="normal" in="SourceGraphic" in2="effect1_dropShadow_257_2569" result="shape"/>
</filter>
<filter id="filter8_d_257_2569" x="323.041" y="30.127" width="85.3833" height="95.9922" filterUnits="userSpaceOnUse" color-interpolation-filters="sRGB">
<feFlood flood-opacity="0" result="BackgroundImageFix"/>
<feColorMatrix in="SourceAlpha" type="matrix" values="0 0 0 0 0 0 0 0 0 0 0 0 0 0 0 0 0 0 127 0" result="hardAlpha"/>
<feOffset/>
<feGaussianBlur stdDeviation="14"/>
<feComposite in2="hardAlpha" operator="out"/>
<feColorMatrix type="matrix" values="0 0 0 0 1 0 0 0 0 0.92549 0 0 0 0 0.176471 0 0 0 1 0"/>
<feBlend mode="normal" in2="BackgroundImageFix" result="effect1_dropShadow_257_2569"/>
<feBlend mode="normal" in="SourceGraphic" in2="effect1_dropShadow_257_2569" result="shape"/>
</filter>
<filter id="filter9_d_257_2569" x="359.781" y="77.5605" width="95.981" height="85.332" filterUnits="userSpaceOnUse" color-interpolation-filters="sRGB">
<feFlood flood-opacity="0" result="BackgroundImageFix"/>
<feColorMatrix in="SourceAlpha" type="matrix" values="0 0 0 0 0 0 0 0 0 0 0 0 0 0 0 0 0 0 127 0" result="hardAlpha"/>
<feOffset/>
<feGaussianBlur stdDeviation="14"/>
<feComposite in2="hardAlpha" operator="out"/>
<feColorMatrix type="matrix" values="0 0 0 0 1 0 0 0 0 0.92549 0 0 0 0 0.176471 0 0 0 1 0"/>
<feBlend mode="normal" in2="BackgroundImageFix" result="effect1_dropShadow_257_2569"/>
<feBlend mode="normal" in="SourceGraphic" in2="effect1_dropShadow_257_2569" result="shape"/>
</filter>
<filter id="filter10_d_257_2569" x="134.235" y="261.283" width="91.0068" height="91.1387" filterUnits="userSpaceOnUse" color-interpolation-filters="sRGB">
<feFlood flood-opacity="0" result="BackgroundImageFix"/>
<feColorMatrix in="SourceAlpha" type="matrix" values="0 0 0 0 0 0 0 0 0 0 0 0 0 0 0 0 0 0 127 0" result="hardAlpha"/>
<feOffset/>
<feGaussianBlur stdDeviation="14"/>
<feComposite in2="hardAlpha" operator="out"/>
<feColorMatrix type="matrix" values="0 0 0 0 1 0 0 0 0 0.92549 0 0 0 0 0.176471 0 0 0 1 0"/>
<feBlend mode="normal" in2="BackgroundImageFix" result="effect1_dropShadow_257_2569"/>
<feBlend mode="normal" in="SourceGraphic" in2="effect1_dropShadow_257_2569" result="shape"/>
</filter>
<filter id="filter11_d_257_2569" x="343.161" y="51.3203" width="91.3442" height="91.2461" filterUnits="userSpaceOnUse" color-interpolation-filters="sRGB">
<feFlood flood-opacity="0" result="BackgroundImageFix"/>
<feColorMatrix in="SourceAlpha" type="matrix" values="0 0 0 0 0 0 0 0 0 0 0 0 0 0 0 0 0 0 127 0" result="hardAlpha"/>
<feOffset/>
<feGaussianBlur stdDeviation="14"/>
<feComposite in2="hardAlpha" operator="out"/>
<feColorMatrix type="matrix" values="0 0 0 0 1 0 0 0 0 0.92549 0 0 0 0 0.176471 0 0 0 1 0"/>
<feBlend mode="normal" in2="BackgroundImageFix" result="effect1_dropShadow_257_2569"/>
<feBlend mode="normal" in="SourceGraphic" in2="effect1_dropShadow_257_2569" result="shape"/>
</filter>
<filter id="filter12_d_257_2569" x="343.26" y="261.012" width="91.2446" height="91.4121" filterUnits="userSpaceOnUse" color-interpolation-filters="sRGB">
<feFlood flood-opacity="0" result="BackgroundImageFix"/>
<feColorMatrix in="SourceAlpha" type="matrix" values="0 0 0 0 0 0 0 0 0 0 0 0 0 0 0 0 0 0 127 0" result="hardAlpha"/>
<feOffset/>
<feGaussianBlur stdDeviation="14"/>
<feComposite in2="hardAlpha" operator="out"/>
<feColorMatrix type="matrix" values="0 0 0 0 1 0 0 0 0 0.92549 0 0 0 0 0.176471 0 0 0 1 0"/>
<feBlend mode="normal" in2="BackgroundImageFix" result="effect1_dropShadow_257_2569"/>
<feBlend mode="normal" in="SourceGraphic" in2="effect1_dropShadow_257_2569" result="shape"/>
</filter>
<filter id="filter13_d_257_2569" x="219.903" y="297.867" width="74.2212" height="101.824" filterUnits="userSpaceOnUse" color-interpolation-filters="sRGB">
<feFlood flood-opacity="0" result="BackgroundImageFix"/>
<feColorMatrix in="SourceAlpha" type="matrix" values="0 0 0 0 0 0 0 0 0 0 0 0 0 0 0 0 0 0 127 0" result="hardAlpha"/>
<feOffset/>
<feGaussianBlur stdDeviation="14"/>
<feComposite in2="hardAlpha" operator="out"/>
<feColorMatrix type="matrix" values="0 0 0 0 1 0 0 0 0 0.92549 0 0 0 0 0.176471 0 0 0 1 0"/>
<feBlend mode="normal" in2="BackgroundImageFix" result="effect1_dropShadow_257_2569"/>
<feBlend mode="normal" in="SourceGraphic" in2="effect1_dropShadow_257_2569" result="shape"/>
</filter>
<filter id="filter14_d_257_2569" x="322.813" y="277.428" width="85.4873" height="96.9727" filterUnits="userSpaceOnUse" color-interpolation-filters="sRGB">
<feFlood flood-opacity="0" result="BackgroundImageFix"/>
<feColorMatrix in="SourceAlpha" type="matrix" values="0 0 0 0 0 0 0 0 0 0 0 0 0 0 0 0 0 0 127 0" result="hardAlpha"/>
<feOffset/>
<feGaussianBlur stdDeviation="14"/>
<feComposite in2="hardAlpha" operator="out"/>
<feColorMatrix type="matrix" values="0 0 0 0 1 0 0 0 0 0.92549 0 0 0 0 0.176471 0 0 0 1 0"/>
<feBlend mode="normal" in2="BackgroundImageFix" result="effect1_dropShadow_257_2569"/>
<feBlend mode="normal" in="SourceGraphic" in2="effect1_dropShadow_257_2569" result="shape"/>
</filter>
<filter id="filter15_d_257_2569" x="359.908" y="241.037" width="95.8467" height="85.2031" filterUnits="userSpaceOnUse" color-interpolation-filters="sRGB">
<feFlood flood-opacity="0" result="BackgroundImageFix"/>
<feColorMatrix in="SourceAlpha" type="matrix" values="0 0 0 0 0 0 0 0 0 0 0 0 0 0 0 0 0 0 127 0" result="hardAlpha"/>
<feOffset/>
<feGaussianBlur stdDeviation="14"/>
<feComposite in2="hardAlpha" operator="out"/>
<feColorMatrix type="matrix" values="0 0 0 0 1 0 0 0 0 0.92549 0 0 0 0 0.176471 0 0 0 1 0"/>
<feBlend mode="normal" in2="BackgroundImageFix" result="effect1_dropShadow_257_2569"/>
<feBlend mode="normal" in="SourceGraphic" in2="effect1_dropShadow_257_2569" result="shape"/>
</filter>
<filter id="filter16_d_257_2569" x="160.337" y="277.643" width="84.791" height="95.9375" filterUnits="userSpaceOnUse" color-interpolation-filters="sRGB">
<feFlood flood-opacity="0" result="BackgroundImageFix"/>
<feColorMatrix in="SourceAlpha" type="matrix" values="0 0 0 0 0 0 0 0 0 0 0 0 0 0 0 0 0 0 127 0" result="hardAlpha"/>
<feOffset/>
<feGaussianBlur stdDeviation="14"/>
<feComposite in2="hardAlpha" operator="out"/>
<feColorMatrix type="matrix" values="0 0 0 0 1 0 0 0 0 0.92549 0 0 0 0 0.176471 0 0 0 1 0"/>
<feBlend mode="normal" in2="BackgroundImageFix" result="effect1_dropShadow_257_2569"/>
<feBlend mode="normal" in="SourceGraphic" in2="effect1_dropShadow_257_2569" result="shape"/>
</filter>
<filter id="filter17_d_257_2569" x="160.299" y="30.1621" width="84.9048" height="96.0293" filterUnits="userSpaceOnUse" color-interpolation-filters="sRGB">
<feFlood flood-opacity="0" result="BackgroundImageFix"/>
<feColorMatrix in="SourceAlpha" type="matrix" values="0 0 0 0 0 0 0 0 0 0 0 0 0 0 0 0 0 0 127 0" result="hardAlpha"/>
<feOffset/>
<feGaussianBlur stdDeviation="14"/>
<feComposite in2="hardAlpha" operator="out"/>
<feColorMatrix type="matrix" values="0 0 0 0 1 0 0 0 0 0.92549 0 0 0 0 0.176471 0 0 0 1 0"/>
<feBlend mode="normal" in2="BackgroundImageFix" result="effect1_dropShadow_257_2569"/>
<feBlend mode="normal" in="SourceGraphic" in2="effect1_dropShadow_257_2569" result="shape"/>
</filter>
<filter id="filter18_d_257_2569" x="372.211" y="217.811" width="99.0645" height="79.0859" filterUnits="userSpaceOnUse" color-interpolation-filters="sRGB">
<feFlood flood-opacity="0" result="BackgroundImageFix"/>
<feColorMatrix in="SourceAlpha" type="matrix" values="0 0 0 0 0 0 0 0 0 0 0 0 0 0 0 0 0 0 127 0" result="hardAlpha"/>
<feOffset/>
<feGaussianBlur stdDeviation="14"/>
<feComposite in2="hardAlpha" operator="out"/>
<feColorMatrix type="matrix" values="0 0 0 0 1 0 0 0 0 0.92549 0 0 0 0 0.176471 0 0 0 1 0"/>
<feBlend mode="normal" in2="BackgroundImageFix" result="effect1_dropShadow_257_2569"/>
<feBlend mode="normal" in="SourceGraphic" in2="effect1_dropShadow_257_2569" result="shape"/>
</filter>
<filter id="filter19_d_257_2569" x="247.855" y="0" width="72.9263" height="103.848" filterUnits="userSpaceOnUse" color-interpolation-filters="sRGB">
<feFlood flood-opacity="0" result="BackgroundImageFix"/>
<feColorMatrix in="SourceAlpha" type="matrix" values="0 0 0 0 0 0 0 0 0 0 0 0 0 0 0 0 0 0 127 0" result="hardAlpha"/>
<feOffset/>
<feGaussianBlur stdDeviation="14"/>
<feComposite in2="hardAlpha" operator="out"/>
<feColorMatrix type="matrix" values="0 0 0 0 1 0 0 0 0 0.92549 0 0 0 0 0.176471 0 0 0 1 0"/>
<feBlend mode="normal" in2="BackgroundImageFix" result="effect1_dropShadow_257_2569"/>
<feBlend mode="normal" in="SourceGraphic" in2="effect1_dropShadow_257_2569" result="shape"/>
</filter>
<filter id="filter20_d_257_2569" x="379.787" y="137.846" width="101.993" height="74.1133" filterUnits="userSpaceOnUse" color-interpolation-filters="sRGB">
<feFlood flood-opacity="0" result="BackgroundImageFix"/>
<feColorMatrix in="SourceAlpha" type="matrix" values="0 0 0 0 0 0 0 0 0 0 0 0 0 0 0 0 0 0 127 0" result="hardAlpha"/>
<feOffset/>
<feGaussianBlur stdDeviation="14"/>
<feComposite in2="hardAlpha" operator="out"/>
<feColorMatrix type="matrix" values="0 0 0 0 1 0 0 0 0 0.92549 0 0 0 0 0.176471 0 0 0 1 0"/>
<feBlend mode="normal" in2="BackgroundImageFix" result="effect1_dropShadow_257_2569"/>
<feBlend mode="normal" in="SourceGraphic" in2="effect1_dropShadow_257_2569" result="shape"/>
</filter>
<filter id="filter21_d_257_2569" x="96.7021" y="217.867" width="99.6846" height="78.9844" filterUnits="userSpaceOnUse" color-interpolation-filters="sRGB">
<feFlood flood-opacity="0" result="BackgroundImageFix"/>
<feColorMatrix in="SourceAlpha" type="matrix" values="0 0 0 0 0 0 0 0 0 0 0 0 0 0 0 0 0 0 127 0" result="hardAlpha"/>
<feOffset/>
<feGaussianBlur stdDeviation="14"/>
<feComposite in2="hardAlpha" operator="out"/>
<feColorMatrix type="matrix" values="0 0 0 0 1 0 0 0 0 0.92549 0 0 0 0 0.176471 0 0 0 1 0"/>
<feBlend mode="normal" in2="BackgroundImageFix" result="effect1_dropShadow_257_2569"/>
<feBlend mode="normal" in="SourceGraphic" in2="effect1_dropShadow_257_2569" result="shape"/>
</filter>
<filter id="filter22_d_257_2569" x="247.666" y="300.518" width="73.1519" height="103.273" filterUnits="userSpaceOnUse" color-interpolation-filters="sRGB">
<feFlood flood-opacity="0" result="BackgroundImageFix"/>
<feColorMatrix in="SourceAlpha" type="matrix" values="0 0 0 0 0 0 0 0 0 0 0 0 0 0 0 0 0 0 127 0" result="hardAlpha"/>
<feOffset/>
<feGaussianBlur stdDeviation="14"/>
<feComposite in2="hardAlpha" operator="out"/>
<feColorMatrix type="matrix" values="0 0 0 0 1 0 0 0 0 0.92549 0 0 0 0 0.176471 0 0 0 1 0"/>
<feBlend mode="normal" in2="BackgroundImageFix" result="effect1_dropShadow_257_2569"/>
<feBlend mode="normal" in="SourceGraphic" in2="effect1_dropShadow_257_2569" result="shape"/>
</filter>
<filter id="filter23_d_257_2569" x="189.84" y="290.176" width="78.6982" height="100.555" filterUnits="userSpaceOnUse" color-interpolation-filters="sRGB">
<feFlood flood-opacity="0" result="BackgroundImageFix"/>
<feColorMatrix in="SourceAlpha" type="matrix" values="0 0 0 0 0 0 0 0 0 0 0 0 0 0 0 0 0 0 127 0" result="hardAlpha"/>
<feOffset/>
<feGaussianBlur stdDeviation="14"/>
<feComposite in2="hardAlpha" operator="out"/>
<feColorMatrix type="matrix" values="0 0 0 0 1 0 0 0 0 0.92549 0 0 0 0 0.176471 0 0 0 1 0"/>
<feBlend mode="normal" in2="BackgroundImageFix" result="effect1_dropShadow_257_2569"/>
<feBlend mode="normal" in="SourceGraphic" in2="effect1_dropShadow_257_2569" result="shape"/>
</filter>
<filter id="filter24_d_257_2569" x="113.042" y="241.01" width="95.4678" height="85.3223" filterUnits="userSpaceOnUse" color-interpolation-filters="sRGB">
<feFlood flood-opacity="0" result="BackgroundImageFix"/>
<feColorMatrix in="SourceAlpha" type="matrix" values="0 0 0 0 0 0 0 0 0 0 0 0 0 0 0 0 0 0 127 0" result="hardAlpha"/>
<feOffset/>
<feGaussianBlur stdDeviation="14"/>
<feComposite in2="hardAlpha" operator="out"/>
<feColorMatrix type="matrix" values="0 0 0 0 1 0 0 0 0 0.92549 0 0 0 0 0.176471 0 0 0 1 0"/>
<feBlend mode="normal" in2="BackgroundImageFix" result="effect1_dropShadow_257_2569"/>
<feBlend mode="normal" in="SourceGraphic" in2="effect1_dropShadow_257_2569" result="shape"/>
</filter>
<filter id="filter25_d_257_2569" x="96.7598" y="107.771" width="99.4556" height="78.7441" filterUnits="userSpaceOnUse" color-interpolation-filters="sRGB">
<feFlood flood-opacity="0" result="BackgroundImageFix"/>
<feColorMatrix in="SourceAlpha" type="matrix" values="0 0 0 0 0 0 0 0 0 0 0 0 0 0 0 0 0 0 127 0" result="hardAlpha"/>
<feOffset/>
<feGaussianBlur stdDeviation="14"/>
<feComposite in2="hardAlpha" operator="out"/>
<feColorMatrix type="matrix" values="0 0 0 0 1 0 0 0 0 0.92549 0 0 0 0 0.176471 0 0 0 1 0"/>
<feBlend mode="normal" in2="BackgroundImageFix" result="effect1_dropShadow_257_2569"/>
<feBlend mode="normal" in="SourceGraphic" in2="effect1_dropShadow_257_2569" result="shape"/>
</filter>
<filter id="filter26_d_257_2569" x="299.966" y="14.6504" width="78.9438" height="99.1035" filterUnits="userSpaceOnUse" color-interpolation-filters="sRGB">
<feFlood flood-opacity="0" result="BackgroundImageFix"/>
<feColorMatrix in="SourceAlpha" type="matrix" values="0 0 0 0 0 0 0 0 0 0 0 0 0 0 0 0 0 0 127 0" result="hardAlpha"/>
<feOffset/>
<feGaussianBlur stdDeviation="14"/>
<feComposite in2="hardAlpha" operator="out"/>
<feColorMatrix type="matrix" values="0 0 0 0 1 0 0 0 0 0.92549 0 0 0 0 0.176471 0 0 0 1 0"/>
<feBlend mode="normal" in2="BackgroundImageFix" result="effect1_dropShadow_257_2569"/>
<feBlend mode="normal" in="SourceGraphic" in2="effect1_dropShadow_257_2569" result="shape"/>
</filter>
<filter id="filter27_d_257_2569" x="379.923" y="192.504" width="101.857" height="74.0039" filterUnits="userSpaceOnUse" color-interpolation-filters="sRGB">
<feFlood flood-opacity="0" result="BackgroundImageFix"/>
<feColorMatrix in="SourceAlpha" type="matrix" values="0 0 0 0 0 0 0 0 0 0 0 0 0 0 0 0 0 0 127 0" result="hardAlpha"/>
<feOffset/>
<feGaussianBlur stdDeviation="14"/>
<feComposite in2="hardAlpha" operator="out"/>
<feColorMatrix type="matrix" values="0 0 0 0 1 0 0 0 0 0.92549 0 0 0 0 0.176471 0 0 0 1 0"/>
<feBlend mode="normal" in2="BackgroundImageFix" result="effect1_dropShadow_257_2569"/>
<feBlend mode="normal" in="SourceGraphic" in2="effect1_dropShadow_257_2569" result="shape"/>
</filter>
<filter id="filter28_d_257_2569" x="86.8481" y="137.771" width="101.772" height="74.1973" filterUnits="userSpaceOnUse" color-interpolation-filters="sRGB">
<feFlood flood-opacity="0" result="BackgroundImageFix"/>
<feColorMatrix in="SourceAlpha" type="matrix" values="0 0 0 0 0 0 0 0 0 0 0 0 0 0 0 0 0 0 127 0" result="hardAlpha"/>
<feOffset/>
<feGaussianBlur stdDeviation="14"/>
<feComposite in2="hardAlpha" operator="out"/>
<feColorMatrix type="matrix" values="0 0 0 0 1 0 0 0 0 0.92549 0 0 0 0 0.176471 0 0 0 1 0"/>
<feBlend mode="normal" in2="BackgroundImageFix" result="effect1_dropShadow_257_2569"/>
<feBlend mode="normal" in="SourceGraphic" in2="effect1_dropShadow_257_2569" result="shape"/>
</filter>
<filter id="filter29_d_257_2569" x="220.127" y="4.06445" width="73.9878" height="101.91" filterUnits="userSpaceOnUse" color-interpolation-filters="sRGB">
<feFlood flood-opacity="0" result="BackgroundImageFix"/>
<feColorMatrix in="SourceAlpha" type="matrix" values="0 0 0 0 0 0 0 0 0 0 0 0 0 0 0 0 0 0 127 0" result="hardAlpha"/>
<feOffset/>
<feGaussianBlur stdDeviation="14"/>
<feComposite in2="hardAlpha" operator="out"/>
<feColorMatrix type="matrix" values="0 0 0 0 1 0 0 0 0 0.92549 0 0 0 0 0.176471 0 0 0 1 0"/>
<feBlend mode="normal" in2="BackgroundImageFix" result="effect1_dropShadow_257_2569"/>
<feBlend mode="normal" in="SourceGraphic" in2="effect1_dropShadow_257_2569" result="shape"/>
</filter>
<filter id="filter30_d_257_2569" x="372.101" y="107.771" width="99.1548" height="78.5293" filterUnits="userSpaceOnUse" color-interpolation-filters="sRGB">
<feFlood flood-opacity="0" result="BackgroundImageFix"/>
<feColorMatrix in="SourceAlpha" type="matrix" values="0 0 0 0 0 0 0 0 0 0 0 0 0 0 0 0 0 0 127 0" result="hardAlpha"/>
<feOffset/>
<feGaussianBlur stdDeviation="14"/>
<feComposite in2="hardAlpha" operator="out"/>
<feColorMatrix type="matrix" values="0 0 0 0 1 0 0 0 0 0.92549 0 0 0 0 0.176471 0 0 0 1 0"/>
<feBlend mode="normal" in2="BackgroundImageFix" result="effect1_dropShadow_257_2569"/>
<feBlend mode="normal" in="SourceGraphic" in2="effect1_dropShadow_257_2569" result="shape"/>
</filter>
<filter id="filter31_d_257_2569" x="274.495" y="297.852" width="73.7988" height="102.67" filterUnits="userSpaceOnUse" color-interpolation-filters="sRGB">
<feFlood flood-opacity="0" result="BackgroundImageFix"/>
<feColorMatrix in="SourceAlpha" type="matrix" values="0 0 0 0 0 0 0 0 0 0 0 0 0 0 0 0 0 0 127 0" result="hardAlpha"/>
<feOffset/>
<feGaussianBlur stdDeviation="14"/>
<feComposite in2="hardAlpha" operator="out"/>
<feColorMatrix type="matrix" values="0 0 0 0 1 0 0 0 0 0.92549 0 0 0 0 0.176471 0 0 0 1 0"/>
<feBlend mode="normal" in2="BackgroundImageFix" result="effect1_dropShadow_257_2569"/>
<feBlend mode="normal" in="SourceGraphic" in2="effect1_dropShadow_257_2569" result="shape"/>
</filter>
<filter id="filter32_d_257_2569" x="299.923" y="290.326" width="78.9868" height="98.9512" filterUnits="userSpaceOnUse" color-interpolation-filters="sRGB">
<feFlood flood-opacity="0" result="BackgroundImageFix"/>
<feColorMatrix in="SourceAlpha" type="matrix" values="0 0 0 0 0 0 0 0 0 0 0 0 0 0 0 0 0 0 127 0" result="hardAlpha"/>
<feOffset/>
<feGaussianBlur stdDeviation="14"/>
<feComposite in2="hardAlpha" operator="out"/>
<feColorMatrix type="matrix" values="0 0 0 0 1 0 0 0 0 0.92549 0 0 0 0 0.176471 0 0 0 1 0"/>
<feBlend mode="normal" in2="BackgroundImageFix" result="effect1_dropShadow_257_2569"/>
<feBlend mode="normal" in="SourceGraphic" in2="effect1_dropShadow_257_2569" result="shape"/>
</filter>
<filter id="filter33_d_257_2569" x="86.96" y="192.34" width="101.834" height="73.7969" filterUnits="userSpaceOnUse" color-interpolation-filters="sRGB">
<feFlood flood-opacity="0" result="BackgroundImageFix"/>
<feColorMatrix in="SourceAlpha" type="matrix" values="0 0 0 0 0 0 0 0 0 0 0 0 0 0 0 0 0 0 127 0" result="hardAlpha"/>
<feOffset/>
<feGaussianBlur stdDeviation="14"/>
<feComposite in2="hardAlpha" operator="out"/>
<feColorMatrix type="matrix" values="0 0 0 0 1 0 0 0 0 0.92549 0 0 0 0 0.176471 0 0 0 1 0"/>
<feBlend mode="normal" in2="BackgroundImageFix" result="effect1_dropShadow_257_2569"/>
<feBlend mode="normal" in="SourceGraphic" in2="effect1_dropShadow_257_2569" result="shape"/>
</filter>
<filter id="filter34_d_257_2569" x="189.84" y="13.8711" width="78.8955" height="100.037" filterUnits="userSpaceOnUse" color-interpolation-filters="sRGB">
<feFlood flood-opacity="0" result="BackgroundImageFix"/>
<feColorMatrix in="SourceAlpha" type="matrix" values="0 0 0 0 0 0 0 0 0 0 0 0 0 0 0 0 0 0 127 0" result="hardAlpha"/>
<feOffset/>
<feGaussianBlur stdDeviation="14"/>
<feComposite in2="hardAlpha" operator="out"/>
<feColorMatrix type="matrix" values="0 0 0 0 1 0 0 0 0 0.92549 0 0 0 0 0.176471 0 0 0 1 0"/>
<feBlend mode="normal" in2="BackgroundImageFix" result="effect1_dropShadow_257_2569"/>
<feBlend mode="normal" in="SourceGraphic" in2="effect1_dropShadow_257_2569" result="shape"/>
</filter>
<filter id="filter35_d_257_2569" x="382.475" y="165.691" width="102.575" height="72.9922" filterUnits="userSpaceOnUse" color-interpolation-filters="sRGB">
<feFlood flood-opacity="0" result="BackgroundImageFix"/>
<feColorMatrix in="SourceAlpha" type="matrix" values="0 0 0 0 0 0 0 0 0 0 0 0 0 0 0 0 0 0 127 0" result="hardAlpha"/>
<feOffset/>
<feGaussianBlur stdDeviation="14"/>
<feComposite in2="hardAlpha" operator="out"/>
<feColorMatrix type="matrix" values="0 0 0 0 1 0 0 0 0 0.92549 0 0 0 0 0.176471 0 0 0 1 0"/>
<feBlend mode="normal" in2="BackgroundImageFix" result="effect1_dropShadow_257_2569"/>
<feBlend mode="normal" in="SourceGraphic" in2="effect1_dropShadow_257_2569" result="shape"/>
</filter>
<filter id="filter36_d_257_2569" x="0" y="190.99" width="214.874" height="266.641" filterUnits="userSpaceOnUse" color-interpolation-filters="sRGB">
<feFlood flood-opacity="0" result="BackgroundImageFix"/>
<feColorMatrix in="SourceAlpha" type="matrix" values="0 0 0 0 0 0 0 0 0 0 0 0 0 0 0 0 0 0 127 0" result="hardAlpha"/>
<feOffset/>
<feGaussianBlur stdDeviation="14"/>
<feComposite in2="hardAlpha" operator="out"/>
<feColorMatrix type="matrix" values="0 0 0 0 1 0 0 0 0 0.92549 0 0 0 0 0.176471 0 0 0 1 0"/>
<feBlend mode="normal" in2="BackgroundImageFix" result="effect1_dropShadow_257_2569"/>
<feBlend mode="normal" in="SourceGraphic" in2="effect1_dropShadow_257_2569" result="shape"/>
</filter>
<filter id="filter37_d_257_2569" x="34.6797" y="191.031" width="273.206" height="250.396" filterUnits="userSpaceOnUse" color-interpolation-filters="sRGB">
<feFlood flood-opacity="0" result="BackgroundImageFix"/>
<feColorMatrix in="SourceAlpha" type="matrix" values="0 0 0 0 0 0 0 0 0 0 0 0 0 0 0 0 0 0 127 0" result="hardAlpha"/>
<feOffset/>
<feGaussianBlur stdDeviation="14"/>
<feComposite in2="hardAlpha" operator="out"/>
<feColorMatrix type="matrix" values="0 0 0 0 1 0 0 0 0 0.92549 0 0 0 0 0.176471 0 0 0 1 0"/>
<feBlend mode="normal" in2="BackgroundImageFix" result="effect1_dropShadow_257_2569"/>
<feBlend mode="normal" in="SourceGraphic" in2="effect1_dropShadow_257_2569" result="shape"/>
</filter>
<filter id="filter38_d_257_2569" x="356.37" y="296.973" width="193.641" height="162.359" filterUnits="userSpaceOnUse" color-interpolation-filters="sRGB">
<feFlood flood-opacity="0" result="BackgroundImageFix"/>
<feColorMatrix in="SourceAlpha" type="matrix" values="0 0 0 0 0 0 0 0 0 0 0 0 0 0 0 0 0 0 127 0" result="hardAlpha"/>
<feOffset/>
<feGaussianBlur stdDeviation="14"/>
<feComposite in2="hardAlpha" operator="out"/>
<feColorMatrix type="matrix" values="0 0 0 0 1 0 0 0 0 0.92549 0 0 0 0 0.176471 0 0 0 1 0"/>
<feBlend mode="normal" in2="BackgroundImageFix" result="effect1_dropShadow_257_2569"/>
<feBlend mode="normal" in="SourceGraphic" in2="effect1_dropShadow_257_2569" result="shape"/>
</filter>
<filter id="filter39_d_257_2569" x="185.625" y="417.201" width="147.565" height="80.9316" filterUnits="userSpaceOnUse" color-interpolation-filters="sRGB">
<feFlood flood-opacity="0" result="BackgroundImageFix"/>
<feColorMatrix in="SourceAlpha" type="matrix" values="0 0 0 0 0 0 0 0 0 0 0 0 0 0 0 0 0 0 127 0" result="hardAlpha"/>
<feOffset/>
<feGaussianBlur stdDeviation="14"/>
<feComposite in2="hardAlpha" operator="out"/>
<feColorMatrix type="matrix" values="0 0 0 0 1 0 0 0 0 0.92549 0 0 0 0 0.176471 0 0 0 1 0"/>
<feBlend mode="normal" in2="BackgroundImageFix" result="effect1_dropShadow_257_2569"/>
<feBlend mode="normal" in="SourceGraphic" in2="effect1_dropShadow_257_2569" result="shape"/>
</filter>
<filter id="filter40_d_257_2569" x="194.582" y="281.992" width="322.369" height="200.949" filterUnits="userSpaceOnUse" color-interpolation-filters="sRGB">
<feFlood flood-opacity="0" result="BackgroundImageFix"/>
<feColorMatrix in="SourceAlpha" type="matrix" values="0 0 0 0 0 0 0 0 0 0 0 0 0 0 0 0 0 0 127 0" result="hardAlpha"/>
<feOffset/>
<feGaussianBlur stdDeviation="14"/>
<feComposite in2="hardAlpha" operator="out"/>
<feColorMatrix type="matrix" values="0 0 0 0 1 0 0 0 0 0.92549 0 0 0 0 0.176471 0 0 0 1 0"/>
<feBlend mode="normal" in2="BackgroundImageFix" result="effect1_dropShadow_257_2569"/>
<feBlend mode="normal" in="SourceGraphic" in2="effect1_dropShadow_257_2569" result="shape"/>
</filter>
<filter id="filter41_d_257_2569" x="82.4761" y="164.807" width="104.54" height="74.1992" filterUnits="userSpaceOnUse" color-interpolation-filters="sRGB">
<feFlood flood-opacity="0" result="BackgroundImageFix"/>
<feColorMatrix in="SourceAlpha" type="matrix" values="0 0 0 0 0 0 0 0 0 0 0 0 0 0 0 0 0 0 127 0" result="hardAlpha"/>
<feOffset/>
<feGaussianBlur stdDeviation="14"/>
<feComposite in2="hardAlpha" operator="out"/>
<feColorMatrix type="matrix" values="0 0 0 0 1 0 0 0 0 0.92549 0 0 0 0 0.176471 0 0 0 1 0"/>
<feBlend mode="normal" in2="BackgroundImageFix" result="effect1_dropShadow_257_2569"/>
<feBlend mode="normal" in="SourceGraphic" in2="effect1_dropShadow_257_2569" result="shape"/>
</filter>
<filter id="filter42_d_257_2569" x="46.0952" y="269.195" width="136.055" height="120.725" filterUnits="userSpaceOnUse" color-interpolation-filters="sRGB">
<feFlood flood-opacity="0" result="BackgroundImageFix"/>
<feColorMatrix in="SourceAlpha" type="matrix" values="0 0 0 0 0 0 0 0 0 0 0 0 0 0 0 0 0 0 127 0" result="hardAlpha"/>
<feOffset/>
<feGaussianBlur stdDeviation="14"/>
<feComposite in2="hardAlpha" operator="out"/>
<feColorMatrix type="matrix" values="0 0 0 0 1 0 0 0 0 0.92549 0 0 0 0 0.176471 0 0 0 1 0"/>
<feBlend mode="normal" in2="BackgroundImageFix" result="effect1_dropShadow_257_2569"/>
<feBlend mode="normal" in="SourceGraphic" in2="effect1_dropShadow_257_2569" result="shape"/>
</filter>
<filter id="filter43_d_257_2569" x="465.801" y="264.521" width="77.2192" height="79.5605" filterUnits="userSpaceOnUse" color-interpolation-filters="sRGB">
<feFlood flood-opacity="0" result="BackgroundImageFix"/>
<feColorMatrix in="SourceAlpha" type="matrix" values="0 0 0 0 0 0 0 0 0 0 0 0 0 0 0 0 0 0 127 0" result="hardAlpha"/>
<feOffset/>
<feGaussianBlur stdDeviation="14"/>
<feComposite in2="hardAlpha" operator="out"/>
<feColorMatrix type="matrix" values="0 0 0 0 1 0 0 0 0 0.92549 0 0 0 0 0.176471 0 0 0 1 0"/>
<feBlend mode="normal" in2="BackgroundImageFix" result="effect1_dropShadow_257_2569"/>
<feBlend mode="normal" in="SourceGraphic" in2="effect1_dropShadow_257_2569" result="shape"/>
</filter>
<filter id="filter44_d_257_2569" x="464.101" y="253.379" width="104.76" height="112.119" filterUnits="userSpaceOnUse" color-interpolation-filters="sRGB">
<feFlood flood-opacity="0" result="BackgroundImageFix"/>
<feColorMatrix in="SourceAlpha" type="matrix" values="0 0 0 0 0 0 0 0 0 0 0 0 0 0 0 0 0 0 127 0" result="hardAlpha"/>
<feOffset/>
<feGaussianBlur stdDeviation="14"/>
<feComposite in2="hardAlpha" operator="out"/>
<feColorMatrix type="matrix" values="0 0 0 0 1 0 0 0 0 0.92549 0 0 0 0 0.176471 0 0 0 1 0"/>
<feBlend mode="normal" in2="BackgroundImageFix" result="effect1_dropShadow_257_2569"/>
<feBlend mode="normal" in="SourceGraphic" in2="effect1_dropShadow_257_2569" result="shape"/>
</filter>
<filter id="filter45_d_257_2569" x="354.683" y="311.051" width="100.157" height="90.2891" filterUnits="userSpaceOnUse" color-interpolation-filters="sRGB">
<feFlood flood-opacity="0" result="BackgroundImageFix"/>
<feColorMatrix in="SourceAlpha" type="matrix" values="0 0 0 0 0 0 0 0 0 0 0 0 0 0 0 0 0 0 127 0" result="hardAlpha"/>
<feOffset/>
<feGaussianBlur stdDeviation="14"/>
<feComposite in2="hardAlpha" operator="out"/>
<feColorMatrix type="matrix" values="0 0 0 0 1 0 0 0 0 0.92549 0 0 0 0 0.176471 0 0 0 1 0"/>
<feBlend mode="normal" in2="BackgroundImageFix" result="effect1_dropShadow_257_2569"/>
<feBlend mode="normal" in="SourceGraphic" in2="effect1_dropShadow_257_2569" result="shape"/>
</filter>
<filter id="filter46_d_257_2569" x="417.62" y="344.531" width="75.5898" height="73.1504" filterUnits="userSpaceOnUse" color-interpolation-filters="sRGB">
<feFlood flood-opacity="0" result="BackgroundImageFix"/>
<feColorMatrix in="SourceAlpha" type="matrix" values="0 0 0 0 0 0 0 0 0 0 0 0 0 0 0 0 0 0 127 0" result="hardAlpha"/>
<feOffset/>
<feGaussianBlur stdDeviation="14"/>
<feComposite in2="hardAlpha" operator="out"/>
<feColorMatrix type="matrix" values="0 0 0 0 1 0 0 0 0 0.92549 0 0 0 0 0.176471 0 0 0 1 0"/>
<feBlend mode="normal" in2="BackgroundImageFix" result="effect1_dropShadow_257_2569"/>
<feBlend mode="normal" in="SourceGraphic" in2="effect1_dropShadow_257_2569" result="shape"/>
</filter>
<filter id="filter47_d_257_2569" x="432.252" y="332.281" width="69.9375" height="67.4297" filterUnits="userSpaceOnUse" color-interpolation-filters="sRGB">
<feFlood flood-opacity="0" result="BackgroundImageFix"/>
<feColorMatrix in="SourceAlpha" type="matrix" values="0 0 0 0 0 0 0 0 0 0 0 0 0 0 0 0 0 0 127 0" result="hardAlpha"/>
<feOffset/>
<feGaussianBlur stdDeviation="14"/>
<feComposite in2="hardAlpha" operator="out"/>
<feColorMatrix type="matrix" values="0 0 0 0 1 0 0 0 0 0.92549 0 0 0 0 0.176471 0 0 0 1 0"/>
<feBlend mode="normal" in2="BackgroundImageFix" result="effect1_dropShadow_257_2569"/>
<feBlend mode="normal" in="SourceGraphic" in2="effect1_dropShadow_257_2569" result="shape"/>
</filter>
<filter id="filter48_d_257_2569" x="49.9712" y="249.572" width="58.1377" height="58.1367" filterUnits="userSpaceOnUse" color-interpolation-filters="sRGB">
<feFlood flood-opacity="0" result="BackgroundImageFix"/>
<feColorMatrix in="SourceAlpha" type="matrix" values="0 0 0 0 0 0 0 0 0 0 0 0 0 0 0 0 0 0 127 0" result="hardAlpha"/>
<feOffset/>
<feGaussianBlur stdDeviation="14"/>
<feComposite in2="hardAlpha" operator="out"/>
<feColorMatrix type="matrix" values="0 0 0 0 1 0 0 0 0 0.92549 0 0 0 0 0.176471 0 0 0 1 0"/>
<feBlend mode="normal" in2="BackgroundImageFix" result="effect1_dropShadow_257_2569"/>
<feBlend mode="normal" in="SourceGraphic" in2="effect1_dropShadow_257_2569" result="shape"/>
</filter>
<filter id="filter49_d_257_2569" x="44.3193" y="328.627" width="115.902" height="110.275" filterUnits="userSpaceOnUse" color-interpolation-filters="sRGB">
<feFlood flood-opacity="0" result="BackgroundImageFix"/>
<feColorMatrix in="SourceAlpha" type="matrix" values="0 0 0 0 0 0 0 0 0 0 0 0 0 0 0 0 0 0 127 0" result="hardAlpha"/>
<feOffset/>
<feGaussianBlur stdDeviation="14"/>
<feComposite in2="hardAlpha" operator="out"/>
<feColorMatrix type="matrix" values="0 0 0 0 1 0 0 0 0 0.92549 0 0 0 0 0.176471 0 0 0 1 0"/>
<feBlend mode="normal" in2="BackgroundImageFix" result="effect1_dropShadow_257_2569"/>
<feBlend mode="normal" in="SourceGraphic" in2="effect1_dropShadow_257_2569" result="shape"/>
</filter>
<filter id="filter50_d_257_2569" x="375.17" y="374.518" width="97.7583" height="82.3203" filterUnits="userSpaceOnUse" color-interpolation-filters="sRGB">
<feFlood flood-opacity="0" result="BackgroundImageFix"/>
<feColorMatrix in="SourceAlpha" type="matrix" values="0 0 0 0 0 0 0 0 0 0 0 0 0 0 0 0 0 0 127 0" result="hardAlpha"/>
<feOffset/>
<feGaussianBlur stdDeviation="14"/>
<feComposite in2="hardAlpha" operator="out"/>
<feColorMatrix type="matrix" values="0 0 0 0 1 0 0 0 0 0.92549 0 0 0 0 0.176471 0 0 0 1 0"/>
<feBlend mode="normal" in2="BackgroundImageFix" result="effect1_dropShadow_257_2569"/>
<feBlend mode="normal" in="SourceGraphic" in2="effect1_dropShadow_257_2569" result="shape"/>
</filter>
<filter id="filter51_d_257_2569" x="187.279" y="419.641" width="98.6045" height="74.6582" filterUnits="userSpaceOnUse" color-interpolation-filters="sRGB">
<feFlood flood-opacity="0" result="BackgroundImageFix"/>
<feColorMatrix in="SourceAlpha" type="matrix" values="0 0 0 0 0 0 0 0 0 0 0 0 0 0 0 0 0 0 127 0" result="hardAlpha"/>
<feOffset/>
<feGaussianBlur stdDeviation="14"/>
<feComposite in2="hardAlpha" operator="out"/>
<feColorMatrix type="matrix" values="0 0 0 0 1 0 0 0 0 0.92549 0 0 0 0 0.176471 0 0 0 1 0"/>
<feBlend mode="normal" in2="BackgroundImageFix" result="effect1_dropShadow_257_2569"/>
<feBlend mode="normal" in="SourceGraphic" in2="effect1_dropShadow_257_2569" result="shape"/>
</filter>
<filter id="filter52_d_257_2569" x="89.4199" y="167.307" width="94.4819" height="69.2656" filterUnits="userSpaceOnUse" color-interpolation-filters="sRGB">
<feFlood flood-opacity="0" result="BackgroundImageFix"/>
<feColorMatrix in="SourceAlpha" type="matrix" values="0 0 0 0 0 0 0 0 0 0 0 0 0 0 0 0 0 0 127 0" result="hardAlpha"/>
<feOffset/>
<feGaussianBlur stdDeviation="14"/>
<feComposite in2="hardAlpha" operator="out"/>
<feColorMatrix type="matrix" values="0 0 0 0 1 0 0 0 0 0.92549 0 0 0 0 0.176471 0 0 0 1 0"/>
<feBlend mode="normal" in2="BackgroundImageFix" result="effect1_dropShadow_257_2569"/>
<feBlend mode="normal" in="SourceGraphic" in2="effect1_dropShadow_257_2569" result="shape"/>
</filter>
</defs>
</svg>
