<?xml version="1.0" encoding="UTF-8"?>
<svg id="_Слой_1" data-name="Слой 1" xmlns="http://www.w3.org/2000/svg" viewBox="0 0 550 550">
  <defs>
    <style>
      .cls-1 {
        fill: #777;
      }

      .cls-2 {
        fill: #afafaf;
      }
    </style>
  </defs>
  <path class="cls-2" d="M302.55,265.14c-1.76.8-.47,3.32-.18,4.66.64,3.03,5.31,18.2,4.18,19.34-7.64.92-5.13-2.31-6.46-7.05-1.18-4.22-2.7-9.75-4.26-13.74-.49-1.26-.58-2.94-2.27-3.22-.43,11.03.44,22.02.99,33-5.13-5.32-13.12-7.87-20.54-7.04-1.49.17-3.09.21-3.46,2.03,11.43-.46,16.35.46,22.77,9.75,1.79,2.58,1.05.82,1.22-.74.12,2.29-.02,3.39,0,5-7.51.16-12.66.97-13.01,9.49.78,1.55,1.78.03,2.56-.44,3.95-2.38,5.1-4.43,10.45-2.05.07.39,1.35,1.58,1.56,2.89,1.92,11.77,4.31,23.27,1.45,35.11,10.01-5.52,20.26,3.28,29.72,6.77,8.08,2.98,17.85,6,26.56,4.03,5.12-1.16,7.26-9.42,9.71-.79-4.81,1.64-5.23,8.57-10.72,9.8-3.11.7-9.86-.63-13.33-1.24s-22.56-5.33-22.77-8.04c-.02-.29,3.85-6.03.34-4.5-1.33.58-6.35,5.02-8.6,6.41-10.93,6.77-25.03,13.34-34.83,21.17-1.49,1.19-10.25,9.55-10.61,10.44-.51,1.23.43,9.23,2.15,9.86,3.75,1.38,3.27-1.51,4.41-2.3,2.37-1.64,18.82-3.83,22.44-3.58,3.29.23,8.49,1.8,10.4,4.62,1.1,1.62,1.45,5.39,2.36,6.15s5.46,1.14,7.46,2.04c1.76.79,4.95,3.91,5.99,4.07,1.56.24,2.51-2.41,4.83-2.86,2.54-.5,5.82.28,8.49-.02,11.87,9.03,15.34,17.49,24.99,25.51,2.74,2.28,2.99,3.08,6.01,2.49,2.39-.47,3.56.15,4.58-2.96,4.37-13.32-20.91-16.36-23.37-24.74-.59-2,.63-4.94-1.2-6.3,3.79-4.9,11.66-3.45,11.99,2.58.14,2.58-2.53,4.61-1.57,6.42,1.11,2.1,10.38,6.29,13.07,9.01,3.23,3.27,6.17,10.1,6.18,14.67,0,2.84-2.8,6.3-2.51,7.67.22,1.04,2.12,1.86,2.63,3.36,2.04,5.98,3.93,11.7,6.23,17.76,1.5,3.95,2.86,13.47,6.03,14.97,3.56,1.68,10.59.52,9.97,7.05-.19,2.06-1.88,2.2-2.02,2.5-4.62,2.34-5.25-4.89-10.67-5.89-1.86-.34-1.18,1.83-1.84,1.94-4.72.77-8.56-11.83-12.12-14.92-9.99-8.66-30.54-11.04-42.43-21.6-6.35-5.64-9.94-4.56-16.18-7.58-2.04-.99-7.65-6.12-9.57-6.85-4.76-1.82-16.59-1.09-21.96-4.35-.56-.34-.59-2.19-1.84-2.61-1.8-.61-4.03.26-5.7-.12-1.11-.25-1.24-2.85-2.66-3.55-2.26-1.1-5.67.12-6.89-.63-.36-.22-1.89-5.59-4.65-6.84-1.31,1.85-1.62,5.03-4.19,5.8-13.4.43-28.09,3.58-39.29-5.8.66,6.91-13.07,13.97-18.5,14.01-2.33.02-11.13-2.9-12.54-4.5s-1.12-5.95-5.52-7.48c-2.23-.78-1.35,4.42-5.87,2.89-2.65-.9-.39-4.76-2.58-4.92l-2.47,4.96c-2.5-1.87-2.72-5.1-2.55-7.96-2.64.31-1.58,6.46-1.99,6.99l-5-3c.18-1.55,2.24-5.88,3.27-6.72.38-.31,7.9-2.98,8.39-3.02,4.85-.41,14.03,6.44,19.35,2.25,1.04-.81,2.9-8.64,5.9-11.1,2.44-2,6.64-1.72,9.08-4.42.51,4.24,4.63,1.48,7.99,3-.07-4.4-.18-9.68,1.8-13.71,1.51-3.09,6.14-5.61,7.21-7.79.1-.21-3.05-1.8-3-3.49,2.67-5.25,3.93-19.14,0-24,2.18-2.07,5.11.28,6.98-.46,3.24-1.29,5.84-10.76,5.05-13.82-.25-.97-1.95-1.06-2.42-1.77-1.53-2.28-5.56-7.46-5.68-9.42-.07-1.25.98-2.5,1-3.11s-1.92-.06-1.94-.92c-.11-3.48,4.01-2.22,6-1.99-3.45-4.45-10.79-3.51-11.46,2.47-2.48-1.33-4.2-.36-3.53-3.97-1.53-.43-.59,1.05-1.37,1.61-2.28,1.64-4.52,1.63-5.62,5.38,3.4-.07,6.3-2.97,9.33-1.87.77.28,6.74,7.55,8.07,9.03.53.59.37,2.01.89,2.55.81.82,3.91.75,4.7,2.81.4,2.96-1.49.16-3.28.62-3.61.92-3.8,6.97-4.21,6.86-2.94-4.21-5-1.43-7.47-2.45-3.93-1.62,1.01-4.58-.04-5.54-2.55-.79-7.76,2.64-5.99,5,.22.3,1.67-1.2,3-.54,1.62.81,1.79,3.2-1.01,2.54-1.08-.73-3.06-.64-3.74-1.24-2.36-2.08-1.23-14.47-.26-17.76-.67.01-1.33.02-2,0-2.37-3.17,7.22-13.54,10.29-15.21,7.92-4.31,10.52,1.01,16.16.23,2.75-.38,4-4.41,7.81-3.85,5.8.85,2.94,7.11,3.97,11.09l12.75,22.73c-.4-5.8.59-12.3.01-17.99h2.51c-.36-2.08-2.99-6.64-2.46-8.39.72-2.36,4.81-.28,3.94-3.61-3.17.5-4.62-.38-7-2-7.19-4.92-3.54-12.33-5.01-18.33-.19-.77-1.98-.62-2-1.25-.26-9.21-1.13-19.61-1.99-29.42,5.09-.4,14.35-3.08,18.03,1.47,3.39,4.18,1.69,22.16,5.97,28.52-.88.79-13.39-1.69-15,3,6.7-1.32,13.64-2.83,16.99,4.52l-3.99.99c9.58,4.56,2.2,8.53,2.37,11.99.1,2,5.06,7.24,2.62,10.51h4.01c.93,2.68-1.78,4.63-1.98,6.54-.34,3.17,2.71,12.42,3.02,16.93.51,7.58-.27,15.2-2.03,22.53l6.99-3.5-3.07-1.04c0-10.99.22-22,.11-32.99-.02-2.17-1.14-4.25-1.11-6.01.04-2.26,2.15-3.7,1.96-4.81s-2.99-2.7-3.48-4.59.83-3.6.59-5.46c-.44-3.36-4.66-13.36-5.7-18.22-.24-1.11.87-2.87.5-4.58-2.64-12.17-11.58-25,1.5-32.98,14.54-8.87,24.28,2.99,34.69,11.19ZM260.55,298.15c-4.16-.5-4.16,1.48,0,.98v-.98ZM294.55,346.64c.6-5.13,0-12.1,0-17.5,0-.1,1.46.1,2,0l-3-1.99c.22,8.19-.72,16.39-2.02,24.48,1.86,2.59,2.85-3.55,3.02-4.98ZM238.48,342.23c-.07-.11-1.5-.39-2.29-1.17-1.84-1.79-1.07-3.3-5.14-3.01-4.13.29-1.41,9.26-.48,10.11.43.4,2.56-1.16,2.9-.94s.52,3,2.08,2.93c-1.01-2.37,3.75-6.76,2.93-7.91ZM257.55,361.14v-19c-3.67,1.94-1.44,7.64-2.01,10.99l-3-5.48c.25,2.12.43,4.74,1.09,6.72.28.83,1.92.77,1.97,1.41.17,2.12-2.07,3.32,1.95,5.36ZM261.55,346.64c.53,7.26,0,15.59,0,23,0,.21-1.5,1.13-1,1.49l5.01-.5c-4.43-8.74,1.21-20.6-5-27.49-.61,1.5.94,2.78.99,3.5ZM237.55,377.14c-3.61.99-5.66,4-9.99,3-.3,2.28,1.98,2.76,2.73,4.75,1.57,4.16.85,8.03.27,12.24,5.71-1.94,11.24-.76,16.99,0-2.32-3.98-9.25-2.95-11.26-7.22-2.42-5.14,1.45-7.82,1.25-12.76ZM200.52,414.09c-2.31,1.98-4.62-6.41-3.98-7.95-1.87.09-2.49,3.37-3.22,3.79-1.15.66-3.49-.05-3.78.21-.36.33.46,5.4,1.17,5.84.84.51,2.85-.1,4.04.41,3.45,1.47,4.73,3.82,9.28,3.84,2.67.01,9.53-2.02,10.5-4.6.57-1.53-5.44-3.34-6.5-4.55-3.11,0-3.52,8.37-7,1.07-1-.12-.22,1.68-.53,1.95ZM250.16,409.69c-4.27,4.87-4.61-.86-8.55-2.1-2.31-.73-4.7-.46-7.05-.44,1.14,2.12,5.92.29,7.52,2.97,1.83,3.07-.23,5.4-3.52,5.03-1.43,1.35,8.16,4.41,12.55-4.97.95-2.02.46-4.29-.94-.5ZM254.74,409.94c-.63-.37-.68-2.83-2.18-2.8-.59,6.21,6.23,5.15,9.29,6.95,11.74,6.93,11.45,8.15,25.44,12.71,5.84,1.9,11.54,4.12,17.25,6.33l-4-2,1.52-5.97c-1.4,1.31-3.11,1.96-5.02,2.04-5.91.25-31.02-9.67-34.94-14.12-1.15-1.31-1.41-3.82-1.57-3.95-.23-.18-3.73,2.03-5.79.8ZM233.55,408.15c-4.16-.5-4.16,1.48,0,.98v-.98ZM275.55,410.14h-2.99v1.99h2.99v-1.99ZM235.55,417.15c-6.88,1.34-10.08-4.93-16-6,3.27,6.29,5.59,7.16,12.5,7,1.19-.03,3.73.72,3.49-1ZM283.44,412.29l-6.87,1.34c6.36,2.84,18.03,8.4,23.99,3.01-4.34.37-3.81-2.31-4.02-2.47-.33-.25-2.68,2.63-5.31,2.05-1.04-.23-1.32-3.01-2.15-3.05-.22-.01-1.96,2.63-3.95,1.98-1.16-.38-1.32-2.64-1.67-2.84ZM197.56,427.15c-.37-.35-9.57-2.33-10-2,.73,4.11,4.73,3.02,8.74,3.77,2.05.39,1.65-1.41,1.26-1.77ZM322.55,440.14c2.71-2.71-6.49-3.25-7.05-3.44-3.41-1.17-6.34-3.38-9.94-3.55.82,3.47,15.68,8.3,16.99,6.99ZM363.55,446.15c-.14-.12-2.3-.11-3.52-.95-2.61-1.78-4.64-4.24-7.45-5.58,1.63,4.1,4.63,8.34,9.47,8.54,1.89.08,2.39-1.22,1.51-2.02ZM361.55,467.13c.59-.64.05-3.33-1.65-3.84-2.83-.85-8,.22-11.34-1.14,1.71,3.09,6.55,2.51,9.24,3.24.96.26,2.94,2.61,3.74,1.75ZM374.54,465.14c-1.85-.13-2.77,1.62-4.52,1.96-2.39.48-7.29-1.49-6.46,2.03,1.97,1.08,9.57-1.3,9.97-1,.44.33.18,4.21,2.01,4l-1-6.99ZM376.34,477.31l-7.76-6.69c2.19,1.98,2.1,4.69,4.05,6.94s6.06,3.75,3.71-.26Z"/>
  <path class="cls-2" d="M276.55,39.14c.3-.23-1.07-1.7,1.45-2.07,5.88-.88,4.28,1.85,4.55,2.07,1.51,2.93,4.04,7.07,3.06,10.47-.37,1.28-4.33-.8-3.09,3.03.06.19,2.85,2.41,3.02,2.5l1.12,15.38c4.8,22.43.54,52.97,6.12,74.88,2.14,8.4,6.24,4.49,12.67,6.63l1.07-1.88c-.48,3.17,2.37,1.53,4.37,2.13s.79,3.44,3.13,2.85c1.26-.59,3.94-10.52,3.51-10.99l-5.49,3c-.22-1.9,1.71-4.77-1.03-6-2.17-.98-1.63,3.95-4.48,2.98.22-3.14-.7-11.48,1.24-13.74,2.34-2.72,9.03.53,9.75-.25.25-.27.14-9.07,3-6,.52.56-2.08,4.69-.55,6.07l6.51.97c1.46,8.97-7.48,13.82-9.28,21.15-2.17,8.88,1.2,11.01,3.08,18.55.65,2.6-.06,5.37.7,8.3s3.77,5.18,5.05,7.95c3.89,8.45,6.39,19.13,10.61,27.39,2.27,4.44,5.66,6.11,8.31,9.69,4.16,5.6,9.16,18.86,5.38,25.25-.96,1.63-3.18,1.95-3.66,3.34-.56,1.6-.44,8.83.33,10.36,1.01,2.01,5.78,2.36,8.22,3.78,2.98,1.73,7.24,6.59,10.75,6.24,6.39-.64,7.81-17.66,12.98-21.1s13.9,4.68,10.06,5.08c-12.7-2.54-9.84,16.33-18.5,21.99l-7.89-2.61-6.62-5.39-1.5,5c-2.47-.44-5.22.21-7,2l-7.05-.47c-1.42-.75.41-3.22.07-3.53-.24-.21-5.66-.93-6.35-.83-1.48.2-2.12,1.62-2.66,1.83-1.05.41-1.92.69-3,1-3.22-2.14-6.89-.22-10.74-1.76-6.28-2.51-16.71-15.29-23.33-19.67-7.04-4.66-16.87-7.72-25.17-5.3-4.97,1.45-8.11,6.3-11.51,7.48-5.46,1.9-13.47.97-19.25,1.25-.02-1.14,2.58-4.85.06-6.57-3.75.75-10.31-3.19-13.06-2.43l-5-3.01,2-2.98-8,1.99c-1.01-1.47-.86,2.04-2-4,2.39,1.29,7.55-.69,8.01-3.49-1.84-.58-4.8,2.8-6.45,2.46-.85-.18-2.11-2.22-1.56-2.96.4-.54,14.48-4.81,0-3.01.6-3.9,1.06-4.72,2-8,2.51-8.72-2.48-11.95-.97-19.48.68-3.39,4.04-3.27,4-4.04-.08-1.65-3.34-4.5-2.03-7.48-3.09,3.08-4.45,12.39-3.99,17-3.86-3.87-4.14-17.95-1.08-21.58,1.28-1.52,3.75-.94,4.89-3.11,1.71-3.24-.31-10.84,4.72-11.32.9-.09,3.91.61,4.29,1.2,1.94,2.96-.86,15.16,6.17,12.82-.48-7.49.65-16,8.28-19.23,6.09-2.58,8.06-3.66,13.76-7.24,1.52-.96,3.08-1.14,2.96-3.54,3.79,1.8,12.15-1.56,16.53-2.97,1.31-.42,3.12-.02,3.47-2.02-2.95-1.19-15.34,4.51-15.98,3.99-.2-.16-.25-2.92-1.26-3.77s-5.38-1.23-6.75-3.23c1.35-5.54,2.96-10.25,4-16,3.33.74,4.29,4.31,8.01,1.5,0-1.2-2.88.22-2.87-.97,0-.54.05-3.23.14-3.37.29-.43,2.61.48,1.72-2.15h-4s1-9,1-9c-2.48-3-3.85,10.13-3.99,11-2.2-5.77-1-12.36,0-18-.14,3.67.59,1.38,2,.45,4.38-2.88,4.76-6.2,0-2.45v-5c2.91-11.78,5.01-23.01,9.29-34.24.36-.95-.29-2.54-.19-2.63.2-.17,4.09-1.81,4.88-2.13.62-.25,2.58.38,2.93-.04.54-.65,2.81-14.7,2.97-16.57.26-3.14-3.32-6.29,3.09-6.4-.08-1.83-2.69-.78-4.11-2.4-1.33-1.52-.93-3.12.11-4.59ZM279.55,74.15c-2.39-.7-2.94,3.45-3.47,5.02-.57,1.68-.93,3.9-1.31,5.71-.28,1.34-2.26,1.51.28,3.25,3.44-3.73,2.79-9.44,4.5-13.97ZM271.55,97.16c-1.06-.11-2.24-.33-2.64-1.47-.88-2.49.64-12.56,1.21-15.5.2-1.03,1.3-3.28-.56-3.05-.09,3.32-7.14,19.55-6,20.99l2.98-1c-.76,5.83,3.83,2.17,5,.02ZM272.55,113.15l-9.98-4.01c-1.11,5.13,2.3,4.95,6.46,5.05,1.12.03,3.79.63,3.52-1.03ZM273.55,154.13c-12.39-8.4-4.95-5.99.53-12.97,3.55-4.53,4.87-15.01,3.28-20.33s-13.87-4.06-18.1-2.49c-.82.31-3.1,2.24-.45,1.53,2.67-1.87,1.35.84,2.51,2.99,2.71,5.05,6.57-.07,6.23-.7-.1-.19-3.18-2.1-3.49-2.04-1.03.21.34,2.95-2.5,2.01,0-7.6,12.14-4.16,14.52,1.04.59,1.3-.61,12.87-1.46,14.28-.19.31-4.97,4.9-5.31,5.05-2.78,1.17-4.17-.27-6.1-.06-1.26.14-2.76,2.85-4.72,1.26-1.26-1.03-.09-3.74-1.93-3.55-1.7,2.59,1.01,7.2.79,8.32-.2,1.01-3.64,3.56.62,3.64,2.65.05,6.43-3.52,9.57-1.47,1.57,1.03,1.55,4.85,6,3.5ZM302.42,160.27c-.8-.5-4.02.03-5.92-.57s-8.55-8.7-7.76-1.31c.94,8.84,13.53,15.27,21.82,14.74-2.03-2.23-3.77-3.27-5.43-6.06-.96-1.62-2.39-6.61-2.7-6.8ZM284.79,163.92c-.79-1.34-.28-4.04.74-5.29-7.29,2.76,1.27,8.68,4.53,11.49.35-2.44-4.82-5.45-5.27-6.2ZM263.55,163.15c-1.48-1.14-13.05,5.54-14,7.98,2.16-1.24,8.54-1.5,9.77-2.23.42-.25,3.13-4.86,4.23-5.75ZM332.55,258.14l7,.99-3-3.99,3.99-.99-4.97-2.51c2.26-3.79,4.67-1.71,7.98-2-9.48-5.35-11.55-16.38-11.01-26.5-2.16.12-5.27,7.57-6.98,6,.22-5.72-7.22-8.72-2.01-13.99l-4-.02,2-2.98c-5.36,1.68-8.57-13.6-7.85-16.29s5.51-4.62,6.85-6.71c-8.89.3-14.81,7.85-21.99,11.99-.85-2.62.75-5.56.87-7.57.03-.51-1.72.05-1.97-1.86-.93-7.09,1.49-10.56,8.66-11.52,3.5-.47,6.03,1.06,7.85.96.6-.03.46-1.81,1.24-2.02,1.47-.38,4.45.95,4.33-.99-9.93,1.06-18.01-1.38-26.99-5-.33.29.91,2.03.49,3.04-2,4.75-24.36,4.47-29.77,6.16-2.69.84-5.86,6.77-8.97,8.03-11.65,4.74-12.07-5.58-8.82-13.82.89-2.25,3.15-3.03,3.07-5.42-4.34-.18-7.63-.95-8.99,3.98h4.01c.67.64-4.42,13.15,2.44,17.05,4.73,2.69,6.18-.59,10.55-1.04l.02,9.48,1.99,7.51v-18.5c0-.38,2.91-2.6,4.02-2.07,2.26,1.09,3.2,8.96,6.49,10.55l-4.51-13.97c10.27-3.86,10.62,7.31,15.42,14.11.39.56,1.1,3.61,2.58,1.88.78-.91-9.28-13.34-6.57-17.06,1.64-2.25,6.61-.21,8.95-.29.61-.02,1.37-1.12,2.68-1.13,9.7-.08,8.62,6.92,7.82,14.87-1.08,10.75-11.01,17.74-3.88,26.62-.81,4.7,1.82,6.29,1.97,8.5.05.78-.98,1.42-.97,1.5-9.83,2.84-5.73-1.1-5.99-5.5-.17-2.82-1.11-11.74-2.04-13.77-.5-1.1-2.8-.08-1.96-2.72l4.99-2c-6.36-3.24-9.82,8.83-10.54,9.05-3.54,1.07-3.62-2.06-4.03-2.08-1.03-.05-3.03,1.09-4.89,1.09-1.98,0-6.55-.91-7.12-.81-1.15.2-1.09,2.72-1.98,2.82-2.86.32-4.99-4.72-8.45,3.41,1.62,1.8,2.9-1.53,4.04-2.01,3.58-1.51,16.07-1.94,20.38-1.4,11.35,1.42,7.49,8.98,9.8,16.2.81,2.54,4.59,4.68,2.79,9.72,5.48,1.37,1.75-5.01,1.18-8.71-.4-2.56,2.46-.88,3.81-1.29.49,2.38,4.64,16.47,5.54,17.96,1.22,2,19.41,16.39,21.73,17.26,9.26,3.48,6.06-1.57,8.27-6.17,1.05-2.19,4.19-2.69,4.45-6.05ZM291.05,171.14v1c.65-.33.65-.67,0-1ZM233.55,201.14c.82-.52,5.1-2.96,5.49-3.02,3.06-.44.21,3.16,2.5,3.01.78-6.89-3.32-13.05-2.99-20-3.08-.49-1.56.85-2,2.46-.71,2.58-.71,7.6-3.98,7.56-.93,2.45,1.97,2.56,2.9,1.91.66-.47.62-5.6,3.08-5.93,1.18,4.05-4.91,11.7-4.99,14-.43.27-1.16-.21-2,1l-3.99-8c.09,5.35-1.28,8.97.99,14-.81,2.04-3.08,10.49-3.08,12.5,0,1.78,2.25,9.15,3.08,10.5-1.81.05-.35,2.79-1.5,3.02-4.13.83-1.87-2.24-2.51-3.03-.17-.21-5.18,1.07-4.99,2,5.17-.76,3.23,3.74,4.19,4.82.45.51,2.48.14,3.37,1.17.46.53-.14,2.03.18,2.98.47,1.39,1.02,4.78,2.25,5.04-.02-3.83,2.35-5.59-.93-8.56-1.27-1.15-3.31-1.07-3.05-2.41,3.12-.19,3.28-2.25,3-5.02.08.13,2.2.19,2.48,1.91.53-.11,1.27-.95,1.52-.91,2.29.35,4.66.35,6.89,1.1l-1.89,16.89h3s0-16.49,0-16.49c0-.58,6.33-5.11,5.51-7.48-4.01,4.97-6.69,2.21-10.51,2.98.64-3.96,1.63-8.54,1.05-12.56-.52-3.59-.89-6.13-1.28-9.7-.19-1.72-1.8-4.84-1.77-5.75ZM223.55,205.15c-.19-.18-3.92-.86-4.98-1.52,3.82,4.31-3.07,18.8.04,21.45.74.63,4.3.19,4.86-1.57.38-1.2-2.58-10.31-2.01-14.95.21-1.72,3.81-1.8,2.08-3.41ZM244.55,213.15c-.56-.65-3.97-1.05-3.97.49,0,2.09,6.17,2.04,3.97-.49ZM243.54,224.14l-.49-6.99c-2.83,2.61-3.37,5.28.49,6.99ZM276.55,223.15c-11.04-1.68-10.73,19.99-12.14,20.85-.62.38-4.31.38-4.75.03-1.4-1.14.49-8.74-3.1-7.88-.08,2.67.52,9.25,3,10.56,1.4.74,10.99-2.69,11.54-3.52,1.57-2.36-.4-10.76.66-14.34.63-2.11,4.05-3.49,4.8-5.69ZM248.05,225.14v1c.65-.33.65-.67,0-1ZM342.05,232.14v1c.65-.33.65-.67,0-1ZM344.54,234.14c-.53-.54-2.33-.52-1.92,1.43.56,2.64,5.94,6.55,6.93,2.57-5.63,1.46-3.85-2.83-5.02-4.01ZM346.55,249.14c-1.74-2.06,1.72-5.52.02-6.51-2.27-1.31-4.71.63-7.01.52-.66.65,6.42,6.6,6.99,5.99ZM252.55,243.15c-3.06-.36-2.03,3.27-3.95,5.55-1.01,1.2-3.15.87-3.04,2.43,5.72.93,6.2-3.62,6.99-7.98Z"/>
  <path class="cls-1" d="M155.55,422.14l5,3c.41-.54-.64-6.69,1.99-6.99-.17,2.86.05,6.09,2.55,7.96l2.47-4.96c2.19.16-.07,4.02,2.58,4.92,4.52,1.53,3.64-3.67,5.87-2.89,4.4,1.53,4.13,5.91,5.52,7.48s10.2,4.51,12.54,4.5c5.43-.04,19.16-7.09,18.5-14.01,11.2,9.39,25.9,6.23,39.29,5.8,2.57-.77,2.88-3.95,4.19-5.8,2.77,1.25,4.29,6.62,4.65,6.84,1.22.75,4.62-.47,6.89.63,1.42.69,1.55,3.3,2.66,3.55,1.66.37,3.89-.49,5.7.12,1.25.42,1.28,2.26,1.84,2.61,5.37,3.26,17.2,2.53,21.96,4.35,1.92.74,7.53,5.86,9.57,6.85,6.25,3.02,9.84,1.94,16.18,7.58,11.89,10.56,32.44,12.94,42.43,21.6,3.56,3.09,7.4,15.69,12.12,14.92.66-.11-.02-2.28,1.84-1.94,5.43,1,6.06,8.23,10.67,5.89-3.31,6.55-2.68,8.47-11.51,8.07-12-.54-9.9-7.2-14.05-15.01-1.19-2.23-8.65-12.38-10.37-13.63-2.31-1.7-9.22-2.2-13.07-3.43-2.89-.92-13.71-7.22-14.48-7-2.04.59-.83,11.48-.32,13.3,1.69,5.96,10.1,1.74,13.3,10.7.73,2.03,3.7,14.22,4.54,14.96.95.84,4.52-1.41,5.95-.52.86.53,3.77,5.06,4.01,6.55-.2.22.58,2.31-.59,3.09-.64.43-6.08,1.82-7.07,1.88s-8.69-2.11-9.33-2.48c-2.01-1.18-4.53-11.28-6.65-14.24-1.09-1.52-2.76-1.87-3.78-3.29-1.33-1.85-6.99-11.09-7.58-11.45-4.26-2.56-10.12-1.68-16.02-6.98-5.21-4.69-10.33-16.83-13.68-19.58-3.48-2.84-17.79-8.98-22.97-11.77-1.96-1.06-10.38-6.86-11.03-7.01-4.47-1.03-12.1,3.48-16.75,3.88-7.72.67-12.45-2.36-19.05-3.05-10.29-1.08-22.79,1.31-32.92-.08-4.45-.61-7.92-4.01-11.32-4.69-3.64-.73-6.21.95-8.56.6s-3.88-3.3-5.4-3.67c-3.4-.81-9.57,3.92-8.3-7.15Z"/>
  <path class="cls-1" d="M331.55,414.14c-2.67.29-5.95-.48-8.49.02-2.32.46-3.27,3.1-4.83,2.86-1.04-.16-4.23-3.27-5.99-4.07-2-.9-6.56-1.29-7.46-2.04s-1.26-4.53-2.36-6.15c-1.91-2.82-7.11-4.39-10.4-4.62-3.62-.25-20.07,1.95-22.44,3.58-1.14.79-.67,3.69-4.41,2.3-1.72-.64-2.66-8.64-2.15-9.86.37-.89,9.13-9.25,10.61-10.44,9.8-7.83,23.91-14.4,34.83-21.17,2.24-1.39,7.27-5.83,8.6-6.41,3.51-1.53-.36,4.21-.34,4.5.21,2.72,19.33,7.43,22.77,8.04s10.22,1.94,13.33,1.24c5.49-1.23,5.91-8.15,10.72-9.8.16.56-.16,1.44,0,2-3.03,3.46-7.41,10.6-12.54,10.96-.74.05-13.93-1.78-14.69-2.04-.82-.28-.82-1.62-1.55-1.84-7.16-2.1-14.33-3.94-21.3-6.62-3.07,2.07-8.08,2.05-5.92,6.52-2.08.05-4.21-.31-6.26.24-1.66.44-8.18,3.51-4.36,4.87,2.75.98,6.3,1.15,9.19,1.86,1.69.42,2.91-.99,2.42,2.02-4.64.12-9.52-2.18-13.97-2.57-1.23-.11-3.61-.85-4.02,1.09-.55,2.65,6.46,4.07,8.3,4.72,1.04.36,1.58,1.73,1.69,1.77-.35.26-.85.6-1,1-5.17-1.15-13.02-9.26-16.98-3.5,0,.66,9.21,6.31,9.98,6.5-4.81,4.4-1.51,5.46,3.08,8.42,10.21,6.57,13.65,4.31,22.96,7.04,3.76,1.1,9.87,7.19,12.95,9.55Z"/>
  <path class="cls-2" d="M300.55,385.14c-.12-.04-.65-1.4-1.69-1.77-1.85-.64-8.85-2.07-8.3-4.72.4-1.94,2.79-1.2,4.02-1.09,4.46.39,9.34,2.69,13.97,2.57.49-3.01-.74-1.61-2.42-2.02-2.89-.71-6.43-.88-9.19-1.86-3.83-1.36,2.7-4.43,4.36-4.87,2.06-.55,4.19-.19,6.26-.24-2.16-4.47,2.85-4.46,5.92-6.52,6.96,2.67,14.14,4.52,21.3,6.62.73.22.73,1.55,1.55,1.84.76.26,13.95,2.09,14.69,2.04,5.13-.36,9.51-7.5,12.54-10.96.04.16,1.3.45,1.51,1.04.28,2.91-2.63,12.12-4.19,14.68-8.32,13.67-44.66-1.81-52.31,1.79-2.16,1.02-3.27,5.07-8.01,3.48ZM354.55,377.14c-10.96,2.83-22.49-.68-32.99-4,.17,1.18-.75,2.33.69,2.98,2.66,1.22,17.36,3.75,20.82,3.99,2.58.18,11.69,1.22,11.48-2.98Z"/>
  <path class="cls-1" d="M328.55,276.14c-12.75,3.7-16.95-3.86-26-11-10.41-8.2-20.15-20.06-34.69-11.19-13.08,7.98-4.15,20.81-1.5,32.98.37,1.71-.74,3.46-.5,4.58,1.04,4.86,5.26,14.85,5.7,18.22.24,1.86-1.06,3.62-.59,5.46s3.31,3.53,3.48,4.59-1.92,2.54-1.96,4.81c-.03,1.76,1.09,3.84,1.11,6.01.11,10.99-.11,22-.11,32.99l3.07,1.04-6.99,3.5c1.77-7.34,2.54-14.95,2.03-22.53-.3-4.5-3.36-13.76-3.02-16.93.21-1.91,2.92-3.86,1.98-6.53h-4.01c2.44-3.29-2.52-8.53-2.62-10.52-.17-3.45,7.21-7.43-2.37-11.99l3.99-.99c-3.35-7.35-10.29-5.84-16.99-4.52,1.61-4.69,14.12-2.21,15-3-4.27-6.36-2.58-24.34-5.97-28.52-3.68-4.55-12.94-1.87-18.03-1.47-.02-.26-.97-1.19-1-3,5.78-.28,13.79.65,19.25-1.25,3.4-1.18,6.54-6.03,11.51-7.48,8.29-2.42,18.13.64,25.17,5.3,6.62,4.38,17.05,17.16,23.33,19.67,3.85,1.54,7.52-.38,10.74,1.76Z"/>
  <path class="cls-2" d="M343.55,470.14c-3.4,5.74,2.7,12.1,4.54,16.96.71,1.9.04,4.5.95,6.05,1.54,2.6,11.25,4.09,12.36,9.73,1.13,5.72-4.42,4.78-4.85,5.26-.24-1.5-3.15-6.02-4.01-6.55-1.43-.89-5,1.36-5.95.52-.84-.75-3.82-12.93-4.54-14.96-3.2-8.96-11.61-4.75-13.3-10.7-.51-1.81-1.72-12.7.32-13.3.77-.22,11.59,6.08,14.48,7Z"/>
  <path class="cls-1" d="M362.55,442.14c4.64-14.74-31-19.77-20-34,1.84,1.36.62,4.3,1.2,6.3,2.46,8.38,27.74,11.42,23.37,24.74-1.02,3.11-2.19,2.49-4.58,2.96Z"/>
  <path class="cls-1" d="M215.55,377.14c-.06,1.7,3.1,3.29,3,3.49-1.07,2.19-5.7,4.7-7.21,7.79-1.97,4.04-1.87,9.32-1.8,13.71-3.36-1.52-7.48,1.24-7.99-3-1.57-13.09,10.35-14.82,14-22Z"/>
  <path class="cls-2" d="M299.55,386.14c-1.28,3.43-3.14,3.95-7,3-.78-.19-9.99-5.84-9.98-6.5,3.96-5.76,11.81,2.35,16.98,3.5Z"/>
  <path class="cls-1" d="M276.55,39.14c-1.04,1.47-1.44,3.08-.11,4.59,1.42,1.62,4.03.56,4.11,2.4-6.41.11-2.83,3.26-3.09,6.4-.16,1.87-2.43,15.92-2.97,16.57-.36.43-2.31-.2-2.93.04-.37-5.54,3.81-12.57,3.93-17.61.08-3.36-2.88-6.88-1.98-10.72.29-1.24,2.28-1.07,3.05-1.68Z"/>
  <path class="cls-1" d="M294.55,307.14c.03,2.15-.33,5.07,0,7-5.36-2.39-6.5-.33-10.45,2.05-.78.47-1.78,1.99-2.56.44.36-8.52,5.5-9.33,13.01-9.49Z"/>
  <path class="cls-1" d="M285.55,55.14c-.17-.09-2.96-2.31-3.02-2.5-1.25-3.83,2.71-1.75,3.09-3.03.98-3.4-1.56-7.54-3.06-10.47,1.1.9,2.51.79,3.86,2.63.8,1.09,5.1,9.05,5.15,9.95.23,3.88-2.73,5.1-6.02,3.42Z"/>
  <path class="cls-1" d="M251.55,152.14c1.37,2,5.77,2.41,6.75,3.23s1.07,3.61,1.26,3.77c.65.52,13.04-5.19,15.98-3.99-.35,2-2.16,1.6-3.47,2.02-4.38,1.41-12.74,4.77-16.53,2.97-2.59-1.23-3.12-2.55-4-5v-2c.05-.34-.07-.7,0-1Z"/>
  <path class="cls-1" d="M294.55,298.14c.07,1.33-.07,2.67,0,4-.18,1.56.56,3.32-1.22.74-6.42-9.28-11.35-10.21-22.77-9.75.38-1.82,1.97-1.86,3.46-2.03,7.42-.83,15.41,1.71,20.54,7.04Z"/>
  <path class="cls-1" d="M211.55,212.14c-.46-4.61.9-13.92,3.99-17-1.31,2.97,1.95,5.83,2.03,7.48.04.77-3.32.66-4,4.04-1.51,7.52,3.48,10.76.97,19.48.43-4.68-2.58-9.81-3-14Z"/>
  <path class="cls-1" d="M255.55,133.14c.14-.86,1.51-13.99,3.99-11l-1,8.99h4c.89,2.64-1.43,1.74-1.72,2.17-.1.14-.14,2.84-.14,3.37,0,1.19,2.88-.23,2.87.97-3.72,2.81-4.68-.76-8.01-1.5.17-.91-.15-2.07,0-3Z"/>
  <path class="cls-1" d="M354.55,276.14l1.5-5,6.62,5.39,7.89,2.61c-7.58,4.95-11.32-2.17-16-3Z"/>
  <path class="cls-1" d="M214.55,245.14l8-1.99-2,2.98,5,3.01c-2.14.59-1.66,2.94-6.82,1.34-5.11-1.58-3.11-3.8-4.18-5.34Z"/>
  <path class="cls-1" d="M331.55,275.14c.54-.21,1.18-1.63,2.66-1.83.69-.09,6.11.62,6.35.83.34.31-1.49,2.78-.07,3.53l7.05.47c-.14.14.33,1.31-.15,1.81-3.02,3.11-13.05-2.29-15.85-4.81Z"/>
  <path class="cls-1" d="M248.55,310.14c2.38,1.63,3.83,2.5,7,2,.87,3.33-3.22,1.25-3.94,3.61-.53,1.74,2.1,6.3,2.46,8.38h-2.51c-.5-4.95-3.46-8.91-3-14Z"/>
  <path class="cls-1" d="M257.55,108.14v5c4.76-3.74,4.38-.43,0,2.45-1.41.92-2.14,3.22-2-.45.51-2.91,1.43-4.7,2-7Z"/>
  <path class="cls-1" d="M212.55,234.14c14.49-1.79.41,2.47,0,3.01-.55.74.71,2.78,1.56,2.96,1.64.34,4.61-3.05,6.45-2.46-.46,2.8-5.62,4.78-8.01,3.49-.74-3.95-.59-3.19,0-7Z"/>
  <path class="cls-2" d="M251.55,155.14c-.78-2.16-.16-.82,0-2v2Z"/>
  <path class="cls-1" d="M200.52,414.09c.31-.27-.47-2.07.53-1.95,3.47,7.3,3.88-1.07,7-1.07,1.06,1.21,7.07,3.02,6.5,4.55-.97,2.58-7.83,4.62-10.5,4.6-4.55-.02-5.83-2.37-9.28-3.84-1.19-.51-3.2.1-4.04-.41-.71-.44-1.54-5.51-1.17-5.84.29-.27,2.63.45,3.78-.21.72-.42,1.35-3.7,3.22-3.79-.64,1.54,1.67,9.93,3.98,7.95Z"/>
  <path class="cls-1" d="M237.55,377.14c.2,4.94-3.67,7.62-1.25,12.76,2.01,4.27,8.94,3.24,11.26,7.22-5.75-.75-11.29-1.93-16.99,0,.58-4.21,1.31-8.08-.27-12.24-.75-1.99-3.03-2.47-2.73-4.75,4.33,1,6.38-2.01,9.99-3Z"/>
  <path class="cls-1" d="M254.74,409.94c2.06,1.23,5.56-.99,5.79-.8.17.13.42,2.65,1.57,3.95,3.92,4.45,29.03,14.37,34.94,14.12,1.91-.08,3.63-.73,5.02-2.04l-1.52,5.97,4,2c-5.71-2.21-11.41-4.43-17.25-6.33-13.99-4.56-13.71-5.78-25.44-12.71-3.06-1.81-9.88-.74-9.29-6.95,1.5-.04,1.55,2.42,2.18,2.8Z"/>
  <path class="cls-1" d="M238.48,342.23c.81,1.16-3.95,5.54-2.93,7.91-1.56.07-1.71-2.7-2.08-2.93s-2.47,1.34-2.9.94c-.93-.85-3.65-9.82.48-10.11,4.07-.29,3.31,1.22,5.14,3.01.8.78,2.22,1.06,2.29,1.17Z"/>
  <path class="cls-1" d="M283.44,412.29c.36.2.51,2.46,1.67,2.84,1.99.65,3.73-1.99,3.95-1.98.83.04,1.11,2.82,2.15,3.05,2.64.58,4.98-2.3,5.31-2.05.22.17-.32,2.85,4.02,2.47-5.96,5.39-17.62-.17-23.99-3.01l6.87-1.34Z"/>
  <path class="cls-1" d="M261.55,346.64c-.05-.72-1.6-2-.99-3.5,6.21,6.88.57,18.75,5,27.49l-5.01.5c-.5-.36,1-1.28,1-1.49,0-7.41.53-15.74,0-23Z"/>
  <path class="cls-1" d="M250.16,409.69c1.4-3.8,1.89-1.52.94.5-4.4,9.38-13.99,6.32-12.55,4.97,3.29.37,5.35-1.96,3.52-5.03-1.59-2.67-6.38-.85-7.52-2.97,2.35-.03,4.74-.29,7.05.44,3.94,1.24,4.29,6.97,8.55,2.1Z"/>
  <path class="cls-1" d="M257.55,361.14c-4.02-2.04-1.78-3.23-1.95-5.36-.05-.64-1.7-.58-1.97-1.41-.66-1.99-.84-4.6-1.09-6.72l3,5.48c.57-3.35-1.66-9.05,2.01-10.99v19Z"/>
  <path class="cls-1" d="M322.55,440.14c-1.31,1.31-16.17-3.52-16.99-6.99,3.6.16,6.53,2.38,9.94,3.55.56.19,9.76.73,7.05,3.44Z"/>
  <path class="cls-1" d="M294.55,346.64c-.17,1.43-1.16,7.58-3.02,4.98,1.3-8.08,2.24-16.29,2.02-24.48l3,1.99c-.55.11-2-.09-2,0,0,5.4.6,12.37,0,17.5Z"/>
  <path class="cls-1" d="M235.55,417.15c.24,1.72-2.3.97-3.49,1-6.91.16-9.23-.71-12.5-7,5.91,1.07,9.11,7.34,16,6Z"/>
  <path class="cls-1" d="M374.54,465.14l1,6.99c-1.84.21-1.57-3.67-2.01-4-.4-.3-8,2.08-9.97,1-.82-3.51,4.07-1.55,6.46-2.03,1.75-.35,2.68-2.09,4.52-1.96Z"/>
  <path class="cls-1" d="M361.55,467.13c-.8.86-2.78-1.48-3.74-1.75-2.69-.73-7.53-.15-9.24-3.24,3.34,1.36,8.51.29,11.34,1.14,1.7.51,2.24,3.21,1.65,3.84Z"/>
  <path class="cls-1" d="M363.55,446.15c.88.8.38,2.09-1.51,2.02-4.84-.2-7.83-4.44-9.47-8.54,2.81,1.33,4.84,3.79,7.45,5.58,1.22.83,3.39.83,3.52.95Z"/>
  <path class="cls-1" d="M197.56,427.15c.39.36.79,2.16-1.26,1.77-4.01-.75-8.01.34-8.74-3.77.44-.33,9.63,1.65,10,2Z"/>
  <path class="cls-1" d="M376.34,477.31c2.35,4.01-1.79,2.47-3.71.26s-1.86-4.96-4.05-6.94l7.76,6.69Z"/>
  <rect class="cls-1" x="272.56" y="410.14" width="2.99" height="1.99"/>
  <path class="cls-1" d="M233.55,408.15v.98c-4.16.5-4.16-1.48,0-.98Z"/>
  <path class="cls-1" d="M260.55,298.15v.98c-4.16.5-4.16-1.48,0-.98Z"/>
  <path class="cls-1" d="M202.55,327.14c1.1-3.75,3.34-3.74,5.62-5.38.78-.56-.16-2.04,1.37-1.61-.67,3.61,1.05,2.64,3.53,3.97.67-5.98,8.01-6.92,11.46-2.47-1.99-.23-6.11-1.49-6,1.99.03.86,1.96.29,1.94.92s-1.07,1.86-1,3.11c.12,1.96,4.15,7.14,5.68,9.42.48.71,2.17.8,2.42,1.77.79,3.06-1.8,12.53-5.05,13.82-1.87.74-4.8-1.6-6.98.46-.17-.22-2.78-3.33-2.98-3.49-1.24-.96-4.04-.54-5.4-1.43-.92-.6-.52-2.02-.61-2.08,2.79.65,2.63-1.73,1.01-2.54-1.33-.66-2.77.84-3,.54-1.77-2.36,3.44-5.78,5.99-5,1.05.96-3.89,3.92.04,5.54,2.47,1.02,4.53-1.76,7.47,2.45.4.11.59-5.94,4.21-6.86,1.79-.46,3.68,2.34,3.28-.62-.79-2.06-3.89-1.99-4.7-2.81-.53-.54-.37-1.96-.89-2.55-1.33-1.47-7.3-8.75-8.07-9.03-3.03-1.09-5.93,1.81-9.33,1.87Z"/>
  <path class="cls-1" d="M291.55,223.14c-7.14-8.88,2.79-15.87,3.88-26.62.8-7.94,1.88-14.95-7.82-14.87-1.31.01-2.08,1.11-2.68,1.13-2.33.08-7.31-1.96-8.95.29-2.71,3.72,7.35,16.15,6.57,17.06-1.48,1.73-2.19-1.32-2.58-1.88-4.8-6.8-5.15-17.97-15.42-14.11l4.51,13.97c-3.29-1.59-4.23-9.46-6.49-10.55-1.11-.53-4.02,1.69-4.02,2.07v18.5l-1.99-7.51-.02-9.48c-4.37.45-5.82,3.73-10.55,1.04-6.87-3.9-1.77-16.41-2.44-17.04h-4.01c1.36-4.95,4.65-4.18,8.99-4,.07,2.39-2.19,3.17-3.07,5.42-3.25,8.24-2.83,18.56,8.82,13.82,3.11-1.26,6.28-7.19,8.97-8.03,5.42-1.69,27.77-1.42,29.77-6.16.43-1.01-.81-2.76-.49-3.04,8.98,3.63,17.07,6.06,26.99,5,.12,1.94-2.86.61-4.33.99-.78.2-.63,1.99-1.24,2.02-1.82.1-4.36-1.43-7.85-.96-7.17.96-9.59,4.43-8.66,11.52.25,1.91,2,1.35,1.97,1.86-.12,2.01-1.72,4.94-.87,7.57,7.17-4.14,13.1-11.69,21.99-11.99-1.34,2.09-6.17,4.14-6.85,6.71s2.5,17.97,7.85,16.29l-2,2.98,4,.02c-5.22,5.27,2.23,8.27,2.01,13.99,1.71,1.57,4.82-5.88,6.98-6-.55,10.13,1.53,21.15,11.01,26.5-3.31.29-5.72-1.8-7.98,2l4.97,2.51-3.99.99,3,3.99-7-.99c.44-5.65-5.27-18.15-8.2-23.3-1.96-3.45-5.42-6.58-6.97-10.03-2.98-6.62-1.66-6.85-6.24-13.76-3.85-5.81-3.7-9.63-12.44-7.77l-7.14,19.86Z"/>
  <path class="cls-1" d="M292.55,235.14c-1.35.41-4.21-1.26-3.81,1.29.57,3.7,4.29,10.08-1.18,8.71,1.8-5.04-1.98-7.18-2.79-9.72-2.31-7.22,1.55-14.79-9.8-16.2-4.31-.54-16.8-.11-20.38,1.4-1.14.48-2.42,3.81-4.04,2.01,3.46-8.13,5.59-3.09,8.45-3.41.89-.1.82-2.61,1.98-2.82.57-.1,5.14.81,7.12.81,1.86,0,3.86-1.14,4.89-1.09.4.02.49,3.14,4.03,2.08.73-.22,4.19-12.29,10.54-9.05l-4.99,2c-.84,2.64,1.46,1.62,1.96,2.72.93,2.04,1.87,10.95,2.04,13.77.26,4.4-3.84,8.34,5.99,5.5.12.61-.12,1.39,0,2Z"/>
  <path class="cls-1" d="M273.55,154.13c-4.45,1.35-4.43-2.48-6-3.5-3.14-2.05-6.92,1.52-9.57,1.47-4.27-.08-.82-2.62-.62-3.64.22-1.12-2.49-5.73-.79-8.32,1.84-.19.67,2.53,1.93,3.55,1.96,1.6,3.46-1.12,4.72-1.26,1.92-.21,3.32,1.23,6.1.06.34-.14,5.12-4.73,5.31-5.05.85-1.4,2.05-12.98,1.46-14.28-2.38-5.2-14.51-8.64-14.52-1.04,2.84.94,1.47-1.8,2.5-2.01.3-.06,3.38,1.85,3.49,2.04.34.63-3.52,5.75-6.23.7-1.16-2.15.16-4.87-2.51-2.99-2.65.71-.37-1.22.45-1.53,4.23-1.57,16.51-2.84,18.1,2.49s.27,15.8-3.28,20.33c-5.47,6.98-12.91,4.57-.53,12.97Z"/>
  <path class="cls-1" d="M302.42,160.27c.31.19,1.74,5.18,2.7,6.8,1.66,2.79,3.4,3.82,5.43,6.06-8.28.52-20.88-5.9-21.82-14.74-.79-7.39,5.76.68,7.76,1.31s5.12.08,5.92.57Z"/>
  <path class="cls-1" d="M276.55,223.15c-.75,2.2-4.17,3.58-4.8,5.69-1.06,3.58.91,11.98-.66,14.34-.55.83-10.14,4.26-11.54,3.52-2.48-1.31-3.08-7.89-3-10.56,3.6-.86,1.7,6.74,3.1,7.88.44.36,4.12.35,4.75-.03,1.42-.86,1.11-22.52,12.14-20.85Z"/>
  <path class="cls-1" d="M233.55,201.14c.08-2.3,6.17-9.95,4.99-14-2.46.32-2.41,5.46-3.08,5.93-.93.65-3.83.55-2.9-1.91,3.27.03,3.27-4.99,3.98-7.56.44-1.6-1.08-2.95,2-2.46-.33,6.95,3.78,13.11,2.99,20-2.29.15.55-3.45-2.5-3.01-.39.06-4.67,2.5-5.49,3.02Z"/>
  <path class="cls-1" d="M223.55,205.15c1.72,1.61-1.87,1.69-2.08,3.41-.57,4.63,2.39,13.75,2.01,14.95-.56,1.77-4.13,2.2-4.86,1.57-3.11-2.65,3.78-17.14-.04-21.45,1.06.66,4.79,1.35,4.98,1.52Z"/>
  <path class="cls-1" d="M235.55,229.14c3.82-.77,6.5,1.99,10.51-2.98.82,2.37-5.51,6.9-5.51,7.48v16.5h-3s1.89-16.9,1.89-16.9c-2.23-.75-4.6-.75-6.89-1.1.56-1.12,1.76-2.75,3-3Z"/>
  <path class="cls-1" d="M271.55,97.16c-1.17,2.14-5.76,5.81-5-.02l-2.98,1c-1.14-1.45,5.92-17.67,6-20.99,1.85-.24.76,2.02.56,3.05-.57,2.93-2.09,13.01-1.21,15.5.4,1.14,1.58,1.36,2.64,1.47Z"/>
  <path class="cls-1" d="M228.55,231.14c.28,2.77.12,4.83-3,5.02-.26,1.35,1.78,1.26,3.05,2.41,3.28,2.97.91,4.73.93,8.56-1.23-.26-1.77-3.65-2.25-5.04-.32-.95.28-2.44-.18-2.98-.89-1.03-2.91-.66-3.37-1.17-.96-1.08.98-5.58-4.19-4.82-.19-.93,4.82-2.2,4.99-2,.65.79-1.62,3.85,2.51,3.03,1.15-.23-.32-2.97,1.5-3.02Z"/>
  <path class="cls-1" d="M263.55,163.15c-1.1.89-3.81,5.5-4.23,5.75-1.23.73-7.6.99-9.77,2.23.95-2.44,12.52-9.13,14-7.98Z"/>
  <path class="cls-1" d="M228.55,208.14c-2.27-5.03-.9-8.64-.99-14l3.99,8c-.8,1.15-.9,3.34-1.58,4.9-.3.69-1.35.95-1.42,1.1Z"/>
  <path class="cls-1" d="M346.55,249.14c-.57.61-7.65-5.34-6.99-5.99,2.3.11,4.74-1.83,7.01-.52,1.71.98-1.76,4.45-.02,6.51Z"/>
  <path class="cls-1" d="M279.55,74.15c-1.71,4.53-1.06,10.24-4.5,13.97-2.55-1.74-.56-1.9-.28-3.25.38-1.8.74-4.02,1.31-5.71.53-1.57,1.08-5.72,3.47-5.02Z"/>
  <path class="cls-1" d="M272.55,113.15c.27,1.67-2.4,1.06-3.52,1.03-4.16-.09-7.57.08-6.46-5.05l9.98,4.01Z"/>
  <path class="cls-1" d="M252.55,243.15c-.79,4.37-1.27,8.91-6.99,7.98-.11-1.56,2.03-1.24,3.04-2.43,1.91-2.28.89-5.91,3.95-5.55Z"/>
  <path class="cls-1" d="M243.54,224.14c-3.86-1.71-3.31-4.38-.49-6.99l.49,6.99Z"/>
  <path class="cls-1" d="M284.79,163.92c.45.76,5.62,3.76,5.27,6.2-3.26-2.82-11.82-8.73-4.53-11.49-1.02,1.25-1.53,3.95-.74,5.29Z"/>
  <path class="cls-1" d="M344.54,234.14c1.16,1.18-.61,5.47,5.02,4.01-.99,3.97-6.37.07-6.93-2.57-.41-1.95,1.39-1.97,1.92-1.43Z"/>
  <path class="cls-1" d="M244.55,213.15c2.2,2.53-3.97,2.58-3.97.49,0-1.54,3.41-1.14,3.97-.49Z"/>
  <path class="cls-1" d="M291.05,171.14c.65.33.65.67,0,1v-1Z"/>
  <path class="cls-1" d="M248.05,225.14c.65.33.65.67,0,1v-1Z"/>
  <path class="cls-1" d="M342.05,232.14c.65.33.65.67,0,1v-1Z"/>
  <path class="cls-1" d="M354.55,377.14c.21,4.2-8.9,3.16-11.48,2.98-3.46-.24-18.16-2.78-20.82-3.99-1.43-.65-.51-1.8-.69-2.98,10.5,3.32,22.02,6.83,32.99,4Z"/>
</svg>