<?xml version="1.0" encoding="UTF-8"?>
<svg id="_Слой_1" data-name="Слой 1" xmlns="http://www.w3.org/2000/svg" viewBox="0 0 550 550">
  <defs>
    <style>
      .cls-1 {
        fill: #afafaf;
      }
    </style>
  </defs>
  <path class="cls-1" d="M265.4,101.88c87.91-6.73,150.62,83.35,112.98,163.59s-156.41,87.26-202.22,8.45c-42.08-72.39,5.77-165.65,89.25-172.04Z"/>
  <path class="cls-1" d="M429.67,340.03c.07-.09,1.09.15,1.39-.22,16.24-19.84,29.73-44.97,37.2-71,.76-2.66,3.24-17.11,3.9-17.74.3-.28,3.45-.13,4.1.33,4.28,3.01-.02,24.56-.06,29.84l-1.62-1.62c-1.57,21.86,6.53,7.09,10.18-2.47,3.85-10.09,4.63-22.45,8.18-31.82,1.32-3.48,4.6-6.58,5.32-10.61.51-.36,3.74,1.44,4.04,2.27,1.62,4.37-.94,15.21-.14,20.2-4.58,10.76-6.49,25.23-15.39,34.41-.24.24-3.22,5.36-3.26,5.7-.11,1.05.8,2.34.69,3.81-.19,2.36-5.16,2.84-.13,6.15,5.55-1.44,7.53-6.46,10.57-10.42,5.12-6.66,15.26-24.1,20.71-28.27,2.38-1.82,9.1-4.03,9.76.14.44,2.77-15.89,26.89-18.59,31.04-1.09,1.67-1.93,4.4-2.56,6-.2.52-.43.56-.82.82-3.86,2.56-5.89,6.53-9.84,10.18-.83.76-1.45,2.53-1.78,2.71-.9.5-2.66-.12-3.02.22-.22.21.04,2.17-.49,3.17-.89,1.71-4.2,2.78-3.57,5.19.23.87,1.56,2.22,2.6,2.07.48-.07,8.23-4.07,8.68-4.42,1.39-1.06,1.8-3.31,2.97-4.38,2.04-1.88,6.09-2.54,6.89-6.58.28-.26.53-.55.82-.82l6.04-4.61c3.33.08,2.1-3.1,3.15-4.16.45-.45,2-.36,2.65-.98,2.34-2.21,4.62-7.43,8.15-7.47s3.35,2.81,2.02,5.16c-.57,1.02-2.03,1.17-2.81,2.28-1.97,2.79-3.55,6.08-5.33,8.97-3.61,2.34-5.66,5.3-8.16,8.98-2.6,1.98-8.25,5.5-10.39,7.57-.62.6-1.23,4.64-2.95,6.04-1.14.93-3.96,1.3-5.36,2.4-1.09.86-1.45,2.33-2.5,3.22-3.16,2.65-8.69,5.51-8.2,10.16,4.35.33,8.4-.26,12.44-1.87,1.18-.47,3.47-1.28,3.08-3.03.42-.16,1.23.16,1.63,0,3.66-1.45,6.55-4.41,10.61-4.89-.47,6.35-7.01,11.79-11.8,15.54-6.94,5.42-16.1,11.55-23.54,16.86-.99.71-2.9.53-3.87,1.44-1.5,1.42-.81,5.34.43,5.34h12.65c-.48,1.47-1.96,2.24-3.26,2.86-7.64,3.67-19.06,5.23-27.13,8.58-3,3.1.05,2.23.18,2.43.23.36-.54,2.24.44,2.5,3.78,1.02,10.21-1.18,14.25.35-4.37,4.96-25.92,4.29-27.75,9-.66,1.69,1.51,1.1,1.63,1.21.1.09-.22,1.02.24,1.42.63.53,2.06.08,2.21.22,3.51,3.3-11.18,4.97-13.07,4.08.16-1.88-.38-4.21.15-5.98.62-2.05,3.51-1.46,3.12-3.82.25-.07.56.06.82,0,9.05-2.18,4.07-7.02,5.61-8.63,3.24-3.37,13.33-3.96,13.98-8.52.04-.26-.01-.55,0-.82.07-1.39-.91-2.8-.06-4.29,2.44-4.27,8.19-1.86,9.04-7.14.24-.08.56.07.82,0,.77-.21,2.15.42,3.04-.23,1-2.15,8.98-5.79,6.69-8.69-.39-.49-5.58-.34-6.44-2.1-.03-.57,4.73-5.38,5.73-6.36.73-.72,1.98-.41,2.47-1.09.2-.28,2.36-6.08,2.4-6.52.73-8.44-8.44-3.89-8.99-4.41.26-4.16,9.71-17.25,4.08-20-6.25-3.06-19.46,2.5-25.22,5.82-8.14,4.7-16.5,13.73-21.32,21.54-7.35,5.15-7.4,9.62-11.94,17.05-17.66,11.54-41.09,18.2-57.07,31.96-2.52,2.17-8.96,10.78-11.04,11.79-5.06,2.46-15.93,2.85-21.59,3.71-22.81,3.48-41.17,3.03-58.41,20-14.31,14.09-28.05,18.93-46.33,27.93-2.03,1-1.3,3.89-5.35,2.54s1.63-5.79,3.42-6.93c11.1-7.03,24.76-7.92,35.72-16.9,1.49-1.22,5.44-3.6,5.81-4.03.87-1.02.85-2.97,1.83-4.3,1.32-1.78,7.89-6.95,9.87-8.91,1.71-1.69,3.89-6.56,4.2-6.81.7-.56,2.84.19,3.56-.95.53-.83.03-2.49.52-3.13.22-.29,5.9-2.38,6.83-2.55,7.78-1.45,16.94-1.11,25.05-2.71,18.93-3.71,40.22-11.39,57.23-20.37,1.15-.61,2.58-.33,2.15-2.3.23-.1.59.1.82,0,9.55-4.27,20.48-12.14,28.97-18.79,5.74-4.5,11.46-9.2,15.12-15.5.29-.25.52-.57.82-.82,3.99-3.33,4.15-2.71,7.35-7.35,4.42-2.82,2.24-2.52,4.08-4.9Z"/>
  <path class="cls-1" d="M53.29,233.08c1.67,5.06,3.34,10.15,4.67,15.33,1.55,6.03,2.22,13.53,3.88,19.73.8,2.99,7.07,19.25,8.56,20.91,1.14,1.27,2.41,1.42,4.07,1.15,2.09-1.74-2.25-21.53-2.39-25.68-.11-2.91-.15-9.53.81-12.05.61-1.61,3.66-1.25,4.78-.46,2.57,13.97,6.62,27.51,12.05,40.6,6.37,15.36,14.66,27.81,24.67,41.46,3.1,4.23.48,3.05,5.86,5.98,5.59,7.99,10.61,13.97,17.54,20.43,6.04,5.63,12.5,9.67,17.96,13.87,27.63,21.26,59.56,32.8,94.02,37.44,5.78.78,12.35.25,18.27,1.74l-4.02,10.91c-.55.9-1.64.54-2.52.51-.12-.22.25-.99-.14-1.47-.22-.28-5.45-2.63-6.41-3.01-18.16-7.17-38.58-2.19-56.47-8.85-9.15-3.41-13.15-12.07-21.08-16.07-.25-.42-.1-1.32-.75-2.1-.93-1.1-1.9-.81-2.51-1.17-2.14-3.66-2.73-2.27-4.47-4.09-.84-.88-.82-2.5-1.43-3.07-.23-.22-4.88-2.95-5.37-3.19-5.25-2.56-11.72-4.04-17.31-5.98-.24-.08-.57.08-.82,0-.59-1.21-1.42-2.03-2.54-2.77-8.96-5.93-12.43-7.99-19.48-16.44-13.52-16.19-19.85-26.26-35.67-39.84-.74-.63-4.24-5.27-4.93-5.42-6.41-1.46-4.26,3.78-5.97,4.87-.46.3-1.16-1.21-1.99-1.28-2.29-.18-5.95,1.07-8.61.47.01,1.4.29,2.98.89,4.25,1.85,3.95,5.84,9.11,7.43,13.14.73,1.86,1.22,3.87,1.49,5.86-.07,1.26-10.93-1.53-10.67,4.02.02.51,1.29.53,1.65,1.08,2.61,3.99,5.17,8.31,9.82,10.01.26.28.54.55.82.82-.44.99,1.24,2.89.38,3.26-1.25.53-6.81.85-6.82,2.86,0,2.68,10.4,7.1,12.57,9.39.93.99.11.92-.83.84-6.31-.59-29.38-14.02-34.62-18.46-3.32-2.81-7.19-6.56-8.23-10.94,3.54-.87,5.56,3.17,7.16,4.06s10.87,5.28,12.21,5.54c2.39.46,8.07,1.28,7.61-2.65-.11-.97-8.24-7.64-9.81-9.04-3.66-3.26-7.31-6.39-11.47-9.33-4.74-8.31-14.77-15.93-20.43-24.06-.57-.82-3.8-5.6-3.88-5.94-.9-3.73,1.76-3.97,4.81-3.12.25.07,4.22,2.7,4.38,2.92.6.83.5,2.51,1.6,4.14,3.09,4.56,13.11,12.01,17.64,15.83,1.97,1.67,7.31,7.53,9.52,8.61s4.42.87,6.77.81c.27-3.21-1.55-2.71-2.45-3.26.14-3.94-1.27-1.63-3.31-3.62-7.01-6.77-15.73-21.47-21.5-30.36-1.33-2.04-4.91-5.48-5.9-7.14-1.06-1.78-6.71-13.6-6.83-14.89-.31-3.23,1.31-4.58,4.46-4.47,5.2.19,12.56,12.4,15.26,16.7,1.69,2.68,2.53,5.44,3.61,6.97.95,1.36,4.81,3.97,5.78,5.23,1.03,1.34,3.08,6.22,4.32,7.49,1.05,1.07,6.08,4.95,7.38,3.67,1.11-1.09-5.61-14.19-6.61-16.48-4.12-9.42-8.48-20.35-10.98-30.01-1.53-5.92-3.45-16.68-1.01-22.32.71-1.63,3.27-1.55,3.09-3.85,1.33-.33.93-.55,2.45,0ZM70.43,291.87c-.89-.89-2.51.73-1.62,1.62s2.51-.73,1.62-1.62Z"/>
  <path class="cls-1" d="M388.04,473.93c-1.24,7.37-.4,16.91-10.86,14.52-3.05-.69-6.42-5.52-9.86-4.79-1.85.39-7,23.51-15.62,6.61-5.73,7.42-12.12,17.25-19.59,4.9-1.5-.04-8.81,14.31-14.67,7.31-1.63-1.95-1.48-6.77-4.08-5.66-2.83,1.21-3.36,11.52-13.06,9.76-6.2-1.12.34-11.55-4.11-10.6-1.6.34-7.83,12.19-14.59,11.99-4.95-.15-.04-9.33-2.57-11.98-4.03,3.22-9.12,12.04-14.71,11.5-3.07-.3-1.74-7.21-2.03-9.48-.12-.94.3-1.65-1.21-1.2-3.27.98-9.55,7.38-14.28,8.59-2.46.63-4.89.39-7.37.38-.22-4.98,2.6-8.4,6.11-11.45,18.92-16.45,60.8-3.4,84.5-13.47,2.57-1.09,8.75-4.41,9.01-7.35.1-1.17-1.28-3.98-.83-4.47.27-.29,5.08-.73,7.01-3.2,2.89-3.7-1.66-5.27,6.43-5.82,17.51-1.19,33.54,1.86,50.66,3.29,7.13.59,17.23-2.96,11.18,8.74-4.92,9.51-18.33,7.82-25.46,1.88Z"/>
  <path class="cls-1" d="M307.77,89.96c-4.07,4.57-13.12,3.77-14.88-3-2.11-8.13,2.68-17.75,6.03-25.05.7-1.52,8.62-17.57,9.91-16.61.18,1.64,1.3,2.91,1.6,4.53,1.41,7.79,2.32,25.59.51,33.07-.34,1.4-2.31,6.1-3.16,7.05Z"/>
  <path class="cls-1" d="M429.67,340.03c16.27-21.8,29.22-44.7,36.95-71.22.89-3.04,3.52-17.63,4.03-18.42.11-.17,3.27-1.59,3.72-1.66,3-.47,3.98,1.09,4.87,3.76,3.45,10.35-1.93,24.66-2.22,35.29.87,1.21,6.19-11.6,6.56-12.62,4.46-12.31,5.88-25.68,10.17-38,1.11-3.19,1.09-5.41,5.5-4.75,4.67.7,5.18,5.16,5.5,9.26.66,8.43-1.85,18.6-4.3,26.7-3.31,10.95-8.93,20.96-12.83,31.66,1.88.34,2.51-.47,3.7-1.6,8.63-8.2,14.51-24.21,22.84-31.86,3.41-3.13,10.95-4.14,11.84,1.26,1.27,7.72-16.71,31.19-22.05,37.92.63-1.61,1.47-4.33,2.56-6,2.7-4.15,19.03-28.27,18.59-31.04-.66-4.16-7.38-1.95-9.76-.14-5.46,4.17-15.6,21.61-20.71,28.27-3.04,3.95-5.01,8.98-10.57,10.42-5.03-3.31-.06-3.79.13-6.15.12-1.47-.79-2.75-.69-3.81.03-.34,3.02-5.46,3.26-5.7,8.9-9.18,10.81-23.65,15.39-34.41-.8-4.98,1.76-15.82.14-20.2-.31-.82-3.53-2.62-4.04-2.27-.72,4.03-4,7.13-5.32,10.61-3.56,9.37-4.33,21.73-8.18,31.82-3.65,9.56-11.75,24.34-10.18,2.47l1.62,1.62c.04-5.29,4.34-26.84.06-29.84-.65-.46-3.81-.61-4.1-.33-.66.62-3.14,15.07-3.9,17.74-7.47,26.04-20.95,51.16-37.2,71-.3.37-1.32.13-1.39.22-1.84,2.38.34,2.08-4.08,4.9-3.2,4.63-3.36,4.02-7.35,7.35,1.4-3.85,4.32-5.42,7.35-7.35,1.64-2.38,3.21-3.73,4.08-4.9Z"/>
  <path class="cls-1" d="M186.11,126.69c-1.87,2.05-5.66,2.28-8.27,1.84-9.7-1.61-21.05-26.92-25.76-35.05,1.14-.88,13.23,6.04,15.24,7.2,6.68,3.84,27.69,16.25,18.79,26.01Z"/>
  <path class="cls-1" d="M150.74,142.99c-7.1-6.31-14.18-15.73-19.88-23.38,9.5,2.33,21.24,5.08,29.95,9.64,20.15,10.57,7.77,29.59-10.06,13.74Z"/>
  <path class="cls-1" d="M370.88,72.25c1.37,1.57-9.01,29.33-11.56,32.93-9.57,13.51-23.36,5.66-15.24-8.71,3.3-5.84,15.87-16.67,21.53-20.93.79-.6,4.71-3.94,5.27-3.29Z"/>
  <path class="cls-1" d="M418.23,119.6c.63.62-1.59,3.26-2.12,4-4.84,6.8-17.95,22.87-25.79,24.83-5,1.25-11.32.46-11.92-5.75-1.3-13.55,30.07-20.06,39.82-23.08Z"/>
  <path class="cls-1" d="M152.9,338.39c-.93-1,6.04-13.24,7.2-15.24,2.53-4.36,6.76-11.66,10.31-15,12.91-12.16,25.59.96,10.67,13.93-2.36,2.05-27.01,17.57-28.18,16.31Z"/>
  <path class="cls-1" d="M397.01,93.47c1.28,1.28-14.25,26.9-16.71,29.41-12.08,12.34-25.61,2.78-14.33-10.25,2.72-3.13,29.43-20.76,31.04-19.17Z"/>
  <path class="cls-1" d="M397.01,338.39c-.99.91-14.68-6.91-16.74-8.15-6.91-4.17-21.8-12.75-17.74-22.66,3.85-9.4,14.24-2.05,18.58,3.05,2.01,2.36,17.08,26.68,15.91,27.76Z"/>
  <path class="cls-1" d="M246.55,340.2c8.7-1.96,10.88,6.25,9.96,13.23-.48,3.62-13.25,32.26-15.03,32.3-.94.02-1.13-2.04-1.24-2.83-1.24-8.87-5.46-40.05,6.31-42.71Z"/>
  <path class="cls-1" d="M370.88,360.44c-4.09-2.8-8.51-6.14-12.25-9.38-6.06-5.25-24.46-21.45-14.17-29.7,10.59-8.5,18.78,13.99,21.32,20.92,2.09,5.72,4.16,12.2,5.1,18.16Z"/>
  <path class="cls-1" d="M418.23,312.27c-10.43-2.76-24.97-5.8-33.74-12.38-11.89-8.92-4.75-22.32,9.51-14.41,5.77,3.2,17.56,16.72,21.76,22.33.56.74,3.12,3.89,2.47,4.47Z"/>
  <path class="cls-1" d="M205.73,321.5c2.58,2.17,2.19,8.03,1.32,11.04-1.87,6.44-17.05,19.49-22.75,23.79-1.55,1.17-3.36,3.04-5.27,3.29-1.18-1.32,7.23-25.1,8.82-28.31,2.88-5.83,10.85-15.72,17.88-9.81Z"/>
  <path class="cls-1" d="M179.03,72.25c.64-.73,9.58,6.86,10.62,7.74,7.54,6.41,21.03,17.08,17.58,28.22-2.19,7.08-12,3.53-15.53-.89-2.84-3.56-14.21-33.31-12.68-35.07Z"/>
  <path class="cls-1" d="M433.56,280.59c.62,2.42.38,2.45-1.83,2.29-8.88-.67-29.44-2.78-36.29-7.81-5.11-3.75-7.16-12.53-.1-14.68,12.62-3.85,28.52,13.9,38.22,20.21Z"/>
  <path class="cls-1" d="M274.56,42.04l6.63,19.89c3.41,7.58,4.52,33.11-9.89,27.03-11.72-4.95,1.15-37.9,3.26-46.92Z"/>
  <path class="cls-1" d="M444.36,181.65c-1.49,2.34-4.86,3.91-7.33,5.32-6.08,3.44-20.88,10.83-27.41,11.02-7.35.22-14.25-4.69-9.9-12.41,5.45-9.65,34.89-4.17,44.64-3.93Z"/>
  <path class="cls-1" d="M115.35,282.88c-.3-1.31.45-1.67,1.2-2.47,4.62-4.98,24.01-19.44,30.3-20.31,7.82-1.09,14.72,2.38,11.15,11.15-3.87,9.49-33.68,10-42.65,11.64Z"/>
  <path class="cls-1" d="M275.35,389.83l-4.48-11.43c-2.26-7.9-8.97-29.47-.35-34.63,3.39-2.03,7.98-1.54,10.44,1.68,7.2,9.39-3.65,33.71-5.62,44.38Z"/>
  <path class="cls-1" d="M210.48,374.77c-.61.69-1.27,1.93-2.06,2,.63-9.73,1.53-38.25,11.12-43.16,10.38-5.32,13.48,5.73,10.5,13.77-2.55,6.88-14.36,21.5-19.56,27.39Z"/>
  <path class="cls-1" d="M131.68,312.27c-.83-.75,7.58-11.08,8.55-12.26,5.53-6.69,18.41-21.38,27.95-15.67,5.58,3.34,2.19,11.95-2.27,15.23-3.43,2.51-32.81,13.99-34.23,12.7Z"/>
  <path class="cls-1" d="M119.77,154.36c-1.52-1.33-3.28-2.84-4.43-4.55,10.12.28,37.19,1.04,42.35,11.12,2.87,5.61-.07,10.89-6.24,11.58-8.05.91-25.5-12.76-31.69-18.15Z"/>
  <path class="cls-1" d="M341.49,56.73c-1.9,10.65-.95,36.81-12.24,42.04-7.95,3.68-11.54-3.2-10.54-10.55.93-6.85,14.36-24.17,19.5-29.48.92-.95,1.76-2.27,3.28-2.02Z"/>
  <path class="cls-1" d="M444.36,250.22c-10.42.84-36.9,6.26-44.1-3.07-3.11-4.03-2.13-10.78,3.25-12.03,8.95-2.09,16.18,1.91,24,5.43,5.57,2.51,12.41,5.74,16.85,9.67Z"/>
  <path class="cls-1" d="M149.38,195.27c-1.32,1.42-5.57,2.64-7.54,2.73-7.21.32-28.88-10.17-35.22-14.53-.72-.5-1.51.13-1.06-1.82,10.04-.3,38.69-5.94,44.42,4.15,1.65,2.91,1.79,6.92-.59,9.48Z"/>
  <path class="cls-1" d="M241.08,46.12c.86-.64,9.68,17.06,10.37,18.6,2.94,6.58,8.52,18.95,2.7,25.09-2.11,2.22-6.18,2.78-8.98,1.6-10.31-4.37-5.55-36.2-4.09-45.29Z"/>
  <path class="cls-1" d="M433.75,149.81c.93.83-5.95,6.48-6.96,7.32-6.34,5.28-19.82,15.93-28.19,15.17-6.82-.62-10.32-7.01-6.06-12.68,5.98-7.97,31.55-9.35,41.21-9.81Z"/>
  <path class="cls-1" d="M308.83,386.56l-8.87-15.2c-3.31-8.25-8.98-16.9-6.09-26.3,1.51-4.91,7.55-6.65,11.69-3.79,6.55,4.52,5.38,24.31,4.95,31.86-.24,4.33-1.63,9.03-1.68,13.43Z"/>
  <path class="cls-1" d="M341.49,375.13c-1.39,1.33-6.23-4.85-7.32-6.14-4.05-4.77-14.27-18.22-15.34-23.84-1.48-7.82,2.04-15.5,11.03-11.85,9.36,3.8,9.99,32.91,11.63,41.83Z"/>
  <path class="cls-1" d="M105.55,250.22c1.94-2.62,5.98-4.48,8.96-6.13,7.52-4.16,27.75-14.67,34.75-6.96,2.8,3.08,2.71,6.12.37,9.42-6.71,9.5-33.58,4.22-44.09,3.66Z"/>
  <path class="cls-1" d="M208.42,55.91c7.31,7.22,23.24,24.92,22.89,35.49-.15,4.42-2.9,8.75-7.72,8.54-13.65-.58-13.75-34.42-15.17-44.03Z"/>
  <path class="cls-1" d="M447.63,216.74c-11.11,2.17-32.63,12.46-42.87,5.73-5.76-3.78-4.51-11.32,1.72-13.81,7.8-3.12,27.91,2.37,36.21,5.26,1.57.55,4.21,1.2,4.93,2.81Z"/>
  <path class="cls-1" d="M50.84,233.08c.17,2.3-2.39,2.21-3.09,3.85-2.44,5.63-.52,16.39,1.01,22.32,2.5,9.66,6.87,20.59,10.98,30.01,1,2.29,7.72,15.39,6.61,16.48-1.3,1.28-6.32-2.6-7.38-3.67-1.25-1.27-3.29-6.14-4.32-7.49-.97-1.26-4.84-3.87-5.78-5.23-1.07-1.54-1.92-4.3-3.61-6.97-2.71-4.29-10.06-16.51-15.26-16.7-3.15-.11-4.78,1.24-4.46,4.47.13,1.3,5.78,13.12,6.83,14.89.99,1.66,4.58,5.1,5.9,7.14,5.77,8.88,14.5,23.58,21.5,30.36,2.05,1.98,3.45-.32,3.31,3.62.89.55,2.71.05,2.45,3.26-2.35.06-4.56.27-6.77-.81s-7.55-6.94-9.52-8.61c-4.53-3.82-14.55-11.27-17.64-15.83-1.1-1.62-1-3.31-1.6-4.14-.15-.21-4.13-2.84-4.38-2.92-3.05-.85-5.71-.61-4.81,3.12.08.35,3.31,5.13,3.88,5.94,5.67,8.13,15.69,15.75,20.43,24.06,4.16,2.94,7.81,6.07,11.47,9.33,1.57,1.4,9.7,8.07,9.81,9.04.46,3.93-5.22,3.12-7.61,2.65-1.34-.26-10.62-4.66-12.21-5.54s-3.62-4.93-7.16-4.06c1.05,4.38,4.91,8.13,8.23,10.94,5.24,4.43,28.31,17.87,34.62,18.46.94.09,1.77.15.83-.84-2.17-2.29-12.57-6.7-12.57-9.39,0-2.01,5.57-2.33,6.82-2.86.86-.36-.82-2.27-.38-3.26,1.23,1.18,5.19,1.98,4.89,4.89-3.01-.07-6.22-.19-8.97,1.22,4.14,3.21,9.2,7.61,13.96,9.71,1.84.81,7.75,1.87,8.02,2.18.77.9-1.77,7.16.06,8.93.6.58,5.68.93,6.53,2.87.63,1.44-1.89,1.37-2.66,3.02-3.6,7.75,8.68,5.86,12.45,10.03.03,2.49-14.97,4.88,3.68,11.04,3.48,1.15,7.38,2.12,11.04,2.44-.94,2.88-4.79,3-6.53,4.07.15-.11.84-2.63,1.63-3.26-3.55-.08-15.99-4.78-17.55-7.36-2.28-3.77,3.38-4.14,4.48-7.33-2.56-1.2-8.79-1.46-10.36-3.53-.22-.29-1.93-4.73-1.93-5,0-.29,4.06-2.5,3.31-4.54-3.98.94-3.39-1.77-4.08-2.45-.22-.22-1.88.09-2.34-1.31-.52-1.61.3-6.35-.15-6.82-.21-.21-4.72-.45-5.9-.89-.5-.19-.98-3.04-2.22-1.59-.8.93,1.64,2.31,1.65,3.66,0,.83-1.49.23-1.65.41-.18.2-.02,1.28-.42,1.63-3.28,2.88-15.07-1.16-19.58-.82-6.23.85,9.85,6.15,10.8,6.35,3.9.82,16.53.56,18.17,4.69.5,1.9-1.44,1.01-1.63,1.21-.25.28.18,1.55-1.36,2.29-.99.48-5.11,1.47-6.46,1.73-.81.15-8.45-.5-6.06,1.69,1.65,1.52,21.09,2.7,22.04,4.1.46.67-.24,2.77-1.16,3.31l-8.62,3.6c.65.76,1.21,1.54,2.22,1.87,7.01,2.27,33.68,4.09,11.65,10l.82,1.21,17.95,6.94c.46-2.19-.58-1.4-1.61-2.02-1.48-.89-5.44-2.41-6.02-3.91-1.55-4.01,3.58-3.29,4.37-3.86-.73.45-2.1,2.35-3.25,2.86-.03.96,10.22,6.01,11.94,6.82,8.97,4.25,21.22,9.4,30.54,12.73,4.56,1.63,15.08,3.08,17.93,4.93.39.25,1.06,1.04.81,1.23-28.11-1.52-52.42-17.1-78.38-26.13-.89-1.18,9.31-3.56,10.28-3.99.66-.3,2.75-.52,1.15-1.71-.21-.15-3.79.06-5.09-.21-3.43-.71-18.97-4.23-20.2-6.74-.74-1.52,1.17-1.2,1.8-1.43,3.6-1.31,8.61-1.99,11.26-4.68-4.6-.45-9.38-1.07-13.9-2.03-1.79-.38-14.94-2.66-9.18-5.14,2.77-1.19,15.06-1.78,16.55-3.45,1.19-1.34-.83-1.75-1.63-2.01-10.14-3.38-23.69-.73-31.02-10.66-.34-1.79.82-1.21,2.06-1.25,2.31-.07,4.27.8,6.48.88,5.57.22,11.2-.23,16.77-.03-.2-1.27-1.52-1.55-2.46-2.03-11.83-6.05-39.4-16.31-43.69-29.79-.47-1.49-1.31-3.32.85-3.32,8.43,0,16.2,11.78,25.7,9.82.44-1.81-1.05-1.81-1.87-2.61-5.84-5.69-13.62-9.82-17.72-16.98-7.61-5.38-21.72-20.65-26.02-29.12-2.27-4.46,2.85-6.89,6.65-5.82,2.28.64,17.12,17.12,20.58,20.27,3.13,2.84,12.18,11.15,15.58,12.19,1.61.49,1.14-.56,1.18-1.59-3.41-2.12-2.82-2.86-5.19-5.43-10.47-11.34-23-27.51-30.06-41.38-2.06-4.05-7.27-12.84-.72-14.87s9.91,3.24,13.46,7.85c6.28,8.15,10.87,17.78,17.63,25.64l6.5,6.14c-3.56-8.67-8.12-16.9-11.44-25.7-4.39-11.64-10.06-29.09-6.98-41.3.78-3.11,1.68-3.31,4.55-4.03Z"/>
  <path class="cls-1" d="M53.29,233.08c.43.16,1.15-.04,1.62.4,6.81,17.87,7.48,38.96,18.38,55.11-.3-10.95-4.66-23.23-2.67-34.5.7-3.97,4.13-6.61,7.64-3.94,1.64,1.25,4.44,16.39,5.46,19.84,7.89,26.64,20.83,47.64,36.51,70.04,4.74,2.58,9.66,10.3,13.83,14.31,31.2,30.07,72.39,50.61,115.69,55.78,6.92.83,13.92.58,20.68,1.78.53.77-4.92,13.32-6.13,14.64-2.18,2.38-2.21-.44-2.83-1.61-2.89-.11-6.77-2.95-10.19-4.09-16.51-5.51-36.2-1.38-52.28-7.32-6.77-2.5-18.05-11.89-21.62-17.98-.74-.37-1.61-.09-2.52-1.17-.67-.79-.51-1.68-.75-2.1-4.04-2.38-6.8-5.8-10.34-8.03-4.96-3.12-10.84-3.62-16.11-5.98-1.22-.55-2.53-.45-2.13-2.32,5.6,1.94,12.07,3.42,17.31,5.98.48.24,5.13,2.97,5.37,3.19.61.57.59,2.19,1.43,3.07,1.74,1.82,2.33.43,4.47,4.09.61.36,1.59.06,2.51,1.17.65.78.5,1.67.75,2.1,7.93,4,11.93,12.66,21.08,16.07,17.88,6.66,38.31,1.68,56.47,8.85.96.38,6.19,2.73,6.41,3.01.39.48.02,1.25.14,1.47.88.03,1.97.38,2.52-.51l4.02-10.91c-5.92-1.5-12.49-.97-18.27-1.74-34.46-4.64-66.39-16.18-94.02-37.44-5.45-4.2-11.92-8.24-17.96-13.87-6.93-6.46-11.95-12.44-17.54-20.43-5.38-2.93-2.75-1.75-5.86-5.98-10.01-13.65-18.3-26.1-24.67-41.46-5.43-13.09-9.48-26.63-12.05-40.6-1.12-.79-4.17-1.15-4.78.46-.96,2.52-.91,9.14-.81,12.05.15,4.15,4.48,23.94,2.39,25.68-1.66.28-2.93.12-4.07-1.15-1.49-1.66-7.76-17.92-8.56-20.91-1.66-6.19-2.33-13.7-3.88-19.73-1.33-5.18-3-10.27-4.67-15.33Z"/>
  <path class="cls-1" d="M499.88,346.56c.59-3.28,5.12-4.34,7.57-5.74.82-.47.55-2.93,3.85-1.2,3.66,1.91-1.44,9.08-3.26,11.43-8.14,10.51-25.19,17.92-35.92,25.73-.47.67.79,2.43,1.22,2.43h14.29c-.62,3.52-4.76,5.37-7.61,6.68-7.15,3.28-15.23,4.16-22.57,6.83-.94.34-3.29.86-3.3,2.01l18.77,2.04c-7.91,6.7-19.52,6.58-29.01,9.37-.89.26-2.6.34-1.19,1.66.58.54,11.87,1.46,14.38,2.36.86.31,2.38.5,1.13,1.72-1.73,1.69-24.25,2.13-29.7,5.83-4.71,3.2,7.9,5.79,9.87,7.04.82.52,1.44-.05,1.04,1.82-5.68,2.21-10.35,6.41-15.77,9.14-3.3,1.66-6.91,2.66-10.35,3.94.08-.04-.27-1.2.6-1.6,6.01-2.73,13.43-5.77,18.78-9.58.66-.47,3.41-2.71,2.66-3.51-.33-.35-7.27-1.58-8.98-3.68-2.37-2.93,1.88-5.49-5.72-4.49-.51,2.98,1.99,6.02.06,8.63-8.44,6.69-17.61,12.07-26.99,17.09,5.11,1.39,10.4-1.42,15.3-2.67,1.3-.33,3.89.02,4.29-.19-5.74,2.13-14.68,5.72-20.82,5.72h-17.55l16.55-4.27c2.62-1.58,5.87-2.42,8.49-3.75s18.75-11.76,19.47-13.21c1.46-2.95-2.01-7.71-.47-8.6,3.02-.39,9.43-.49,11.12-3.63,1.22-2.26-3.34-3.27-2.91-5.72,2.67-1.18,5.37-1.72,8.16-2.46.39,2.36-2.5,1.77-3.12,3.82-.53,1.77,0,4.1-.15,5.98,1.89.89,16.57-.78,13.07-4.08-.15-.14-1.58.3-2.21-.22-.47-.39-.15-1.32-.24-1.42-.11-.11-2.28.48-1.63-1.21,1.83-4.7,23.38-4.04,27.75-9-4.05-1.54-10.47.67-14.25-.35-.98-.27-.21-2.14-.44-2.5-.13-.2-3.18.67-.18-2.43,8.07-3.36,19.49-4.91,27.13-8.58,1.3-.62,2.78-1.4,3.26-2.86h-12.65c-1.24,0-1.93-3.91-.43-5.34.96-.92,2.88-.74,3.87-1.44,7.45-5.32,16.61-11.44,23.54-16.86,4.79-3.75,11.33-9.19,11.8-15.54-4.06.48-6.95,3.44-10.61,4.89Z"/>
  <path class="cls-1" d="M229.64,470.66c1.47-1.07,1.84-5.52,1.64-7.34l22.85-4.08-6.53,6.12c9.24.68-4.6,6.83-.26,9.24,5.07,2.81,8.81-.44,12.24-.49,2.28-.04,11.95,2.82,16.19,3.08,5.51.34,11.88-.62,17.17-.02,1.22.14,2.52.17,2.83,1.65-4.36,2.03-8.52.06-12.62-.02-14.87-.3-31.88-.77-46.6,0-5.96.31-15.21,2.81-20.4,2.58-2.25-.1-3.9-1.65-4.75-1.59-3.18.23-6.37,8.31-7.11,1.94s3.42-13.35,10.15-12.67c2.94.3,7.97,2.11,10.78,2.43.89.1,3.82-.39,4.42-.82-.15.14,0,1.57-.76,2.06-.87.56-10.07-.2-11.85-.46-1.25-.18-2.11-1.46-3.35-1.6-3.04-.36-8.73,5.56-7.7,8.98.39.44,4.88-1.66,6.18-1.58,1.82.12,2.36,2.43,3.87,2.28.86-.09,2.03-1.28,3.46-1.48,9.06-1.25,18.15-2.01,27.31-1.68-5.8-4.67.79-7.14.88-7.82.29-2.06-2.89-2.97-.9-6.31.43-.73,1.96-.11,1.64-1.36l-12.46,2.48c-1.99,1.16-3.06,4.36-4.1,5.49-.56.61-1.8.64-2.22,1.01Z"/>
  <path class="cls-1" d="M428.04,352.28c4.82-7.81,13.19-16.84,21.32-21.54,5.75-3.32,18.96-8.88,25.22-5.82,5.63,2.75-3.82,15.84-4.08,20,.54.52,9.72-4.03,8.99,4.41-.04.44-2.19,6.24-2.4,6.52-.5.68-1.74.37-2.47,1.09-1,.99-5.76,5.8-5.73,6.36.86,1.76,6.06,1.61,6.44,2.1,2.29,2.89-5.69,6.53-6.69,8.69-.89.64-2.27.02-3.04.23l8.98-6.94-8.97-3.26c5.4-5.25,13.18-9.67,12.24-18.38-1.37-1.38-12.3,3.87-12.25,2.03,4.33-6.52,9.45-13.34,8.99-21.63-13.2-1.62-24.91,5.95-34.31,14.28-4.22,3.74-8.02,8.9-12.23,11.85-3.83,6.2-7.26,12.71-11.01,18.79-17.27,10.93-39.48,17.39-55.13,30.6-3.02,2.55-9.87,11.31-11.98,12.51-7.38,4.19-37,5.78-47.62,7.89-20.99,4.18-21.02,7.02-36.34,19.18-5.79,4.6-15.23,11.2-21.4,14.7-2.74,1.55-17.83,7.68-18.07,8.66-.19.74,1.18,3.15.71,3.61-1.71,1.65-3.45-2.47-3.69-2.47-2.36.03-4.92,5.62-9.38,2.05-3.46-2.76,3.19-7.83,5.55-9.15,19.02-10.58,27.8-7.72,45.1-25.93,4.64-4.89,15.76-20.04,21.8-21.47,5.38-1.28,12.75-.99,18.48-1.93,25.18-4.17,44.49-11.58,67.47-21.93.43,1.97-1,1.69-2.15,2.3-17.01,8.98-38.3,16.65-57.23,20.37-8.12,1.59-17.27,1.26-25.05,2.71-.93.17-6.61,2.27-6.83,2.55-.49.64,0,2.3-.52,3.13-.73,1.14-2.86.39-3.56.95-.32.25-2.5,5.13-4.2,6.81-1.99,1.96-8.56,7.13-9.87,8.91-.98,1.33-.97,3.27-1.83,4.3-.36.43-4.32,2.81-5.81,4.03-10.96,8.98-24.62,9.86-35.72,16.9-1.79,1.13-7.52,5.57-3.42,6.93s3.32-1.54,5.35-2.54c18.28-9.01,32.02-13.85,46.33-27.93,17.24-16.98,35.6-16.52,58.41-20,5.66-.86,16.53-1.26,21.59-3.71,2.08-1.01,8.52-9.62,11.04-11.79,15.98-13.76,39.41-20.42,57.07-31.96,4.54-7.43,4.58-11.9,11.94-17.05Z"/>
  <path class="cls-1" d="M101.47,216.74c-1.11-1.22.28-1.4,1.04-1.81,6.67-3.63,28.72-8.76,36.15-8.01,6.25.63,13.97,6.37,9.71,13.07-5.07,7.96-18.83,4.55-26.49,2.9-2.5-.54-19.67-5.34-20.4-6.14ZM144.48,220.57c3.34-3.06,2.25-7.64-1.42-9.9-6.04-3.73-25.07,1.34-31.98,3.86-1.18.43-2.3.72-3.08,1.82,7.86,1.94,30.2,9.98,36.48,4.22Z"/>
  <path class="cls-1" d="M76.15,353.91c-4.65-1.7-7.21-6.02-9.82-10.01-.36-.55-1.63-.57-1.65-1.08-.26-5.55,10.6-2.76,10.67-4.02-.26-1.99-.75-4-1.49-5.86-1.59-4.03-5.59-9.19-7.43-13.14-.59-1.27-.88-2.84-.89-4.25,2.66.61,6.32-.64,8.61-.47.83.06,1.52,1.57,1.99,1.28,1.71-1.09-.45-6.33,5.97-4.87.69.16,4.19,4.79,4.93,5.42,15.82,13.58,22.16,23.65,35.67,39.84,7.05,8.45,10.52,10.51,19.48,16.44,1.12.74,1.95,1.56,2.54,2.77-21.49-7.47-33.7-35.68-49.27-51.15-1.49-1.48-12.99-10.61-14.18-10.79-2.92-.46-2.97,2.62-3.51,4.79-3.79-.96-6.51-3.59-10.6-1.62,3.55,7.73,10.21,14.59,9.8,23.67l-10.61.4c3.13,3.91,6.39,9.11,9.79,12.66Z"/>
  <path class="cls-1" d="M503.15,306.56c-3.95,7.96-11.13,14.06-16.33,21.22,1.03.89,5.76-2.67,6.8-3.39,3.33-2.31,8.96-6.92,11.98-9.66-.8,4.04-4.86,4.7-6.89,6.58-1.16,1.07-1.58,3.32-2.97,4.38-.45.34-8.2,4.34-8.68,4.42-1.03.15-2.37-1.2-2.6-2.07-.63-2.41,2.67-3.47,3.57-5.19.52-1,.26-2.96.49-3.17.36-.34,2.12.28,3.02-.22.33-.18.95-1.94,1.78-2.71,3.95-3.66,5.98-7.63,9.84-10.18Z"/>
  <path class="cls-1" d="M520.29,313.09c-.51.82-.57,2.17-1.63,3.67-1.92,2.73-4.42,3.7-6.54,5.31-4.8,7.06-10.04,11.85-16.32,17.56-1.78,1.62-10.11,7.74-10.62,8.98-.66,1.64,1.1,1.21,2.05,1.24,3.96.14,7.41-1.96,11-3.3.39,1.75-1.89,2.56-3.08,3.03-4.04,1.6-8.09,2.2-12.44,1.87-.48-4.65,5.05-7.51,8.2-10.16,1.05-.88,1.41-2.36,2.5-3.22,1.4-1.1,4.21-1.47,5.36-2.4,1.72-1.4,2.33-5.44,2.95-6.04,2.13-2.06,7.79-5.59,10.39-7.57,2.51-3.68,4.55-6.64,8.16-8.98,1.78-2.9,3.36-6.18,5.33-8.97.78-1.11,2.23-1.26,2.81-2.28,1.32-2.35,1.38-5.19-2.02-5.16s-5.81,5.26-8.15,7.47c-.66.62-2.2.52-2.65.98-1.06,1.07.18,4.24-3.15,4.16l-6.04,4.61c4.76-4.44,10.92-13.33,15.5-16.75,3.74-2.8,10.44-2.25,9.44,2.13-.26,1.14-7.48,11.58-8.61,12.61-1.19,1.09-1.94.86-2.45,1.19Z"/>
  <path class="cls-1" d="M417.42,353.09c-3.66,6.3-9.38,10.99-15.12,15.5-8.49,6.66-19.42,14.52-28.97,18.79-.38-1.75.94-1.77,2-2.45,16.14-10.27,27.6-19.59,42.09-31.84Z"/>
  <path class="cls-1" d="M455.79,386.57c-.65,4.56-10.75,5.15-13.98,8.52-1.54,1.61,3.44,6.44-5.61,8.63.58-2.01,4.42-2.21,4.86-3.78s-1.59-2.72-1.62-3.99c-.08-3.24,13.26-8.02,16.35-9.38Z"/>
  <path class="cls-1" d="M464.77,374.32c-.85,5.27-6.59,2.87-9.04,7.14-.85,1.49.12,2.9.06,4.29-1.06-.38-5.56-1.24-4.89-2.85s11.71-7.9,13.87-8.58Z"/>
  <path class="cls-1" d="M70.43,291.87c.89.89-.73,2.51-1.62,1.62s.73-2.51,1.62-1.62Z"/>
  <path class="cls-1" d="M84.32,375.14c.16-.18,1.66.42,1.65-.41,0-1.35-2.45-2.74-1.65-3.66,1.24-1.44,1.73,1.41,2.22,1.59,1.17.44,5.69.67,5.9.89.46.47-.37,5.21.15,6.82.45,1.4,2.12,1.09,2.34,1.31.69.68.1,3.39,4.08,2.45.75,2.03-3.32,4.25-3.31,4.54,0,.27,1.71,4.71,1.93,5,1.57,2.07,7.79,2.33,10.36,3.53-1.1,3.2-6.76,3.57-4.48,7.33,1.56,2.58,13.99,7.28,17.55,7.36-.8.63-1.49,3.15-1.63,3.26-.79.58-5.91-.15-4.37,3.86.58,1.5,4.53,3.02,6.02,3.91,1.03.62,2.07-.17,1.61,2.02l-17.95-6.94-.82-1.21c22.02-5.91-4.65-7.72-11.65-10-1.01-.33-1.58-1.11-2.22-1.87l8.62-3.6c.92-.54,1.62-2.65,1.16-3.31-.95-1.4-20.39-2.58-22.04-4.1-2.39-2.19,5.25-1.54,6.06-1.69,1.36-.26,5.48-1.25,6.46-1.73,1.54-.74,1.11-2.01,1.36-2.29.19-.21,2.12.68,1.63-1.21-1.64-4.13-14.27-3.87-18.17-4.69-.95-.2-17.03-5.49-10.8-6.35,4.51-.34,16.3,3.7,19.58.82.4-.35.24-1.42.42-1.63Z"/>
  <path class="cls-1" d="M413.34,439.64c-.4.21-2.99-.14-4.29.19-4.9,1.25-10.2,4.06-15.3,2.67,9.39-5.02,18.55-10.4,26.99-17.09,1.93-2.61-.57-5.65-.06-8.63,7.61-1.01,3.36,1.56,5.72,4.49,1.7,2.11,8.64,3.33,8.98,3.68.75.8-2,3.03-2.66,3.51-5.35,3.82-12.77,6.85-18.78,9.58-.88.4-.53,1.56-.6,1.6Z"/>
  <path class="cls-1" d="M229.64,470.66c.42-.37,1.66-.4,2.22-1.01,1.03-1.13,2.11-4.32,4.1-5.49l12.46-2.48c.32,1.25-1.21.63-1.64,1.36-2,3.35,1.18,4.25.9,6.31-.1.69-6.68,3.15-.88,7.82-9.16-.33-18.24.43-27.31,1.68-1.44.2-2.6,1.39-3.46,1.48-1.51.16-2.05-2.16-3.87-2.28-1.3-.09-5.78,2.02-6.18,1.58-1.02-3.42,4.66-9.34,7.7-8.98,1.24.14,2.1,1.42,3.35,1.6,1.79.26,10.99,1.02,11.85.46.77-.49.61-1.92.76-2.06Z"/>
  <path class="cls-1" d="M144.48,220.57c-6.28,5.75-28.62-2.28-36.48-4.22.78-1.1,1.9-1.39,3.08-1.82,6.92-2.52,25.94-7.59,31.98-3.86,3.67,2.27,4.76,6.84,1.42,9.9Z"/>
</svg>