<svg width="207" height="200" viewBox="0 0 207 200" fill="none" xmlns="http://www.w3.org/2000/svg">
<g filter="url(#filter0_d_240_1584)">
<path d="M35.1697 28.0353C37.4102 27.8703 40.18 28.3307 42.455 28.4534C61.5678 29.4777 80.6115 30.6133 99.7012 31.8831C104.754 32.2207 110.136 32.2476 115.139 32.8231C117.011 33.0379 117.233 33.3832 118.311 34.7988C119.892 36.8819 121.392 39.4254 122.865 41.6313C141.518 69.5102 159.537 97.8379 178.347 125.598C179.413 128.889 175.45 128.797 173.57 129.937C172.88 130.355 169.235 133.854 168.79 134.514C168.372 135.131 168.829 136.19 168.706 137.084C168.606 137.805 168.127 138.603 167.551 139.048C151.4 145.313 135.023 151.133 118.768 157.183C106.338 161.809 93.9927 166.743 81.4555 171.032C79.4913 171.185 78.4286 170.61 77.4465 168.949L28.295 42.9242C28.0188 42.1224 27.942 41.2477 28.0418 40.4037C28.2336 38.7311 31.1569 32.3589 32.0546 30.5327C32.8756 28.8601 33.1557 28.1849 35.1697 28.0353ZM42.0637 30.3294L38.9447 30.0148C38.7836 30.2028 39.478 31.8908 39.6084 32.2361C48.1673 55.3272 58.8823 78.0346 67.8747 100.991L87.6896 148.72L98.8419 145.674L98.9915 145.37C98.0477 143.049 96.8815 140.809 95.8457 138.523C86.0783 116.951 76.7444 95.1831 67.0423 73.5806C60.6048 59.2479 53.9411 45.0073 47.3771 30.7322L46.5062 30.479C46.3182 30.5366 46.4525 30.8166 46.4985 30.9547C47.4883 33.7668 48.6776 34.4919 48.0945 37.8449C47.3962 41.8654 45.7389 43.1851 48.9154 46.9409C52.0919 50.6967 59.3197 54.5944 58.8823 59.8656C58.4872 64.6495 55.725 67.1086 58.9322 71.8657C62.899 77.7545 72.463 81.4873 71.83 89.8122C71.527 93.8136 69.7239 97.6423 71.3543 101.716C74.5308 109.646 87.5476 115.462 87.4594 124.462C87.398 130.731 84.1256 137.019 89.2395 142.635C91.2305 144.822 94.8252 144.96 94.2958 141.319C93.9965 139.255 91.3226 138.887 91.196 140.383C91.1039 141.492 92.2932 141.051 92.5272 141.373C93.3252 142.47 90.8315 143.176 89.9147 141.177C89.4351 140.13 89.6576 139.482 89.8725 138.423C89.4773 138.005 88.8712 137.882 88.476 137.471C87.7356 136.704 87.0834 134.326 88.4645 134.061C90.4402 133.681 89.1666 134.993 89.3507 135.814C89.5579 136.739 90.9275 137.375 91.4645 136.282C92.2932 134.594 89.7305 131.855 87.9274 132.016C87.6934 131.303 87.8967 130.7 87.9159 130.075C87.9466 128.939 87.9389 127.815 88.1154 126.687C88.1461 126.496 88.1499 126.012 88.4607 126.1C89.0975 126.357 89.0783 128.164 89.2356 128.759C89.6039 130.175 90.9313 131.057 91.7254 132.196C92.9147 133.896 93.3482 135.653 92.6692 137.652C95.2127 138.473 97.5107 142.351 95.6961 144.718C94.5528 146.207 92.4658 145.785 90.985 145.144C90.4978 145.286 90.4594 147.039 89.2471 146.855C88.8405 146.794 88.1538 145.179 87.9389 144.718C86.93 142.581 85.2995 139.075 85.1115 136.781C84.7547 132.404 86.7688 126.131 85.6563 122.199C82.8557 112.293 68.2776 108.008 69.3748 96.5604C69.7162 92.9772 71.3773 90.7598 70.284 86.8813C68.1011 79.1318 58.6483 76.4962 56.4539 69.2033C55.4104 65.7314 58.1572 62.6853 57.812 59.1098C57.2979 53.7773 49.0075 49.8757 46.5561 45.2529C44.4537 41.2861 48.3055 38.2784 47.0049 34.1965C46.6443 33.0686 44.0586 30.1261 42.923 31.4266C42.2402 32.2054 43.2721 33.1607 43.9742 32.9612C44.2466 32.8844 44.4192 32.3665 44.8642 32.5161C44.6532 34.0929 44.9985 33.7515 45.8041 34.4612C47.2581 35.7387 45.8617 36.9203 45.409 36.1031C45.198 35.7233 45.4934 35.2438 44.8144 34.9676C43.7709 34.5417 43.6289 36.0878 44.3885 36.8129C44.9141 37.3154 45.6008 37.3423 46.2645 37.5149L45.409 40.7797C44.8834 40.396 44.9448 39.7093 44.6801 39.1722C44.4154 38.6351 43.9243 38.3206 43.6404 37.8717C42.8578 36.6479 42.5663 35.5008 43.2952 34.1735C41.6494 33.3064 40.4294 31.9982 42.056 30.3333L42.0637 30.3294ZM173.559 122.045L173.375 121.531C153.974 92.9389 134.819 64.1777 115.691 35.3973C101.75 34.2885 87.7548 33.5481 73.8096 32.3589L50.9602 30.9547L101.025 141.945L173.563 122.049L173.559 122.045ZM34.6902 33.0264L33.9574 32.8269L33.85 33.3448C49.629 73.1969 65.5115 113.053 81.866 152.675C83.2394 154.321 83.1742 152.905 82.7829 151.605C81.8046 148.378 79.9248 144.323 78.6434 141.081C67.119 111.994 55.1841 83.0257 43.3872 54.0458C40.5291 47.0253 37.6634 40.0009 34.6902 33.0302V33.0264ZM36.6045 59.9615C36.8961 60.0305 36.9076 59.8617 37.0457 59.7006C37.5445 59.129 39.8194 54.6059 39.9652 53.8847C40.1724 52.8565 39.7811 51.8975 39.0215 51.2261C38.6532 51.2338 35.9907 57.2377 36.0483 57.9397C36.102 58.5881 36.5892 59.2825 36.6045 59.9577V59.9615ZM38.4729 63.2377L41.4115 57.3489C41.5381 56.7236 41.0969 56.0791 40.7363 55.5957L39.3284 57.7709C39.0675 58.9333 37.7516 60.5676 37.5675 61.638C37.4869 62.1137 37.859 63.2301 38.4729 63.2377ZM57.9769 114.557C58.0843 114.641 59.3619 112.926 59.5076 112.735C60.8811 110.912 62.9489 108.806 60.7046 106.761L56.9143 111.695L57.9769 114.557ZM168.1 131.563C167.835 131.525 167.601 131.609 167.352 131.671C163.189 132.741 158.451 134.563 154.293 135.925C132.069 143.207 109.91 150.711 87.7279 158.115C87.2561 158.337 87.0757 158.836 86.8571 159.27C85.921 161.126 85.1422 163.317 84.3404 165.25C84.5591 165.281 84.7586 165.227 84.9696 165.181C88.875 164.291 94.338 161.959 98.3009 160.574C120.176 152.943 142.012 145.194 163.891 137.563L164.95 136.593L165.138 134.679L134.885 144.592L134.409 144.507C142.715 141.496 151.147 138.803 159.445 135.772C161.478 135.031 163.845 134.249 165.798 133.389C166.822 132.941 167.428 132.492 168.1 131.56V131.563Z" fill="#FFC105"/>
</g>
<path d="M79.3454 114.556C75.8659 114.66 78.536 121.059 80.646 119.716C81.0411 119.463 80.9797 118.362 80.5884 118.074C80.3045 117.867 79.7636 117.921 79.4912 117.614C79.0577 116.916 79.5411 116.406 80.247 116.306C82.0271 116.053 83.178 119.417 82.3148 120.791C83.9261 121.159 85.5412 123.637 84.5476 125.122C84.1371 125.732 82.9516 125.575 82.6831 124.857L82.6486 124.642C84.3442 122.828 80.7265 121.236 80.7534 123.844C80.7687 125.456 83.1012 127.688 84.8084 127.351L84.0258 134.214C83.7841 134.091 83.5846 133.531 83.4849 133.278C82.9478 131.916 82.8135 130.374 82.0309 129.116C81.6856 128.559 81.0603 128.041 80.6843 127.497C79.472 125.74 78.6971 123.591 79.6485 121.527C78.8966 120.982 78.1638 120.603 77.5539 119.866C75.2597 117.1 76.2457 113.762 74.7533 110.812C74.5462 110.402 74.0321 109.915 73.9132 109.623C73.5909 108.825 74.7878 109.646 74.9835 109.799C75.6012 110.29 78.7777 113.567 79.192 114.169C79.2841 114.299 79.4107 114.322 79.3454 114.56V114.556Z" fill="#FFC105"/>
<path d="M82.307 112.684C82.0193 112.991 77.2929 108.008 76.8517 107.613L77.8492 106.895C78.8198 105.917 78.4208 104.344 77.6996 103.335C76.0653 101.049 73.9745 104.068 76.7788 104.724C76.917 105.157 76.9975 105.721 76.4604 105.825C74.5614 106.185 72.9655 103.009 74.197 101.532C73.7481 101.183 73.2532 101.152 72.7929 100.757C70.9821 99.1956 71.8952 95.9424 74.2008 98.1022C74.3044 98.5703 73.4642 98.4552 73.4259 98.4936C72.908 99.0076 74.7187 100.995 75.5896 99.4833C76.4604 97.9718 73.5371 95.083 71.8606 95.6853C71.7916 94.6073 72.0755 93.5446 72.1714 92.4858C72.2174 91.9679 71.945 90.0459 72.5665 89.9154C72.8197 89.8617 72.8926 90.1188 72.9693 90.2914C73.2916 91.0242 73.2916 92.1099 73.7059 92.9845C74.477 94.6035 76.1765 95.7314 76.7712 97.5613C77.2162 98.9309 76.9361 99.679 76.6062 100.991C78.5014 101.839 79.8671 103.68 80.1088 105.767C80.3505 107.854 80.1318 108.875 81.1408 110.82C81.2827 111.096 82.3991 112.592 82.3109 112.688L82.307 112.684Z" fill="#FFC105"/>
<path d="M64.5258 79.9295C62.7189 80.0983 62.5385 81.5599 63.2751 82.9755C63.6971 83.7888 65.1204 85.0395 65.9069 84.0382C66.2943 82.3617 65.0207 82.8374 64.5219 82.5113C63.8007 82.0356 64.9823 80.854 66.5437 82.0471C67.6869 82.9218 67.7023 84.0881 67.3494 85.3733C68.9108 85.6725 70.687 89.2633 68.0361 88.9871C66.6818 88.8452 67.8519 88.1201 67.8097 87.6636C67.7176 86.5932 66.0028 86.2326 65.7803 87.3413C65.4081 89.2135 67.5834 91.0818 69.3634 91.005C69.1601 91.6841 68.8379 96.3184 68.1933 96.3031C67.5373 95.344 67.5181 94.0396 67.0041 92.9731C66.3059 91.5153 64.8941 90.5946 64.4184 88.8528C64.0654 87.56 64.3301 87.0843 64.6179 85.8566C62.7726 84.8784 61.5181 83.3669 61.2725 81.2338C61.2073 80.6699 61.3148 80.0868 61.2534 79.5382C61.1114 78.2837 60.4439 76.657 59.6958 75.6366L60.1677 75.6289L64.5296 79.9218L64.5258 79.9295Z" fill="#FFC105"/>
<path d="M62.6534 69.3212C64.2801 69.7317 65.8108 71.834 65.9182 73.4798C65.9489 73.9402 65.7724 74.2778 65.7647 74.6998C65.7302 76.2919 66.4783 77.4121 67.33 78.6819L63.0678 75.0566L62.9642 74.6346C64.6445 74.2624 64.4719 71.953 63.413 70.9785C62.7916 70.4031 61.656 70.2841 61.3184 71.1818C61.3913 72.0527 62.0511 72.2867 62.7916 72.4594V72.9734C62.0281 73.7522 60.5396 72.8583 60.2404 71.9721C59.9987 71.2586 60.248 70.6064 60.2979 69.9005C59.2544 69.3404 58.0268 67.9977 58.5831 66.7393C58.8746 66.0756 59.7455 66.0488 60.2442 66.5168C60.8158 67.0539 60.014 67.3071 59.9987 67.403C59.8721 68.1511 60.9846 68.9261 61.656 68.4082C62.4118 67.5143 61.6023 66.2253 60.8657 65.5808C60.1905 64.9861 59.4309 64.9362 58.7749 64.3992C59.2161 63.3672 59.2122 62.316 59.3005 61.215C59.4386 60.9694 59.5805 61.1344 59.6956 61.2917C60.1214 61.871 60.4744 63.0257 60.9693 63.7585C62.243 65.646 64.0729 66.6358 62.6534 69.325V69.3212Z" fill="#FFC105"/>
<path d="M51.942 55.5414C52.6479 56.2435 53.9753 56.3663 53.5763 54.9967C53.4497 54.7857 52.3564 54.7703 52.5136 54.4289C52.763 53.888 53.7681 54.0146 54.217 54.2831C55.3832 54.9775 54.6965 56.5351 54.8768 56.8228C54.9075 56.8727 55.6786 57.1642 55.9318 57.4059C56.937 58.3573 56.9408 60.0108 55.1684 59.6502L55.4485 58.6642C55.3564 57.5786 52.6978 57.5402 53.7835 59.7116C54.3167 60.7742 55.5597 61.3344 56.726 61.2116C56.6531 61.7947 55.9357 65.3318 55.552 65.4201C54.9651 65.5582 54.9152 63.2334 54.7349 62.8075C54.5661 62.4085 53.9024 61.975 53.6108 61.5952C52.6671 60.3753 51.6428 58.9021 52.6479 57.3829C51.4663 56.6003 50.4228 55.7448 50.1888 54.2524C49.9548 52.7601 50.1082 51.9621 49.4254 50.4928C49.341 50.3125 48.7578 49.7409 49.318 49.8176C50.0277 49.9173 51.9919 52.2537 52.8244 52.7064C52.6057 52.9864 52.2528 52.9097 51.965 53.09C51.1172 53.6271 51.309 54.9046 51.9459 55.5376L51.942 55.5414Z" fill="#FFC105"/>
<path d="M54.8541 51.5408L51.739 48.4986C52.6252 47.9385 53.0433 47.8694 52.7901 46.661C52.4295 44.9308 50.4538 45.6136 50.8643 46.3924L51.8886 47.0945C51.1405 48.0804 49.7479 46.895 49.6367 45.9474C49.6021 45.6635 49.8131 45.2568 49.6789 45.019C49.6597 44.9845 49.3029 44.8272 49.1571 44.6852C48.5702 44.1059 47.9755 43.496 48.3016 42.6136C48.7581 41.7926 50.9717 42.4755 49.5523 43.2044C49.6175 44.1405 51.2288 44.4857 51.2479 43.354C51.2671 42.2223 49.6482 41.1519 48.6123 41.244C48.6239 40.7683 49.0497 40.5842 49.0919 40.0778C49.1494 39.4026 48.7696 38.9882 48.6737 38.4435C48.6392 38.2478 48.6239 38.0291 48.8464 37.9716C49.7095 37.7491 50.1546 40.143 50.4116 40.6148C50.5996 40.9601 51.129 41.1634 51.4206 41.4742C52.4065 42.5254 52.2761 43.3732 51.9462 44.6814C53.3157 45.3067 54.3055 46.239 54.0562 47.8694C54.0063 48.2032 53.7301 48.4449 53.7531 48.8016C53.7914 49.45 54.904 50.7122 54.8426 51.5446L54.8541 51.5408Z" fill="#FFC105"/>
<path d="M115.035 36.5972C133.315 64.829 152.375 92.5468 170.747 120.721L101.907 139.185L53.7646 32.8223L61.0192 33.4438C79.0425 34.3031 97.0388 35.6382 115.035 36.5972ZM167.632 119.39L167.547 118.929C149.958 91.8255 131.904 65.0285 114.13 38.0436C96.1104 36.9847 78.091 35.9297 60.0716 35.1663C58.9437 35.1202 57.7468 34.8709 56.569 35.0052L102.598 135.913L167.628 119.39H167.632Z" fill="#FFC105"/>
<path d="M90.3904 42.3797C96.7971 42.2109 104.554 46.6572 107.351 52.4693C108.544 54.9514 107.865 55.8568 108.091 58.1509C108.114 58.3888 108.387 58.5499 108.333 58.9144C108.183 59.9579 106.181 61.7188 105.287 62.275C97.6181 67.0244 81.8161 56.5051 83.7535 47.294C84.4556 43.9487 87.141 42.4679 90.3943 42.3835L90.3904 42.3797ZM92.2472 43.473C91.1961 42.9628 91.8291 43.5689 92.0592 44.0485C92.6117 45.1879 93.2485 46.2966 93.6897 47.4859C93.3176 47.3171 91.2344 42.9743 90.8853 43.4308C91.0464 44.317 91.783 45.0996 92.2549 45.8822C92.4007 46.1239 92.7997 46.592 92.6769 46.8644C92.0746 46.1201 90.3789 43.4807 89.4083 43.4538C88.5797 43.427 86.8303 44.1559 86.2778 44.8349C85.6755 45.5753 85.1077 47.3439 85.8904 48.1112L85.2689 47.9577C85.196 48.6828 85.7407 49.2621 86.2011 49.7531L85.4223 49.5191C85.3494 50.1291 86.017 50.4168 86.3546 50.8465L85.7292 50.9232C85.2612 51.4066 86.8303 52.1931 87.2906 52.1739C87.2024 52.5844 86.5809 52.0741 86.3546 52.2429C85.7599 52.6803 86.8878 53.5895 87.2139 53.9003C87.3328 54.0115 87.5515 53.9003 87.5784 53.9233C87.8507 54.1803 87.6781 54.9207 88.6947 54.6714L88.0733 55.0588L90.5669 57.4029L90.1027 58.0205C91.0618 59.2251 94.0158 58.5883 93.7549 60.7558C94.3534 61.2699 94.5452 61.0282 94.8713 60.4336C98.0631 61.7341 102.137 63.0078 104.915 60.2072L104.451 59.8198C105.318 59.6893 105.015 61.0512 106.012 60.6791C106.53 60.0384 105.237 60.1765 105.091 59.7162L105.322 58.408C103.983 57.9476 102.341 56.8811 102.97 55.2967L103.361 56.156L103.05 56.2328C102.897 56.3939 105.617 58.1509 106.004 58.1164C106.1 58.2469 105.479 59.5551 106.48 59.0832L106.726 58.5883L107.416 58.7264C107.55 58.1011 106.933 58.0435 106.484 57.9438C106.453 57.6791 106.837 57.821 106.929 57.5371C106.964 57.4335 107.105 56.1138 107.082 56.0333C107.063 55.9604 106.307 54.8555 106.25 54.8095C106.093 54.6829 105.874 54.8402 105.862 54.8248C105.809 54.7327 105.878 54.4143 105.709 54.1189C105.571 53.8849 105.057 53.4629 104.765 53.4207V53.11C104.85 53.014 106.235 54.0575 106.012 54.5141C106.499 54.5409 106.891 54.1765 106.568 53.7199C106.438 53.532 105.916 53.6164 105.609 53.4322C105.352 53.2749 105.183 52.7647 104.919 52.5614C105.233 52.289 105.659 53.2289 105.786 53.2634C106.223 53.3747 106.219 53.0831 106.311 52.7302L105.698 52.4808L105.855 51.8593C104.742 51.8363 105.329 51.3721 104.999 51.0767C104.593 50.7084 104.355 51.1918 104.382 49.9756L103.515 49.8299L103.599 48.7327L103.426 48.5984C102.755 49.0127 102.632 48.0229 102.195 47.4859C101.109 46.1546 98.7882 44.8388 97.1232 44.4474C96.0145 44.1866 95.8534 44.693 95.7345 45.7134C95.6155 46.7339 95.8381 47.294 95.9915 48.2301C96.0184 48.3951 96.1565 48.771 95.8764 48.7365C95.8227 48.0268 95.4736 47.3286 95.4084 46.6303C95.3662 46.1892 95.5542 44.4628 95.4928 44.3669C95.3623 44.1597 95.1398 44.2096 94.9403 44.2134C94.7792 45.4065 95.09 46.4961 95.3393 47.6355C95.3739 47.7966 95.5465 48.1419 95.2549 48.1112C94.8137 46.7416 94.4301 45.3106 94.48 43.849L94.0081 43.5881C93.8431 45.0229 94.4378 46.3273 94.8675 47.6393C94.9173 47.7928 95.0823 48.1419 94.7869 48.1073L93.2984 43.4308C93.1718 43.2236 92.6846 43.1086 92.7728 43.4884C93.1257 45.0344 93.9199 46.4769 94.4723 47.9539L92.2472 43.473Z" fill="#FFC105"/>
<path d="M83.0933 72.4489L82.1534 74.3939C82.633 74.7699 83.2046 74.977 83.6957 75.3415C84.7238 76.1049 85.6023 77.5359 86.9681 77.4515L87.9195 80.0832C87.6433 80.3671 86.7878 78.9515 86.6036 78.8288C86.2392 78.5871 85.7404 78.5525 85.2187 78.1842C83.922 77.2673 82.7941 75.8364 81.2903 75.0921L82.4795 77.9579L83.7072 78.6753L80.2775 78.8326L80.8913 78.2686L78.3132 72.142L77.4692 71.6586L80.7417 71.5013C80.9105 71.9847 80.2391 71.8312 80.1317 71.9847L81.0562 74.931C81.8504 74.344 81.9002 71.4975 82.8555 71.3402C83.6458 71.2097 84.8274 72.0154 84.0908 72.7443L83.0895 72.4374L83.0933 72.4489Z" fill="#FFC105"/>
<path d="M107.42 76.9633C107.305 76.4224 107.781 76.8559 107.938 76.4569C108.18 75.8392 105.732 71.9492 105.559 70.9901L104.616 70.4108C104.842 70.5374 107.781 70.0885 107.424 70.5642L106.795 70.8059L107.969 73.3724C108.168 73.2842 108.721 71.2548 108.678 70.9594C108.598 70.4108 108.053 70.6333 107.892 70.2535L109.983 70.123L110.232 70.5604C109.591 70.4683 108.728 72.8929 108.84 73.0464C110.347 73.5106 111.406 75.0336 112.668 75.8469C113.09 76.1193 113.62 75.8738 113.819 76.6449L112.108 76.7293C111.617 76.2919 108.479 73.3418 108.045 73.6832C108.49 74.3047 108.843 75.7011 109.361 76.1883C109.799 76.5988 110.152 76.3802 110.539 76.7254C110.305 76.7139 109.852 76.9594 109.684 76.9594H107.42V76.9633Z" fill="#FFC105"/>
<path d="M138.306 91.4727L137.996 92.0136C138.801 92.8192 139.281 94.6875 140.098 95.3742C140.42 95.6466 140.819 95.5546 140.957 95.8384L138.932 95.9957C138.863 95.7349 139.231 95.9228 139.254 95.754C139.335 95.2246 137.489 92.8269 137.294 92.098C137.09 91.8218 136.334 91.8985 136.277 92.1824C136.131 92.9036 137.988 93.552 138.126 94.0852L137.969 96.1338L135.026 96.4676C134.957 96.2067 135.326 96.3947 135.349 96.2259C135.402 95.8691 133.987 93.6172 133.622 93.1952C133.718 93.9126 133.108 95.8691 133.684 96.3295C133.883 96.4906 134.263 96.3564 134.244 96.6249C133.879 96.6748 132.525 97.1006 132.375 96.7055L132.698 96.5367C132.732 96.341 131.171 93.2988 130.944 92.988C130.695 92.6427 130.519 92.3934 130.035 92.4126L131.907 92.1057C131.976 92.1555 131.654 92.3934 131.62 92.5277C131.547 92.7924 132.598 94.6108 132.828 94.9983C132.912 95.1364 132.747 95.309 133.154 95.2208L133.473 92.6581L132.843 91.9484L134.558 91.7911C134.501 91.9982 134.271 92.0711 134.255 92.3282C134.236 92.6236 135.617 95.1671 135.897 95.5239C137.178 97.162 137.317 95.029 137.374 93.9241C137.32 93.7131 135.21 93.1875 135.517 92.0596C135.694 91.4113 137.685 91.6338 138.303 91.4803L138.306 91.4727Z" fill="#FFC105"/>
<path d="M129.567 92.5631L129.245 92.6552C129.195 92.9275 131.071 96.4493 131.286 96.5491C131.486 96.6411 131.762 96.4225 131.911 96.526C132.042 96.6181 132.429 97.7844 132.686 98.0222C132.03 97.8956 131.712 97.1437 131.052 97.0746C130.45 97.0133 127.53 97.6693 127.385 97.5542C127.296 97.1207 127.542 97.2511 127.853 97.2434C127.883 97.0746 127.83 96.9289 127.78 96.7677C127.665 96.3726 126.214 93.5836 125.961 93.2805C124.837 91.9147 124.845 94.2856 124.887 94.9762C124.929 95.6667 125.543 97.6117 124.887 97.9493C124.381 98.1335 123.705 97.6616 123.798 97.0862L124.887 97.5542C124.929 97.2511 124.803 97.0248 124.649 96.7831C124.181 96.0618 122.47 94.2894 121.78 93.7255C121.515 93.5107 121.216 93.503 120.993 93.2651L123.019 93.0311L122.708 93.572C123.165 94.1974 123.709 94.746 124.22 95.3253C124.312 95.4327 124.212 95.6245 124.576 95.5248C124.638 95.448 124.396 93.7293 124.319 93.5337C124.15 93.1078 123.517 93.4032 123.644 92.8738L127.074 92.5631C127.051 93.1731 126.567 92.6053 126.917 93.4224C127.377 94.5158 128.225 95.5439 128.654 96.6757C128.873 97.0785 129.686 96.8483 130.116 96.7639C130.269 96.7332 130.446 96.856 130.35 96.5376C130.028 95.4519 128.639 93.9327 128.298 92.7357L127.699 92.402C127.918 92.4787 129.851 92.1756 129.567 92.5554V92.5631Z" fill="#FFC105"/>
<path d="M132.69 69.3223C132.882 69.7174 132.383 69.587 132.368 69.7251C132.33 70.0051 133.507 71.9617 133.757 72.3914C134.079 72.9438 135.138 74.8888 135.61 75.0615C135.924 75.1766 136.392 74.8888 136.277 75.4029C135.441 75.1574 134.148 75.9515 133.626 75.2494L134.098 75.1689C134.209 74.6164 132.905 73.0359 132.613 72.4412H130.35L131.792 75.0538L132.844 75.5602C131.973 75.472 130.642 76.1433 130.035 75.4067L130.657 75.1727C130.411 74.8274 130.262 74.4246 130.062 74.0525C129.594 73.1855 128.259 70.6535 127.703 70.0588C127.327 69.656 126.705 70.0397 126.759 69.4757H129.41L128.957 70.1548L130.062 72.096L132.372 71.9732L131.286 70.0205L130.346 69.3223H132.686H132.69Z" fill="#FFC105"/>
<path d="M87.6125 78.2138C87.5205 77.8148 87.9655 77.8416 88.0883 77.6383C88.5486 76.8749 88.1266 72.4362 88.1228 71.2699C88.2762 70.917 88.9936 70.9438 89.2468 71.197L93.931 76.9631L95.2546 77.669C95.2738 77.715 94.8863 77.903 94.8671 77.903H92.5269C92.3888 77.903 92.1893 78.1946 92.1356 77.669L92.6075 77.3506C92.665 77.1166 91.4681 75.6012 91.1995 75.4861C90.6279 75.2444 89.6535 75.4899 89.0167 75.4055C88.9783 76.66 88.8594 77.8263 90.4208 77.903C90.4668 77.9606 90.2174 78.2138 90.1867 78.2138H87.6125ZM90.885 75.091L89.1663 72.674L88.7021 72.44L89.0358 75.0679L90.885 75.0871V75.091Z" fill="#FFC105"/>
<path d="M104.846 77.1203C104.788 77.1203 104.646 77.3774 104.458 77.0398C104.34 76.7175 105.03 76.9554 104.685 76.1919C104.643 76.0999 103.684 74.8262 103.611 74.7725C103.066 74.3735 102.019 74.9643 101.336 74.784L101.57 76.6561L102.586 77.2776L100.246 77.4349C100.1 77.0091 100.53 77.151 100.637 76.9746C100.937 76.4912 100.568 75.4247 100.553 74.8684C100.507 73.4413 100.714 71.9681 100.403 70.5717C101.34 70.188 101.769 70.9975 102.356 71.6612C103.718 73.1881 105.256 75.8467 106.99 76.6983C107.205 76.8058 107.317 76.848 107.267 77.1242C106.465 77.1012 105.652 77.1549 104.85 77.1242L104.846 77.1203ZM101.336 71.6612L101.025 71.7418L101.355 74.4541L103.208 74.4694L101.336 71.665V71.6612Z" fill="#FFC105"/>
<path d="M116.155 72.1304C115.572 71.9693 115.331 71.2289 114.828 70.8836C114.16 70.4232 112.91 70.3312 112.726 71.2787C112.254 73.7417 115.599 77.4131 117.793 74.9425C118.599 75.0959 117.928 76.078 117.46 76.3274C115.86 77.1791 113.635 76.1739 112.568 74.8619C110.758 72.633 110.504 69.4181 114.318 69.9936C115.637 70.1931 115.545 71.1598 116.151 72.1343L116.155 72.1304Z" fill="#FFC105"/>
<path d="M103.054 95.3711L102.59 95.9159C103.177 96.5757 104.186 99.8443 104.773 100.128C104.988 100.232 105.275 100.128 105.394 100.282C104.769 100.661 103.783 100.635 103.058 100.673C102.882 100.182 103.453 100.439 103.522 100.358C103.76 100.078 102.809 98.4555 102.74 98.0259L100.722 98.4133C101.14 98.8123 101.339 99.9594 101.646 100.297C101.984 100.673 102.54 100.297 102.437 100.83L100.096 101.145C99.9544 100.696 100.484 100.853 100.557 100.585C100.618 100.366 99.0643 96.6831 98.8303 96.4031C98.5695 96.0923 98.205 96.1921 98.0669 95.843L100.25 95.6857L99.847 96.3148L100.48 97.7151C100.814 98.0681 101.911 97.531 102.433 97.7113C102.552 97.5962 101.938 96.265 101.792 96.0923C101.535 95.7816 101.163 95.8852 101.029 95.5322L103.054 95.3749V95.3711Z" fill="#FFC105"/>
<path d="M97.1268 74.0028C97.449 74.4248 98.036 74.3174 98.5807 74.6511C99.3902 75.146 100.035 76.1665 99.5091 77.0757C98.9567 78.0425 96.7086 77.701 95.7418 77.724L95.2508 76.5002L96.0909 76.4887C96.348 77.6588 98.4119 77.5437 98.3621 76.2816C98.3237 75.2573 97.4835 74.6703 96.5628 74.4861C96.1331 74.4017 95.5769 74.6434 95.2508 74.2368C98.059 73.834 96.44 71.0066 94.3147 71.3518L94.472 72.4414L93.7891 72.4529L93.229 71.2713C94.3531 70.5577 95.8339 70.5078 96.958 71.2828C97.9362 71.958 98.5385 73.5194 97.1229 74.0028H97.1268Z" fill="#FFC105"/>
<path d="M129.882 75.8735H127.231C127.108 75.3671 127.699 75.7431 127.515 75.1983C127.484 75.1063 126.414 73.7328 126.333 73.6753C125.919 73.3914 124.914 73.775 124.419 73.6868C124.323 73.7789 124.688 75.2098 124.814 75.3978C125.117 75.839 125.624 75.582 125.823 76.027H123.483C123.322 75.6165 123.759 75.7776 123.798 75.6127C124.081 74.3773 123.011 71.6113 123.003 70.1727C123.003 69.8504 123.003 69.4821 123.406 69.4668C123.663 69.4668 125.286 71.1778 125.593 71.5001C126.529 72.486 127.757 74.3006 128.708 75.0947C129.145 75.4592 129.871 75.2635 129.882 75.8697V75.8735ZM125.984 73.3761L123.648 70.5717L124.285 73.3645L125.984 73.3799V73.3761Z" fill="#FFC105"/>
<path d="M93.2253 96.4647L91.9977 98.8663C92.9491 99.3995 93.655 100.232 94.4875 100.896C94.6409 101.018 95.8379 101.54 95.5655 101.767C95.1051 101.671 94.5987 102.047 94.169 101.847C93.8468 101.701 91.7828 99.1847 91.357 99.5837C91.756 100.021 91.9209 101.264 92.2125 101.609C92.5232 101.978 93.1984 101.479 93.0718 102.073L90.7317 102.384C90.5782 101.943 91.1383 102.077 91.192 101.832C91.2419 101.602 89.646 97.7039 89.4695 97.489C89.2163 97.1821 88.8403 97.278 88.7061 96.9289L90.8889 96.6143L90.4324 97.1514L91.2803 98.9507L91.967 96.9404L91.357 96.6143L93.2291 96.457L93.2253 96.4647Z" fill="#FFC105"/>
<path d="M95.3701 96.0314C98.7461 95.4521 101.205 101.483 97.3574 101.617C94.3266 101.725 92.3356 96.5531 95.3701 96.0314ZM97.0696 97.1439C96.732 96.8178 96.0492 96.3767 95.562 96.5263C94.1041 96.9713 95.5044 100.508 96.663 100.904C99.1835 101.755 98.1668 98.2181 97.0658 97.1478L97.0696 97.1439Z" fill="#FFC105"/>
<path d="M116.624 93.8125C116.612 94.4071 116.125 93.8547 116.436 94.7025C116.581 95.0938 118.081 98.021 118.262 98.1821C118.576 98.4699 119.079 98.1207 118.968 98.6463L117.095 98.8842L117.391 98.2857C116.877 97.4724 116.551 96.3599 116.044 95.5734C115.944 95.4199 116.06 95.2933 115.695 95.3739C115.887 96.2102 115.012 97.9289 115.522 98.5888C115.753 98.8842 116.286 98.631 116.159 99.1182L114.134 99.2755C114.172 98.819 114.51 98.8727 114.383 98.3394C114.337 98.1476 112.764 94.9174 112.645 94.7601C112.377 94.4033 111.905 94.6105 111.797 94.2844L113.823 94.1271C114.019 94.5184 113.516 94.3918 113.501 94.5261C113.455 94.8713 114.705 97.1463 115.07 97.5568C114.966 96.9238 115.868 94.691 115.392 94.3496C115.154 94.1808 114.644 94.4992 114.763 93.9698L116.635 93.8125H116.624Z" fill="#FFC105"/>
<path d="M120.601 76.1843C120.54 76.1689 120.321 75.9119 120.367 75.8735L120.839 75.793C120.997 74.9758 118.415 71.5001 118.177 70.4144L116.846 70.7098L116.646 70.9898C116.627 71.0704 116.926 72.1216 116.47 71.6612C116.355 71.5423 116.098 70.1919 115.687 69.9463L120.924 69.6816L121.771 71.1893C121.054 70.4336 120.317 70.2111 119.278 70.4873L122.013 75.394C122.328 75.8121 123.199 75.5321 123.176 76.1804C122.462 76.0615 121.234 76.3454 120.601 76.1804V76.1843Z" fill="#FFC105"/>
<path d="M102.429 88.2738C102.268 88.7955 100.94 88.4733 101.182 87.729L102.114 88.1971L102.03 87.5794L98.9951 84.4566L100.71 84.2993L100.399 84.8441L101.957 86.6395C101.888 86.1177 102.076 85.3543 101.93 84.8748C101.811 84.4835 101.385 84.6024 101.335 84.3031L105.686 84.0039L106.012 85.0781C105.509 85.0973 105.659 84.5487 105.083 84.3684C104.773 84.2725 104.458 84.2878 104.14 84.2993C104.305 86.2789 105.179 85.3888 106.257 85.8454C106.91 86.1216 107.316 86.9464 107.082 87.6293C106.913 88.1242 104.984 88.0935 104.45 88.1932L104.911 87.8134L103.342 84.3147L102.425 84.4528V88.2738H102.429ZM106.468 87.5564C106.564 86.6203 105.724 85.7993 104.769 86.0142L105.548 87.66L106.472 87.5564H106.468Z" fill="#FFC105"/>
<path d="M123.176 86.4786H121.772L122.082 86.2484C121.526 85.3277 121.384 85.0591 120.21 85.2318C120.206 85.5425 120.187 85.976 120.375 86.2369C120.609 86.5553 120.97 86.3405 120.989 86.6359C120.245 86.5783 119.481 86.9351 118.729 86.7893C118.162 86.6781 117.26 85.2126 116.466 85.0783C116.362 85.2011 116.919 86.3558 117.08 86.5246C117.321 86.774 117.671 86.6742 117.713 86.9505L116.155 87.1078C115.986 86.7126 116.474 86.82 116.474 86.7164C116.474 86.4824 115.346 84.1269 115.131 83.843C114.889 83.5246 114.586 83.4901 114.437 83.2138L115.837 83.0566C115.607 83.6167 115.795 84.0847 116.113 84.5719C116.209 84.7215 116.094 84.852 116.458 84.7714L116.781 83.6013L116.305 83.0604H117.552L116.773 84.7714C117.674 84.7254 118.948 86.843 119.642 86.6359C119.873 86.5668 119.903 86.3136 119.9 86.1065C119.892 85.1282 119.52 83.8315 119.42 82.8264C119.428 82.6806 119.685 82.7305 119.788 82.7688C120.602 83.0796 122.14 85.9684 123.164 86.4863L123.176 86.4786ZM120.989 85.0745C121.177 84.9057 120.003 83.4939 119.742 83.3596L120.068 85.0591L120.989 85.0745Z" fill="#FFC105"/>
<path d="M106.914 95.0977L107.577 96.6169C103.495 92.5235 104.738 99.943 107.712 99.4788C108.391 99.3714 108.417 98.9148 108.981 98.7997C108.824 100.392 107.056 100.442 105.908 99.7665C103.373 98.278 103.054 93.989 106.914 95.0938V95.0977Z" fill="#FFC105"/>
<path d="M98.6845 84.453C98.8571 84.8596 98.3929 84.71 98.3661 84.8596C98.3239 85.0937 99.4364 87.6257 99.6436 87.9402C99.9697 88.4428 100.434 88.1589 100.403 88.6615L96.3482 88.8993L96.1909 88.6615L96.6627 88.5809C96.728 88.251 95.5809 85.5885 95.3277 85.2241C95.0745 84.8596 94.7637 85.1359 94.6333 84.7599L98.6883 84.4453L98.6845 84.453ZM97.5681 84.9479L96.0336 84.9249C95.8801 85.0745 97.361 88.0093 97.5911 88.4466L98.9952 88.3546L97.5681 84.9479Z" fill="#FFC105"/>
<path d="M112.1 95.6816C111.598 95.7008 111.744 95.1522 111.172 94.9719C110.811 94.8606 110.439 94.899 110.075 94.9028L111.87 98.8006L112.73 99.1151C112.776 99.4911 112.73 99.3645 112.511 99.4451C111.955 99.6484 111.145 99.6215 110.543 99.7405C110.462 99.188 111.08 99.5525 110.988 98.9195C110.957 98.7162 109.35 95.3632 109.215 95.2097C109.043 95.0141 108.51 95.2289 108.272 95.3632L108.126 96.1535L107.267 94.7532L111.471 94.2852L112.1 95.6854V95.6816Z" fill="#FFC105"/>
<path d="M121.304 94.4336C120.809 94.0346 120.168 93.4438 119.593 94.0423C120.325 94.9362 120.801 96.9579 121.449 97.7559C121.71 98.0743 122.163 97.8518 122.236 98.1741L120.21 98.4886C120.038 98.082 120.502 98.2316 120.529 98.082C120.659 97.3723 118.887 94.9208 118.787 93.9771L117.717 94.1305C117.594 94.2648 117.947 94.9016 117.398 94.7482L116.926 93.6587C117.667 93.7891 120.517 93.041 120.901 93.5052C120.966 93.5819 121.338 94.3837 121.292 94.4374L121.304 94.4336Z" fill="#FFC105"/>
<path d="M143.608 90.8516C143.025 91.2122 143.712 92.4858 144.153 92.5664C144.966 92.7122 145.481 92.3593 146.267 93.1035C148.093 94.8337 145.715 95.4168 144.234 95.3708L144.544 94.8299C143.727 94.0779 143.19 92.1137 142.527 91.4309C142.346 91.2429 142.147 91.1815 141.894 91.1585L143.608 90.8516ZM144.234 92.8772C144.122 92.9731 145.308 95.5818 146.037 94.5997C146.183 93.6137 145.177 92.8158 144.234 92.8772Z" fill="#FFC105"/>
<path d="M111.786 83.6701L111.463 83.7622L112.722 86.1676C112.664 85.5768 113.297 84.1075 112.967 83.6586C112.814 83.4514 112.38 83.6548 112.411 83.3594H113.968L113.646 83.6011C113.646 83.8006 114.893 86.4745 115.073 86.697C115.33 87.0154 115.653 86.8121 115.683 87.0998L114.126 87.2571L114.421 86.743C114.168 86.0909 113.876 85.431 113.516 84.8325C113.431 84.6944 113.596 84.5218 113.19 84.6062L112.898 86.6778L113.654 87.2571L111.939 87.4144C111.989 87.2149 112.223 87.1535 112.223 86.9003C112.223 86.72 110.899 83.9387 110.773 83.8236C110.615 83.6816 110.424 83.6701 110.224 83.6701L111.555 83.4016L111.782 83.6701H111.786Z" fill="#FFC105"/>
<path d="M90.3942 85.2576L90.7318 86.0095L88.8634 85.5415L89.343 87.0914C89.4159 87.1451 90.1947 86.9686 90.2369 86.9149C90.3443 86.7768 90.1256 86.4277 90.4172 86.4776L90.8852 87.6477C90.5668 88.0006 90.5975 87.4328 90.4747 87.4098C90.1755 87.3523 89.7995 87.4482 89.4849 87.4098L90.3558 89.0978L91.5642 88.6144C91.6755 88.3075 91.2727 87.9315 91.8213 88.0313L92.2893 89.2781L89.0131 89.5889L89.4696 89.2628L88.0003 85.6873L87.4517 85.3804L90.3903 85.2461L90.3942 85.2576Z" fill="#FFC105"/>
<path d="M87.4555 89.7537L85.4299 89.911C85.3416 89.4775 85.5871 89.6079 85.8979 89.6003C86.0207 89.4621 84.7508 86.4429 84.5667 86.1744C84.2713 85.7485 83.7994 86.0478 83.8723 85.5452C85.0769 85.6219 87.5245 85.1693 87.7432 86.9148C87.9043 88.2115 86.059 87.8202 86.059 88.1194C86.3698 88.3726 86.4158 89.0747 86.5999 89.2895C86.8186 89.5465 87.3519 89.3509 87.4593 89.7575L87.4555 89.7537ZM85.2726 85.856C85.3915 86.4966 85.9247 88.2345 86.7687 87.5823C87.5168 87.0069 86.1358 85.4877 85.2726 85.856Z" fill="#FFC105"/>
<path d="M140.179 81.334C140.125 81.5181 140.01 81.6562 140.021 81.8672C140.029 82.0322 141.245 84.1959 141.425 84.3877C141.652 84.6294 141.744 84.5028 142.032 84.4606L142.519 85.5425C142.028 85.6461 142.231 85.0821 141.786 84.9478C141.441 84.8443 141.007 84.9478 140.647 84.9171L140.957 84.5297L139.956 83.0987L138.778 83.279C139.085 83.5936 139.312 84.3839 139.546 84.6639C139.737 84.8903 140.14 84.5719 140.025 85.0744H138.778C138.87 84.8404 138.959 84.7215 138.874 84.4491C138.801 84.2113 137.647 82.2125 137.447 81.9593C137.248 81.7061 136.937 81.7406 136.906 81.4913H138.31L138.011 81.8596C138.387 82.8685 138.805 83.0181 139.872 82.8915C139.599 82.2355 139.335 81.7828 138.778 81.334H140.183H140.179Z" fill="#FFC105"/>
<path d="M132.222 81.9588C132.168 82.12 132.088 82.2427 132.134 82.423C132.188 82.6302 133.434 84.9666 133.549 85.0778C133.787 85.3118 134.202 85.0663 134.094 85.542H132.69L133.001 85.1545L131.996 83.7312L130.818 83.9039C131.251 84.1801 131.347 85.0011 131.585 85.2888C131.773 85.5152 132.184 85.1929 132.065 85.6955C131.509 85.5458 129.437 86.0829 129.099 85.9333C129.038 85.9065 128.93 85.7837 128.942 85.6955C129.026 85.6149 129.506 85.8796 129.41 85.4614C129.375 85.3118 128.029 82.8489 127.929 82.73C127.638 82.3847 127.331 82.5458 127.231 82.2619L128.631 82.1046C128.531 82.8642 129.234 84.0573 129.644 84.7594C130.008 85.3809 130.116 85.8681 130.971 85.5343C131.071 85.4001 129.721 82.8796 129.487 82.5765C129.287 82.3195 128.977 82.3578 128.946 82.1085H130.35L130.039 82.3386C130.553 83.478 130.741 83.666 132.065 83.5087L130.975 81.9512H132.222V81.9588Z" fill="#FFC105"/>
<path d="M141.556 91.1856L142.204 92.5628C141.736 92.3595 141.379 91.5615 140.873 91.4695C138.824 91.1088 140.677 94.7112 142.162 95.0219C143.029 95.2022 143.079 94.8761 143.762 94.5923C143.497 96.2457 141.644 95.6971 140.658 94.9682C138.805 93.5986 138.31 90.4758 141.556 91.1856Z" fill="#FFC105"/>
<path d="M94.6297 86.3249C94.1157 86.0372 94.0735 85.408 93.4251 85.2661C91.131 84.7558 92.6233 88.8531 94.5377 88.6651C95.0901 88.6114 95.2282 88.0858 95.7231 88.0436C94.975 90.3377 92.0555 88.761 91.5875 86.9541C90.9238 84.3952 94.3075 83.9502 94.6336 86.3249H94.6297Z" fill="#FFC105"/>
<path d="M133.937 81.8008C133.553 83.4351 134.635 83.0054 135.506 83.2739C136.066 83.4466 137.129 84.632 136.427 85.1461C136.127 85.3648 134.359 85.6065 134.251 85.3111L134.574 85.1461C134.627 84.843 133.089 82.0732 132.537 81.8813L133.941 81.8046L133.937 81.8008ZM135.203 85.054C136.764 85.1921 135.663 83.2586 134.562 83.5156L135.203 85.054Z" fill="#FFC105"/>
<path d="M125.984 82.4267C125.508 84.4561 127.438 83.3321 128.324 84.3756C129.763 86.0636 127.711 86.0981 126.452 86.171C126.713 85.5188 125.965 84.2912 125.597 83.6735C125.344 83.2515 125.109 82.6569 124.58 82.584C124.787 82.2272 125.62 82.5226 125.984 82.4305V82.4267ZM126.452 83.9843L127.304 85.7183L128.102 85.5533C128.102 84.7208 127.319 83.8768 126.452 83.9881V83.9843Z" fill="#FFC105"/>
<path d="M146.574 90.5359C146.466 90.7622 146.451 90.8658 146.528 91.1075C146.62 91.3952 148.319 94.1152 148.519 94.284C148.737 94.4681 149.14 94.4144 149.225 94.7443L147.199 94.9016L147.652 94.376C146.95 93.6126 146.336 91.7059 145.641 91.0768C145.446 90.9003 145.273 90.8313 145.012 90.8466C144.514 90.4054 146.459 90.5397 146.574 90.5359Z" fill="#FFC105"/>
<path d="M124.576 83.5159L123.54 82.7678C121.956 82.622 123.191 85.8062 124.818 85.8676C125.336 85.8868 125.297 85.7333 125.601 85.5453C126.088 85.2461 125.98 85.8254 125.666 86.0824C124.292 87.2065 121.822 84.8548 122.083 83.2896C122.263 82.1962 124.553 82.1425 124.58 83.5159H124.576Z" fill="#FFC105"/>
<path d="M109.76 83.5156L109.449 83.9031C110.059 84.5438 110.524 86.5157 110.999 87.0374C111.237 87.3021 111.617 87.1295 111.636 87.4134L109.921 87.5707L110.385 87.1832C109.672 86.1896 109.511 84.3865 108.36 83.8264L109.76 83.5156Z" fill="#FFC105"/>
<path d="M108.199 83.6738C108.371 84.0805 107.907 83.9309 107.88 84.0805C107.727 84.9015 109.507 86.7468 108.567 87.7404L107.424 87.8862V87.1074C107.535 86.9769 108.252 87.7442 108.36 87.1803C108.391 87.0268 107.37 84.3797 107.259 84.2301C107.017 83.9079 106.668 84.1265 106.645 83.8311L108.203 83.6738H108.199Z" fill="#FFC105"/>
<path d="M136.434 81.6473L136.124 82.0348C136.845 82.6256 137.194 84.2138 137.762 84.7701C138 85.0041 138.414 84.7586 138.303 85.2343H136.745L137.209 84.8469C136.438 83.9338 136.127 82.3302 135.03 81.8008C135.234 81.444 136.07 81.7394 136.431 81.6473H136.434Z" fill="#FFC105"/>
<path d="M98.5888 51.9505C99.0914 52.5183 99.6323 53.017 99.4367 53.9224C98.9725 56.0286 94.0504 53.8112 94.4033 51.3597C94.599 49.9978 97.131 50.6768 97.9597 51.2523C98.3088 51.494 98.3548 51.682 98.5927 51.9505H98.5888ZM97.1272 52.3226C97.0773 51.2101 96.2525 51.0643 96.6591 52.3226L95.1016 51.7012C95.0095 52.15 95.2474 51.9467 95.4392 52.0579C95.7269 52.2267 96.007 52.4377 96.3484 52.4799L95.9993 52.6296C95.6885 52.6756 95.8458 53.5579 96.4289 52.7907C96.8433 53.0439 96.5325 53.9838 97.131 53.8802L97.2077 52.9441L98.3817 53.5695C98.2627 53.8802 98.0364 54.1066 98.5351 54.0337C98.6924 53.347 97.9903 53.017 97.4456 52.783C97.6029 52.4224 98.4546 52.8712 98.3778 52.1615L97.131 52.3188L97.1272 52.3226Z" fill="#FFC105"/>
<path d="M101.451 58.0383C101.504 58.0038 101.504 57.858 101.497 57.7812L102.897 59.1815C101.995 59.3848 101.267 59.8567 100.304 59.945C98.6886 60.0907 96.9775 59.6342 95.5657 58.8708C95.5159 58.6252 95.8381 58.7288 95.9571 58.56C96.0568 58.4219 95.8036 57.9002 96.287 57.8119C96.5133 57.7697 97.2154 58.1419 97.5568 58.2071C98.5735 58.3951 100.561 58.6099 101.447 58.0421L101.451 58.0383Z" fill="#FFC105"/>
<path d="M103.154 59.5856C103.207 59.5396 103.219 59.4168 103.211 59.3401H103.361C103.407 59.7851 103.706 59.9846 104.144 59.9654C101.539 62.4706 97.5719 61.1739 94.6294 59.9654L94.9516 59.7199L94.7828 59.0332C97.123 59.9923 100.936 61.4885 103.15 59.5895L103.154 59.5856Z" fill="#FFC105"/>
<path d="M90.5205 44.7302L92.7572 47.6382L90.1484 44.8261C88.8863 44.1317 86.9642 45.1445 86.8261 46.6177C86.6535 48.4553 87.0985 48.7814 88.2379 50.0589C87.8351 50.3275 87.3249 49.6484 87.0832 49.3415C84.8734 46.518 87.4246 42.8274 90.5244 44.7302H90.5205Z" fill="#FFC105"/>
<path d="M100.867 51.072L100.246 50.0554L100.568 49.8904C100.48 49.3264 100.177 48.7126 99.6281 48.4901C99.4248 48.4096 99.0872 48.2676 99.1524 48.6512L99.7739 49.196C98.7995 48.7241 98.9261 49.9978 98.0591 49.9748C98.3506 49.0004 99.068 47.4735 100.165 48.5707L100.863 49.5068C101.097 48.8891 99.609 47.5425 99.1448 47.7152L97.7483 49.8175C97.9516 47.5272 99.1524 46.6832 100.863 48.5707C101.174 48.2216 99.2522 46.3993 98.3621 47.2817C98.1895 47.4505 97.591 48.751 97.5066 49.0349C97.3954 49.3993 97.568 49.9863 97.2803 50.1321C97.3378 48.2408 97.357 45.7011 99.9197 47.1014C101.784 48.118 101.025 49.384 100.863 51.0682L100.867 51.072Z" fill="#FFC105"/>
<path d="M90.5169 45.8307C90.8775 46.0801 91.9862 47.2003 92.2893 47.5609C92.435 47.7374 92.6691 47.8141 92.6 48.1057C91.311 47.2771 89.6805 44.4075 88.1652 46.3985C86.1856 48.9957 91.6601 50.3615 91.3532 52.7861C91.0962 53.0968 90.3289 51.3091 90.2368 51.1748C89.2087 49.6441 86.9068 49.2144 87.3595 47.0123C87.6856 45.4356 89.2355 44.9484 90.5169 45.8307Z" fill="#FFC105"/>
<path d="M91.6677 47.7954C91.0577 47.6573 90.8429 47.0435 90.2137 46.821C89.857 46.6944 89.5309 46.7941 89.1702 46.7059L89.1856 47.0972L88.7022 47.1739L89.013 47.3312C88.169 48.6509 89.3122 48.8658 90.0219 49.518C90.348 49.8172 91.1613 50.7801 91.4644 50.8837C91.6562 50.9489 93.3365 51.2712 93.4401 51.2443C93.7048 51.0372 93.4593 50.3274 94.0002 50.454C92.8186 51.6663 94.8212 53.0935 94.8788 53.807C94.9094 54.1868 93.9312 54.8697 93.5322 54.5052L93.9964 54.041L92.9069 53.9605L93.8391 53.2584H92.903L92.9107 52.8019C93.0411 52.5947 93.9964 52.8518 93.8353 52.3223L92.3506 52.7789L91.967 52.4758C92.0897 52.2226 92.6959 52.2763 93.0028 52.1881C93.2138 52.1305 93.4785 52.1267 93.5245 51.8543L91.8097 52.1651C91.5411 51.5014 91.7138 51.3172 92.4312 51.3863L92.0437 51.697L93.3672 51.3863C92.9989 51.2098 91.5565 51.2482 91.3378 51.1331C91.0923 51.0026 89.1127 49.2609 88.8403 48.9732C88.2879 48.3939 88.2035 47.7341 88.6255 47.0282C89.4503 45.6432 91.0232 46.8555 91.6562 47.7954H91.6677Z" fill="#FFC105"/>
<path d="M105.272 55.3926C105.314 55.431 105.559 55.2852 105.632 55.4233C105.786 55.7149 105.617 56.2136 106.02 56.4553C105.368 56.4783 104.765 55.5806 104.017 55.4156L103.99 54.6599L103.68 55.2852L103.058 55.1279L103.135 54.821H103.611C103.891 54.0422 103.503 53.4015 103.058 52.7916C104.075 52.757 103.917 54.353 104.075 54.5141C104.247 54.6906 104.616 54.6484 104.861 54.8057C105.107 54.9629 105.137 55.2699 105.276 55.3926H105.272Z" fill="#FFC105"/>
<path d="M96.5016 49.2L96.1832 47.8803C96.2138 47.3471 96.0527 45.1987 96.5975 45.0069C97.7254 44.6156 100.399 46.0734 101.262 46.856C102.858 48.31 102.935 49.53 102.624 51.5019C102.609 51.6016 102.874 52.5952 102.433 52.1617C102.156 51.8932 102.471 49.9596 102.429 49.434C102.237 47.1246 99.2369 45.31 97.077 45.2946C96.9926 45.3138 96.5054 46.3995 96.5054 46.4685V49.2H96.5016Z" fill="#FFC105"/>
<path d="M96.8125 47.2517C96.824 47.175 97.2498 46.0816 97.292 46.0164C97.714 45.4333 99.6667 46.212 100.085 46.7031C98.9301 46.4729 98.1437 45.3949 97.4723 46.822L96.8086 49.6686C96.8892 48.9167 96.6974 47.9691 96.8086 47.2517H96.8125Z" fill="#FFC105"/>
<path d="M103.05 54.6586L102.509 53.2545C101.922 52.3338 101.182 51.7737 101.328 50.523C101.366 50.1778 101.596 50.0013 101.646 49.7404C101.826 48.7506 101.259 47.9297 100.718 47.1777C101.8 47.5806 102.053 49.0269 101.965 50.0627C101.926 50.5077 101.635 51.0563 101.685 51.4323C101.842 52.5832 103.656 53.2392 103.054 54.6625L103.05 54.6586Z" fill="#FFC105"/>
<path d="M101.336 57.3142L99.7013 57.9357L96.8164 57.6211C96.9085 57.2874 97.0159 57.3833 97.2499 57.4101C98.5159 57.5598 99.0684 57.8628 100.392 57.5291C100.683 57.4562 100.856 57.0227 101.343 57.3104L101.336 57.3142Z" fill="#FFC105"/>
<path d="M92.2891 48.8854C91.05 48.4404 90.11 46.5951 89.2469 48.5747C89.0359 48.0836 89.7379 47.2588 90.3057 47.3509C90.6049 47.4007 92.4157 48.7665 92.2891 48.8854Z" fill="#FFC105"/>
<path d="M103.522 58.092C103.089 58.7825 103.921 59.0818 104.301 59.5728C103.764 59.7493 103.342 58.7327 102.977 58.4027C102.613 58.0728 101.968 57.8656 101.654 57.4667C102.452 57.3477 102.835 58.3759 103.526 58.092H103.522Z" fill="#FFC105"/>
<path d="M90.4171 52.6306L89.1588 51.6293C88.756 51.0231 89.1089 50.5781 89.646 51.1421C89.9414 51.4528 90.0833 52.2546 90.4171 52.6306Z" fill="#FFC105"/>
<path d="M105.862 57.4667C105.091 57.2173 104.143 56.7263 103.679 56.0664C104.489 56.2582 105.248 56.9219 105.862 57.4667Z" fill="#FFC105"/>
<path d="M103.208 49.0469C103.472 49.7029 103.181 50.3819 103.68 50.9152L103.231 50.9344L103.054 51.3832C103.146 50.5507 103.273 49.8448 102.897 49.0469H103.208Z" fill="#FFC105"/>
<path d="M100.219 51.7246L100.557 52.162L99.778 52.2425L100.868 52.63L100.096 52.6453L99.9353 53.098L99.4673 52.0123L100.219 51.7246Z" fill="#FFC105"/>
<path d="M100.537 55.2653C100.422 55.3728 100.023 55.484 99.939 55.2039L100.484 54.8203C100.449 54.9162 100.557 55.25 100.541 55.2653H100.537Z" fill="#FFC105"/>
<path d="M99.8545 55.4375C99.9542 55.4912 99.9542 55.5411 99.8545 55.5948V55.4375Z" fill="#FFC105"/>
<defs>
<filter id="filter0_d_240_1584" x="0" y="0" width="206.526" height="199.057" filterUnits="userSpaceOnUse" color-interpolation-filters="sRGB">
<feFlood flood-opacity="0" result="BackgroundImageFix"/>
<feColorMatrix in="SourceAlpha" type="matrix" values="0 0 0 0 0 0 0 0 0 0 0 0 0 0 0 0 0 0 127 0" result="hardAlpha"/>
<feOffset/>
<feGaussianBlur stdDeviation="14"/>
<feComposite in2="hardAlpha" operator="out"/>
<feColorMatrix type="matrix" values="0 0 0 0 1 0 0 0 0 0.92549 0 0 0 0 0.176471 0 0 0 1 0"/>
<feBlend mode="normal" in2="BackgroundImageFix" result="effect1_dropShadow_240_1584"/>
<feBlend mode="normal" in="SourceGraphic" in2="effect1_dropShadow_240_1584" result="shape"/>
</filter>
</defs>
</svg>
