<svg width="80" height="80" viewBox="0 0 80 80" fill="none" xmlns="http://www.w3.org/2000/svg">
<mask id="mask0_260_2628" style="mask-type:alpha" maskUnits="userSpaceOnUse" x="0" y="0" width="80" height="80">
<rect width="80" height="80" fill="#D9D9D9"/>
</mask>
<g mask="url(#mask0_260_2628)">
<path d="M46.6654 32.9928V27.3262C48.4987 26.5484 50.3737 25.9651 52.2904 25.5762C54.207 25.1873 56.2209 24.9928 58.332 24.9928C59.7765 24.9928 61.1931 25.1039 62.582 25.3262C63.9709 25.5484 65.332 25.8262 66.6654 26.1595V31.4928C65.332 30.9928 63.9848 30.6178 62.6237 30.3678C61.2626 30.1178 59.832 29.9928 58.332 29.9928C56.2209 29.9928 54.1931 30.2567 52.2487 30.7845C50.3043 31.3123 48.4431 32.0484 46.6654 32.9928ZM46.6654 51.3262V45.6595C48.4987 44.8817 50.3737 44.2984 52.2904 43.9095C54.207 43.5206 56.2209 43.3262 58.332 43.3262C59.7765 43.3262 61.1931 43.4373 62.582 43.6595C63.9709 43.8817 65.332 44.1595 66.6654 44.4928V49.8262C65.332 49.3262 63.9848 48.9512 62.6237 48.7012C61.2626 48.4512 59.832 48.3262 58.332 48.3262C56.2209 48.3262 54.1931 48.5762 52.2487 49.0762C50.3043 49.5762 48.4431 50.3262 46.6654 51.3262ZM46.6654 42.1595V36.4928C48.4987 35.7151 50.3737 35.1317 52.2904 34.7428C54.207 34.3539 56.2209 34.1595 58.332 34.1595C59.7765 34.1595 61.1931 34.2706 62.582 34.4928C63.9709 34.7151 65.332 34.9928 66.6654 35.3262V40.6595C65.332 40.1595 63.9848 39.7845 62.6237 39.5345C61.2626 39.2845 59.832 39.1595 58.332 39.1595C56.2209 39.1595 54.1931 39.4234 52.2487 39.9512C50.3043 40.4789 48.4431 41.2151 46.6654 42.1595ZM21.6654 53.3262C24.2765 53.3262 26.8181 53.6178 29.2904 54.2012C31.7626 54.7845 34.2209 55.6595 36.6654 56.8262V23.9928C34.3876 22.6595 31.9709 21.6595 29.4154 20.9928C26.8598 20.3262 24.2765 19.9928 21.6654 19.9928C19.6654 19.9928 17.6793 20.1873 15.707 20.5762C13.7348 20.9651 11.832 21.5484 9.9987 22.3262V55.3262C11.9431 54.6595 13.8737 54.1595 15.7904 53.8262C17.707 53.4928 19.6654 53.3262 21.6654 53.3262ZM43.332 56.8262C45.7765 55.6595 48.2348 54.7845 50.707 54.2012C53.1793 53.6178 55.7209 53.3262 58.332 53.3262C60.332 53.3262 62.2904 53.4928 64.207 53.8262C66.1237 54.1595 68.0543 54.6595 69.9987 55.3262V22.3262C68.1654 21.5484 66.2626 20.9651 64.2904 20.5762C62.3182 20.1873 60.332 19.9928 58.332 19.9928C55.7209 19.9928 53.1376 20.3262 50.582 20.9928C48.0265 21.6595 45.6098 22.6595 43.332 23.9928V56.8262ZM39.9987 66.6595C37.332 64.5484 34.4431 62.9095 31.332 61.7428C28.2209 60.5762 24.9987 59.9928 21.6654 59.9928C19.332 59.9928 17.0404 60.2984 14.7904 60.9095C12.5404 61.5206 10.3876 62.3817 8.33203 63.4928C7.16537 64.1039 6.04037 64.0762 4.95703 63.4095C3.8737 62.7428 3.33203 61.7706 3.33203 60.4928V20.3262C3.33203 19.7151 3.48481 19.1317 3.79036 18.5762C4.09592 18.0206 4.55425 17.6039 5.16536 17.3262C7.72092 15.9928 10.3876 14.9928 13.1654 14.3262C15.9431 13.6595 18.7765 13.3262 21.6654 13.3262C24.8876 13.3262 28.0404 13.7428 31.1237 14.5762C34.207 15.4095 37.1654 16.6595 39.9987 18.3262C42.832 16.6595 45.7904 15.4095 48.8737 14.5762C51.957 13.7428 55.1098 13.3262 58.332 13.3262C61.2209 13.3262 64.0543 13.6595 66.832 14.3262C69.6098 14.9928 72.2765 15.9928 74.832 17.3262C75.4432 17.6039 75.9015 18.0206 76.207 18.5762C76.5126 19.1317 76.6654 19.7151 76.6654 20.3262V60.4928C76.6654 61.7706 76.1237 62.7428 75.0404 63.4095C73.957 64.0762 72.832 64.1039 71.6654 63.4928C69.6098 62.3817 67.457 61.5206 65.207 60.9095C62.957 60.2984 60.6654 59.9928 58.332 59.9928C54.9987 59.9928 51.7765 60.5762 48.6654 61.7428C45.5543 62.9095 42.6654 64.5484 39.9987 66.6595Z" fill="#FBC213"/>
</g>
</svg>
