<svg width="60" height="60" viewBox="0 0 60 60" fill="none" xmlns="http://www.w3.org/2000/svg">
<mask id="mask0_260_2628" style="mask-type:alpha" maskUnits="userSpaceOnUse" x="0" y="0" width="60" height="60">
<rect width="60" height="60" fill="#D9D9D9"/>
</mask>
<g mask="url(#mask0_260_2628)">
<path d="M34.9985 24.7441V20.4941C36.3735 19.9108 37.7798 19.4733 39.2173 19.1816C40.6548 18.89 42.1652 18.7441 43.7485 18.7441C44.8319 18.7441 45.8944 18.8275 46.936 18.9941C47.9777 19.1608 48.9985 19.3691 49.9985 19.6191V23.6191C48.9985 23.2441 47.9881 22.9629 46.9673 22.7754C45.9465 22.5879 44.8735 22.4941 43.7485 22.4941C42.1652 22.4941 40.6444 22.6921 39.186 23.0879C37.7277 23.4837 36.3319 24.0358 34.9985 24.7441ZM34.9985 38.4941V34.2441C36.3735 33.6608 37.7798 33.2233 39.2173 32.9316C40.6548 32.64 42.1652 32.4941 43.7485 32.4941C44.8319 32.4941 45.8944 32.5775 46.936 32.7441C47.9777 32.9108 48.9985 33.1191 49.9985 33.3691V37.3691C48.9985 36.9941 47.9881 36.7129 46.9673 36.5254C45.9465 36.3379 44.8735 36.2441 43.7485 36.2441C42.1652 36.2441 40.6444 36.4316 39.186 36.8066C37.7277 37.1816 36.3319 37.7441 34.9985 38.4941ZM34.9985 31.6191V27.3691C36.3735 26.7858 37.7798 26.3483 39.2173 26.0566C40.6548 25.765 42.1652 25.6191 43.7485 25.6191C44.8319 25.6191 45.8944 25.7025 46.936 25.8691C47.9777 26.0358 48.9985 26.2441 49.9985 26.4941V30.4941C48.9985 30.1191 47.9881 29.8379 46.9673 29.6504C45.9465 29.4629 44.8735 29.3691 43.7485 29.3691C42.1652 29.3691 40.6444 29.5671 39.186 29.9629C37.7277 30.3587 36.3319 30.9108 34.9985 31.6191ZM16.2485 39.9941C18.2069 39.9941 20.1131 40.2129 21.9673 40.6504C23.8215 41.0879 25.6652 41.7441 27.4985 42.6191V17.9941C25.7902 16.9941 23.9777 16.2441 22.061 15.7441C20.1444 15.2441 18.2069 14.9941 16.2485 14.9941C14.7485 14.9941 13.259 15.14 11.7798 15.4316C10.3006 15.7233 8.87354 16.1608 7.49854 16.7441V41.4941C8.95687 40.9941 10.4048 40.6191 11.8423 40.3691C13.2798 40.1191 14.7485 39.9941 16.2485 39.9941ZM32.4985 42.6191C34.3319 41.7441 36.1756 41.0879 38.0298 40.6504C39.884 40.2129 41.7902 39.9941 43.7485 39.9941C45.2485 39.9941 46.7173 40.1191 48.1548 40.3691C49.5923 40.6191 51.0402 40.9941 52.4985 41.4941V16.7441C51.1235 16.1608 49.6965 15.7233 48.2173 15.4316C46.7381 15.14 45.2485 14.9941 43.7485 14.9941C41.7902 14.9941 39.8527 15.2441 37.936 15.7441C36.0194 16.2441 34.2069 16.9941 32.4985 17.9941V42.6191ZM29.9985 49.9941C27.9985 48.4108 25.8319 47.1816 23.4985 46.3066C21.1652 45.4316 18.7485 44.9941 16.2485 44.9941C14.4985 44.9941 12.7798 45.2233 11.0923 45.6816C9.40479 46.14 7.7902 46.7858 6.24854 47.6191C5.37354 48.0775 4.52979 48.0566 3.71729 47.5566C2.90479 47.0566 2.49854 46.3275 2.49854 45.3691V15.2441C2.49854 14.7858 2.61312 14.3483 2.84229 13.9316C3.07145 13.515 3.4152 13.2025 3.87354 12.9941C5.7902 11.9941 7.7902 11.2441 9.87354 10.7441C11.9569 10.2441 14.0819 9.99414 16.2485 9.99414C18.6652 9.99414 21.0298 10.3066 23.3423 10.9316C25.6548 11.5566 27.8735 12.4941 29.9985 13.7441C32.1235 12.4941 34.3423 11.5566 36.6548 10.9316C38.9673 10.3066 41.3319 9.99414 43.7485 9.99414C45.9152 9.99414 48.0402 10.2441 50.1235 10.7441C52.2069 11.2441 54.2069 11.9941 56.1235 12.9941C56.5819 13.2025 56.9256 13.515 57.1548 13.9316C57.384 14.3483 57.4985 14.7858 57.4985 15.2441V45.3691C57.4985 46.3275 57.0923 47.0566 56.2798 47.5566C55.4673 48.0566 54.6235 48.0775 53.7485 47.6191C52.2069 46.7858 50.5923 46.14 48.9048 45.6816C47.2173 45.2233 45.4985 44.9941 43.7485 44.9941C41.2485 44.9941 38.8319 45.4316 36.4985 46.3066C34.1652 47.1816 31.9985 48.4108 29.9985 49.9941Z" fill="white"/>
</g>
</svg>
