<svg width="3343" height="151" viewBox="0 0 3343 151" fill="none" xmlns="http://www.w3.org/2000/svg">
<path d="M31.17 119.035C33.01 117.365 26.75 109.765 43 115.345C37.72 104.445 47.34 110.455 52.75 115.345C52.61 111.325 52.48 107.565 53.67 103.625C55.14 98.7348 59.57 95.7448 62.54 92.0848C46.69 95.2048 17 119.545 5.05 99.6748C-2.32 87.4348 5.87 84.1748 5.97 75.6148C6.05 69.0948 0.81 64.6548 2.33 56.6548C8.47 24.4848 53.91 58.1148 56.69 55.1848L52.78 35.7848C47.42 38.2448 41.76 44.2648 43.03 33.8448L31.32 37.7248C33.24 25.6348 27.53 31.3048 18.71 29.8448C9.9 28.3848 1.45 17.4648 0 8.65482C10.85 10.3848 18.63 16.3148 30.26 16.5548C51.68 16.9848 76.41 0.544814 96.4 12.8448C98.8 14.3148 104 20.2548 104.55 20.2348C106.35 20.1948 109.71 9.69482 114.15 10.6348C117.14 11.5048 120.62 20.2048 122.14 20.2348C122.69 20.2348 127.89 14.3148 130.29 12.8448C151.67 -0.295186 184.47 23.3848 212.17 14.5748C217.19 12.9848 219.87 9.18482 224.76 8.65482C224.13 23.5348 207.52 34.3648 193.52 28.0548L195.46 37.7348C191.94 38.5448 187.9 35.2548 184.9 35.6548C183.9 35.7948 183.81 43.7648 173.97 35.7948C177.08 52.2848 154.4 66.5848 141.66 55.2348C135.68 49.9148 138.45 45.9248 136.75 41.0348C136.09 39.1348 133.23 39.7148 133.09 39.5248C130.33 35.4348 138.58 34.2448 140.64 32.7148C142.69 31.1848 142.52 28.2148 142.73 28.0548C144.8 26.5848 151.9 36.1648 156.35 36.8048C158.64 40.8748 150.23 39.0548 148.55 42.6048C145.21 49.7048 159.44 51.1648 161.9 44.2148C164.64 36.4748 161.33 28.3848 153.01 26.5148C119.82 19.0848 118.98 63.6548 145.76 64.7548C162.86 65.4748 242.81 20.3948 265.13 10.8348C292.59 -0.945184 323.55 -10.4352 335.22 26.1048C341.02 2.10482 360.83 -2.57518 383.23 1.71482C425.04 15.5648 468.34 47.4648 508.78 61.4148C521.31 65.7448 539.29 66.0948 542.99 49.9248C549.99 19.4248 500.36 17.2848 508.61 44.1248C511.68 54.1148 528.55 47.1348 519.81 40.6948C517.6 39.0648 512.95 41.3348 514.08 36.7948C518.75 36.6048 524.09 28.1048 524.81 28.0648C525.57 28.0248 537.18 36.0948 537.5 36.7948C539.08 40.3648 534.35 39.0648 533.67 41.0448C531.97 45.9348 534.73 49.9348 528.76 55.2448C516.02 66.5948 493.34 52.2948 496.45 35.8048C491.09 38.2648 485.45 44.2848 486.68 33.8448L474.97 37.7248L476.91 28.0448C461.8 35.1448 445.11 22.2848 444.66 6.74482C476.83 35.7948 520.03 -11.1452 549.21 20.2848C553.55 7.28482 560.31 8.85482 565.84 20.2848C593.54 -11.3252 638 35.9648 669.48 6.76482C669.03 22.3048 652.32 35.1748 637.23 28.0648L639.17 37.7448L627.46 33.8648C628.71 44.3048 623.04 38.2848 617.69 35.8248C620.8 52.3148 598.12 66.6148 585.38 55.2648C579.42 49.9448 582.17 45.9548 580.47 41.0648C579.79 39.0848 575.06 40.3848 576.64 36.8148C576.95 36.1148 588.56 28.0448 589.33 28.0848C590.05 28.1248 595.39 36.6248 600.06 36.8148C601.19 41.3548 596.54 39.0848 594.33 40.7148C585.59 47.1548 602.46 54.1448 605.53 44.1448C607.74 36.9848 605.34 27.7248 597.09 26.1748C559.52 19.0348 561.48 76.5848 605.36 61.4448C634.52 51.3748 671.43 28.0148 701 14.7448C730.57 1.47482 765.86 -14.9852 778.91 26.1348C785.63 2.38482 803.91 -3.00518 826.92 1.74482C858.86 8.36482 914.49 46.2748 948.62 59.4548C962.34 64.7548 982.57 69.4048 986.62 49.9248C993.36 17.5048 943.46 19.4848 952.22 44.2248C954.68 51.1748 968.91 49.7148 965.57 42.6148C963.91 39.0648 955.48 40.8848 957.77 36.8148C962.23 36.1748 969.32 26.6048 971.39 28.0648C971.6 28.2248 971.43 31.1848 973.48 32.7248C975.53 34.2548 983.78 35.4448 981.03 39.5348C980.89 39.7448 978.04 39.1648 977.37 41.0448C975.67 45.9148 978.43 49.9148 972.46 55.2448C959.72 66.5948 937.04 52.2948 940.15 35.8048C930.32 43.7748 930.22 35.8048 929.22 35.6648C926.25 35.2548 922.18 38.5348 918.67 37.7448L920.61 28.0648C904.66 35.3048 890.14 22.2248 888.36 6.76482C913.4 30.4148 948.19 4.76482 974.27 8.80482C982.91 10.1448 990.9 20.3148 991.98 20.2748C993.5 20.2348 996.98 11.5448 999.97 10.6748C1004.41 9.74482 1007.77 20.2248 1009.57 20.2748C1010.12 20.2748 1015.32 14.3548 1017.72 12.8848C1037.74 0.584815 1062.44 16.9948 1083.86 16.5948C1095.51 16.3648 1103.27 10.4248 1114.12 8.69481C1112.67 17.5048 1104.52 28.4448 1095.45 29.9248C1086.38 31.3948 1080.93 25.6948 1082.84 37.8048L1071.13 33.9248C1072.38 44.3448 1066.71 38.3248 1061.38 35.8648C1064.43 39.0848 1052.94 57.3848 1060.32 55.2248C1072.48 51.6548 1092.84 35.3348 1105.41 45.5048C1118.21 55.8848 1108.07 66.5148 1108.17 75.6748C1108.27 84.8348 1117.04 88.7348 1108.31 100.895C1095.12 119.265 1067.89 94.0648 1051.57 93.0948C1059.45 97.4948 1062.48 106.445 1061.38 115.405C1066.79 110.495 1076.41 104.485 1071.13 115.405C1087.39 109.815 1081.14 117.425 1082.96 119.095C1083.86 119.925 1090.25 118.955 1093.14 119.735C1104.91 122.915 1112.24 130.365 1114.11 142.575C1104.1 139.525 1094.43 133.355 1083.62 133.085C1058.39 132.445 1029.79 155.725 1008.6 129.015C1004.08 149.695 994.72 131.265 991.99 131.265C990.92 131.265 983.58 138.055 980.67 139.145C957.39 147.895 928.32 126.185 901.14 135.865C895.86 137.745 892.66 141.845 887.42 142.595C890.68 126.935 904.78 116.845 920.63 121.255C915.96 103.365 922.59 114.875 929.52 115.455C930.34 115.515 930.28 111.575 931.57 111.395C933.86 111.085 939.37 114.385 940.17 113.505C940.44 113.215 940.17 108.135 941.13 105.725C945.72 94.0648 951.96 90.7048 964.64 92.1048C978.91 93.6748 974.47 99.9048 977.44 108.205C977.6 108.655 986.29 114.745 979.86 115.425C970.87 116.375 975.15 117.505 968.54 121.265C966.92 113.855 957.97 116.375 955.83 112.515C953.13 107.585 966.91 111.525 965.58 104.815C964.82 100.995 951.45 96.7448 951.82 112.495C952.03 121.535 959.85 125.635 968.49 125.305C996.54 124.235 995.82 74.2348 951.95 89.2948C917.94 100.875 844.58 149.835 814.07 150.455C796.89 150.805 782.05 140.405 779.84 123.155L772.88 136.605C766.35 145.645 756.91 150.265 745.63 150.475C717.15 150.975 639.67 101.595 607.2 89.8448C595.61 85.6548 576.47 82.2748 571.59 97.8348C562.13 127.965 608.75 135.495 606.05 108.585C605.21 100.165 598.45 99.1748 592.21 104.765C590.86 111.475 604.66 107.535 601.94 112.465C599.93 116.115 594.96 114.525 592.69 115.915C591.2 116.825 589.92 123.775 586.36 121.215C584.74 120.035 588.78 116.865 577.94 115.355C571.76 114.485 580.11 108.525 580.29 108.095C581.72 104.545 581.87 96.2948 585.69 93.9348C599.59 85.2848 622.28 97.7148 617.63 115.435C626.86 106.875 627.52 115.275 628.22 115.265C630.31 115.165 633.89 112.355 637.15 113.495V121.275C652.81 116.095 667.13 127.305 670.38 142.595C660.84 138.485 653.14 132.935 642.02 132.735C617.51 132.325 583.09 154.095 565.81 128.995C563.91 128.895 564.42 138.195 557.95 138.855C549.62 139.685 552.18 131.675 547.28 129.035C532.11 154.165 495.6 132.375 472.01 132.745C460.91 132.915 453.21 138.465 443.65 142.605C446.89 127.315 461.22 116.105 476.86 121.285V113.505C480.12 112.365 483.7 115.175 485.81 115.275C486.51 115.315 487.16 106.895 496.4 115.445C494.86 98.5248 504.43 90.8248 520.87 92.1448C533.48 93.1748 530.33 99.4048 533.73 108.115C534.45 109.975 537.37 110.075 537.5 110.555C539.47 117.615 534.74 114.375 530.95 115.735C527.45 116.995 527.94 121.015 527.65 121.225C524.05 123.765 522.82 116.855 521.32 115.925C519.05 114.525 513.97 116.085 512.07 112.475C509.53 107.645 520.85 111.055 521.82 106.655C521.64 100.135 510.11 99.9248 508.43 105.025C504.66 116.395 511.13 124.775 522.84 125.265C552 126.485 553.43 73.7148 508.18 89.2548C470.44 102.215 430.35 130.525 392.19 144.865C367.62 154.105 341.82 152.625 336.11 123.195L329.15 136.645C322.64 145.645 313.2 150.265 301.94 150.475C272.72 150.995 196.29 101.695 163.51 89.8448C144.77 83.0548 123.23 85.5748 127.12 110.435C129.89 128.115 161.87 130.865 162.28 112.455C162.65 96.6948 149.26 100.945 148.52 104.775C147.17 111.485 160.97 107.545 158.27 112.475C156.14 116.335 147.19 113.815 145.57 121.225C138.96 117.485 143.24 116.335 134.25 115.385C127.8 114.705 136.5 108.615 136.67 108.165C139.64 99.8648 135.18 93.6348 149.47 92.0648C162.18 90.6648 168.41 94.0248 172.98 105.685C173.94 108.095 173.66 113.175 173.94 113.465C174.74 114.335 180.23 111.035 182.54 111.355C183.83 111.525 183.77 115.465 184.59 115.415C191.53 114.855 198.16 103.345 193.48 121.215C209.31 116.815 223.43 126.905 226.69 142.555C221.45 141.795 218.25 137.705 212.97 135.825C185.78 126.165 156.72 147.855 133.44 139.105C130.53 138.015 123.2 131.225 122.12 131.225C119.38 131.225 110.02 149.655 105.51 128.975C84.32 155.695 55.73 132.405 30.49 133.045C19.68 133.315 9.99 139.485 0 142.535C2.44 129.765 8.31 122.895 20.99 119.715C23.88 118.995 30.31 119.835 31.15 119.055L31.11 119.075L31.17 119.035ZM64.5 76.5448C66.63 73.6948 26.21 56.5248 20.77 57.6048C10.02 59.7348 21.55 71.0948 21.4 75.6148C21.26 79.4348 11.06 89.5248 18.86 91.8948C29.3 95.0548 53.16 78.3548 64.5 76.5648V76.5448ZM85.49 54.7148C83.81 56.5048 75.99 59.1148 73.25 59.2348L58.65 57.1248C79.84 66.0348 101.95 69.5448 97.59 38.8448C94.33 15.7548 57.01 21.3648 64.77 44.2748C66.27 48.7348 72.41 47.4148 76.22 47.4348V39.6948L68.42 36.8048C75.83 32.4048 77.74 35.5048 81.11 26.1348C84.3 32.1148 88.36 33.5048 93.8 36.7848C95.13 41.8448 89.21 38.5848 88.15 39.7748C87 41.0748 89.32 50.6448 85.47 54.6948L85.49 54.7148ZM76.22 101.785C59.16 100.445 59.57 123.555 77.2 125.145C90.06 126.305 96.61 121.345 97.74 108.555C99.85 84.7048 83.49 82.5348 64.51 90.1648L80.69 92.4948C91.21 95.5048 86.65 109.685 88.14 111.395C89.14 112.555 95.94 109.285 93.81 115.375C83.25 112.055 85.58 121.975 84.02 123.135C79.37 126.585 78.41 115.855 78.06 115.435C77.75 115.065 71 118.115 68.42 115.355C64.53 111.205 74.24 111.375 75.36 109.705C76.92 107.375 76.1 104.345 76.22 101.805V101.785ZM111.44 51.3348C115.27 58.9048 99.38 72.6948 99.85 75.2948C100.3 77.7548 113.71 90.7048 112.4 97.8948C113.67 97.9148 116 88.1148 117.58 85.5548C121.88 78.5848 133.41 75.5848 121.47 69.5448L111.44 51.3248V51.3348ZM289.3 84.3248H253.14C247.06 84.3248 247.73 101.575 249.25 105.625C238.54 101.885 233.73 95.4548 232.6 84.3248C222.69 89.8148 210.77 88.0548 202.6 80.1948C190.79 68.8448 224.73 56.0148 232.6 66.8648C234.07 58.9248 236.35 48.1748 245.36 45.5648C249.01 44.4948 247.96 46.1648 248.25 48.4148C248.64 51.5148 247.98 66.8648 253.14 66.8648H282.46C283.16 66.8648 285.45 64.4048 287.35 64.8648C284.83 60.2648 283.93 42.1848 281.62 40.5348C278.28 38.1448 270.87 42.4548 271.73 36.8248C273.94 31.3748 282.62 31.4348 284.92 29.5448C287.38 27.5248 286.13 17.7248 293.33 23.1048C295.09 24.4248 294.83 29.2948 297.16 30.9448C299.8 32.8248 306.84 31.7248 308.85 36.8048C310.86 41.8848 301.36 37.2748 297.3 42.7648C287.43 56.1348 313.91 61.9748 319.72 43.6748C323.88 30.5148 314.93 15.1948 300.45 15.1148C289.92 15.0548 271.05 25.0648 260.65 29.6448C235.02 40.9148 193.35 58.2448 170.7 72.2948C169.59 72.9948 165.23 75.2448 166.2 76.5248L284.08 131.245C306.23 145.275 332.71 119.375 315.84 99.7148C300.03 81.2648 282.94 111.585 308.86 112.445C302.74 119.085 295.08 120.635 290.29 128.915C286.36 127.595 286.05 120.535 284.99 119.675C282.39 117.525 272.42 120.475 271.72 111.505C288.57 113.405 280.98 94.0048 289.31 84.3248H289.29H289.3ZM334.27 45.5348C332.26 59.7748 322.52 67.4248 312.75 76.5248C324.93 81.0448 331.42 93.9648 335.23 105.685C338.2 92.6048 345.39 81.6048 357.71 75.5948L344.03 63.9348L334.28 45.5248V45.5448L334.27 45.5348ZM386.05 66.8648C390.64 68.2048 408.76 66.8648 415.37 66.8648C423.46 66.8648 421.62 53.0148 422.21 48.4148C422.5 46.1848 421.41 44.4948 425.1 45.5648C434.97 48.4148 437.16 60.0048 435.91 68.8148C441.87 57.3448 469.39 64.8948 470.92 73.9348C471.82 79.2348 456.85 87.2448 451.98 87.8648C443.71 88.9148 442.85 83.6748 435.91 82.4148C437.84 91.4948 432.24 102.845 423.17 105.665C418.09 107.235 422.94 96.6048 421.86 91.5948C421.47 89.7948 418.54 84.3348 417.35 84.3348H381.19C389.22 94.6348 380.06 114.995 398.74 110.505C397.31 121.295 389.53 116.865 385.53 119.685C384.28 120.555 381.76 132.255 377.3 128.955C376.97 128.705 376.64 123.545 374.31 121.235C371.51 118.445 364.13 117.625 361.64 112.465C368.85 112.655 378.61 104.835 373.5 97.3348C365.56 85.6348 339.04 105.155 353.8 126.055C363.71 140.085 377.16 134.355 390.31 129.315L504.31 76.5548C505.85 74.5348 487.77 66.3148 485.47 65.2048C455.56 50.8448 418.62 31.3648 388.36 19.9548C367.97 12.2748 345.67 15.0848 350.36 42.1548C353.9 62.6648 383.08 55.9548 373.23 42.8148C369.11 37.3048 359.65 41.9248 361.66 36.8148C363.81 31.4548 370.67 33.0348 372.94 31.5148C374.46 30.4848 374.6 24.7648 377.2 23.1148C384.94 18.1848 382.81 27.2648 385.58 29.5348C387.89 31.4148 396.56 31.3548 398.77 36.8148C399.57 42.3848 392.61 38.1748 388.94 40.5748C386.11 42.4348 381.02 65.3748 386.09 66.8448L386.05 66.8648ZM555.15 55.2148C554.84 55.5248 554.76 60.8448 552.92 63.6948C550.79 66.9948 542.99 72.3448 543.52 75.3348C543.7 76.2848 551.46 84.0248 553.31 87.0948C555.85 91.3048 553.08 97.3048 559 95.9848C555.46 88.5148 571.2 77.2948 570.61 73.9248C570.34 72.3148 563.22 66.5548 561.21 63.6948C559.74 61.6148 559.06 51.3948 555.11 55.2148H555.15ZM733 84.3248H696.84C695.65 84.3248 692.72 89.7748 692.32 91.5848C691.23 96.5948 696.07 107.225 691.01 105.655C681.94 102.845 676.33 91.4948 678.27 82.4048C671.33 83.6648 670.45 88.9248 662.2 87.8548C657.33 87.2348 642.36 79.2248 643.26 73.9248C644.78 64.8848 672.31 57.3348 678.27 68.8048C677.02 59.9748 679.21 48.4148 689.08 45.5548C692.75 44.4848 691.68 46.1748 691.97 48.4048C692.58 53.0048 690.74 66.8548 698.81 66.8548H728.13C732.49 66.8548 728.58 42.7348 725.28 40.5848C721.61 38.1748 714.63 42.3748 715.45 36.8248C717.66 31.3748 726.34 31.4348 728.64 29.5448C731.42 27.2748 729.28 18.1948 737.03 23.1248C739.63 24.7748 739.77 30.4948 741.29 31.5248C743.56 33.0348 750.42 31.4648 752.57 36.8248C754.58 41.9248 745.12 37.3148 741 42.8248C731.15 55.9648 760.33 62.6548 763.87 42.1648C768.56 15.0948 746.24 12.2848 725.87 19.9648C695.59 31.3748 658.67 50.8548 628.76 65.2148C626.45 66.3248 608.37 74.5248 609.92 76.5648C654.82 93.9148 696.2 119.875 741.92 134.895C761.29 136.755 773.33 110.195 757.54 97.9348C739.58 83.9848 730.45 111.575 752.61 111.555C750.93 117.255 744.69 117.885 741.08 120.465C738.23 122.505 738.85 126.265 734.08 127.125C728.92 128.035 731.3 121.475 728.74 119.715C724.73 116.945 716.93 121.385 715.51 110.575C734.2 115.055 725.03 94.7048 733.06 84.4048L733 84.3448V84.3248ZM777.98 45.5148C776.73 60.2648 766 67.3448 756.46 76.5248C769.46 80.7948 775.79 93.4448 778.94 105.685C782.61 93.2648 789.69 81.9948 801.42 75.5948L789.71 65.8748L778 45.5248H777.98V45.5148ZM831.71 66.8648C839.37 68.1048 852.53 66.8648 861.03 66.8648C866.19 66.8648 865.53 51.5148 865.92 48.4148C866.21 46.1648 865.14 44.4948 868.81 45.5648C877.82 48.1848 880.11 58.9548 881.57 66.8648C889.45 56.0148 923.38 68.8648 911.57 80.1948C903.4 88.0548 891.48 89.8148 881.57 84.3248C880.42 95.4448 875.61 101.865 864.92 105.625C866.44 101.585 867.11 84.3248 861.03 84.3248H824.87C833.22 94.0048 825.61 113.415 842.46 111.505C841.76 120.465 831.79 117.515 829.19 119.675C828.13 120.545 827.82 127.595 823.89 128.915C819.1 120.625 811.44 119.095 805.32 112.445C828.58 111.905 818.14 84.0948 800.39 97.8948C779.34 114.235 806.41 147.125 830.1 131.265L947.98 76.5448C948.96 75.2448 944.6 72.9948 943.48 72.3148C920.83 58.2648 879.15 40.9448 853.53 29.6648C843.13 25.0848 824.27 15.0748 813.73 15.1348C799.23 15.2148 790.27 30.5448 794.46 43.6948C800.25 61.9748 826.75 56.1348 816.88 42.7848C812.83 37.2948 803.29 41.9748 805.33 36.8248C807.36 31.6848 814.38 32.8448 817.02 30.9648C819.35 29.2948 819.07 24.4448 820.85 23.1248C828.04 17.7348 826.79 27.5448 829.25 29.5648C831.56 31.4448 840.24 31.3848 842.44 36.8448C843.3 42.4948 835.87 38.1648 832.55 40.5548C830.24 42.2048 829.34 60.2848 826.82 64.8848C828.81 64.4548 830.65 66.7048 831.71 66.8848L831.69 66.8648H831.71ZM987.18 72.7948C985.15 75.8248 993.81 81.3948 995.8 84.3948C998.71 88.8148 998.63 95.3948 1002.7 97.8848C999.87 90.9548 1014.74 76.3448 1014.33 73.9048C1013.88 71.3048 998.91 59.6648 1002.72 51.3348L992.69 69.5548C992.06 71.7448 987.39 72.4848 987.2 72.7748L987.18 72.7948ZM1049.63 90.1648C1007.62 67.9648 1003.95 135.725 1041.93 124.175C1053.91 120.525 1052.93 99.9248 1038.9 101.765C1032.82 110.345 1046.03 111.775 1045.72 112.435C1042.44 119.405 1036.46 114.995 1036.06 115.405C1035.57 115.895 1036.22 121.365 1032.99 123.105C1028.89 125.335 1029.51 116.685 1027.85 115.615C1025.09 113.845 1018.74 118.275 1020.32 111.485C1031.95 113.855 1021.18 99.6848 1030.95 93.9048L1049.62 90.1648H1049.63ZM1020.88 28.5948C1015.15 34.2848 1014.08 54.6148 1020.39 60.0048C1029.19 67.4948 1046.02 60.8348 1055.49 57.1348L1040.89 59.2448C1034.64 57.8648 1028.15 56.8948 1026.64 49.9848C1025.14 43.0748 1029.32 38.0548 1020.31 39.6848C1020.82 32.9748 1030.51 33.6148 1033.02 26.1448C1036.38 35.5148 1038.3 32.3948 1045.71 36.8148L1037.89 39.7048V47.4448C1047.6 48.9948 1049.95 46.5748 1049.74 36.8348C1049.41 22.8448 1028.85 20.6948 1020.87 28.6048L1020.89 28.5848L1020.88 28.5948ZM1049.65 76.5448C1060.99 78.3348 1084.83 95.0548 1095.29 91.8748C1103.09 89.5048 1092.89 79.4148 1092.75 75.5948C1092.59 71.0748 1104.13 59.7248 1093.38 57.5848C1087.93 56.4948 1047.52 73.6748 1049.65 76.5248V76.5448Z" fill="#A38F10"/>
<path d="M1145.17 119.035C1147.01 117.365 1140.75 109.765 1157 115.345C1151.72 104.445 1161.34 110.455 1166.75 115.345C1166.61 111.325 1166.48 107.565 1167.67 103.625C1169.14 98.7348 1173.57 95.7448 1176.54 92.0848C1160.69 95.2048 1131 119.545 1119.05 99.6748C1111.68 87.4348 1119.87 84.1748 1119.97 75.6148C1120.05 69.0948 1114.81 64.6548 1116.33 56.6548C1122.47 24.4848 1167.91 58.1148 1170.69 55.1848L1166.78 35.7848C1161.42 38.2448 1155.76 44.2648 1157.03 33.8448L1145.32 37.7248C1147.24 25.6348 1141.53 31.3048 1132.71 29.8448C1123.9 28.3848 1115.45 17.4648 1114 8.65482C1124.85 10.3848 1132.63 16.3148 1144.26 16.5548C1165.68 16.9848 1190.41 0.544814 1210.4 12.8448C1212.8 14.3148 1218 20.2548 1218.55 20.2348C1220.35 20.1948 1223.71 9.69482 1228.15 10.6348C1231.14 11.5048 1234.62 20.2048 1236.14 20.2348C1236.69 20.2348 1241.89 14.3148 1244.29 12.8448C1265.67 -0.295186 1298.47 23.3848 1326.17 14.5748C1331.19 12.9848 1333.87 9.18482 1338.76 8.65482C1338.13 23.5348 1321.52 34.3648 1307.52 28.0548L1309.46 37.7348C1305.94 38.5448 1301.9 35.2548 1298.9 35.6548C1297.9 35.7948 1297.81 43.7648 1287.97 35.7948C1291.08 52.2848 1268.4 66.5848 1255.66 55.2348C1249.68 49.9148 1252.45 45.9248 1250.75 41.0348C1250.09 39.1348 1247.23 39.7148 1247.09 39.5248C1244.33 35.4348 1252.58 34.2448 1254.64 32.7148C1256.69 31.1848 1256.52 28.2148 1256.73 28.0548C1258.8 26.5848 1265.9 36.1648 1270.35 36.8048C1272.64 40.8748 1264.23 39.0548 1262.55 42.6048C1259.21 49.7048 1273.44 51.1648 1275.9 44.2148C1278.64 36.4748 1275.33 28.3848 1267.01 26.5148C1233.82 19.0848 1232.98 63.6548 1259.76 64.7548C1276.86 65.4748 1356.81 20.3948 1379.13 10.8348C1406.59 -0.945184 1437.55 -10.4352 1449.22 26.1048C1455.02 2.10482 1474.83 -2.57518 1497.23 1.71482C1539.04 15.5648 1582.34 47.4648 1622.78 61.4148C1635.31 65.7448 1653.29 66.0948 1656.99 49.9248C1663.99 19.4248 1614.36 17.2848 1622.61 44.1248C1625.68 54.1148 1642.55 47.1348 1633.81 40.6948C1631.6 39.0648 1626.95 41.3348 1628.08 36.7948C1632.75 36.6048 1638.09 28.1048 1638.81 28.0648C1639.57 28.0248 1651.18 36.0948 1651.5 36.7948C1653.08 40.3648 1648.35 39.0648 1647.67 41.0448C1645.97 45.9348 1648.73 49.9348 1642.76 55.2448C1630.02 66.5948 1607.34 52.2948 1610.45 35.8048C1605.09 38.2648 1599.45 44.2848 1600.68 33.8448L1588.97 37.7248L1590.91 28.0448C1575.8 35.1448 1559.11 22.2848 1558.66 6.74482C1590.83 35.7948 1634.03 -11.1452 1663.21 20.2848C1667.55 7.28482 1674.31 8.85482 1679.84 20.2848C1707.54 -11.3252 1752 35.9648 1783.48 6.76482C1783.03 22.3048 1766.32 35.1748 1751.23 28.0648L1753.17 37.7448L1741.46 33.8648C1742.71 44.3048 1737.04 38.2848 1731.69 35.8248C1734.8 52.3148 1712.12 66.6148 1699.38 55.2648C1693.42 49.9448 1696.17 45.9548 1694.47 41.0648C1693.79 39.0848 1689.06 40.3848 1690.64 36.8148C1690.95 36.1148 1702.56 28.0448 1703.33 28.0848C1704.05 28.1248 1709.39 36.6248 1714.06 36.8148C1715.19 41.3548 1710.54 39.0848 1708.33 40.7148C1699.59 47.1548 1716.46 54.1448 1719.53 44.1448C1721.74 36.9848 1719.34 27.7248 1711.09 26.1748C1673.52 19.0348 1675.48 76.5848 1719.36 61.4448C1748.52 51.3748 1785.43 28.0148 1815 14.7448C1844.57 1.47482 1879.86 -14.9852 1892.91 26.1348C1899.63 2.38482 1917.91 -3.00518 1940.92 1.74482C1972.86 8.36482 2028.49 46.2748 2062.62 59.4548C2076.34 64.7548 2096.57 69.4048 2100.62 49.9248C2107.36 17.5048 2057.46 19.4848 2066.22 44.2248C2068.68 51.1748 2082.91 49.7148 2079.57 42.6148C2077.91 39.0648 2069.48 40.8848 2071.77 36.8148C2076.23 36.1748 2083.32 26.6048 2085.39 28.0648C2085.6 28.2248 2085.43 31.1848 2087.48 32.7248C2089.53 34.2548 2097.78 35.4448 2095.03 39.5348C2094.89 39.7448 2092.04 39.1648 2091.37 41.0448C2089.67 45.9148 2092.43 49.9148 2086.46 55.2448C2073.72 66.5948 2051.04 52.2948 2054.15 35.8048C2044.32 43.7748 2044.22 35.8048 2043.22 35.6648C2040.25 35.2548 2036.18 38.5348 2032.67 37.7448L2034.61 28.0648C2018.66 35.3048 2004.14 22.2248 2002.36 6.76482C2027.4 30.4148 2062.19 4.76482 2088.27 8.80482C2096.91 10.1448 2104.9 20.3148 2105.98 20.2748C2107.5 20.2348 2110.98 11.5448 2113.97 10.6748C2118.41 9.74482 2121.77 20.2248 2123.57 20.2748C2124.12 20.2748 2129.32 14.3548 2131.72 12.8848C2151.74 0.584815 2176.44 16.9948 2197.86 16.5948C2209.51 16.3648 2217.27 10.4248 2228.12 8.69481C2226.67 17.5048 2218.52 28.4448 2209.45 29.9248C2200.38 31.3948 2194.93 25.6948 2196.84 37.8048L2185.13 33.9248C2186.38 44.3448 2180.71 38.3248 2175.38 35.8648C2178.43 39.0848 2166.94 57.3848 2174.32 55.2248C2186.48 51.6548 2206.84 35.3348 2219.41 45.5048C2232.21 55.8848 2222.07 66.5148 2222.17 75.6748C2222.27 84.8348 2231.04 88.7348 2222.31 100.895C2209.12 119.265 2181.89 94.0648 2165.57 93.0948C2173.45 97.4948 2176.48 106.445 2175.38 115.405C2180.79 110.495 2190.41 104.485 2185.13 115.405C2201.39 109.815 2195.14 117.425 2196.96 119.095C2197.86 119.925 2204.25 118.955 2207.14 119.735C2218.91 122.915 2226.24 130.365 2228.11 142.575C2218.1 139.525 2208.43 133.355 2197.62 133.085C2172.39 132.445 2143.79 155.725 2122.6 129.015C2118.08 149.695 2108.72 131.265 2105.99 131.265C2104.92 131.265 2097.58 138.055 2094.67 139.145C2071.39 147.895 2042.32 126.185 2015.14 135.865C2009.86 137.745 2006.66 141.845 2001.42 142.595C2004.68 126.935 2018.78 116.845 2034.63 121.255C2029.96 103.365 2036.59 114.875 2043.52 115.455C2044.34 115.515 2044.28 111.575 2045.57 111.395C2047.86 111.085 2053.37 114.385 2054.17 113.505C2054.44 113.215 2054.17 108.135 2055.13 105.725C2059.72 94.0648 2065.96 90.7048 2078.64 92.1048C2092.91 93.6748 2088.47 99.9048 2091.44 108.205C2091.6 108.655 2100.29 114.745 2093.86 115.425C2084.87 116.375 2089.15 117.505 2082.54 121.265C2080.92 113.855 2071.97 116.375 2069.83 112.515C2067.13 107.585 2080.91 111.525 2079.58 104.815C2078.82 100.995 2065.45 96.7448 2065.82 112.495C2066.03 121.535 2073.85 125.635 2082.49 125.305C2110.54 124.235 2109.82 74.2348 2065.95 89.2948C2031.94 100.875 1958.58 149.835 1928.07 150.455C1910.89 150.805 1896.05 140.405 1893.84 123.155L1886.88 136.605C1880.35 145.645 1870.91 150.265 1859.63 150.475C1831.15 150.975 1753.67 101.595 1721.2 89.8448C1709.61 85.6548 1690.47 82.2748 1685.59 97.8348C1676.13 127.965 1722.75 135.495 1720.05 108.585C1719.21 100.165 1712.45 99.1748 1706.21 104.765C1704.86 111.475 1718.66 107.535 1715.94 112.465C1713.93 116.115 1708.96 114.525 1706.69 115.915C1705.2 116.825 1703.92 123.775 1700.36 121.215C1698.74 120.035 1702.78 116.865 1691.94 115.355C1685.76 114.485 1694.11 108.525 1694.29 108.095C1695.72 104.545 1695.87 96.2948 1699.69 93.9348C1713.59 85.2848 1736.28 97.7148 1731.63 115.435C1740.86 106.875 1741.52 115.275 1742.22 115.265C1744.31 115.165 1747.89 112.355 1751.15 113.495V121.275C1766.81 116.095 1781.13 127.305 1784.38 142.595C1774.84 138.485 1767.14 132.935 1756.02 132.735C1731.51 132.325 1697.09 154.095 1679.81 128.995C1677.91 128.895 1678.42 138.195 1671.95 138.855C1663.62 139.685 1666.18 131.675 1661.28 129.035C1646.11 154.165 1609.6 132.375 1586.01 132.745C1574.91 132.915 1567.21 138.465 1557.65 142.605C1560.89 127.315 1575.22 116.105 1590.86 121.285V113.505C1594.12 112.365 1597.7 115.175 1599.81 115.275C1600.51 115.315 1601.16 106.895 1610.4 115.445C1608.86 98.5248 1618.43 90.8248 1634.87 92.1448C1647.48 93.1748 1644.33 99.4048 1647.73 108.115C1648.45 109.975 1651.37 110.075 1651.5 110.555C1653.47 117.615 1648.74 114.375 1644.95 115.735C1641.45 116.995 1641.94 121.015 1641.65 121.225C1638.05 123.765 1636.82 116.855 1635.32 115.925C1633.05 114.525 1627.97 116.085 1626.07 112.475C1623.53 107.645 1634.85 111.055 1635.82 106.655C1635.64 100.135 1624.11 99.9248 1622.43 105.025C1618.66 116.395 1625.13 124.775 1636.84 125.265C1666 126.485 1667.43 73.7148 1622.18 89.2548C1584.44 102.215 1544.35 130.525 1506.19 144.865C1481.62 154.105 1455.82 152.625 1450.11 123.195L1443.15 136.645C1436.64 145.645 1427.2 150.265 1415.94 150.475C1386.72 150.995 1310.29 101.695 1277.51 89.8448C1258.77 83.0548 1237.23 85.5748 1241.12 110.435C1243.89 128.115 1275.87 130.865 1276.28 112.455C1276.65 96.6948 1263.26 100.945 1262.52 104.775C1261.17 111.485 1274.97 107.545 1272.27 112.475C1270.14 116.335 1261.19 113.815 1259.57 121.225C1252.96 117.485 1257.24 116.335 1248.25 115.385C1241.8 114.705 1250.5 108.615 1250.67 108.165C1253.64 99.8648 1249.18 93.6348 1263.47 92.0648C1276.18 90.6648 1282.41 94.0248 1286.98 105.685C1287.94 108.095 1287.66 113.175 1287.94 113.465C1288.74 114.335 1294.23 111.035 1296.54 111.355C1297.83 111.525 1297.77 115.465 1298.59 115.415C1305.53 114.855 1312.16 103.345 1307.48 121.215C1323.31 116.815 1337.43 126.905 1340.69 142.555C1335.45 141.795 1332.25 137.705 1326.97 135.825C1299.78 126.165 1270.72 147.855 1247.44 139.105C1244.53 138.015 1237.2 131.225 1236.12 131.225C1233.38 131.225 1224.02 149.655 1219.51 128.975C1198.32 155.695 1169.73 132.405 1144.49 133.045C1133.68 133.315 1123.99 139.485 1114 142.535C1116.44 129.765 1122.31 122.895 1134.99 119.715C1137.88 118.995 1144.31 119.835 1145.15 119.055L1145.11 119.075L1145.17 119.035ZM1178.5 76.5448C1180.63 73.6948 1140.21 56.5248 1134.77 57.6048C1124.02 59.7348 1135.55 71.0948 1135.4 75.6148C1135.26 79.4348 1125.06 89.5248 1132.86 91.8948C1143.3 95.0548 1167.16 78.3548 1178.5 76.5648V76.5448ZM1199.49 54.7148C1197.81 56.5048 1189.99 59.1148 1187.25 59.2348L1172.65 57.1248C1193.84 66.0348 1215.95 69.5448 1211.59 38.8448C1208.33 15.7548 1171.01 21.3648 1178.77 44.2748C1180.27 48.7348 1186.41 47.4148 1190.22 47.4348V39.6948L1182.42 36.8048C1189.83 32.4048 1191.74 35.5048 1195.11 26.1348C1198.3 32.1148 1202.36 33.5048 1207.8 36.7848C1209.13 41.8448 1203.21 38.5848 1202.15 39.7748C1201 41.0748 1203.32 50.6448 1199.47 54.6948L1199.49 54.7148ZM1190.22 101.785C1173.16 100.445 1173.57 123.555 1191.2 125.145C1204.06 126.305 1210.61 121.345 1211.74 108.555C1213.85 84.7048 1197.49 82.5348 1178.51 90.1648L1194.69 92.4948C1205.21 95.5048 1200.65 109.685 1202.14 111.395C1203.14 112.555 1209.94 109.285 1207.81 115.375C1197.25 112.055 1199.58 121.975 1198.02 123.135C1193.37 126.585 1192.41 115.855 1192.06 115.435C1191.75 115.065 1185 118.115 1182.42 115.355C1178.53 111.205 1188.24 111.375 1189.36 109.705C1190.92 107.375 1190.1 104.345 1190.22 101.805V101.785ZM1225.44 51.3348C1229.27 58.9048 1213.38 72.6948 1213.85 75.2948C1214.3 77.7548 1227.71 90.7048 1226.4 97.8948C1227.67 97.9148 1230 88.1148 1231.58 85.5548C1235.88 78.5848 1247.41 75.5848 1235.47 69.5448L1225.44 51.3248V51.3348ZM1403.3 84.3248H1367.14C1361.06 84.3248 1361.73 101.575 1363.25 105.625C1352.54 101.885 1347.73 95.4548 1346.6 84.3248C1336.69 89.8148 1324.77 88.0548 1316.6 80.1948C1304.79 68.8448 1338.73 56.0148 1346.6 66.8648C1348.07 58.9248 1350.35 48.1748 1359.36 45.5648C1363.01 44.4948 1361.96 46.1648 1362.25 48.4148C1362.64 51.5148 1361.98 66.8648 1367.14 66.8648H1396.46C1397.16 66.8648 1399.45 64.4048 1401.35 64.8648C1398.83 60.2648 1397.93 42.1848 1395.62 40.5348C1392.28 38.1448 1384.87 42.4548 1385.73 36.8248C1387.94 31.3748 1396.62 31.4348 1398.92 29.5448C1401.38 27.5248 1400.13 17.7248 1407.33 23.1048C1409.09 24.4248 1408.83 29.2948 1411.16 30.9448C1413.8 32.8248 1420.84 31.7248 1422.85 36.8048C1424.86 41.8848 1415.36 37.2748 1411.3 42.7648C1401.43 56.1348 1427.91 61.9748 1433.72 43.6748C1437.88 30.5148 1428.93 15.1948 1414.45 15.1148C1403.92 15.0548 1385.05 25.0648 1374.65 29.6448C1349.02 40.9148 1307.35 58.2448 1284.7 72.2948C1283.59 72.9948 1279.23 75.2448 1280.2 76.5248L1398.08 131.245C1420.23 145.275 1446.71 119.375 1429.84 99.7148C1414.03 81.2648 1396.94 111.585 1422.86 112.445C1416.74 119.085 1409.08 120.635 1404.29 128.915C1400.36 127.595 1400.05 120.535 1398.99 119.675C1396.39 117.525 1386.42 120.475 1385.72 111.505C1402.57 113.405 1394.98 94.0048 1403.31 84.3248H1403.29H1403.3ZM1448.27 45.5348C1446.26 59.7748 1436.52 67.4248 1426.75 76.5248C1438.93 81.0448 1445.42 93.9648 1449.23 105.685C1452.2 92.6048 1459.39 81.6048 1471.71 75.5948L1458.03 63.9348L1448.28 45.5248V45.5448L1448.27 45.5348ZM1500.05 66.8648C1504.64 68.2048 1522.76 66.8648 1529.37 66.8648C1537.46 66.8648 1535.62 53.0148 1536.21 48.4148C1536.5 46.1848 1535.41 44.4948 1539.1 45.5648C1548.97 48.4148 1551.16 60.0048 1549.91 68.8148C1555.87 57.3448 1583.39 64.8948 1584.92 73.9348C1585.82 79.2348 1570.85 87.2448 1565.98 87.8648C1557.71 88.9148 1556.85 83.6748 1549.91 82.4148C1551.84 91.4948 1546.24 102.845 1537.17 105.665C1532.09 107.235 1536.94 96.6048 1535.86 91.5948C1535.47 89.7948 1532.54 84.3348 1531.35 84.3348H1495.19C1503.22 94.6348 1494.06 114.995 1512.74 110.505C1511.31 121.295 1503.53 116.865 1499.53 119.685C1498.28 120.555 1495.76 132.255 1491.3 128.955C1490.97 128.705 1490.64 123.545 1488.31 121.235C1485.51 118.445 1478.13 117.625 1475.64 112.465C1482.85 112.655 1492.61 104.835 1487.5 97.3348C1479.56 85.6348 1453.04 105.155 1467.8 126.055C1477.71 140.085 1491.16 134.355 1504.31 129.315L1618.31 76.5548C1619.85 74.5348 1601.77 66.3148 1599.47 65.2048C1569.56 50.8448 1532.62 31.3648 1502.36 19.9548C1481.97 12.2748 1459.67 15.0848 1464.36 42.1548C1467.9 62.6648 1497.08 55.9548 1487.23 42.8148C1483.11 37.3048 1473.65 41.9248 1475.66 36.8148C1477.81 31.4548 1484.67 33.0348 1486.94 31.5148C1488.46 30.4848 1488.6 24.7648 1491.2 23.1148C1498.94 18.1848 1496.81 27.2648 1499.58 29.5348C1501.89 31.4148 1510.56 31.3548 1512.77 36.8148C1513.57 42.3848 1506.61 38.1748 1502.94 40.5748C1500.11 42.4348 1495.02 65.3748 1500.09 66.8448L1500.05 66.8648ZM1669.15 55.2148C1668.84 55.5248 1668.76 60.8448 1666.92 63.6948C1664.79 66.9948 1656.99 72.3448 1657.52 75.3348C1657.7 76.2848 1665.46 84.0248 1667.31 87.0948C1669.85 91.3048 1667.08 97.3048 1673 95.9848C1669.46 88.5148 1685.2 77.2948 1684.61 73.9248C1684.34 72.3148 1677.22 66.5548 1675.21 63.6948C1673.74 61.6148 1673.06 51.3948 1669.11 55.2148H1669.15ZM1847 84.3248H1810.84C1809.65 84.3248 1806.72 89.7748 1806.32 91.5848C1805.23 96.5948 1810.07 107.225 1805.01 105.655C1795.94 102.845 1790.33 91.4948 1792.27 82.4048C1785.33 83.6648 1784.45 88.9248 1776.2 87.8548C1771.33 87.2348 1756.36 79.2248 1757.26 73.9248C1758.78 64.8848 1786.31 57.3348 1792.27 68.8048C1791.02 59.9748 1793.21 48.4148 1803.08 45.5548C1806.75 44.4848 1805.68 46.1748 1805.97 48.4048C1806.58 53.0048 1804.74 66.8548 1812.81 66.8548H1842.13C1846.49 66.8548 1842.58 42.7348 1839.28 40.5848C1835.61 38.1748 1828.63 42.3748 1829.45 36.8248C1831.66 31.3748 1840.34 31.4348 1842.64 29.5448C1845.42 27.2748 1843.28 18.1948 1851.03 23.1248C1853.63 24.7748 1853.77 30.4948 1855.29 31.5248C1857.56 33.0348 1864.42 31.4648 1866.57 36.8248C1868.58 41.9248 1859.12 37.3148 1855 42.8248C1845.15 55.9648 1874.33 62.6548 1877.87 42.1648C1882.56 15.0948 1860.24 12.2848 1839.87 19.9648C1809.59 31.3748 1772.67 50.8548 1742.76 65.2148C1740.45 66.3248 1722.37 74.5248 1723.92 76.5648C1768.82 93.9148 1810.2 119.875 1855.92 134.895C1875.29 136.755 1887.33 110.195 1871.54 97.9348C1853.58 83.9848 1844.45 111.575 1866.61 111.555C1864.93 117.255 1858.69 117.885 1855.08 120.465C1852.23 122.505 1852.85 126.265 1848.08 127.125C1842.92 128.035 1845.3 121.475 1842.74 119.715C1838.73 116.945 1830.93 121.385 1829.51 110.575C1848.2 115.055 1839.03 94.7048 1847.06 84.4048L1847 84.3448V84.3248ZM1891.98 45.5148C1890.73 60.2648 1880 67.3448 1870.46 76.5248C1883.46 80.7948 1889.79 93.4448 1892.94 105.685C1896.61 93.2648 1903.69 81.9948 1915.42 75.5948L1903.71 65.8748L1892 45.5248H1891.98V45.5148ZM1945.71 66.8648C1953.37 68.1048 1966.53 66.8648 1975.03 66.8648C1980.19 66.8648 1979.53 51.5148 1979.92 48.4148C1980.21 46.1648 1979.14 44.4948 1982.81 45.5648C1991.82 48.1848 1994.11 58.9548 1995.57 66.8648C2003.45 56.0148 2037.38 68.8648 2025.57 80.1948C2017.4 88.0548 2005.48 89.8148 1995.57 84.3248C1994.42 95.4448 1989.61 101.865 1978.92 105.625C1980.44 101.585 1981.11 84.3248 1975.03 84.3248H1938.87C1947.22 94.0048 1939.61 113.415 1956.46 111.505C1955.76 120.465 1945.79 117.515 1943.19 119.675C1942.13 120.545 1941.82 127.595 1937.89 128.915C1933.1 120.625 1925.44 119.095 1919.32 112.445C1942.58 111.905 1932.14 84.0948 1914.39 97.8948C1893.34 114.235 1920.41 147.125 1944.1 131.265L2061.98 76.5448C2062.96 75.2448 2058.6 72.9948 2057.48 72.3148C2034.83 58.2648 1993.15 40.9448 1967.53 29.6648C1957.13 25.0848 1938.27 15.0748 1927.73 15.1348C1913.23 15.2148 1904.27 30.5448 1908.46 43.6948C1914.25 61.9748 1940.75 56.1348 1930.88 42.7848C1926.83 37.2948 1917.29 41.9748 1919.33 36.8248C1921.36 31.6848 1928.38 32.8448 1931.02 30.9648C1933.35 29.2948 1933.07 24.4448 1934.85 23.1248C1942.04 17.7348 1940.79 27.5448 1943.25 29.5648C1945.56 31.4448 1954.24 31.3848 1956.44 36.8448C1957.3 42.4948 1949.87 38.1648 1946.55 40.5548C1944.24 42.2048 1943.34 60.2848 1940.82 64.8848C1942.81 64.4548 1944.65 66.7048 1945.71 66.8848L1945.69 66.8648H1945.71ZM2101.18 72.7948C2099.15 75.8248 2107.81 81.3948 2109.8 84.3948C2112.71 88.8148 2112.63 95.3948 2116.7 97.8848C2113.87 90.9548 2128.74 76.3448 2128.33 73.9048C2127.88 71.3048 2112.91 59.6648 2116.72 51.3348L2106.69 69.5548C2106.06 71.7448 2101.39 72.4848 2101.2 72.7748L2101.18 72.7948ZM2163.63 90.1648C2121.62 67.9648 2117.95 135.725 2155.93 124.175C2167.91 120.525 2166.93 99.9248 2152.9 101.765C2146.82 110.345 2160.03 111.775 2159.72 112.435C2156.44 119.405 2150.46 114.995 2150.06 115.405C2149.57 115.895 2150.22 121.365 2146.99 123.105C2142.89 125.335 2143.51 116.685 2141.85 115.615C2139.09 113.845 2132.74 118.275 2134.32 111.485C2145.95 113.855 2135.18 99.6848 2144.95 93.9048L2163.62 90.1648H2163.63ZM2134.88 28.5948C2129.15 34.2848 2128.08 54.6148 2134.39 60.0048C2143.19 67.4948 2160.02 60.8348 2169.49 57.1348L2154.89 59.2448C2148.64 57.8648 2142.15 56.8948 2140.64 49.9848C2139.14 43.0748 2143.32 38.0548 2134.31 39.6848C2134.82 32.9748 2144.51 33.6148 2147.02 26.1448C2150.38 35.5148 2152.3 32.3948 2159.71 36.8148L2151.89 39.7048V47.4448C2161.6 48.9948 2163.95 46.5748 2163.74 36.8348C2163.41 22.8448 2142.85 20.6948 2134.87 28.6048L2134.89 28.5848L2134.88 28.5948ZM2163.65 76.5448C2174.99 78.3348 2198.83 95.0548 2209.29 91.8748C2217.09 89.5048 2206.89 79.4148 2206.75 75.5948C2206.59 71.0748 2218.13 59.7248 2207.38 57.5848C2201.93 56.4948 2161.52 73.6748 2163.65 76.5248V76.5448Z" fill="#A38F10"/>
<path d="M2259.17 119.035C2261.01 117.365 2254.75 109.765 2271 115.345C2265.72 104.445 2275.34 110.455 2280.75 115.345C2280.61 111.325 2280.48 107.565 2281.67 103.625C2283.14 98.7348 2287.57 95.7448 2290.54 92.0848C2274.69 95.2048 2245 119.545 2233.05 99.6748C2225.68 87.4348 2233.87 84.1748 2233.97 75.6148C2234.05 69.0948 2228.81 64.6548 2230.33 56.6548C2236.47 24.4848 2281.91 58.1148 2284.69 55.1848L2280.78 35.7848C2275.42 38.2448 2269.76 44.2648 2271.03 33.8448L2259.32 37.7248C2261.24 25.6348 2255.53 31.3048 2246.71 29.8448C2237.9 28.3848 2229.45 17.4648 2228 8.65482C2238.85 10.3848 2246.63 16.3148 2258.26 16.5548C2279.68 16.9848 2304.41 0.544814 2324.4 12.8448C2326.8 14.3148 2332 20.2548 2332.55 20.2348C2334.35 20.1948 2337.71 9.69482 2342.15 10.6348C2345.14 11.5048 2348.62 20.2048 2350.14 20.2348C2350.69 20.2348 2355.89 14.3148 2358.29 12.8448C2379.67 -0.295186 2412.47 23.3848 2440.17 14.5748C2445.19 12.9848 2447.87 9.18482 2452.76 8.65482C2452.13 23.5348 2435.52 34.3648 2421.52 28.0548L2423.46 37.7348C2419.94 38.5448 2415.9 35.2548 2412.9 35.6548C2411.9 35.7948 2411.81 43.7648 2401.97 35.7948C2405.08 52.2848 2382.4 66.5848 2369.66 55.2348C2363.68 49.9148 2366.45 45.9248 2364.75 41.0348C2364.09 39.1348 2361.23 39.7148 2361.09 39.5248C2358.33 35.4348 2366.58 34.2448 2368.64 32.7148C2370.69 31.1848 2370.52 28.2148 2370.73 28.0548C2372.8 26.5848 2379.9 36.1648 2384.35 36.8048C2386.64 40.8748 2378.23 39.0548 2376.55 42.6048C2373.21 49.7048 2387.44 51.1648 2389.9 44.2148C2392.64 36.4748 2389.33 28.3848 2381.01 26.5148C2347.82 19.0848 2346.98 63.6548 2373.76 64.7548C2390.86 65.4748 2470.81 20.3948 2493.13 10.8348C2520.59 -0.945184 2551.55 -10.4352 2563.22 26.1048C2569.02 2.10482 2588.83 -2.57518 2611.23 1.71482C2653.04 15.5648 2696.34 47.4648 2736.78 61.4148C2749.31 65.7448 2767.29 66.0948 2770.99 49.9248C2777.99 19.4248 2728.36 17.2848 2736.61 44.1248C2739.68 54.1148 2756.55 47.1348 2747.81 40.6948C2745.6 39.0648 2740.95 41.3348 2742.08 36.7948C2746.75 36.6048 2752.09 28.1048 2752.81 28.0648C2753.57 28.0248 2765.18 36.0948 2765.5 36.7948C2767.08 40.3648 2762.35 39.0648 2761.67 41.0448C2759.97 45.9348 2762.73 49.9348 2756.76 55.2448C2744.02 66.5948 2721.34 52.2948 2724.45 35.8048C2719.09 38.2648 2713.45 44.2848 2714.68 33.8448L2702.97 37.7248L2704.91 28.0448C2689.8 35.1448 2673.11 22.2848 2672.66 6.74482C2704.83 35.7948 2748.03 -11.1452 2777.21 20.2848C2781.55 7.28482 2788.31 8.85482 2793.84 20.2848C2821.54 -11.3252 2866 35.9648 2897.48 6.76482C2897.03 22.3048 2880.32 35.1748 2865.23 28.0648L2867.17 37.7448L2855.46 33.8648C2856.71 44.3048 2851.04 38.2848 2845.69 35.8248C2848.8 52.3148 2826.12 66.6148 2813.38 55.2648C2807.42 49.9448 2810.17 45.9548 2808.47 41.0648C2807.79 39.0848 2803.06 40.3848 2804.64 36.8148C2804.95 36.1148 2816.56 28.0448 2817.33 28.0848C2818.05 28.1248 2823.39 36.6248 2828.06 36.8148C2829.19 41.3548 2824.54 39.0848 2822.33 40.7148C2813.59 47.1548 2830.46 54.1448 2833.53 44.1448C2835.74 36.9848 2833.34 27.7248 2825.09 26.1748C2787.52 19.0348 2789.48 76.5848 2833.36 61.4448C2862.52 51.3748 2899.43 28.0148 2929 14.7448C2958.57 1.47482 2993.86 -14.9852 3006.91 26.1348C3013.63 2.38482 3031.91 -3.00518 3054.92 1.74482C3086.86 8.36482 3142.49 46.2748 3176.62 59.4548C3190.34 64.7548 3210.57 69.4048 3214.62 49.9248C3221.36 17.5048 3171.46 19.4848 3180.22 44.2248C3182.68 51.1748 3196.91 49.7148 3193.57 42.6148C3191.91 39.0648 3183.48 40.8848 3185.77 36.8148C3190.23 36.1748 3197.32 26.6048 3199.39 28.0648C3199.6 28.2248 3199.43 31.1848 3201.48 32.7248C3203.53 34.2548 3211.78 35.4448 3209.03 39.5348C3208.89 39.7448 3206.04 39.1648 3205.37 41.0448C3203.67 45.9148 3206.43 49.9148 3200.46 55.2448C3187.72 66.5948 3165.04 52.2948 3168.15 35.8048C3158.32 43.7748 3158.22 35.8048 3157.22 35.6648C3154.25 35.2548 3150.18 38.5348 3146.67 37.7448L3148.61 28.0648C3132.66 35.3048 3118.14 22.2248 3116.36 6.76482C3141.4 30.4148 3176.19 4.76482 3202.27 8.80482C3210.91 10.1448 3218.9 20.3148 3219.98 20.2748C3221.5 20.2348 3224.98 11.5448 3227.97 10.6748C3232.41 9.74482 3235.77 20.2248 3237.57 20.2748C3238.12 20.2748 3243.32 14.3548 3245.72 12.8848C3265.74 0.584815 3290.44 16.9948 3311.86 16.5948C3323.51 16.3648 3331.27 10.4248 3342.12 8.69481C3340.67 17.5048 3332.52 28.4448 3323.45 29.9248C3314.38 31.3948 3308.93 25.6948 3310.84 37.8048L3299.13 33.9248C3300.38 44.3448 3294.71 38.3248 3289.38 35.8648C3292.43 39.0848 3280.94 57.3848 3288.32 55.2248C3300.48 51.6548 3320.84 35.3348 3333.41 45.5048C3346.21 55.8848 3336.07 66.5148 3336.17 75.6748C3336.27 84.8348 3345.04 88.7348 3336.31 100.895C3323.12 119.265 3295.89 94.0648 3279.57 93.0948C3287.45 97.4948 3290.48 106.445 3289.38 115.405C3294.79 110.495 3304.41 104.485 3299.13 115.405C3315.39 109.815 3309.14 117.425 3310.96 119.095C3311.86 119.925 3318.25 118.955 3321.14 119.735C3332.91 122.915 3340.24 130.365 3342.11 142.575C3332.1 139.525 3322.43 133.355 3311.62 133.085C3286.39 132.445 3257.79 155.725 3236.6 129.015C3232.08 149.695 3222.72 131.265 3219.99 131.265C3218.92 131.265 3211.58 138.055 3208.67 139.145C3185.39 147.895 3156.32 126.185 3129.14 135.865C3123.86 137.745 3120.66 141.845 3115.42 142.595C3118.68 126.935 3132.78 116.845 3148.63 121.255C3143.96 103.365 3150.59 114.875 3157.52 115.455C3158.34 115.515 3158.28 111.575 3159.57 111.395C3161.86 111.085 3167.37 114.385 3168.17 113.505C3168.44 113.215 3168.17 108.135 3169.13 105.725C3173.72 94.0648 3179.96 90.7048 3192.64 92.1048C3206.91 93.6748 3202.47 99.9048 3205.44 108.205C3205.6 108.655 3214.29 114.745 3207.86 115.425C3198.87 116.375 3203.15 117.505 3196.54 121.265C3194.92 113.855 3185.97 116.375 3183.83 112.515C3181.13 107.585 3194.91 111.525 3193.58 104.815C3192.82 100.995 3179.45 96.7448 3179.82 112.495C3180.03 121.535 3187.85 125.635 3196.49 125.305C3224.54 124.235 3223.82 74.2348 3179.95 89.2948C3145.94 100.875 3072.58 149.835 3042.07 150.455C3024.89 150.805 3010.05 140.405 3007.84 123.155L3000.88 136.605C2994.35 145.645 2984.91 150.265 2973.63 150.475C2945.15 150.975 2867.67 101.595 2835.2 89.8448C2823.61 85.6548 2804.47 82.2748 2799.59 97.8348C2790.13 127.965 2836.75 135.495 2834.05 108.585C2833.21 100.165 2826.45 99.1748 2820.21 104.765C2818.86 111.475 2832.66 107.535 2829.94 112.465C2827.93 116.115 2822.96 114.525 2820.69 115.915C2819.2 116.825 2817.92 123.775 2814.36 121.215C2812.74 120.035 2816.78 116.865 2805.94 115.355C2799.76 114.485 2808.11 108.525 2808.29 108.095C2809.72 104.545 2809.87 96.2948 2813.69 93.9348C2827.59 85.2848 2850.28 97.7148 2845.63 115.435C2854.86 106.875 2855.52 115.275 2856.22 115.265C2858.31 115.165 2861.89 112.355 2865.15 113.495V121.275C2880.81 116.095 2895.13 127.305 2898.38 142.595C2888.84 138.485 2881.14 132.935 2870.02 132.735C2845.51 132.325 2811.09 154.095 2793.81 128.995C2791.91 128.895 2792.42 138.195 2785.95 138.855C2777.62 139.685 2780.18 131.675 2775.28 129.035C2760.11 154.165 2723.6 132.375 2700.01 132.745C2688.91 132.915 2681.21 138.465 2671.65 142.605C2674.89 127.315 2689.22 116.105 2704.86 121.285V113.505C2708.12 112.365 2711.7 115.175 2713.81 115.275C2714.51 115.315 2715.16 106.895 2724.4 115.445C2722.86 98.5248 2732.43 90.8248 2748.87 92.1448C2761.48 93.1748 2758.33 99.4048 2761.73 108.115C2762.45 109.975 2765.37 110.075 2765.5 110.555C2767.47 117.615 2762.74 114.375 2758.95 115.735C2755.45 116.995 2755.94 121.015 2755.65 121.225C2752.05 123.765 2750.82 116.855 2749.32 115.925C2747.05 114.525 2741.97 116.085 2740.07 112.475C2737.53 107.645 2748.85 111.055 2749.82 106.655C2749.64 100.135 2738.11 99.9248 2736.43 105.025C2732.66 116.395 2739.13 124.775 2750.84 125.265C2780 126.485 2781.43 73.7148 2736.18 89.2548C2698.44 102.215 2658.35 130.525 2620.19 144.865C2595.62 154.105 2569.82 152.625 2564.11 123.195L2557.15 136.645C2550.64 145.645 2541.2 150.265 2529.94 150.475C2500.72 150.995 2424.29 101.695 2391.51 89.8448C2372.77 83.0548 2351.23 85.5748 2355.12 110.435C2357.89 128.115 2389.87 130.865 2390.28 112.455C2390.65 96.6948 2377.26 100.945 2376.52 104.775C2375.17 111.485 2388.97 107.545 2386.27 112.475C2384.14 116.335 2375.19 113.815 2373.57 121.225C2366.96 117.485 2371.24 116.335 2362.25 115.385C2355.8 114.705 2364.5 108.615 2364.67 108.165C2367.64 99.8648 2363.18 93.6348 2377.47 92.0648C2390.18 90.6648 2396.41 94.0248 2400.98 105.685C2401.94 108.095 2401.66 113.175 2401.94 113.465C2402.74 114.335 2408.23 111.035 2410.54 111.355C2411.83 111.525 2411.77 115.465 2412.59 115.415C2419.53 114.855 2426.16 103.345 2421.48 121.215C2437.31 116.815 2451.43 126.905 2454.69 142.555C2449.45 141.795 2446.25 137.705 2440.97 135.825C2413.78 126.165 2384.72 147.855 2361.44 139.105C2358.53 138.015 2351.2 131.225 2350.12 131.225C2347.38 131.225 2338.02 149.655 2333.51 128.975C2312.32 155.695 2283.73 132.405 2258.49 133.045C2247.68 133.315 2237.99 139.485 2228 142.535C2230.44 129.765 2236.31 122.895 2248.99 119.715C2251.88 118.995 2258.31 119.835 2259.15 119.055L2259.11 119.075L2259.17 119.035ZM2292.5 76.5448C2294.63 73.6948 2254.21 56.5248 2248.77 57.6048C2238.02 59.7348 2249.55 71.0948 2249.4 75.6148C2249.26 79.4348 2239.06 89.5248 2246.86 91.8948C2257.3 95.0548 2281.16 78.3548 2292.5 76.5648V76.5448ZM2313.49 54.7148C2311.81 56.5048 2303.99 59.1148 2301.25 59.2348L2286.65 57.1248C2307.84 66.0348 2329.95 69.5448 2325.59 38.8448C2322.33 15.7548 2285.01 21.3648 2292.77 44.2748C2294.27 48.7348 2300.41 47.4148 2304.22 47.4348V39.6948L2296.42 36.8048C2303.83 32.4048 2305.74 35.5048 2309.11 26.1348C2312.3 32.1148 2316.36 33.5048 2321.8 36.7848C2323.13 41.8448 2317.21 38.5848 2316.15 39.7748C2315 41.0748 2317.32 50.6448 2313.47 54.6948L2313.49 54.7148ZM2304.22 101.785C2287.16 100.445 2287.57 123.555 2305.2 125.145C2318.06 126.305 2324.61 121.345 2325.74 108.555C2327.85 84.7048 2311.49 82.5348 2292.51 90.1648L2308.69 92.4948C2319.21 95.5048 2314.65 109.685 2316.14 111.395C2317.14 112.555 2323.94 109.285 2321.81 115.375C2311.25 112.055 2313.58 121.975 2312.02 123.135C2307.37 126.585 2306.41 115.855 2306.06 115.435C2305.75 115.065 2299 118.115 2296.42 115.355C2292.53 111.205 2302.24 111.375 2303.36 109.705C2304.92 107.375 2304.1 104.345 2304.22 101.805V101.785ZM2339.44 51.3348C2343.27 58.9048 2327.38 72.6948 2327.85 75.2948C2328.3 77.7548 2341.71 90.7048 2340.4 97.8948C2341.67 97.9148 2344 88.1148 2345.58 85.5548C2349.88 78.5848 2361.41 75.5848 2349.47 69.5448L2339.44 51.3248V51.3348ZM2517.3 84.3248H2481.14C2475.06 84.3248 2475.73 101.575 2477.25 105.625C2466.54 101.885 2461.73 95.4548 2460.6 84.3248C2450.69 89.8148 2438.77 88.0548 2430.6 80.1948C2418.79 68.8448 2452.73 56.0148 2460.6 66.8648C2462.07 58.9248 2464.35 48.1748 2473.36 45.5648C2477.01 44.4948 2475.96 46.1648 2476.25 48.4148C2476.64 51.5148 2475.98 66.8648 2481.14 66.8648H2510.46C2511.16 66.8648 2513.45 64.4048 2515.35 64.8648C2512.83 60.2648 2511.93 42.1848 2509.62 40.5348C2506.28 38.1448 2498.87 42.4548 2499.73 36.8248C2501.94 31.3748 2510.62 31.4348 2512.92 29.5448C2515.38 27.5248 2514.13 17.7248 2521.33 23.1048C2523.09 24.4248 2522.83 29.2948 2525.16 30.9448C2527.8 32.8248 2534.84 31.7248 2536.85 36.8048C2538.86 41.8848 2529.36 37.2748 2525.3 42.7648C2515.43 56.1348 2541.91 61.9748 2547.72 43.6748C2551.88 30.5148 2542.93 15.1948 2528.45 15.1148C2517.92 15.0548 2499.05 25.0648 2488.65 29.6448C2463.02 40.9148 2421.35 58.2448 2398.7 72.2948C2397.59 72.9948 2393.23 75.2448 2394.2 76.5248L2512.08 131.245C2534.23 145.275 2560.71 119.375 2543.84 99.7148C2528.03 81.2648 2510.94 111.585 2536.86 112.445C2530.74 119.085 2523.08 120.635 2518.29 128.915C2514.36 127.595 2514.05 120.535 2512.99 119.675C2510.39 117.525 2500.42 120.475 2499.72 111.505C2516.57 113.405 2508.98 94.0048 2517.31 84.3248H2517.29H2517.3ZM2562.27 45.5348C2560.26 59.7748 2550.52 67.4248 2540.75 76.5248C2552.93 81.0448 2559.42 93.9648 2563.23 105.685C2566.2 92.6048 2573.39 81.6048 2585.71 75.5948L2572.03 63.9348L2562.28 45.5248V45.5448L2562.27 45.5348ZM2614.05 66.8648C2618.64 68.2048 2636.76 66.8648 2643.37 66.8648C2651.46 66.8648 2649.62 53.0148 2650.21 48.4148C2650.5 46.1848 2649.41 44.4948 2653.1 45.5648C2662.97 48.4148 2665.16 60.0048 2663.91 68.8148C2669.87 57.3448 2697.39 64.8948 2698.92 73.9348C2699.82 79.2348 2684.85 87.2448 2679.98 87.8648C2671.71 88.9148 2670.85 83.6748 2663.91 82.4148C2665.84 91.4948 2660.24 102.845 2651.17 105.665C2646.09 107.235 2650.94 96.6048 2649.86 91.5948C2649.47 89.7948 2646.54 84.3348 2645.35 84.3348H2609.19C2617.22 94.6348 2608.06 114.995 2626.74 110.505C2625.31 121.295 2617.53 116.865 2613.53 119.685C2612.28 120.555 2609.76 132.255 2605.3 128.955C2604.97 128.705 2604.64 123.545 2602.31 121.235C2599.51 118.445 2592.13 117.625 2589.64 112.465C2596.85 112.655 2606.61 104.835 2601.5 97.3348C2593.56 85.6348 2567.04 105.155 2581.8 126.055C2591.71 140.085 2605.16 134.355 2618.31 129.315L2732.31 76.5548C2733.85 74.5348 2715.77 66.3148 2713.47 65.2048C2683.56 50.8448 2646.62 31.3648 2616.36 19.9548C2595.97 12.2748 2573.67 15.0848 2578.36 42.1548C2581.9 62.6648 2611.08 55.9548 2601.23 42.8148C2597.11 37.3048 2587.65 41.9248 2589.66 36.8148C2591.81 31.4548 2598.67 33.0348 2600.94 31.5148C2602.46 30.4848 2602.6 24.7648 2605.2 23.1148C2612.94 18.1848 2610.81 27.2648 2613.58 29.5348C2615.89 31.4148 2624.56 31.3548 2626.77 36.8148C2627.57 42.3848 2620.61 38.1748 2616.94 40.5748C2614.11 42.4348 2609.02 65.3748 2614.09 66.8448L2614.05 66.8648ZM2783.15 55.2148C2782.84 55.5248 2782.76 60.8448 2780.92 63.6948C2778.79 66.9948 2770.99 72.3448 2771.52 75.3348C2771.7 76.2848 2779.46 84.0248 2781.31 87.0948C2783.85 91.3048 2781.08 97.3048 2787 95.9848C2783.46 88.5148 2799.2 77.2948 2798.61 73.9248C2798.34 72.3148 2791.22 66.5548 2789.21 63.6948C2787.74 61.6148 2787.06 51.3948 2783.11 55.2148H2783.15ZM2961 84.3248H2924.84C2923.65 84.3248 2920.72 89.7748 2920.32 91.5848C2919.23 96.5948 2924.07 107.225 2919.01 105.655C2909.94 102.845 2904.33 91.4948 2906.27 82.4048C2899.33 83.6648 2898.45 88.9248 2890.2 87.8548C2885.33 87.2348 2870.36 79.2248 2871.26 73.9248C2872.78 64.8848 2900.31 57.3348 2906.27 68.8048C2905.02 59.9748 2907.21 48.4148 2917.08 45.5548C2920.75 44.4848 2919.68 46.1748 2919.97 48.4048C2920.58 53.0048 2918.74 66.8548 2926.81 66.8548H2956.13C2960.49 66.8548 2956.58 42.7348 2953.28 40.5848C2949.61 38.1748 2942.63 42.3748 2943.45 36.8248C2945.66 31.3748 2954.34 31.4348 2956.64 29.5448C2959.42 27.2748 2957.28 18.1948 2965.03 23.1248C2967.63 24.7748 2967.77 30.4948 2969.29 31.5248C2971.56 33.0348 2978.42 31.4648 2980.57 36.8248C2982.58 41.9248 2973.12 37.3148 2969 42.8248C2959.15 55.9648 2988.33 62.6548 2991.87 42.1648C2996.56 15.0948 2974.24 12.2848 2953.87 19.9648C2923.59 31.3748 2886.67 50.8548 2856.76 65.2148C2854.45 66.3248 2836.37 74.5248 2837.92 76.5648C2882.82 93.9148 2924.2 119.875 2969.92 134.895C2989.29 136.755 3001.33 110.195 2985.54 97.9348C2967.58 83.9848 2958.45 111.575 2980.61 111.555C2978.93 117.255 2972.69 117.885 2969.08 120.465C2966.23 122.505 2966.85 126.265 2962.08 127.125C2956.92 128.035 2959.3 121.475 2956.74 119.715C2952.73 116.945 2944.93 121.385 2943.51 110.575C2962.2 115.055 2953.03 94.7048 2961.06 84.4048L2961 84.3448V84.3248ZM3005.98 45.5148C3004.73 60.2648 2994 67.3448 2984.46 76.5248C2997.46 80.7948 3003.79 93.4448 3006.94 105.685C3010.61 93.2648 3017.69 81.9948 3029.42 75.5948L3017.71 65.8748L3006 45.5248H3005.98V45.5148ZM3059.71 66.8648C3067.37 68.1048 3080.53 66.8648 3089.03 66.8648C3094.19 66.8648 3093.53 51.5148 3093.92 48.4148C3094.21 46.1648 3093.14 44.4948 3096.81 45.5648C3105.82 48.1848 3108.11 58.9548 3109.57 66.8648C3117.45 56.0148 3151.38 68.8648 3139.57 80.1948C3131.4 88.0548 3119.48 89.8148 3109.57 84.3248C3108.42 95.4448 3103.61 101.865 3092.92 105.625C3094.44 101.585 3095.11 84.3248 3089.03 84.3248H3052.87C3061.22 94.0048 3053.61 113.415 3070.46 111.505C3069.76 120.465 3059.79 117.515 3057.19 119.675C3056.13 120.545 3055.82 127.595 3051.89 128.915C3047.1 120.625 3039.44 119.095 3033.32 112.445C3056.58 111.905 3046.14 84.0948 3028.39 97.8948C3007.34 114.235 3034.41 147.125 3058.1 131.265L3175.98 76.5448C3176.96 75.2448 3172.6 72.9948 3171.48 72.3148C3148.83 58.2648 3107.15 40.9448 3081.53 29.6648C3071.13 25.0848 3052.27 15.0748 3041.73 15.1348C3027.23 15.2148 3018.27 30.5448 3022.46 43.6948C3028.25 61.9748 3054.75 56.1348 3044.88 42.7848C3040.83 37.2948 3031.29 41.9748 3033.33 36.8248C3035.36 31.6848 3042.38 32.8448 3045.02 30.9648C3047.35 29.2948 3047.07 24.4448 3048.85 23.1248C3056.04 17.7348 3054.79 27.5448 3057.25 29.5648C3059.56 31.4448 3068.24 31.3848 3070.44 36.8448C3071.3 42.4948 3063.87 38.1648 3060.55 40.5548C3058.24 42.2048 3057.34 60.2848 3054.82 64.8848C3056.81 64.4548 3058.65 66.7048 3059.71 66.8848L3059.69 66.8648H3059.71ZM3215.18 72.7948C3213.15 75.8248 3221.81 81.3948 3223.8 84.3948C3226.71 88.8148 3226.63 95.3948 3230.7 97.8848C3227.87 90.9548 3242.74 76.3448 3242.33 73.9048C3241.88 71.3048 3226.91 59.6648 3230.72 51.3348L3220.69 69.5548C3220.06 71.7448 3215.39 72.4848 3215.2 72.7748L3215.18 72.7948ZM3277.63 90.1648C3235.62 67.9648 3231.95 135.725 3269.93 124.175C3281.91 120.525 3280.93 99.9248 3266.9 101.765C3260.82 110.345 3274.03 111.775 3273.72 112.435C3270.44 119.405 3264.46 114.995 3264.06 115.405C3263.57 115.895 3264.22 121.365 3260.99 123.105C3256.89 125.335 3257.51 116.685 3255.85 115.615C3253.09 113.845 3246.74 118.275 3248.32 111.485C3259.95 113.855 3249.18 99.6848 3258.95 93.9048L3277.62 90.1648H3277.63ZM3248.88 28.5948C3243.15 34.2848 3242.08 54.6148 3248.39 60.0048C3257.19 67.4948 3274.02 60.8348 3283.49 57.1348L3268.89 59.2448C3262.64 57.8648 3256.15 56.8948 3254.64 49.9848C3253.14 43.0748 3257.32 38.0548 3248.31 39.6848C3248.82 32.9748 3258.51 33.6148 3261.02 26.1448C3264.38 35.5148 3266.3 32.3948 3273.71 36.8148L3265.89 39.7048V47.4448C3275.6 48.9948 3277.95 46.5748 3277.74 36.8348C3277.41 22.8448 3256.85 20.6948 3248.87 28.6048L3248.89 28.5848L3248.88 28.5948ZM3277.65 76.5448C3288.99 78.3348 3312.83 95.0548 3323.29 91.8748C3331.09 89.5048 3320.89 79.4148 3320.75 75.5948C3320.59 71.0748 3332.13 59.7248 3321.38 57.5848C3315.93 56.4948 3275.52 73.6748 3277.65 76.5248V76.5448Z" fill="#A38F10"/>
</svg>
