<?xml version="1.0" encoding="UTF-8"?>
<svg id="_Слой_1" data-name="Слой 1" xmlns="http://www.w3.org/2000/svg" viewBox="0 0 1140.15 192.04">
  <defs>
    <style>
      .cls-1 {
        fill: #afafaf;
      }
    </style>
  </defs>
  <path class="cls-1" d="M44.18,139.81c1.84-1.67-4.42-9.27,11.83-3.69-5.28-10.9,4.34-4.89,9.75,0-.14-4.02-.27-7.78.92-11.72,1.47-4.89,5.9-7.88,8.87-11.54-15.85,3.12-45.54,27.46-57.49,7.59-7.37-12.24.82-15.5.92-24.06.08-6.52-5.16-10.96-3.64-18.96,6.14-32.17,51.58,1.46,54.36-1.47l-3.91-19.4c-5.36,2.46-11.02,8.48-9.75-1.94l-11.71,3.88c1.92-12.09-3.79-6.42-12.61-7.88-8.81-1.46-17.26-12.38-18.71-21.19,10.85,1.73,18.63,7.66,30.26,7.9,21.42.43,46.15-16.01,66.14-3.71,2.4,1.47,7.6,7.41,8.15,7.39,1.8-.04,5.16-10.54,9.6-9.6,2.99.87,6.47,9.57,7.99,9.6.55,0,5.75-5.92,8.15-7.39,21.38-13.14,54.18,10.54,81.88,1.73,5.02-1.59,7.7-5.39,12.59-5.92-.63,14.88-17.24,25.71-31.24,19.4l1.94,9.68c-3.52.81-7.56-2.48-10.56-2.08-1,.14-1.09,8.11-10.93.14,3.11,16.49-19.57,30.79-32.31,19.44-5.98-5.32-3.21-9.31-4.91-14.2-.66-1.9-3.52-1.32-3.66-1.51-2.76-4.09,5.49-5.28,7.55-6.81,2.05-1.53,1.88-4.5,2.09-4.66,2.07-1.47,9.17,8.11,13.62,8.75,2.29,4.07-6.12,2.25-7.8,5.8-3.34,7.1,10.89,8.56,13.35,1.61,2.74-7.74-.57-15.83-8.89-17.7-33.19-7.43-34.03,37.14-7.25,38.24,17.1.72,97.05-44.36,119.37-53.92,27.46-11.78,58.42-21.27,70.09,15.27,5.8-24,25.61-28.68,48.01-24.39,41.81,13.85,85.11,45.75,125.55,59.7,12.53,4.33,30.51,4.68,34.21-11.49,7-30.5-42.63-32.64-34.38-5.8,3.07,9.99,19.94,3.01,11.2-3.43-2.21-1.63-6.86.64-5.73-3.9,4.67-.19,10.01-8.69,10.73-8.73.76-.04,12.37,8.03,12.69,8.73,1.58,3.57-3.15,2.27-3.83,4.25-1.7,4.89,1.06,8.89-4.91,14.2-12.74,11.35-35.42-2.95-32.31-19.44-5.36,2.46-11,8.48-9.77-1.96l-11.71,3.88,1.94-9.68c-15.11,7.1-31.8-5.76-32.25-21.3,32.17,29.05,75.37-17.89,104.55,13.54,4.34-13,11.1-11.43,16.63,0,27.7-31.61,72.16,15.68,103.64-13.52-.45,15.54-17.16,28.41-32.25,21.3l1.94,9.68-11.71-3.88c1.25,10.44-4.42,4.42-9.77,1.96,3.11,16.49-19.57,30.79-32.31,19.44-5.96-5.32-3.21-9.31-4.91-14.2-.68-1.98-5.41-.68-3.83-4.25.31-.7,11.92-8.77,12.69-8.73.72.04,6.06,8.54,10.73,8.73,1.13,4.54-3.52,2.27-5.73,3.9-8.74,6.44,8.13,13.43,11.2,3.43,2.21-7.16-.19-16.42-8.44-17.97-37.57-7.14-35.61,50.41,8.27,35.27,29.16-10.07,66.07-33.43,95.64-46.7,29.57-13.27,64.86-29.73,77.91,11.39,6.72-23.75,25-29.14,48.01-24.39,31.94,6.62,87.57,44.53,121.7,57.71,13.72,5.3,33.95,9.95,38-9.53,6.74-32.42-43.16-30.44-34.4-5.7,2.46,6.95,16.69,5.49,13.35-1.61-1.66-3.55-10.09-1.73-7.8-5.8,4.46-.64,11.55-10.21,13.62-8.75.21.16.04,3.12,2.09,4.66,2.05,1.53,10.3,2.72,7.55,6.81-.14.21-2.99-.37-3.66,1.51-1.7,4.87,1.06,8.87-4.91,14.2-12.74,11.35-35.42-2.95-32.31-19.44-9.83,7.97-9.93,0-10.93-.14-2.97-.41-7.04,2.87-10.55,2.08l1.94-9.68c-15.95,7.24-30.47-5.84-32.25-21.3,25.04,23.65,59.83-2,85.91,2.04,8.64,1.34,16.63,11.51,17.71,11.47,1.52-.04,5-8.73,7.99-9.6,4.44-.93,7.8,9.55,9.6,9.6.55,0,5.75-5.92,8.15-7.39,20.02-12.3,44.72,4.11,66.14,3.71,11.65-.23,19.41-6.17,30.26-7.9-1.45,8.81-9.6,19.75-18.67,21.23-9.07,1.47-14.52-4.23-12.61,7.88l-11.71-3.88c1.25,10.42-4.42,4.4-9.75,1.94,3.05,3.22-8.44,21.52-1.06,19.36,12.16-3.57,32.52-19.89,45.09-9.72,12.8,10.38,2.66,21.01,2.76,30.17.1,9.16,8.87,13.06.14,25.22-13.19,18.37-40.42-6.83-56.74-7.8,7.88,4.4,10.91,13.35,9.81,22.31,5.41-4.91,15.03-10.92,9.75,0,16.26-5.59,10.01,2.02,11.83,3.69.9.83,7.29-.14,10.18.64,11.77,3.18,19.1,10.63,20.97,22.84-10.01-3.05-19.68-9.22-30.49-9.49-25.23-.64-53.83,22.64-75.02-4.07-4.52,20.68-13.88,2.25-16.61,2.25-1.07,0-8.41,6.79-11.32,7.88-23.28,8.75-52.35-12.96-79.53-3.28-5.28,1.88-8.48,5.98-13.72,6.73,3.26-15.66,17.36-25.75,33.21-21.34-4.67-17.89,1.96-6.38,8.89-5.8.82.06.76-3.88,2.05-4.06,2.29-.31,7.8,2.99,8.6,2.11.27-.29,0-5.37.96-7.78,4.59-11.66,10.83-15.02,23.51-13.62,14.27,1.57,9.83,7.8,12.8,16.1.16.45,8.85,6.54,2.42,7.22-8.99.95-4.71,2.08-11.32,5.84-1.62-7.41-10.57-4.89-12.71-8.75-2.7-4.93,11.08-.99,9.75-7.7-.76-3.82-14.13-8.07-13.76,7.68.21,9.04,8.03,13.14,16.67,12.81,28.05-1.07,27.33-51.07-16.54-36.01-34.01,11.58-107.37,60.54-137.88,61.16-17.18.35-32.02-10.05-34.23-27.3l-6.96,13.45c-6.53,9.04-15.97,13.66-27.25,13.87-28.48.5-105.96-48.88-138.43-60.63-11.59-4.19-30.73-7.57-35.61,7.99-9.46,30.13,37.16,37.66,34.46,10.75-.84-8.42-7.6-9.41-13.84-3.82-1.35,6.71,12.45,2.77,9.73,7.7-2.01,3.65-6.98,2.06-9.25,3.45-1.49.91-2.77,7.86-6.33,5.3-1.62-1.18,2.42-4.35-8.42-5.86-6.18-.87,2.17-6.83,2.35-7.26,1.43-3.55,1.58-11.8,5.4-14.16,13.9-8.65,36.59,3.78,31.94,21.5,9.23-8.56,9.89-.16,10.59-.17,2.09-.1,5.67-2.91,8.93-1.77v7.78c15.66-5.18,29.98,6.03,33.23,21.32-9.54-4.11-17.24-9.66-28.36-9.86-24.51-.41-58.93,21.36-76.21-3.74-1.9-.1-1.39,9.2-7.86,9.86-8.33.83-5.77-7.18-10.67-9.82-15.17,25.13-51.68,3.34-75.27,3.71-11.1.17-18.8,5.72-28.36,9.86,3.24-15.29,17.57-26.5,33.21-21.32v-7.78c3.26-1.14,6.84,1.67,8.95,1.77.7.04,1.35-8.38,10.59.17-1.54-16.92,8.03-24.62,24.47-23.3,12.61,1.03,9.46,7.26,12.86,15.97.72,1.86,3.64,1.96,3.77,2.44,1.97,7.06-2.76,3.82-6.55,5.18-3.5,1.26-3.01,5.28-3.3,5.49-3.6,2.54-4.83-4.37-6.33-5.3-2.27-1.4-7.35.16-9.25-3.45-2.54-4.83,8.78-1.42,9.75-5.82-.18-6.52-11.71-6.73-13.39-1.63-3.77,11.37,2.7,19.75,14.41,20.24,29.16,1.22,30.59-51.55-14.66-36.01-37.74,12.96-77.83,41.27-115.99,55.61-24.57,9.24-50.37,7.76-56.08-21.67l-6.96,13.45c-6.51,9-15.95,13.62-27.21,13.83-29.22.52-105.65-48.78-138.43-60.63-18.74-6.79-40.28-4.27-36.39,20.59,2.77,17.68,34.75,20.43,35.16,2.02.37-15.76-13.02-11.51-13.76-7.68-1.35,6.71,12.45,2.77,9.75,7.7-2.13,3.86-11.08,1.34-12.7,8.75-6.61-3.74-2.33-4.89-11.32-5.84-6.45-.68,2.25-6.77,2.42-7.22,2.97-8.3-1.49-14.53,12.8-16.1,12.71-1.4,18.94,1.96,23.51,13.62.96,2.41.68,7.49.96,7.78.8.87,6.29-2.43,8.6-2.11,1.29.17,1.23,4.11,2.05,4.06,6.94-.56,13.57-12.07,8.89,5.8,15.83-4.4,29.95,5.69,33.21,21.34-5.24-.76-8.44-4.85-13.72-6.73-27.19-9.66-56.25,12.03-79.53,3.28-2.91-1.09-10.24-7.88-11.32-7.88-2.74,0-12.1,18.43-16.61-2.25-21.19,26.72-49.78,3.43-75.02,4.07-10.81.27-20.5,6.44-30.49,9.49,2.44-12.77,8.31-19.64,20.99-22.82,2.89-.72,9.32.12,10.16-.66l-.04.02ZM77.51,97.32c2.13-2.85-38.29-20.02-43.73-18.94-10.75,2.13.78,13.49.63,18.01-.14,3.82-10.34,13.91-2.54,16.28,10.44,3.16,34.3-13.54,45.64-15.33v-.02ZM98.5,75.49c-1.68,1.79-9.5,4.4-12.24,4.52l-14.6-2.11c21.19,8.91,43.3,12.42,38.94-18.28-3.26-23.09-40.58-17.48-32.82,5.43,1.5,4.46,7.64,3.14,11.45,3.16v-7.74l-7.8-2.89c7.41-4.4,9.32-1.3,12.69-10.67,3.19,5.98,7.25,7.37,12.69,10.65,1.33,5.06-4.59,1.8-5.65,2.99-1.15,1.3,1.17,10.87-2.68,14.92l.02.02ZM89.23,122.56c-17.06-1.34-16.65,21.77.98,23.36,12.86,1.16,19.41-3.8,20.54-16.59,2.11-23.85-14.25-26.02-33.23-18.39l16.18,2.33c10.52,3.01,5.96,17.19,7.45,18.9,1,1.16,7.8-2.11,5.67,3.98-10.56-3.32-8.23,6.6-9.79,7.76-4.65,3.45-5.61-7.28-5.96-7.7-.31-.37-7.06,2.68-9.64-.08-3.89-4.15,5.82-3.98,6.94-5.65,1.56-2.33.74-5.36.86-7.9v-.02ZM124.45,72.11c3.83,7.57-12.06,21.36-11.59,23.96.45,2.46,13.86,15.41,12.55,22.6,1.27.02,3.6-9.78,5.18-12.34,4.3-6.97,15.83-9.97,3.89-16.01l-10.03-18.22h0ZM302.31,105.1h-36.16c-6.08,0-5.41,17.25-3.89,21.3-10.71-3.74-15.52-10.17-16.65-21.3-9.91,5.49-21.83,3.73-30-4.13-11.81-11.35,22.13-24.18,30-13.33,1.47-7.94,3.75-18.69,12.76-21.3,3.65-1.07,2.6.6,2.89,2.85.39,3.1-.27,18.45,4.89,18.45h29.32c.7,0,2.99-2.46,4.89-2-2.52-4.6-3.42-22.68-5.73-24.33-3.34-2.39-10.75,1.92-9.89-3.71,2.21-5.45,10.89-5.39,13.19-7.28,2.46-2.02,1.21-11.82,8.41-6.44,1.76,1.32,1.5,6.19,3.83,7.84,2.64,1.88,9.68.78,11.69,5.86,2.01,5.08-7.49.47-11.55,5.96-9.87,13.37,16.61,19.21,22.42.91,4.16-13.16-4.79-28.48-19.27-28.56-10.53-.06-29.4,9.95-39.8,14.53-25.63,11.27-67.3,28.6-89.95,42.65-1.11.7-5.47,2.95-4.5,4.23l117.88,54.72c22.15,14.03,48.63-11.87,31.76-31.53-15.81-18.45-32.9,11.87-6.98,12.73-6.12,6.64-13.78,8.19-18.57,16.47-3.93-1.32-4.24-8.38-5.3-9.24-2.6-2.15-12.57.8-13.27-8.17,16.85,1.9,9.26-17.5,17.59-27.18h-.02ZM347.28,66.31c-2.01,14.24-11.75,21.89-21.52,30.99,12.18,4.52,18.67,17.44,22.48,29.16,2.97-13.08,10.16-24.08,22.48-30.09l-13.68-11.66-9.75-18.41v.02h0ZM399.06,87.64c4.59,1.34,22.71,0,29.32,0,8.09,0,6.25-13.85,6.84-18.45.29-2.23-.8-3.92,2.89-2.85,9.87,2.85,12.06,14.44,10.81,23.25,5.96-11.47,33.48-3.92,35.01,5.12.9,5.3-14.07,13.31-18.94,13.93-8.27,1.05-9.13-4.19-16.07-5.45,1.93,9.08-3.67,20.43-12.74,23.25-5.08,1.57-.23-9.06-1.31-14.07-.39-1.8-3.32-7.26-4.51-7.26h-36.16c8.03,10.3-1.13,30.66,17.55,26.17-1.43,10.79-9.21,6.36-13.21,9.18-1.25.87-3.77,12.57-8.23,9.27-.33-.25-.66-5.41-2.99-7.72-2.8-2.79-10.18-3.61-12.67-8.77,7.21.19,16.97-7.63,11.86-15.13-7.94-11.7-34.46,7.82-19.7,28.72,9.91,14.03,23.36,8.3,36.51,3.26l114-52.76c1.54-2.02-16.54-10.24-18.84-11.35-29.91-14.36-66.85-33.84-97.11-45.25-20.39-7.68-42.69-4.87-38,22.2,3.54,20.51,32.72,13.8,22.87.66-4.12-5.51-13.58-.89-11.57-6,2.15-5.36,9.01-3.78,11.28-5.3,1.52-1.03,1.66-6.75,4.26-8.4,7.74-4.93,5.61,4.15,8.38,6.42,2.31,1.88,10.98,1.82,13.19,7.28.8,5.57-6.16,1.36-9.83,3.76-2.83,1.86-7.92,24.8-2.85,26.27l-.04.02ZM568.16,75.99c-.31.31-.39,5.63-2.23,8.48-2.13,3.3-9.93,8.65-9.4,11.64.18.95,7.94,8.69,9.79,11.76,2.54,4.21-.23,10.21,5.69,8.89-3.54-7.47,12.2-18.69,11.61-22.06-.27-1.61-7.39-7.37-9.4-10.23-1.47-2.08-2.15-12.3-6.1-8.48h.04ZM746.01,105.1h-36.16c-1.19,0-4.12,5.45-4.52,7.26-1.09,5.01,3.75,15.64-1.31,14.07-9.07-2.81-14.68-14.16-12.74-23.25-6.94,1.26-7.82,6.52-16.07,5.45-4.87-.62-19.84-8.63-18.94-13.93,1.52-9.04,29.05-16.59,35.01-5.12-1.25-8.83.94-20.39,10.81-23.25,3.67-1.07,2.6.62,2.89,2.85.61,4.6-1.23,18.45,6.84,18.45h29.32c4.36,0,.45-24.12-2.85-26.27-3.67-2.41-10.65,1.79-9.83-3.76,2.21-5.45,10.89-5.39,13.19-7.28,2.78-2.27.64-11.35,8.39-6.42,2.6,1.65,2.74,7.37,4.26,8.4,2.27,1.51,9.13-.06,11.28,5.3,2.01,5.1-7.45.49-11.57,6-9.85,13.14,19.33,19.83,22.87-.66,4.69-27.07-17.63-29.88-38-22.2-30.28,11.41-67.2,30.89-97.11,45.25-2.31,1.11-20.39,9.31-18.84,11.35,44.9,17.35,86.28,43.31,132,58.33,19.37,1.86,31.41-24.7,15.62-36.96-17.96-13.95-27.09,13.64-4.93,13.62-1.68,5.7-7.92,6.33-11.53,8.91-2.85,2.04-2.23,5.8-7,6.66-5.16.91-2.78-5.65-5.34-7.41-4.01-2.77-11.81,1.67-13.23-9.14,18.69,4.48,9.52-15.87,17.55-26.17l-.06-.06ZM790.99,66.29c-1.25,14.75-11.98,21.83-21.52,31.01,13,4.27,19.33,16.92,22.48,29.16,3.67-12.42,10.75-23.69,22.48-30.09l-11.71-9.72-11.71-20.35h-.02ZM844.72,87.64c7.66,1.24,20.82,0,29.32,0,5.16,0,4.5-15.35,4.89-18.45.29-2.25-.78-3.92,2.89-2.85,9.01,2.62,11.3,13.39,12.76,21.3,7.88-10.85,41.81,2,30,13.33-8.17,7.86-20.09,9.62-30,4.13-1.15,11.12-5.96,17.54-16.65,21.3,1.52-4.04,2.19-21.3-3.89-21.3h-36.16c8.35,9.68.74,29.09,17.59,27.18-.7,8.96-10.67,6.01-13.27,8.17-1.06.87-1.37,7.92-5.3,9.24-4.79-8.29-12.45-9.82-18.57-16.47,23.26-.54,12.82-28.35-4.93-14.55-21.05,16.34,6.02,49.23,29.71,33.37l117.88-54.72c.98-1.3-3.38-3.55-4.5-4.23-22.65-14.05-64.33-31.37-89.95-42.65-10.4-4.58-29.26-14.59-39.8-14.53-14.5.08-23.46,15.41-19.27,28.56,5.79,18.28,32.29,12.44,22.42-.91-4.05-5.49-13.59-.81-11.55-5.96,2.03-5.14,9.05-3.98,11.69-5.86,2.33-1.67,2.05-6.52,3.83-7.84,7.19-5.39,5.94,4.42,8.4,6.44,2.31,1.88,10.99,1.82,13.19,7.28.86,5.65-6.57,1.32-9.89,3.71-2.31,1.65-3.21,19.73-5.73,24.33,1.99-.43,3.83,1.82,4.89,2l-.02-.02ZM1000.19,93.57c-2.03,3.03,6.63,8.6,8.62,11.6,2.91,4.42,2.83,11,6.9,13.49-2.83-6.93,12.04-21.54,11.63-23.98-.45-2.6-15.42-14.24-11.61-22.57l-10.03,18.22c-.63,2.19-5.3,2.93-5.49,3.22l-.02.02ZM1062.64,110.94c-42.01-22.2-45.68,45.56-7.7,34.01,11.98-3.65,11-24.25-3.03-22.41-6.08,8.58,7.13,10.01,6.82,10.67-3.28,6.97-9.26,2.56-9.66,2.97-.49.49.16,5.96-3.07,7.7-4.1,2.23-3.48-6.42-5.14-7.49-2.76-1.77-9.11,2.66-7.53-4.13,11.63,2.37.86-11.8,10.63-17.58l18.67-3.74h0ZM1033.89,49.37c-5.73,5.69-6.8,26.02-.49,31.41,8.8,7.49,25.63.83,35.1-2.87l-14.6,2.11c-6.25-1.38-12.74-2.35-14.25-9.26-1.5-6.91,2.68-11.93-6.33-10.3.51-6.71,10.2-6.07,12.71-13.54,3.36,9.37,5.28,6.25,12.69,10.67l-7.82,2.89v7.74c9.71,1.55,12.06-.87,11.85-10.61-.33-13.99-20.89-16.14-28.87-8.23l.02-.02ZM1062.66,97.32c11.34,1.79,35.18,18.51,45.64,15.33,7.8-2.37-2.4-12.46-2.54-16.28-.16-4.52,11.38-15.87.63-18.01-5.45-1.09-45.86,16.09-43.73,18.94v.02Z"/>
</svg>