<svg width="1115" height="152" viewBox="0 0 1115 152" fill="none" xmlns="http://www.w3.org/2000/svg">
<path opacity="0.15" d="M31.18 119.81C33.02 118.14 26.76 110.54 43.01 116.12C37.73 105.22 47.35 111.23 52.76 116.12C52.62 112.1 52.49 108.34 53.68 104.4C55.15 99.5102 59.58 96.5202 62.55 92.8602C46.7 95.9802 17.01 120.32 5.06001 100.45C-2.30999 88.2102 5.88001 84.9502 5.98001 76.3902C6.06001 69.8702 0.82001 65.4302 2.34001 57.4302C8.48001 25.2602 53.92 58.8902 56.7 55.9602L52.79 36.5602C47.43 39.0202 41.77 45.0402 43.04 34.6202L31.33 38.5002C33.25 26.4102 27.54 32.0802 18.72 30.6202C9.91001 29.1602 1.46001 18.2402 0.0100098 9.43021C10.86 11.1602 18.64 17.0902 30.27 17.3302C51.69 17.7602 76.42 1.3202 96.41 13.6202C98.81 15.0902 104.01 21.0302 104.56 21.0102C106.36 20.9702 109.72 10.4702 114.16 11.4102C117.15 12.2802 120.63 20.9802 122.15 21.0102C122.7 21.0102 127.9 15.0902 130.3 13.6202C151.68 0.480205 184.48 24.1602 212.18 15.3502C217.2 13.7602 219.88 9.96021 224.77 9.43021C224.14 24.3102 207.53 35.1402 193.53 28.8302L195.47 38.5102C191.95 39.3202 187.91 36.0302 184.91 36.4302C183.91 36.5702 183.82 44.5402 173.98 36.5702C177.09 53.0602 154.41 67.3602 141.67 56.0102C135.69 50.6902 138.46 46.7002 136.76 41.8102C136.1 39.9102 133.24 40.4902 133.1 40.3002C130.34 36.2102 138.59 35.0202 140.65 33.4902C142.7 31.9602 142.53 28.9902 142.74 28.8302C144.81 27.3602 151.91 36.9402 156.36 37.5802C158.65 41.6502 150.24 39.8302 148.56 43.3802C145.22 50.4802 159.45 51.9402 161.91 44.9902C164.65 37.2502 161.34 29.1602 153.02 27.2902C119.83 19.8602 118.99 64.4302 145.77 65.5302C162.87 66.2502 242.82 21.1702 265.14 11.6102C292.6 -0.169793 323.56 -9.65979 335.23 26.8802C341.03 2.88021 360.84 -1.79979 383.24 2.49021C425.05 16.3402 468.35 48.2402 508.79 62.1902C521.32 66.5202 539.3 66.8702 543 50.7002C550 20.2002 500.37 18.0602 508.62 44.9002C511.69 54.8902 528.56 47.9102 519.82 41.4702C517.61 39.8402 512.96 42.1102 514.09 37.5702C518.76 37.3802 524.1 28.8802 524.82 28.8402C525.58 28.8002 537.19 36.8702 537.51 37.5702C539.09 41.1402 534.36 39.8402 533.68 41.8202C531.98 46.7102 534.74 50.7102 528.77 56.0202C516.03 67.3702 493.35 53.0702 496.46 36.5802C491.1 39.0402 485.46 45.0602 486.69 34.6202L474.98 38.5002L476.92 28.8202C461.81 35.9202 445.12 23.0602 444.67 7.52021C476.84 36.5702 520.04 -10.3698 549.22 21.0602C553.56 8.06021 560.32 9.63021 565.85 21.0602C593.55 -10.5498 638.01 36.7402 669.49 7.54021C669.04 23.0802 652.33 35.9502 637.24 28.8402L639.18 38.5202L627.47 34.6402C628.72 45.0802 623.05 39.0602 617.7 36.6002C620.81 53.0902 598.13 67.3902 585.39 56.0402C579.43 50.7202 582.18 46.7302 580.48 41.8402C579.8 39.8602 575.07 41.1602 576.65 37.5902C576.96 36.8902 588.57 28.8202 589.34 28.8602C590.06 28.9002 595.4 37.4002 600.07 37.5902C601.2 42.1302 596.55 39.8602 594.34 41.4902C585.6 47.9302 602.47 54.9202 605.54 44.9202C607.75 37.7602 605.35 28.5002 597.1 26.9502C559.53 19.8102 561.49 77.3602 605.37 62.2202C634.53 52.1502 671.44 28.7902 701.01 15.5202C730.58 2.25021 765.87 -14.2098 778.92 26.9102C785.64 3.16021 803.92 -2.22979 826.93 2.52021C858.87 9.14021 914.5 47.0502 948.63 60.2302C962.35 65.5302 982.58 70.1802 986.63 50.7002C993.37 18.2802 943.47 20.2602 952.23 45.0002C954.69 51.9502 968.92 50.4902 965.58 43.3902C963.92 39.8402 955.49 41.6602 957.78 37.5902C962.24 36.9502 969.33 27.3802 971.4 28.8402C971.61 29.0002 971.44 31.9602 973.49 33.5002C975.54 35.0302 983.79 36.2202 981.04 40.3102C980.9 40.5202 978.05 39.9402 977.38 41.8202C975.68 46.6902 978.44 50.6902 972.47 56.0202C959.73 67.3702 937.05 53.0702 940.16 36.5802C930.33 44.5502 930.23 36.5802 929.23 36.4402C926.26 36.0302 922.19 39.3102 918.68 38.5202L920.62 28.8402C904.67 36.0802 890.15 23.0002 888.37 7.54021C913.41 31.1902 948.2 5.54021 974.28 9.58021C982.92 10.9202 990.91 21.0902 991.99 21.0502C993.51 21.0102 996.99 12.3202 999.98 11.4502C1004.42 10.5202 1007.78 21.0002 1009.58 21.0502C1010.13 21.0502 1015.33 15.1302 1017.73 13.6602C1037.75 1.36021 1062.45 17.7702 1083.87 17.3702C1095.52 17.1402 1103.28 11.2002 1114.13 9.47021C1112.68 18.2802 1104.53 29.2202 1095.46 30.7002C1086.39 32.1702 1080.94 26.4702 1082.85 38.5802L1071.14 34.7002C1072.39 45.1202 1066.72 39.1002 1061.39 36.6402C1064.44 39.8602 1052.95 58.1602 1060.33 56.0002C1072.49 52.4302 1092.85 36.1102 1105.42 46.2802C1118.22 56.6602 1108.08 67.2902 1108.18 76.4502C1108.28 85.6102 1117.05 89.5102 1108.32 101.67C1095.13 120.04 1067.9 94.8402 1051.58 93.8702C1059.46 98.2702 1062.49 107.22 1061.39 116.18C1066.8 111.27 1076.42 105.26 1071.14 116.18C1087.4 110.59 1081.15 118.2 1082.97 119.87C1083.87 120.7 1090.26 119.73 1093.15 120.51C1104.92 123.69 1112.25 131.14 1114.12 143.35C1104.11 140.3 1094.44 134.13 1083.63 133.86C1058.4 133.22 1029.8 156.5 1008.61 129.79C1004.09 150.47 994.73 132.04 992 132.04C990.93 132.04 983.59 138.83 980.68 139.92C957.4 148.67 928.33 126.96 901.15 136.64C895.87 138.52 892.67 142.62 887.43 143.37C890.69 127.71 904.79 117.62 920.64 122.03C915.97 104.14 922.6 115.65 929.53 116.23C930.35 116.29 930.29 112.35 931.58 112.17C933.87 111.86 939.38 115.16 940.18 114.28C940.45 113.99 940.18 108.91 941.14 106.5C945.73 94.8402 951.97 91.4802 964.65 92.8802C978.92 94.4502 974.48 100.68 977.45 108.98C977.61 109.43 986.3 115.52 979.87 116.2C970.88 117.15 975.16 118.28 968.55 122.04C966.93 114.63 957.98 117.15 955.84 113.29C953.14 108.36 966.92 112.3 965.59 105.59C964.83 101.77 951.46 97.5202 951.83 113.27C952.04 122.31 959.86 126.41 968.5 126.08C996.55 125.01 995.83 75.0102 951.96 90.0702C917.95 101.65 844.59 150.61 814.08 151.23C796.9 151.58 782.06 141.18 779.85 123.93L772.89 137.38C766.36 146.42 756.92 151.04 745.64 151.25C717.16 151.75 639.68 102.37 607.21 90.6202C595.62 86.4302 576.48 83.0502 571.6 98.6102C562.14 128.74 608.76 136.27 606.06 109.36C605.22 100.94 598.46 99.9502 592.22 105.54C590.87 112.25 604.67 108.31 601.95 113.24C599.94 116.89 594.97 115.3 592.7 116.69C591.21 117.6 589.93 124.55 586.37 121.99C584.75 120.81 588.79 117.64 577.95 116.13C571.77 115.26 580.12 109.3 580.3 108.87C581.73 105.32 581.88 97.0702 585.7 94.7102C599.6 86.0602 622.29 98.4902 617.64 116.21C626.87 107.65 627.53 116.05 628.23 116.04C630.32 115.94 633.9 113.13 637.16 114.27V122.05C652.82 116.87 667.14 128.08 670.39 143.37C660.85 139.26 653.15 133.71 642.03 133.51C617.52 133.1 583.1 154.87 565.82 129.77C563.92 129.67 564.43 138.97 557.96 139.63C549.63 140.46 552.19 132.45 547.29 129.81C532.12 154.94 495.61 133.15 472.02 133.52C460.92 133.69 453.22 139.24 443.66 143.38C446.9 128.09 461.23 116.88 476.87 122.06V114.28C480.13 113.14 483.71 115.95 485.82 116.05C486.52 116.09 487.17 107.67 496.41 116.22C494.87 99.3002 504.44 91.6002 520.88 92.9202C533.49 93.9502 530.34 100.18 533.74 108.89C534.46 110.75 537.38 110.85 537.51 111.33C539.48 118.39 534.75 115.15 530.96 116.51C527.46 117.77 527.95 121.79 527.66 122C524.06 124.54 522.83 117.63 521.33 116.7C519.06 115.3 513.98 116.86 512.08 113.25C509.54 108.42 520.86 111.83 521.83 107.43C521.65 100.91 510.12 100.7 508.44 105.8C504.67 117.17 511.14 125.55 522.85 126.04C552.01 127.26 553.44 74.4902 508.19 90.0302C470.45 102.99 430.36 131.3 392.2 145.64C367.63 154.88 341.83 153.4 336.12 123.97L329.16 137.42C322.65 146.42 313.21 151.04 301.95 151.25C272.73 151.77 196.3 102.47 163.52 90.6202C144.78 83.8302 123.24 86.3502 127.13 111.21C129.9 128.89 161.88 131.64 162.29 113.23C162.66 97.4702 149.27 101.72 148.53 105.55C147.18 112.26 160.98 108.32 158.28 113.25C156.15 117.11 147.2 114.59 145.58 122C138.97 118.26 143.25 117.11 134.26 116.16C127.81 115.48 136.51 109.39 136.68 108.94C139.65 100.64 135.19 94.4102 149.48 92.8402C162.19 91.4402 168.42 94.8002 172.99 106.46C173.95 108.87 173.67 113.95 173.95 114.24C174.75 115.11 180.24 111.81 182.55 112.13C183.84 112.3 183.78 116.24 184.6 116.19C191.54 115.63 198.17 104.12 193.49 121.99C209.32 117.59 223.44 127.68 226.7 143.33C221.46 142.57 218.26 138.48 212.98 136.6C185.79 126.94 156.73 148.63 133.45 139.88C130.54 138.79 123.21 132 122.13 132C119.39 132 110.03 150.43 105.52 129.75C84.33 156.47 55.74 133.18 30.5 133.82C19.69 134.09 10 140.26 0.0100098 143.31C2.45001 130.54 8.32001 123.67 21 120.49C23.89 119.77 30.32 120.61 31.16 119.83L31.12 119.85L31.18 119.81ZM64.51 77.3202C66.64 74.4702 26.22 57.3002 20.78 58.3802C10.03 60.5102 21.56 71.8702 21.41 76.3902C21.27 80.2102 11.07 90.3002 18.87 92.6702C29.31 95.8302 53.17 79.1302 64.51 77.3402V77.3202ZM85.5 55.4902C83.82 57.2802 76 59.8902 73.26 60.0102L58.66 57.9002C79.85 66.8102 101.96 70.3202 97.6 39.6202C94.34 16.5302 57.02 22.1402 64.78 45.0502C66.28 49.5102 72.42 48.1902 76.23 48.2102V40.4702L68.43 37.5802C75.84 33.1802 77.75 36.2802 81.12 26.9102C84.31 32.8902 88.37 34.2802 93.81 37.5602C95.14 42.6202 89.22 39.3602 88.16 40.5502C87.01 41.8502 89.33 51.4202 85.48 55.4702L85.5 55.4902ZM76.23 102.56C59.17 101.22 59.58 124.33 77.21 125.92C90.07 127.08 96.62 122.12 97.75 109.33C99.86 85.4802 83.5 83.3102 64.52 90.9402L80.7 93.2702C91.22 96.2802 86.66 110.46 88.15 112.17C89.15 113.33 95.95 110.06 93.82 116.15C83.26 112.83 85.59 122.75 84.03 123.91C79.38 127.36 78.42 116.63 78.07 116.21C77.76 115.84 71.01 118.89 68.43 116.13C64.54 111.98 74.25 112.15 75.37 110.48C76.93 108.15 76.11 105.12 76.23 102.58V102.56ZM111.45 52.1102C115.28 59.6802 99.39 73.4702 99.86 76.0702C100.31 78.5302 113.72 91.4802 112.41 98.6702C113.68 98.6902 116.01 88.8902 117.59 86.3302C121.89 79.3602 133.42 76.3602 121.48 70.3202L111.45 52.1002V52.1102ZM289.31 85.1002H253.15C247.07 85.1002 247.74 102.35 249.26 106.4C238.55 102.66 233.74 96.2302 232.61 85.1002C222.7 90.5902 210.78 88.8302 202.61 80.9702C190.8 69.6202 224.74 56.7902 232.61 67.6402C234.08 59.7002 236.36 48.9502 245.37 46.3402C249.02 45.2702 247.97 46.9402 248.26 49.1902C248.65 52.2902 247.99 67.6402 253.15 67.6402H282.47C283.17 67.6402 285.46 65.1802 287.36 65.6402C284.84 61.0402 283.94 42.9602 281.63 41.3102C278.29 38.9202 270.88 43.2302 271.74 37.6002C273.95 32.1502 282.63 32.2102 284.93 30.3202C287.39 28.3002 286.14 18.5002 293.34 23.8802C295.1 25.2002 294.84 30.0702 297.17 31.7202C299.81 33.6002 306.85 32.5002 308.86 37.5802C310.87 42.6602 301.37 38.0502 297.31 43.5402C287.44 56.9102 313.92 62.7502 319.73 44.4502C323.89 31.2902 314.94 15.9702 300.46 15.8902C289.93 15.8302 271.06 25.8402 260.66 30.4202C235.03 41.6902 193.36 59.0202 170.71 73.0702C169.6 73.7702 165.24 76.0202 166.21 77.3002L284.09 132.02C306.24 146.05 332.72 120.15 315.85 100.49C300.04 82.0402 282.95 112.36 308.87 113.22C302.75 119.86 295.09 121.41 290.3 129.69C286.37 128.37 286.06 121.31 285 120.45C282.4 118.3 272.43 121.25 271.73 112.28C288.58 114.18 280.99 94.7802 289.32 85.1002H289.3H289.31ZM334.28 46.3102C332.27 60.5502 322.53 68.2002 312.76 77.3002C324.94 81.8202 331.43 94.7402 335.24 106.46C338.21 93.3802 345.4 82.3802 357.72 76.3702L344.04 64.7102L334.29 46.3002V46.3202L334.28 46.3102ZM386.06 67.6402C390.65 68.9802 408.77 67.6402 415.38 67.6402C423.47 67.6402 421.63 53.7902 422.22 49.1902C422.51 46.9602 421.42 45.2702 425.11 46.3402C434.98 49.1902 437.17 60.7802 435.92 69.5902C441.88 58.1202 469.4 65.6702 470.93 74.7102C471.83 80.0102 456.86 88.0202 451.99 88.6402C443.72 89.6902 442.86 84.4502 435.92 83.1902C437.85 92.2702 432.25 103.62 423.18 106.44C418.1 108.01 422.95 97.3802 421.87 92.3702C421.48 90.5702 418.55 85.1102 417.36 85.1102H381.2C389.23 95.4102 380.07 115.77 398.75 111.28C397.32 122.07 389.54 117.64 385.54 120.46C384.29 121.33 381.77 133.03 377.31 129.73C376.98 129.48 376.65 124.32 374.32 122.01C371.52 119.22 364.14 118.4 361.65 113.24C368.86 113.43 378.62 105.61 373.51 98.1102C365.57 86.4102 339.05 105.93 353.81 126.83C363.72 140.86 377.17 135.13 390.32 130.09L504.32 77.3302C505.86 75.3102 487.78 67.0902 485.48 65.9802C455.57 51.6202 418.63 32.1402 388.37 20.7302C367.98 13.0502 345.68 15.8602 350.37 42.9302C353.91 63.4402 383.09 56.7302 373.24 43.5902C369.12 38.0802 359.66 42.7002 361.67 37.5902C363.82 32.2302 370.68 33.8102 372.95 32.2902C374.47 31.2602 374.61 25.5402 377.21 23.8902C384.95 18.9602 382.82 28.0402 385.59 30.3102C387.9 32.1902 396.57 32.1302 398.78 37.5902C399.58 43.1602 392.62 38.9502 388.95 41.3502C386.12 43.2102 381.03 66.1502 386.1 67.6202L386.06 67.6402ZM555.16 55.9902C554.85 56.3002 554.77 61.6202 552.93 64.4702C550.8 67.7702 543 73.1202 543.53 76.1102C543.71 77.0602 551.47 84.8002 553.32 87.8702C555.86 92.0802 553.09 98.0802 559.01 96.7602C555.47 89.2902 571.21 78.0702 570.62 74.7002C570.35 73.0902 563.23 67.3302 561.22 64.4702C559.75 62.3902 559.07 52.1702 555.12 55.9902H555.16ZM733.01 85.1002H696.85C695.66 85.1002 692.73 90.5502 692.33 92.3602C691.24 97.3702 696.08 108 691.02 106.43C681.95 103.62 676.34 92.2702 678.28 83.1802C671.34 84.4402 670.46 89.7002 662.21 88.6302C657.34 88.0102 642.37 80.0002 643.27 74.7002C644.79 65.6602 672.32 58.1102 678.28 69.5802C677.03 60.7502 679.22 49.1902 689.09 46.3302C692.76 45.2602 691.69 46.9502 691.98 49.1802C692.59 53.7802 690.75 67.6302 698.82 67.6302H728.14C732.5 67.6302 728.59 43.5102 725.29 41.3602C721.62 38.9502 714.64 43.1502 715.46 37.6002C717.67 32.1502 726.35 32.2102 728.65 30.3202C731.43 28.0502 729.29 18.9702 737.04 23.9002C739.64 25.5502 739.78 31.2702 741.3 32.3002C743.57 33.8102 750.43 32.2402 752.58 37.6002C754.59 42.7002 745.13 38.0902 741.01 43.6002C731.16 56.7402 760.34 63.4302 763.88 42.9402C768.57 15.8702 746.25 13.0602 725.88 20.7402C695.6 32.1502 658.68 51.6302 628.77 65.9902C626.46 67.1002 608.38 75.3002 609.93 77.3402C654.83 94.6902 696.21 120.65 741.93 135.67C761.3 137.53 773.34 110.97 757.55 98.7102C739.59 84.7602 730.46 112.35 752.62 112.33C750.94 118.03 744.7 118.66 741.09 121.24C738.24 123.28 738.86 127.04 734.09 127.9C728.93 128.81 731.31 122.25 728.75 120.49C724.74 117.72 716.94 122.16 715.52 111.35C734.21 115.83 725.04 95.4802 733.07 85.1802L733.01 85.1202V85.1002ZM777.99 46.2902C776.74 61.0402 766.01 68.1202 756.47 77.3002C769.47 81.5702 775.8 94.2202 778.95 106.46C782.62 94.0402 789.7 82.7702 801.43 76.3702L789.72 66.6502L778.01 46.3002H777.99V46.2902ZM831.72 67.6402C839.38 68.8802 852.54 67.6402 861.04 67.6402C866.2 67.6402 865.54 52.2902 865.93 49.1902C866.22 46.9402 865.15 45.2702 868.82 46.3402C877.83 48.9602 880.12 59.7302 881.58 67.6402C889.46 56.7902 923.39 69.6402 911.58 80.9702C903.41 88.8302 891.49 90.5902 881.58 85.1002C880.43 96.2202 875.62 102.64 864.93 106.4C866.45 102.36 867.12 85.1002 861.04 85.1002H824.88C833.23 94.7802 825.62 114.19 842.47 112.28C841.77 121.24 831.8 118.29 829.2 120.45C828.14 121.32 827.83 128.37 823.9 129.69C819.11 121.4 811.45 119.87 805.33 113.22C828.59 112.68 818.15 84.8702 800.4 98.6702C779.35 115.01 806.42 147.9 830.11 132.04L947.99 77.3202C948.97 76.0202 944.61 73.7702 943.49 73.0902C920.84 59.0402 879.16 41.7202 853.54 30.4402C843.14 25.8602 824.28 15.8502 813.74 15.9102C799.24 15.9902 790.28 31.3202 794.47 44.4702C800.26 62.7502 826.76 56.9102 816.89 43.5602C812.84 38.0702 803.3 42.7502 805.34 37.6002C807.37 32.4602 814.39 33.6202 817.03 31.7402C819.36 30.0702 819.08 25.2202 820.86 23.9002C828.05 18.5102 826.8 28.3202 829.26 30.3402C831.57 32.2202 840.25 32.1602 842.45 37.6202C843.31 43.2702 835.88 38.9402 832.56 41.3302C830.25 42.9802 829.35 61.0602 826.83 65.6602C828.82 65.2302 830.66 67.4802 831.72 67.6602L831.7 67.6402H831.72ZM987.19 73.5702C985.16 76.6002 993.82 82.1702 995.81 85.1702C998.72 89.5902 998.64 96.1702 1002.71 98.6602C999.88 91.7302 1014.75 77.1202 1014.34 74.6802C1013.89 72.0802 998.92 60.4402 1002.73 52.1102L992.7 70.3302C992.07 72.5202 987.4 73.2602 987.21 73.5502L987.19 73.5702ZM1049.64 90.9402C1007.63 68.7402 1003.96 136.5 1041.94 124.95C1053.92 121.3 1052.94 100.7 1038.91 102.54C1032.83 111.12 1046.04 112.55 1045.73 113.21C1042.45 120.18 1036.47 115.77 1036.07 116.18C1035.58 116.67 1036.23 122.14 1033 123.88C1028.9 126.11 1029.52 117.46 1027.86 116.39C1025.1 114.62 1018.75 119.05 1020.33 112.26C1031.96 114.63 1021.19 100.46 1030.96 94.6802L1049.63 90.9402H1049.64ZM1020.89 29.3702C1015.16 35.0602 1014.09 55.3902 1020.4 60.7802C1029.2 68.2702 1046.03 61.6102 1055.5 57.9102L1040.9 60.0202C1034.65 58.6402 1028.16 57.6702 1026.65 50.7602C1025.15 43.8502 1029.33 38.8302 1020.32 40.4602C1020.83 33.7502 1030.52 34.3902 1033.03 26.9202C1036.39 36.2902 1038.31 33.1702 1045.72 37.5902L1037.9 40.4802V48.2202C1047.61 49.7702 1049.96 47.3502 1049.75 37.6102C1049.42 23.6202 1028.86 21.4702 1020.88 29.3802L1020.9 29.3602L1020.89 29.3702ZM1049.66 77.3202C1061 79.1102 1084.84 95.8302 1095.3 92.6502C1103.1 90.2802 1092.9 80.1902 1092.76 76.3702C1092.6 71.8502 1104.14 60.5002 1093.39 58.3602C1087.94 57.2702 1047.53 74.4502 1049.66 77.3002V77.3202Z" fill="#AFAFAF"/>
</svg>
