<?xml version="1.0" encoding="UTF-8"?>
<svg id="_Слой_1" data-name="Слой 1" xmlns="http://www.w3.org/2000/svg" viewBox="0 0 550 550">
  <defs>
    <style>
      .cls-1 {
        fill: #294d9c;
      }
    </style>
  </defs>
  <path class="cls-1" d="M371.92,63.11h-82.38c-11.75,0-14.54,10.14-14.54,10.14,0,0-2.73-10.14-14.54-10.14h-82.38l-26.94,26.94v273c0,72.71,55.56,123.85,123.85,123.85s123.85-51.14,123.85-123.85V90.04l-26.94-26.94ZM371.92,363.04c0,53.57-43.48,96.92-96.92,96.92s-96.92-43.34-96.92-96.92V90.04h193.84v273Z"/>
  <path class="cls-1" d="M231.99,101.4l1.43.09c.46.03.6.07.62.07.05.09.08.42.08.98v10.69c0,1.71,0,1.75-2,1.89-.37.02-.65.33-.65.7v.9c0,.39.31.71.71.71h8.53c.39,0,.71-.32.71-.71v-.9c0-.37-.29-.68-.65-.7-1.97-.14-1.97-.17-1.97-1.89v-14.81l-.28-.57-.62-.11c-2.45.74-4.29,1.2-5.96,1.48-.34.06-.59.35-.59.69v.78c0,.37.29.68.66.7Z"/>
  <path class="cls-1" d="M261.53,110.68c.63,0,1.23-.17,1.99-.57l.12-.06c-1.17,2.84-3.74,4.87-7.02,5.42l-.46.29-.12.53.17.98.69.58h.02c1.18-.04,3.49-.46,4.82-.98,4.68-1.88,7.47-6.07,7.47-11.19,0-4.77-2.73-7.97-6.78-7.97-4.81,0-7.05,4.1-7.05,6.87,0,3.53,2.58,6.1,6.12,6.1ZM261.96,100.22c2.32,0,2.44,4.42,2.44,5.31,0,.57-.03,1.08-.09,1.58-.42.18-.85.28-1.28.28-1.88,0-2.86-1.96-2.86-3.9,0-1.13.38-3.27,1.8-3.27Z"/>
  <path class="cls-1" d="M285.99,114.76c-1.45,0-2.59-.99-3.22-1.54-.54-.45-1.22-.44-1.79.01-.24.18-1.03.84-1.09,1.75,0,.61.29,1.16.88,1.68.65.51,1.97,1.1,3.54,1.1,2.06,0,8.57-2.25,8.57-7.48,0-2.15-1.26-3.9-3.31-4.74.39-.28.71-.52.99-.77.72-.68,1.11-1.57,1.11-2.49,0-2.73-2.11-4.57-5.26-4.57-1.72,0-3.35.72-4.52,2.03l-1.36,1.87.08.92.69.66.55.19.51-.29c.98-1.35,1.83-1.93,2.85-1.93.56,0,1.86.19,1.86,1.94,0,.85-.4,2.12-3.8,3.22-.35.11-.55.46-.47.82l.2.92.32.45.54.08c.43-.11.99-.23,1.47-.23,1.05,0,2.84.64,2.84,3.04,0,1.25-.29,3.35-2.2,3.35Z"/>
  <path class="cls-1" d="M304.77,112.38h6.67v1.1q0,1.47-1.97,1.63c-.37.03-.65.34-.65.7v.9c0,.39.31.71.71.71h8.15c.39,0,.71-.32.71-.71v-.9c0-.36-.28-.67-.64-.7q-1.72-.16-1.72-1.54v-1.19h1.95c.39,0,.71-.32.71-.71v-1.56c0-.39-.31-.71-.71-.71h-1.95v-10.84c0-.39-.31-.71-.71-.71h-1.73l-.55.27c-2.59,3.28-5.57,7.34-8.84,12.07l-.12.4v1.07c0,.39.31.71.71.71ZM311.44,104.34v5.07h-3.37c1.28-2.01,2.43-3.72,3.37-5.07Z"/>
  <path class="cls-1" d="M303.94,282.09l-3.42-3.4h0l-44.35-43.55c-11.17-11.91-19.69-25.37-19.69-42.22,0-23.17,18.11-45.26,46.28-45.26,35.63,0,49.09,34.95,39.78,53.82-5.26,10.67-19.74,16.42-27.74,13.64-.81-.28-.85-1.51-.09-1.92,6.26-3.31,11.27-9.93,11.31-19.61.04-11.17-8.12-21.96-22.5-21.96-16.26,0-33.9,20.95-9.39,45.95,16.44,16.77,53.06,49.4,67.03,73.78.46.81,1.48.69,1.83-.17,8.92-21.58-1.2-47.04-18.33-56.98-.68-.4-.77-1.29-.11-1.74,14.28-9.84,18.71-24.99,20.13-32.13,8.62-43.43-35.05-82.97-80.97-74.74-24.65,4.42-48.44,19.59-57.72,54.52-5.34,20.12-.57,39.45,8.66,56.61,6.17,11.47,19.42,27.83,31.44,39.08l3.42,3.4h0l44.35,43.55c11.17,11.91,19.69,25.37,19.69,42.22,0,23.17-18.1,45.26-46.28,45.26-35.63,0-49.09-34.95-39.78-53.82,5.26-10.67,19.74-16.42,27.74-13.64.81.28.85,1.51.09,1.92-6.26,3.31-11.27,9.93-11.31,19.61-.04,11.17,8.12,21.96,22.5,21.96,16.26,0,33.9-20.95,9.39-45.95-16.44-16.77-53.06-49.4-67.03-73.78-.46-.81-1.48-.7-1.83.17-8.92,21.58,1.2,47.04,18.33,56.98.68.4.77,1.29.11,1.74-14.28,9.84-18.71,24.99-20.13,32.13-8.62,43.43,35.05,82.97,80.97,74.74,24.65-4.42,48.44-19.59,57.72-54.52,5.34-20.12.57-39.45-8.66-56.61-6.17-11.47-19.42-27.83-31.44-39.08Z"/>
</svg>